<?xml version="1.0" encoding="UTF-8" standalone="no"?>
<!-- Created with Inkscape (http://www.inkscape.org/) -->

<svg
   xmlns:dc="http://purl.org/dc/elements/1.1/"
   xmlns:cc="http://creativecommons.org/ns#"
   xmlns:rdf="http://www.w3.org/1999/02/22-rdf-syntax-ns#"
   xmlns:svg="http://www.w3.org/2000/svg"
   xmlns="http://www.w3.org/2000/svg"
   xmlns:sodipodi="http://sodipodi.sourceforge.net/DTD/sodipodi-0.dtd"
   xmlns:inkscape="http://www.inkscape.org/namespaces/inkscape"
   width="173.42075mm"
   height="72.915375mm"
   viewBox="0 0 173.42075 72.915375"
   version="1.1"
   id="svg1616"
   preserveAspectRatio="xMidYMid meet"
   inkscape:version="0.92.4 5da689c313, 2019-01-14"
   sodipodi:docname="003_TripsToBrisbane.svg">
  <defs
     id="defs1610" />
  <sodipodi:namedview
     id="base"
     pagecolor="#ffffff"
     bordercolor="#666666"
     borderopacity="1.0"
     inkscape:pageopacity="0.0"
     inkscape:pageshadow="2"
     inkscape:zoom="0.7"
     inkscape:cx="72.085597"
     inkscape:cy="173.53786"
     inkscape:document-units="mm"
     inkscape:current-layer="layer1"
     showgrid="false"
     fit-margin-top="5"
     fit-margin-left="5"
     fit-margin-right="5"
     fit-margin-bottom="5"
     inkscape:window-width="1920"
     inkscape:window-height="1024"
     inkscape:window-x="1920"
     inkscape:window-y="20"
     inkscape:window-maximized="1" />
  <metadata
     id="metadata1613">
    <rdf:RDF>
      <cc:Work
         rdf:about="">
        <dc:format>image/svg+xml</dc:format>
        <dc:type
           rdf:resource="http://purl.org/dc/dcmitype/StillImage" />
        <dc:title />
      </cc:Work>
    </rdf:RDF>
  </metadata>
  <g
     inkscape:label="Layer 1"
     inkscape:groupmode="layer"
     id="layer1"
     transform="translate(-18.277703,-136.26728)">
    <path
       style="fill:none;stroke:#000000;stroke-width:0.79931033;stroke-linecap:butt;stroke-linejoin:miter;stroke-miterlimit:4;stroke-dasharray:3.19724131, 3.19724131;stroke-dashoffset:0;stroke-opacity:1"
       d="M 43.558974,161.62939 H 163.62109"
       id="path2517"
       inkscape:connector-curvature="0" />
    <g
       id="g6400"
       transform="translate(0.75595238,0.1889881)">
      <g
         transform="matrix(-0.07817796,0,0,0.07747843,151.1684,130.32173)"
         id="g2511">
        <g
           id="g2436">
          <g
             id="g2434">
            <path
               inkscape:connector-curvature="0"
               d="m 110.933,287.834 c -23.526,0 -42.667,19.14 -42.667,42.667 0,23.526 19.14,42.667 42.667,42.667 23.526,0 42.667,-19.14 42.667,-42.667 0,-23.526 -19.14,-42.667 -42.667,-42.667 z m 0,68.267 c -14.114,0 -25.6,-11.486 -25.6,-25.6 0,-14.114 11.486,-25.6 25.6,-25.6 14.114,0 25.6,11.486 25.6,25.6 0,14.114 -11.486,25.6 -25.6,25.6 z"
               id="path2432" />
          </g>
        </g>
        <g
           id="g2442">
          <g
             id="g2440">
            <path
               inkscape:connector-curvature="0"
               d="m 503.467,287.834 v -51.2 c 0,-3.669 -2.347,-6.938 -5.837,-8.098 l -48.145,-16.051 c -18.133,-30.711 -43.059,-59.938 -98.142,-69.589 -0.102,-0.017 -0.205,-0.034 -0.307,-0.051 -101.726,-14.063 -178.099,8.883 -227.132,68.224 -36.497,0.529 -73.754,8.158 -95.667,22.187 -11.349,7.27 -18.082,19.925 -18.714,33.391 l -0.99,21.188 c -4.71,0 -8.533,3.823 -8.533,8.533 v 34.133 c 0,4.71 3.823,8.533 8.533,8.533 h 34.133 c 4.736,0 8.525,-3.891 8.533,-8.627 0,-0.043 0.009,-0.085 0.009,-0.137 0.128,-32.879 26.812,-59.503 59.725,-59.503 32.99,0 59.733,26.743 59.733,59.733 -0.614,5.18 3.473,8.533 8.533,8.533 h 153.6 c 4.736,0 8.525,-3.891 8.533,-8.627 0,-0.043 0.008,-0.085 0.008,-0.137 0.128,-32.879 26.812,-59.503 59.725,-59.503 32.99,0 59.733,26.743 59.733,59.733 -0.614,5.18 3.473,8.533 8.533,8.533 h 34.133 c 4.71,0 8.533,-3.823 8.533,-8.533 v -34.133 c 0.003,-4.709 -3.82,-8.532 -8.53,-8.532 z m -230.4,-81.066 c 0,2.355 -1.911,4.267 -4.267,4.267 H 157.517 c -3.942,0 -5.734,-4.847 -2.825,-7.501 29.611,-26.991 67.268,-42.428 113.673,-46.532 2.5,-0.222 4.702,1.792 4.702,4.301 z m 102.519,0.042 c -0.026,2.338 -1.929,4.224 -4.267,4.224 H 294.4 c -2.355,0 -4.267,-1.911 -4.267,-4.267 v -46.592 c 0,-2.364 1.886,-4.309 4.241,-4.309 17.015,-0.017 35.021,1.22 54.161,3.866 9.114,1.604 17.237,3.806 24.627,6.511 1.698,0.623 2.782,2.27 2.765,4.079 z m 44.536,4.224 H 396.92 c -2.372,0 -4.292,-1.937 -4.267,-4.309 l 0.222,-23.125 c 0.034,-3.524 4.053,-5.436 6.895,-3.354 9.225,6.741 16.896,14.771 23.731,23.885 2.133,2.841 0.17,6.903 -3.379,6.903 z"
               id="path2438" />
          </g>
        </g>
        <g
           id="g2448">
          <g
             id="g2446">
            <path
               inkscape:connector-curvature="0"
               d="m 401.067,287.834 c -23.526,0 -42.667,19.14 -42.667,42.667 0,23.526 19.14,42.667 42.667,42.667 23.526,0 42.667,-19.14 42.667,-42.667 -10e-4,-23.526 -19.141,-42.667 -42.667,-42.667 z m 0,68.267 c -14.114,0 -25.6,-11.486 -25.6,-25.6 0,-14.114 11.486,-25.6 25.6,-25.6 14.114,0 25.6,11.486 25.6,25.6 0,14.114 -11.486,25.6 -25.6,25.6 z"
               id="path2444" />
          </g>
        </g>
      </g>
      <ellipse
         ry="3.0238097"
         rx="3.7797618"
         cy="146.94345"
         cx="96.664619"
         id="path2519"
         style="fill:#000000;fill-opacity:1;stroke:#000000;stroke-width:0.86500001;stroke-miterlimit:4;stroke-dasharray:none;stroke-dashoffset:0" />
      <ellipse
         inkscape:transform-center-y="-2.1870617"
         inkscape:transform-center-x="2.0362317"
         ry="2.4133091"
         rx="3.0166361"
         cy="149.83641"
         cx="100.1609"
         id="path2519-7"
         style="fill:#000000;fill-opacity:1;stroke:#000000;stroke-width:0.6903584;stroke-miterlimit:4;stroke-dasharray:none;stroke-dashoffset:0" />
      <ellipse
         inkscape:transform-center-y="-2.1870617"
         inkscape:transform-center-x="2.0362317"
         ry="2.4133091"
         rx="3.0166361"
         cy="152.67122"
         cx="103.94066"
         id="path2519-7-2"
         style="fill:#000000;fill-opacity:1;stroke:#000000;stroke-width:0.6903584;stroke-miterlimit:4;stroke-dasharray:none;stroke-dashoffset:0" />
      <ellipse
         inkscape:transform-center-y="-1.6386344"
         inkscape:transform-center-x="1.7626705"
         ry="1.8081568"
         rx="2.611356"
         cy="154.64471"
         cx="106.86997"
         id="path2519-7-2-4"
         style="fill:#000000;fill-opacity:1;stroke:#000000;stroke-width:0.55597824;stroke-miterlimit:4;stroke-dasharray:none;stroke-dashoffset:0" />
    </g>
    <text
       xml:space="preserve"
       style="font-style:normal;font-variant:normal;font-weight:bold;font-stretch:normal;font-size:7.05555534px;line-height:1.25;font-family:sans-serif;-inkscape-font-specification:'sans-serif, Bold';font-variant-ligatures:normal;font-variant-caps:normal;font-variant-numeric:normal;font-feature-settings:normal;text-align:start;letter-spacing:0px;word-spacing:0px;writing-mode:lr-tb;text-anchor:start;fill:#000000;fill-opacity:1;stroke:none;stroke-width:0.26458332"
       x="23.243252"
       y="164.19771"
       id="text2515-7"><tspan
         sodipodi:role="line"
         id="tspan2584"
         x="23.243252"
         y="164.19771">TVS</tspan></text>
    <text
       xml:space="preserve"
       style="font-style:normal;font-variant:normal;font-weight:bold;font-stretch:normal;font-size:7.05555534px;line-height:1.25;font-family:sans-serif;-inkscape-font-specification:'sans-serif, Bold';font-variant-ligatures:normal;font-variant-caps:normal;font-variant-numeric:normal;font-feature-settings:normal;text-align:start;letter-spacing:0px;word-spacing:0px;writing-mode:lr-tb;text-anchor:start;fill:#000000;fill-opacity:1;stroke:none;stroke-width:0.26458332"
       x="168.69783"
       y="164.19771"
       id="text2515-7-6"><tspan
         sodipodi:role="line"
         id="tspan2604"
         x="168.69783"
         y="164.19771">BRIS</tspan></text>
    <text
       xml:space="preserve"
       style="font-style:normal;font-variant:normal;font-weight:bold;font-stretch:normal;font-size:5.64444447px;line-height:1.25;font-family:sans-serif;-inkscape-font-specification:'sans-serif, Bold';font-variant-ligatures:normal;font-variant-caps:normal;font-variant-numeric:normal;font-feature-settings:normal;text-align:start;letter-spacing:0px;word-spacing:0px;writing-mode:lr-tb;text-anchor:start;fill:#000000;fill-opacity:1;stroke:none;stroke-width:0.26458332"
       x="167.20345"
       y="204.02341"
       id="text2515-7-6-9"><tspan
         sodipodi:role="line"
         id="tspan2626"
         x="167.20345"
         y="204.02341">TIMES</tspan></text>
    <text
       xml:space="preserve"
       style="font-style:normal;font-variant:normal;font-weight:bold;font-stretch:normal;font-size:5.64444447px;line-height:1.25;font-family:sans-serif;-inkscape-font-specification:'sans-serif, Bold';font-variant-ligatures:normal;font-variant-caps:normal;font-variant-numeric:normal;font-feature-settings:normal;text-align:start;letter-spacing:0px;word-spacing:0px;writing-mode:lr-tb;text-anchor:start;fill:#000000;fill-opacity:1;stroke:none;stroke-width:0.26458332"
       x="23.298981"
       y="182.21013"
       id="text2515-7-6-9-0"><tspan
         sodipodi:role="line"
         id="tspan2646"
         x="23.298981"
         y="182.21013">DRIVING FROM</tspan><tspan
         sodipodi:role="line"
         id="tspan2648"
         x="23.298981"
         y="189.26569">TOWNSVILLLE TO</tspan><tspan
         sodipodi:role="line"
         id="tspan2650"
         x="23.298981"
         y="196.32124">BRISBANE IN AN</tspan><tspan
         sodipodi:role="line"
         id="tspan2652"
         x="23.298981"
         y="203.3768">AVERAGE SIZED CAR</tspan></text>
    <text
       xml:space="preserve"
       style="font-style:normal;font-variant:normal;font-weight:bold;font-stretch:normal;font-size:35.27777863px;line-height:1.25;font-family:sans-serif;-inkscape-font-specification:'sans-serif, Bold';font-variant-ligatures:normal;font-variant-caps:normal;font-variant-numeric:normal;font-feature-settings:normal;text-align:start;letter-spacing:0px;word-spacing:0px;writing-mode:lr-tb;text-anchor:start;fill:#000000;fill-opacity:1;stroke:none;stroke-width:0.26458332"
       x="97.032585"
       y="204.18265"
       id="superset_metric"><tspan
         sodipodi:role="line"
         id="tspan2681"
         x="97.032585"
         y="204.18265">447</tspan></text>
  </g>
</svg>
