<?xml version="1.0" encoding="UTF-8" standalone="no"?>
<!-- Created with Inkscape (http://www.inkscape.org/) -->

<svg
   xmlns:dc="http://purl.org/dc/elements/1.1/"
   xmlns:cc="http://creativecommons.org/ns#"
   xmlns:rdf="http://www.w3.org/1999/02/22-rdf-syntax-ns#"
   xmlns:svg="http://www.w3.org/2000/svg"
   xmlns="http://www.w3.org/2000/svg"
   xmlns:sodipodi="http://sodipodi.sourceforge.net/DTD/sodipodi-0.dtd"
   xmlns:inkscape="http://www.inkscape.org/namespaces/inkscape"
   width="93.609497mm"
   height="111.62742mm"
   viewBox="0 0 93.609497 111.62742"
   version="1.1"
   id="svg916"
   inkscape:version="0.92.4 5da689c313, 2019-01-14"
   sodipodi:docname="005_CO2_ReductionAsTrees.svg"
   preserveAspectRatio="xMidYMid meet">
  <defs
     id="defs910">















	

		
	















	

		
	</defs>
  <sodipodi:namedview
     id="base"
     pagecolor="#ffffff"
     bordercolor="#666666"
     borderopacity="1.0"
     inkscape:pageopacity="0.0"
     inkscape:pageshadow="2"
     inkscape:zoom="1.979899"
     inkscape:cx="156.54889"
     inkscape:cy="219.12083"
     inkscape:document-units="mm"
     inkscape:current-layer="layer1"
     showgrid="false"
     inkscape:window-width="1920"
     inkscape:window-height="1046"
     inkscape:window-x="1920"
     inkscape:window-y="18"
     inkscape:window-maximized="1"
     fit-margin-top="5"
     fit-margin-left="5"
     fit-margin-bottom="5"
     fit-margin-right="5" />
  <metadata
     id="metadata913">
    <rdf:RDF>
      <cc:Work
         rdf:about="">
        <dc:format>image/svg+xml</dc:format>
        <dc:type
           rdf:resource="http://purl.org/dc/dcmitype/StillImage" />
        <dc:title></dc:title>
      </cc:Work>
    </rdf:RDF>
  </metadata>
  <g
     inkscape:label="Layer 1"
     inkscape:groupmode="layer"
     id="layer1"
     transform="translate(-48.069817,-92.915549)">
    <text
       xml:space="preserve"
       style="font-style:normal;font-variant:normal;font-weight:normal;font-stretch:normal;font-size:5.64444447px;line-height:1.25;font-family:sans-serif;-inkscape-font-specification:'sans-serif, Normal';font-variant-ligatures:normal;font-variant-caps:normal;font-variant-numeric:normal;font-feature-settings:normal;text-align:center;letter-spacing:0px;word-spacing:0px;writing-mode:lr-tb;text-anchor:middle;fill:#000000;fill-opacity:1;stroke:none;stroke-width:0.26458332"
       x="98.889725"
       y="179.66866"
       id="text1498"><tspan
         sodipodi:role="line"
         id="tspan1496"
         x="98.889725"
         y="179.66866"
         style="font-style:normal;font-variant:normal;font-weight:normal;font-stretch:normal;font-size:5.64444447px;font-family:sans-serif;-inkscape-font-specification:'sans-serif, Normal';font-variant-ligatures:normal;font-variant-caps:normal;font-variant-numeric:normal;font-feature-settings:normal;text-align:center;writing-mode:lr-tb;text-anchor:middle;stroke-width:0.26458332">THE CO2 EMISSION</tspan><tspan
         sodipodi:role="line"
         x="98.889725"
         y="186.72421"
         style="font-style:normal;font-variant:normal;font-weight:normal;font-stretch:normal;font-size:5.64444447px;font-family:sans-serif;-inkscape-font-specification:'sans-serif, Normal';font-variant-ligatures:normal;font-variant-caps:normal;font-variant-numeric:normal;font-feature-settings:normal;text-align:center;writing-mode:lr-tb;text-anchor:middle;stroke-width:0.26458332"
         id="tspan1500">REDUCTION OF PLANTING</tspan></text>
    <text
       xml:space="preserve"
       style="font-style:normal;font-variant:normal;font-weight:normal;font-stretch:normal;font-size:5.64444447px;line-height:1.25;font-family:sans-serif;-inkscape-font-specification:'sans-serif, Normal';font-variant-ligatures:normal;font-variant-caps:normal;font-variant-numeric:normal;font-feature-settings:normal;text-align:center;letter-spacing:0px;word-spacing:0px;writing-mode:lr-tb;text-anchor:middle;fill:#000000;fill-opacity:1;stroke:none;stroke-width:0.26458332"
       x="111.31827"
       y="199.46304"
       id="text1498-2"><tspan
         sodipodi:role="line"
         id="tspan1523"
         x="111.31827"
         y="199.46304">TREES</tspan></text>
    <text
       xml:space="preserve"
       style="font-style:normal;font-variant:normal;font-weight:bold;font-stretch:normal;font-size:12.69999981px;line-height:1.25;font-family:sans-serif;-inkscape-font-specification:'sans-serif, Bold';font-variant-ligatures:normal;font-variant-caps:normal;font-variant-numeric:normal;font-feature-settings:normal;text-align:end;letter-spacing:0px;word-spacing:0px;writing-mode:lr-tb;text-anchor:end;fill:#000000;fill-opacity:1;stroke:none;stroke-width:0.26458332"
       x="101.10421"
       y="199.36313"
       id="superset_metric"><tspan
         sodipodi:role="line"
         id="tspan1543"
         x="101.10421"
         y="199.36313">352</tspan></text>
    <path
       sodipodi:type="star"
       style="fill:#b0d8d5;fill-opacity:1;stroke:#3db5a6;stroke-width:0.26458332;stroke-opacity:0.50196078"
       id="path5258"
       sodipodi:sides="3"
       sodipodi:cx="94.875969"
       sodipodi:cy="146.18752"
       sodipodi:r1="48.007812"
       sodipodi:r2="24.042921"
       sodipodi:arg1="2.618052"
       sodipodi:arg2="3.6652496"
       inkscape:flatsided="false"
       inkscape:rounded="0"
       inkscape:randomized="0"
       d="m 53.298589,170.189 20.756299,-36.02416 20.823871,-35.985137 20.819691,35.987567 20.75211,36.02657 -41.57599,0.0366 z"
       inkscape:transform-center-x="0.16506568"
       inkscape:transform-center-y="-11.811757" />
    <path
       inkscape:connector-curvature="0"
       d="m 91.347484,144.72295 -2.69547,-4.60565 h 1.4857 c 0.21224,0 0.38204,-0.16979 0.38204,-0.38204 0,-0.10612 -0.0425,-0.19101 -0.0849,-0.25469 l -2.54691,-4.35096 h 1.33713 c 0.23346,0 0.38203,-0.16979 0.38203,-0.38204 0,-0.0849 -0.0424,-0.19101 -0.0849,-0.25469 l -3.99016,-6.94031 c -0.12734,-0.23347 -0.5306,-0.23347 -0.65795,0 l -4.0326,7.00399 c -0.0637,0.12734 -0.0637,0.25469 0,0.38203 0.0637,0.12735 0.19102,0.19102 0.33959,0.19102 h 1.33713 l -2.58936,4.39341 c -0.0637,0.12735 -0.0637,0.27592 0,0.38204 0.0637,0.12734 0.19102,0.19102 0.33959,0.19102 h 1.4857 l -2.69548,4.62687 c -0.0637,0.12735 -0.0637,0.2547 0,0.38204 0.0637,0.12735 0.19102,0.19102 0.33959,0.19102 h 4.15994 v 2.14364 c 0,0.21225 0.1698,0.38204 0.38204,0.38204 h 2.52568 c 0.21224,0 0.38204,-0.16979 0.38204,-0.38204 v -2.14364 h 4.15994 c 0.12735,0 0.25469,-0.0637 0.33958,-0.19102 0.0637,-0.12734 0.0637,-0.27592 0,-0.38204 z"
       id="path6175-1"
       style="fill:none;stroke:#333e46;stroke-width:0.67482972;stroke-miterlimit:4;stroke-dasharray:none;stroke-opacity:1"
       sodipodi:nodetypes="ccssccsscccccscccsccsscsssscscc" />
    <path
       inkscape:connector-curvature="0"
       d="m 109.02016,144.63761 -2.69547,-4.60565 h 1.4857 c 0.21224,0 0.38204,-0.16979 0.38204,-0.38204 0,-0.10612 -0.0425,-0.19101 -0.0849,-0.25469 l -2.54691,-4.35096 h 1.33713 c 0.23346,0 0.38203,-0.16979 0.38203,-0.38204 0,-0.0849 -0.0424,-0.19101 -0.0849,-0.25469 l -3.99016,-6.94031 c -0.12734,-0.23347 -0.5306,-0.23347 -0.65795,0 l -4.032601,7.00399 c -0.0637,0.12734 -0.0637,0.25469 0,0.38203 0.0637,0.12735 0.19102,0.19102 0.339588,0.19102 h 1.337133 l -2.589358,4.39341 c -0.0637,0.12735 -0.0637,0.27592 0,0.38204 0.0637,0.12734 0.19102,0.19102 0.33959,0.19102 h 1.485695 l -2.695475,4.62687 c -0.0637,0.12735 -0.0637,0.2547 0,0.38204 0.0637,0.12735 0.19102,0.19102 0.33959,0.19102 h 4.159938 v 2.14364 c 0,0.21225 0.1698,0.38204 0.38204,0.38204 h 2.52568 c 0.21224,0 0.38204,-0.16979 0.38204,-0.38204 v -2.14364 h 4.15994 c 0.12735,0 0.25469,-0.0637 0.33958,-0.19102 0.0637,-0.12734 0.0637,-0.27592 0,-0.38204 z"
       id="path6175-1-4"
       style="fill:none;stroke:#333e46;stroke-width:0.67482972;stroke-miterlimit:4;stroke-dasharray:none;stroke-opacity:1"
       sodipodi:nodetypes="ccssccsscccccscccsccsscsssscscc" />
    <path
       inkscape:connector-curvature="0"
       d="m 104.11507,157.33189 -4.466063,-6.17176 h 2.461613 c 0.35165,0 0.63299,-0.22753 0.63299,-0.51195 0,-0.14221 -0.0704,-0.25596 -0.14067,-0.3413 l -4.219913,-5.83047 h 2.215463 c 0.38681,0 0.63297,-0.22753 0.63297,-0.51195 0,-0.11377 -0.0702,-0.25596 -0.14067,-0.3413 l -6.611216,-9.30031 c -0.210987,-0.31286 -0.879142,-0.31286 -1.090146,0 l -6.681549,9.38565 c -0.105539,0.17064 -0.105539,0.3413 0,0.51194 0.105539,0.17065 0.316498,0.25597 0.562661,0.25597 h 2.215469 l -4.290269,5.88735 c -0.105539,0.17066 -0.105539,0.36976 0,0.51196 0.105539,0.17064 0.316499,0.25597 0.562661,0.25597 h 2.461633 l -4.466096,6.2002 c -0.105539,0.17066 -0.105539,0.34131 0,0.51196 0.105538,0.17065 0.316497,0.25597 0.56266,0.25597 h 6.892537 v 2.87257 c 0,0.28443 0.281338,0.51195 0.632995,0.51195 h 4.184758 c 0.351657,0 0.632997,-0.22752 0.632997,-0.51195 v -2.87257 h 6.892515 c 0.21101,0 0.422,-0.0854 0.56266,-0.25597 0.1055,-0.17065 0.1055,-0.36975 0,-0.51196 z"
       id="path6175"
       style="fill:#0aac96;stroke:#333e46;stroke-width:1.00554049;stroke-miterlimit:4;stroke-dasharray:none;stroke-opacity:1"
       sodipodi:nodetypes="ccssccsscccccscccsccsscsssscscc"
       class="superset_colormap_primary_stroke_and_fill" />
  </g>
</svg>
