<svg width="325.44mm" height="399.95" preserveAspectRatio="xMaxYMid meet" viewBox="0 0 325.44 105.82" xmlns="http://www.w3.org/2000/svg"><path fill="none" d="M0 0h325.44v105.82H0z"/><g fill="none" stroke-linecap="round" stroke-linejoin="round" stroke-miterlimit="10" stroke-width="4"><path stroke="#5c646e" data-cap="butt" data-color="color-2" d="M29.074 46.453l48.24-38.592 48.24 38.592" stroke-width="6.432"/><path stroke="#00b299" data-cap="butt" d="M67.666 97.91V70.572h19.296V97.91" stroke-width="6.432"/><path stroke="#00b299" d="M41.938 49.67v48.24h70.752V49.67" stroke-width="6.432"/></g><path d="M85.684 37.92h-6.6l1.568-7.447a.418.418 0 0 0-.409-.504h-7.952a.418.418 0 0 0-.405.31l-3.348 12.556a.419.419 0 0 0 .404.527h5.35L71.88 55.417a.418.418 0 0 0 .74.34l13.393-17.16a.42.42 0 0 0-.33-.676z" fill="#ff9b00"/></svg>