<?xml version="1.0" encoding="UTF-8" standalone="no"?>
<svg
   xmlns:dc="http://purl.org/dc/elements/1.1/"
   xmlns:cc="http://creativecommons.org/ns#"
   xmlns:rdf="http://www.w3.org/1999/02/22-rdf-syntax-ns#"
   xmlns:svg="http://www.w3.org/2000/svg"
   xmlns="http://www.w3.org/2000/svg"
   xmlns:sodipodi="http://sodipodi.sourceforge.net/DTD/sodipodi-0.dtd"
   xmlns:inkscape="http://www.inkscape.org/namespaces/inkscape"
   width="361.09976"
   height="225.84808"
   preserveAspectRatio="xMaxYMid meet"
   viewBox="0 0 95.54098 59.755699"
   version="1.1"
   id="svg34"
   sodipodi:docname="car-trip-tsv-bris-left.svg"
   inkscape:version="0.92.4 5da689c313, 2019-01-14">
  <metadata
     id="metadata40">
    <rdf:RDF>
      <cc:Work
         rdf:about="">
        <dc:format>image/svg+xml</dc:format>
        <dc:type
           rdf:resource="http://purl.org/dc/dcmitype/StillImage" />
        <dc:title />
      </cc:Work>
    </rdf:RDF>
  </metadata>
  <defs
     id="defs38" />
  <sodipodi:namedview
     pagecolor="#ffffff"
     bordercolor="#666666"
     borderopacity="1"
     objecttolerance="10"
     gridtolerance="10"
     guidetolerance="10"
     inkscape:pageopacity="0"
     inkscape:pageshadow="2"
     inkscape:window-width="1920"
     inkscape:window-height="1046"
     id="namedview36"
     showgrid="false"
     fit-margin-top="0"
     fit-margin-left="0"
     fit-margin-right="0"
     fit-margin-bottom="0"
     inkscape:zoom="1.4854877"
     inkscape:cx="138.49"
     inkscape:cy="38.145989"
     inkscape:window-x="0"
     inkscape:window-y="18"
     inkscape:window-maximized="1"
     inkscape:current-layer="svg34" />
  <g
     transform="matrix(1.4928286,0,0,1.4928286,0,-17.87142)"
     stroke-miterlimit="10"
     id="g18"
     style="fill:none;stroke-width:4;stroke-linecap:round;stroke-linejoin:round;stroke-miterlimit:10">
    <g
       id="g12"
       style="stroke:#00b299"
       class="￼superset_colormap_primary_stroke">
      <path
         data-cap="butt"
         d="M 28,14 V 28 M 9,28 h 38"
         id="path8"
         inkscape:connector-curvature="0"
         class="superset_colormap_primary_stroke" />
      <path
         d="m 56,44 h 6 V 32 A 4,4 0 0 0 58,28 H 47 L 40.152,16.015 A 4,4 0 0 0 36.679,14 H 17.638 c -1.6,0 -3.046,0.954 -3.677,2.424 L 9,28 H 6 a 4,4 0 0 0 -4,4 v 12 h 6 m 12,0 h 24"
         id="path10"
         inkscape:connector-curvature="0"
         class="superset_colormap_primary_stroke" />
    </g>
    <circle
       cx="14"
       cy="44"
       r="6"
       data-color="color-2"
       id="circle14"
       style="stroke:#5c646e"
       class="superset_colormap_secondary_stroke" />
    <circle
       cx="50"
       cy="44"
       r="6"
       data-color="color-2"
       id="circle16"
       style="stroke:#5c646e"
       class="superset_colormap_secondary_stroke" />
  </g>
  <g
     style="clip-rule:evenodd;fill-rule:evenodd;stroke-linejoin:round;stroke-miterlimit:1.41400003"
     id="g61"
     transform="matrix(0.32424674,0,0,0.32125553,31.967011,19.969002)">
    <path
       id="path32"
       d="M 49.348,6.449 36.646,35.268 3.728,38.643 28.396,60.661 21.409,93 50,76.375 78.602,92.99 c 0,0 -6.863,-31.573 -6.998,-32.318 L 96.272,38.643 63.354,35.258 C 63.022,34.502 50,5 50,5 Z"
       inkscape:connector-curvature="0"
       style="fill:#ffffff;fill-rule:nonzero" />
    <path
       id="path34"
       d="m 37.205,36.625 h 0.414 L 50,8.52 62.422,36.573 92.96,39.678 70.051,60.154 76.531,90.174 50,74.719 23.469,90.143 c 0.621,-2.826 6.48,-30.02 6.48,-30.02 L 7.071,39.678 Z"
       inkscape:connector-curvature="0"
       style="fill:#ffdf00;fill-rule:nonzero" />
    <path
       id="path36"
       d="m 33.872,70.195 v -4.451 h -6.108 v 4.451 h 1.346 l 2.671,11.667 h 3.727 l 1.2,-5.673 1.108,5.673 h 3.675 c 0.008,-0.036 2.504,-11.382 2.588,-11.667 h 1.283 v -4.451 l -0.258,0.021 h -4.938 v 4.43 h 0.859 c -0.083,0.383 -0.683,3.416 -0.952,4.762 L 39.11,70.195 h 0.87 v -4.451 h -5.797 v 4.451 h 0.879 c -0.082,0.394 -0.755,3.592 -1.035,4.969 a 807.098,807.098 0 0 1 -0.983,-4.969 z m 29.751,0 c 0.621,0 0.932,0.238 0.983,0.787 v 4.12 c 0,2.07 -0.724,2.07 -1.035,2.07 -0.31,0 -0.983,0.073 -0.983,-1.998 v -2.909 c 0,-2.006 0.728,-2.068 1.009,-2.07 z m -4.306,-3.333 c -0.725,0.89 -1.036,2.64 -1.036,5.341 v 3.489 c 0,2.526 0.352,4.182 1.036,5.072 0.683,0.891 2.173,1.346 4.275,1.346 2.101,0 3.499,-0.466 4.265,-1.387 0.766,-0.921 1.138,-2.567 1.138,-5.031 v -3.468 c 0,-2.66 -0.352,-4.399 -1.035,-5.321 -0.683,-0.921 -2.153,-1.345 -4.244,-1.345 -2.091,0 -3.675,0.393 -4.399,1.304 z m 15.589,3.333 h 0.87 v -4.451 h -6.387 v 4.451 h 1.118 c 0.135,0.167 3.105,4.451 3.188,4.555 v 2.484 h -1.439 v 4.617 H 79.15 V 77.255 H 77.846 V 74.75 l 2.899,-4.555 h 0.957 a 4.267,4.267 0 0 0 3.1,3.872 l 1.947,0.797 c 0.89,0.341 1.345,0.828 1.345,1.501 0,0.414 -0.134,0.88 -1.035,0.88 -0.9,0 -1.18,-0.435 -1.18,-1.346 v -0.435 h -3.851 v 6.387 h 3.768 v -0.766 a 4.246,4.246 0 0 0 2.951,1.035 c 2.587,0 3.881,-1.501 3.881,-4.451 a 4.924,4.924 0 0 0 -0.879,-3.333 10.372,10.372 0 0 0 -3.872,-2.071 c -1.17,-0.414 -1.76,-0.89 -1.76,-1.418 0,-0.269 0.104,-0.59 0.87,-0.59 0.331,0 0.724,0.104 0.807,0.87 l 0.083,0.6 h 3.954 v -5.962 h -3.737 v 0.745 a 3.569,3.569 0 0 0 -2.608,-1.035 c -1.797,0.014 -2.961,0.791 -3.478,2.316 v -2.047 l -0.228,0.021 h -5.59 v 4.43 h 1.035 l -1.284,2.07 z m -53.984,4.948 v -2.878 c 0,-2.07 0.787,-2.07 1.035,-2.07 0.642,0 0.932,0.238 0.984,0.787 v 4.12 c 0,2.07 -0.756,2.07 -1.036,2.07 -0.279,0 -0.962,0.073 -0.962,-1.998 z M 16.419,72.452 V 65.765 H 12.63 v 0.559 a 3.453,3.453 0 0 0 -2.381,-0.766 3.427,3.427 0 0 0 -3.416,1.708 h -0.02 c -0.559,1.118 -0.829,3.312 -0.829,6.687 0,3.374 0.311,5.673 0.974,6.656 0.662,0.983 2.194,1.511 4.596,1.511 3.093,0 4.828,-1.343 5.201,-4.003 0.162,1.209 0.462,2.082 0.896,2.647 0.683,0.891 2.174,1.346 4.296,1.346 2.122,0 3.499,-0.466 4.265,-1.387 0.766,-0.921 1.138,-2.567 1.138,-5.031 v -3.468 c 0,-2.66 -0.341,-4.399 -1.035,-5.321 -0.693,-0.921 -2.194,-1.345 -4.265,-1.345 -2.215,0 -3.654,0.393 -4.399,1.304 -0.725,0.89 -1.035,2.64 -1.035,5.341 v 1.998 h -4.069 v 1.45 c 0,1.407 -0.59,1.583 -1.035,1.583 -0.724,0 -1.118,-1.035 -1.118,-3.022 a 18.248,18.248 0 0 1 0.207,-3.479 c 0.062,-0.207 0.238,-0.486 0.932,-0.486 0.487,0 1.118,0.176 1.118,1.718 v 0.487 z m 35.03,4.803 h -0.414 v -2.619 l 0.394,0.01 c 1.501,0 1.677,0.653 1.677,1.16 0,0.983 -0.518,1.449 -1.657,1.449 z m -0.02,-7.06 c 1.273,0 1.428,0.642 1.428,1.139 0,0.787 -0.414,1.139 -1.325,1.139 h -0.497 v -2.278 z m -0.218,11.667 c 2.464,0 4.068,-0.311 4.897,-0.932 0.828,-0.621 1.273,-1.894 1.273,-3.747 a 4.14,4.14 0 0 0 -0.663,-2.816 3.995,3.995 0 0 0 -1.904,-0.828 3.178,3.178 0 0 0 1.625,-0.725 3.854,3.854 0 0 0 0.704,-2.691 c 0,-1.76 -0.414,-2.93 -1.274,-3.489 -0.859,-0.559 -2.484,-0.828 -5.041,-0.828 l -5.052,-0.041 h -0.207 v 4.43 h 1.325 v 7.039 h -1.325 v 4.628 z"
       inkscape:connector-curvature="0"
       style="fill:#e43031;fill-rule:nonzero" />
    <path
       id="path38"
       d="m 80.683,39.306 a 6.657,6.657 0 0 0 4.316,-4.089 13.095,13.095 0 0 0 -1.221,-10.352 l 0.621,-0.456 c 3.468,3.313 8.385,8.033 8.385,14.7 a 14.816,14.816 0 0 1 -0.59,4.068 c -1.212,4.224 -6.698,7.433 -15.911,9.317 H 76.18 v 0.103 c 0,0.311 -0.29,0.704 -2.071,1.967 a 63.346,63.346 0 0 1 -2.95,1.946 30.211,30.211 0 0 1 -8.074,3.468 l -0.746,0.186 0.28,-0.724 c 0.07,-0.157 0.15,-0.309 0.238,-0.456 a 32.45,32.45 0 0 1 -6.605,2.567 l -0.828,0.207 0.352,-0.766 0.228,-0.548 -6.004,3.602 -6.087,-3.623 0.228,0.549 0.352,0.766 -0.808,-0.187 A 32.49,32.49 0 0 1 37.06,58.964 c 0.088,0.147 0.168,0.299 0.238,0.455 l 0.259,0.725 -0.724,-0.187 a 30.076,30.076 0 0 1 -8.075,-3.468 68.157,68.157 0 0 1 -2.94,-1.946 c -1.759,-1.252 -2.07,-1.646 -2.07,-1.935 V 52.504 H 23.645 C 14.431,50.589 8.935,47.37 7.724,43.188 A 14.712,14.712 0 0 1 7.123,39.109 c 0,-6.677 4.938,-11.408 8.385,-14.72 l 0.642,0.466 a 13.092,13.092 0 0 0 -1.242,10.351 6.634,6.634 0 0 0 4.347,4.079 h 12.319 l 0.072,-0.124 0.311,-0.456 35.983,0.021 0.31,0.455 0.073,0.125 z"
       inkscape:connector-curvature="0"
       style="fill:#ffffff;fill-rule:nonzero" />
    <path
       id="path40"
       d="M 67.536,39.492 32.361,39.461 c -0.042,0.052 -0.249,0.6 -0.249,0.6 H 19.173 A 7.26,7.26 0 0 1 14.1,35.403 13.299,13.299 0 0 1 13.479,31.469 c 0.022,-1.73 0.373,-3.442 1.035,-5.041 a 27.955,27.955 0 0 0 -4.886,6.211 13.33,13.33 0 0 0 -1.697,6.449 c 0.005,1.314 0.192,2.62 0.559,3.882 1.138,3.83 6.552,6.936 15.403,8.778 0.186,0.036 0.37,0.084 0.549,0.145 0.063,0.02 0.12,0.055 0.165,0.104 a 0.236,0.236 0 0 1 0.062,0.124 v 0.083 c -0.01,0.123 -0.035,0.244 -0.072,0.362 a 36.044,36.044 0 0 0 4.658,3.282 30.005,30.005 0 0 0 6.936,3.105 c -0.166,-0.3 -0.342,-0.611 -0.476,-0.88 l -0.58,-1.242 1.159,0.725 a 29.316,29.316 0 0 0 6.864,3.002 c -0.176,-0.456 -0.342,-0.911 -0.342,-0.973 l -0.166,-0.88 7.35,4.41 7.339,-4.41 -0.165,0.869 c -0.011,0.073 -0.166,0.528 -0.342,0.984 a 29.208,29.208 0 0 0 6.863,-3.002 l 1.139,-0.725 -0.58,1.242 c -0.114,0.249 -0.29,0.559 -0.466,0.87 a 29.803,29.803 0 0 0 6.936,-3.106 36.056,36.056 0 0 0 4.658,-3.312 1.713,1.713 0 0 1 -0.062,-0.363 V 52.08 a 0.256,0.256 0 0 1 0.052,-0.135 0.374,0.374 0 0 1 0.166,-0.103 c 0.18,-0.057 0.363,-0.103 0.548,-0.135 8.779,-1.801 14.213,-4.907 15.321,-8.737 0.349,-1.253 0.524,-2.55 0.517,-3.851 A 13.317,13.317 0 0 0 90.206,32.67 28.007,28.007 0 0 0 85.32,26.459 13.595,13.595 0 0 1 86.355,31.5 13.065,13.065 0 0 1 85.734,35.434 7.258,7.258 0 0 1 80.662,40.092 H 67.774 c 0,0 -0.238,-0.538 -0.238,-0.6 z"
       inkscape:connector-curvature="0"
       style="fill:#001641;fill-rule:nonzero" />
    <path
       id="path42"
       d="m 33.075,44.492 h 33.757 c 1.553,2.484 2.981,5.424 5.528,7.971 h 2.008 A 39.509,39.509 0 0 1 66.853,40.558 H 33.054 a 39.528,39.528 0 0 1 -7.515,11.905 h 2.018 c 2.537,-2.547 3.965,-5.487 5.518,-7.971 z M 12.889,29.637 c -2.07,2.412 -3.457,5.279 -3.457,7.702 0,2.671 1.397,5.176 4.761,6.77 a 7.658,7.658 0 0 0 1.864,0.652 H 29.99 a 23.318,23.318 0 0 0 1.863,-3.789 H 18.531 c -1.035,0 -3.002,-1.408 -3.986,-2.867 a 11.319,11.319 0 0 1 -1.697,-5.518 22.003,22.003 0 0 1 0.041,-2.95 z m 74.129,0 a 22,22 0 0 1 0.031,2.95 11.306,11.306 0 0 1 -1.698,5.518 c -0.983,1.459 -2.95,2.867 -3.985,2.867 H 68.043 a 24.606,24.606 0 0 0 1.863,3.789 h 13.965 a 7.553,7.553 0 0 0 1.863,-0.652 c 3.354,-1.594 4.741,-4.099 4.741,-6.77 0,-2.423 -1.387,-5.29 -3.457,-7.702 z M 51.429,77.669 h -0.808 v -3.447 h 0.207 l 0.601,-0.01 c 1.697,0 2.07,0.766 2.07,1.594 0,0.828 -0.342,1.863 -2.07,1.863 z m 0.103,-4.793 h -0.911 v -3.105 h 0.207 l 0.601,-0.031 c 1.552,0 1.863,0.828 1.863,1.552 0,0.725 -0.311,1.584 -1.76,1.584 z m -0.704,-6.697 h -4.834 v 3.581 h 1.315 v 7.909 h -1.243 v 3.727 h 5.176 c 2.34,0 3.903,-0.269 4.638,-0.828 0.735,-0.559 1.107,-1.698 1.107,-3.416 a 3.927,3.927 0 0 0 -0.559,-2.516 5.347,5.347 0 0 0 -2.795,-0.963 v -0.414 a 4.328,4.328 0 0 0 2.506,-0.828 3.52,3.52 0 0 0 0.59,-2.381 c 0,-1.553 -0.352,-2.608 -1.098,-3.105 -0.745,-0.497 -2.36,-0.766 -4.803,-0.766 z m 30.745,0 h -4.959 v 3.602 h 1.387 l -2.07,3.344 -1.76,-3.344 h 1.139 v -3.592 h -5.518 v 3.561 h 0.911 l 3.417,4.865 v 3.054 h -1.429 v 3.768 h 6.066 v -3.768 h -1.325 v -3.033 l 3.106,-4.865 h 1.035 z m -36.676,0 h -4.276 v 3.592 h 0.953 l -1.263,6.314 h -0.414 l -1.284,-6.314 h 0.88 v -3.592 h -4.969 v 3.612 h 1.035 l -1.366,6.501 h -0.414 l -1.273,-6.501 h 0.931 V 66.199 H 28.158 V 69.76 H 29.4 l 2.692,11.698 h 3.043 l 1.346,-6.366 h 0.414 l 1.242,6.345 h 2.961 c 0.082,-0.281 2.583,-11.649 2.587,-11.666 h 1.212 z m -22.878,3.643 0.187,-0.014 c 0.663,0 1.212,0.541 1.221,1.205 v 4.141 c -0.01,1.687 -0.445,2.515 -1.428,2.515 -0.984,0 -1.501,-0.828 -1.501,-2.484 v -2.899 c 0,-1.635 0.517,-2.464 1.521,-2.464 z m -4.037,10.683 -0.01,-0.031 c 0.673,0.787 2.112,1.181 4.037,1.181 1.925,0 3.25,-0.415 3.934,-1.243 0.683,-0.828 1.035,-2.422 1.035,-4.741 v -3.447 c 0,-2.536 -0.342,-4.244 -0.973,-5.072 -0.632,-0.828 -1.812,-1.242 -3.882,-1.242 -2.071,0 -3.437,0.403 -4.141,1.2 -0.704,0.797 -1.035,2.505 -1.035,5.073 v 3.509 c 0,2.402 0.383,4.016 1.035,4.813 z m 45.682,-10.683 0.187,-0.014 c 0.663,0 1.212,0.541 1.221,1.205 v 4.141 c 0,1.687 -0.445,2.515 -1.428,2.515 -0.984,0 -1.501,-0.828 -1.501,-2.484 v -2.961 c 0.012,-1.593 0.5,-2.402 1.521,-2.402 z m -4.037,10.683 -0.01,-0.031 c 0.662,0.787 2.08,1.181 4.016,1.181 1.936,0 3.282,-0.415 3.955,-1.243 0.672,-0.828 1.035,-2.422 1.035,-4.741 v -3.447 c 0,-2.536 -0.342,-4.244 -0.973,-5.072 -0.632,-0.828 -1.812,-1.242 -3.882,-1.242 -2.071,0 -3.385,0.403 -4.089,1.2 -0.704,0.797 -1.035,2.505 -1.035,5.073 v 3.509 c 0,2.402 0.331,4.016 0.983,4.813 z m 25.734,-4.596 h -2.898 v 5.507 h 2.878 v -1.449 l 0.372,0.414 a 3.752,3.752 0 0 0 3.002,1.294 c 2.319,0 3.458,-1.325 3.458,-4.016 a 4.627,4.627 0 0 0 -0.766,-3.054 10.216,10.216 0 0 0 -3.561,-1.936 c -1.408,-0.497 -2.07,-1.097 -2.07,-1.822 0,-0.393 0.165,-1.035 1.304,-1.035 0.497,0 1.118,0.207 1.221,1.242 v 0.228 h 3.106 v -5.103 h -2.899 v 1.532 l -0.372,-0.497 a 3.11,3.11 0 0 0 -2.65,-1.273 c -2.257,0 -3.375,1.325 -3.375,4.057 0,1.729 0.932,2.94 2.795,3.696 l 1.967,0.776 c 1.066,0.414 1.604,1.077 1.604,1.905 0,0.569 -0.258,1.294 -1.501,1.294 -0.735,0 -1.615,-0.31 -1.615,-1.76 z M 16.243,74.657 h -3.271 v 1.035 c 0,1.656 -0.787,1.998 -1.449,1.998 -1.036,0 -1.553,-1.129 -1.553,-3.458 a 17.44,17.44 0 0 1 0.207,-3.623 c 0.197,-0.554 0.766,-0.89 1.346,-0.797 0.704,0 1.532,0.383 1.532,2.143 v 0.072 h 2.898 v -5.848 h -2.898 v 1.314 l -0.383,-0.517 a 2.871,2.871 0 0 0 -2.464,-1.035 c -1.542,0 -2.515,0.476 -3.033,1.521 -0.518,1.046 -0.766,3.168 -0.766,6.48 0,3.313 0.3,5.528 0.9,6.419 l -0.01,0.031 c 0.601,0.869 2.019,1.304 4.244,1.304 3.271,0 4.866,-1.553 4.866,-4.731 a 15.777,15.777 0 0 0 -0.166,-2.308 z"
       inkscape:connector-curvature="0"
       style="fill:#ffffff;fill-rule:nonzero" />
    <path
       id="path44"
       d="m 50,60.941 c -0.621,0 -11.314,-7.495 -12.236,-8.147 0.145,0.652 0.756,2.743 1.18,3.882 v 0.103 A 45.275,45.275 0 0 1 30.58,51.293 l 0.911,3.437 c 0,0 -3.934,-2.257 -3.882,-2.257 h -2.07 a 42.136,42.136 0 0 0 8.416,5.01 c 0,-0.124 -0.673,-2.401 -0.725,-2.567 a 59.786,59.786 0 0 0 8.095,4.555 c -0.145,-0.518 -0.973,-2.567 -1.138,-3.209 1.035,0.724 9.451,6.294 9.772,6.283 0.32,-0.01 8.778,-5.59 9.792,-6.283 -0.186,0.621 -1.035,2.67 -1.159,3.209 a 59.837,59.837 0 0 0 8.105,-4.555 c -0.072,0.155 -0.724,2.433 -0.724,2.557 a 41.98,41.98 0 0 0 8.405,-5.01 H 72.36 l -3.893,2.256 0.911,-3.447 a 45.247,45.247 0 0 1 -8.364,5.487 v -0.083 c 0.414,-1.139 1.035,-3.23 1.18,-3.882 C 61.263,53.456 50.58,60.951 50,60.941 Z"
       inkscape:connector-curvature="0"
       style="fill:#ffdf00;fill-rule:nonzero" />
  </g>
</svg>
