<svg width="325.44mm" height="399.987" preserveAspectRatio="xMaxYMid meet" viewBox="0 0 325.44 105.83" xmlns="http://www.w3.org/2000/svg"><path fill="none" d="M0 0h325.44v105.83H0z"/><text x="5.018" y="85.281" fill="#00b299" font-family="-apple-system,BlinkMacSystemFont,Segoe UI,Roboto,Oxygen,Ubuntu,Cantarell,Open Sans,Helvetica Neue,sans-serif" font-size="24.829" letter-spacing="0" stroke-width=".621" word-spacing="0" style="line-height:1.25" transform="translate(-1.246 -58.648)"><tspan x="5.018" y="85.281" font-family="'-apple-system,BlinkMacSystemFont,Segoe UI,Roboto,Oxygen,Ubuntu,Cantarell,Open Sans,Helvetica Neue,sans-serif'" font-size="14.111">TVS</tspan></text><g transform="translate(78.598 -1.052) scale(.51676)" fill="none" stroke-linecap="round" stroke-linejoin="round" stroke-miterlimit="10" stroke-width="4"><g stroke="#00b299"><path data-cap="butt" d="M28 14v14M9 28h38"/><path d="M56 44h6V32a4 4 0 0 0-4-4H47l-6.848-11.985A4 4 0 0 0 36.679 14H17.638c-1.6 0-3.046.954-3.677 2.424L9 28H6a4 4 0 0 0-4 4v12h6M20 44h24"/></g><circle cx="14" cy="44" r="6" stroke="#5c646e" data-color="color-2"/><circle cx="50" cy="44" r="6" stroke="#5c646e" data-color="color-2"/></g><text x="127.435" y="85.207" fill="#00b299" font-family="-apple-system,BlinkMacSystemFont,Segoe UI,Roboto,Oxygen,Ubuntu,Cantarell,Open Sans,Helvetica Neue,sans-serif" font-size="24.829" letter-spacing="0" stroke-width=".621" word-spacing="0" style="line-height:1.25" transform="translate(-1.246 -58.648)"><tspan x="127.435" y="85.207" font-family="'-apple-system,BlinkMacSystemFont,Segoe UI,Roboto,Oxygen,Ubuntu,Cantarell,Open Sans,Helvetica Neue,sans-serif'" font-size="14.111">BRIS</tspan></text><path d="M36.353 25.844h86.557" fill="#5c646e" stroke="#5c646e" stroke-dasharray="7.40833333, 1.85208333" stroke-width="1.852"/><text x="22" y="116.904" fill-opacity=".622" font-family="'-apple-system,BlinkMacSystemFont,Segoe UI,Roboto,Oxygen,Ubuntu,Cantarell,Open Sans,Helvetica Neue,sans-serif'" font-size="11.289" letter-spacing="0" stroke-width=".621" word-spacing="0" style="line-height:1.25" transform="translate(-1.246 -58.648)"><tspan x="22" y="116.904" style="line-height:5.16995811px">FROM TOWNSVILLE</tspan><tspan x="22" y="138.071" style="line-height:5.16995811px">TO BRISBANE IN AN</tspan><tspan x="22" y="159.238" style="line-height:5.16995811px">AVERAGE SIZED CAR</tspan></text></svg>