<svg width="325.44mm" height="482.041" preserveAspectRatio="xMaxYMid meet" viewBox="0 0 325.44 127.54" xmlns="http://www.w3.org/2000/svg"><g fill="none" stroke-linecap="round" stroke-linejoin="round" stroke-miterlimit="10" stroke-width="4"><path d="M48.906 99.318c.516-.8.823-1.748.823-2.77a5.13 5.13 0 0 0-5.13-5.13h-1.411a6.412 6.412 0 1 0-12.566 0H29.21a5.13 5.13 0 0 0-5.13 5.13c0 1.022.307 1.97.823 2.77-3.41.79-5.953 3.84-5.953 7.49a7.695 7.695 0 0 0 7.695 7.695h20.52a7.695 7.695 0 0 0 7.694-7.695c0-3.65-2.543-6.7-5.952-7.49z" stroke="#00b299" stroke-width="2.565"/><g stroke="#5c646e"><path data-cap="butt" data-color="color-2" d="M36.904 96.548v25.65M29.21 122.197H44.6M36.904 111.296l6.413-6.412M30.492 101.036l6.412 6.413" stroke-width="2.565"/></g><path d="M92.874 99.318c.516-.8.823-1.748.823-2.77a5.13 5.13 0 0 0-5.13-5.13h-1.412a6.412 6.412 0 1 0-12.566 0h-1.412a5.13 5.13 0 0 0-5.13 5.13c0 1.022.308 1.97.823 2.77-3.409.79-5.953 3.84-5.953 7.49a7.695 7.695 0 0 0 7.695 7.695h20.52a7.695 7.695 0 0 0 7.695-7.695c0-3.65-2.543-6.7-5.953-7.49z" stroke="#00b299" stroke-width="2.565"/><g stroke="#5c646e"><path data-cap="butt" data-color="color-2" d="M80.872 96.548v25.65M73.177 122.197h15.39M80.872 111.296l6.412-6.412M74.46 101.036l6.412 6.413" stroke-width="2.565"/></g><g><path d="M136.84 99.318c.517-.8.824-1.748.824-2.77a5.13 5.13 0 0 0-5.13-5.13h-1.412a6.412 6.412 0 1 0-12.566 0h-1.412a5.13 5.13 0 0 0-5.13 5.13c0 1.022.307 1.97.823 2.77-3.41.79-5.953 3.84-5.953 7.49a7.695 7.695 0 0 0 7.695 7.695h20.52a7.695 7.695 0 0 0 7.695-7.695c0-3.65-2.544-6.7-5.953-7.49z" stroke="#00b299" stroke-width="2.565"/><g stroke="#5c646e"><path data-cap="butt" data-color="color-2" d="M124.839 96.548v25.65M117.144 122.197h15.39M124.839 111.296l6.412-6.412M118.426 101.036l6.413 6.413" stroke-width="2.565"/></g></g></g><g stroke-width="4"><path d="M32 60l22-28H40V12c0-4.4-3.6-8-8-8v0c-4.4 0-8 3.6-8 8v20H10z" fill="none" stroke="#5c646e" stroke-linecap="round" stroke-linejoin="round" stroke-miterlimit="10" transform="matrix(.4776 0 0 .51268 42.463 56.334)"/><path d="M32 60l22-28H40V12c0-4.4-3.6-8-8-8v0c-4.4 0-8 3.6-8 8v20H10z" fill="none" stroke="#5c646e" stroke-linecap="round" stroke-linejoin="round" stroke-miterlimit="10" transform="matrix(.4776 0 0 .51268 88.714 56.334)"/></g><path d="M52 52c5.6-.5 10-5.3 10-11 0-5.8-4.4-10.5-10.1-11-1-10.1-9.5-18-19.9-18-9 0-16.6 6-19.1 14.2C6.7 27.2 2 32.5 2 39c0 6.8 5.3 12.5 12 13z" fill="none" stroke="#00b299" stroke-linecap="round" stroke-linejoin="round" stroke-miterlimit="10" transform="matrix(1.2524 0 0 1.1578 40.794 -8.726)" stroke-width="4"/><text x="58.386" y="40.577" fill-opacity=".622" font-family="-apple-system,BlinkMacSystemFont,Segoe UI,Roboto,Oxygen,Ubuntu,Cantarell,Open Sans,Helvetica Neue,sans-serif" font-size="25.65" letter-spacing="0" stroke-width=".641" word-spacing="0" style="line-height:1.25" transform="translate(-.002)"><tspan x="58.386" y="40.577">CO<tspan baseline-shift="sub" font-size="16.672">2</tspan></tspan></text><path fill="none" d="M0 0h325.44v127.54H0z"/></svg>