<?xml version="1.0" encoding="UTF-8" standalone="no"?>
<svg
   xmlns:dc="http://purl.org/dc/elements/1.1/"
   xmlns:cc="http://creativecommons.org/ns#"
   xmlns:rdf="http://www.w3.org/1999/02/22-rdf-syntax-ns#"
   xmlns:svg="http://www.w3.org/2000/svg"
   xmlns="http://www.w3.org/2000/svg"
   xmlns:sodipodi="http://sodipodi.sourceforge.net/DTD/sodipodi-0.dtd"
   xmlns:inkscape="http://www.inkscape.org/namespaces/inkscape"
   width="477.7663"
   height="455.98779"
   preserveAspectRatio="xMaxYMid meet"
   viewBox="0 0 126.409 120.64676"
   version="1.1"
   id="svg425"
   sodipodi:docname="co2-trees-left.svg"
   inkscape:version="0.92.4 5da689c313, 2019-01-14">
  <metadata
     id="metadata431">
    <rdf:RDF>
      <cc:Work
         rdf:about="">
        <dc:format>image/svg+xml</dc:format>
        <dc:type
           rdf:resource="http://purl.org/dc/dcmitype/StillImage" />
        <dc:title />
      </cc:Work>
    </rdf:RDF>
  </metadata>
  <defs
     id="defs429" />
  <sodipodi:namedview
     pagecolor="#ffffff"
     bordercolor="#666666"
     borderopacity="1"
     objecttolerance="10"
     gridtolerance="10"
     guidetolerance="10"
     inkscape:pageopacity="0"
     inkscape:pageshadow="2"
     inkscape:window-width="1920"
     inkscape:window-height="1046"
     id="namedview427"
     showgrid="false"
     fit-margin-top="0"
     fit-margin-left="0"
     fit-margin-right="0"
     fit-margin-bottom="0"
     inkscape:zoom="1.1707227"
     inkscape:cx="358.60346"
     inkscape:cy="148.01675"
     inkscape:window-x="0"
     inkscape:window-y="18"
     inkscape:window-maximized="1"
     inkscape:current-layer="g407" />
  <g
     stroke-miterlimit="10"
     id="g407"
     inkscape:groupmode="layer"
     style="fill:none;stroke-width:4;stroke-linecap:round;stroke-linejoin:round;stroke-miterlimit:10"
     transform="translate(-17.6675,-2.852)">
    <path
       d="m 48.906,99.318 c 0.516,-0.8 0.823,-1.748 0.823,-2.77 a 5.13,5.13 0 0 0 -5.13,-5.13 h -1.411 a 6.412,6.412 0 1 0 -12.566,0 H 29.21 a 5.13,5.13 0 0 0 -5.13,5.13 c 0,1.022 0.307,1.97 0.823,2.77 -3.41,0.79 -5.953,3.84 -5.953,7.49 a 7.695,7.695 0 0 0 7.695,7.695 h 20.52 a 7.695,7.695 0 0 0 7.694,-7.695 c 0,-3.65 -2.543,-6.7 -5.952,-7.49 z"
       id="path387"
       inkscape:connector-curvature="0"
       style="stroke:#00b299;stroke-width:2.56500006"
       class="superset_colormap_primary_stroke" />
    <g
       id="g391"
       style="stroke:#5c646e">
      <path
         data-cap="butt"
         data-color="color-2"
         d="m 36.904,96.548 v 25.65 M 29.21,122.197 H 44.6 m -7.696,-10.901 6.413,-6.412 m -12.825,-3.848 6.412,6.413"
         id="path389"
         inkscape:connector-curvature="0"
         style="stroke-width:2.56500006" />
    </g>
    <path
       d="m 92.874,99.318 c 0.516,-0.8 0.823,-1.748 0.823,-2.77 a 5.13,5.13 0 0 0 -5.13,-5.13 h -1.412 a 6.412,6.412 0 1 0 -12.566,0 h -1.412 a 5.13,5.13 0 0 0 -5.13,5.13 c 0,1.022 0.308,1.97 0.823,2.77 -3.409,0.79 -5.953,3.84 -5.953,7.49 a 7.695,7.695 0 0 0 7.695,7.695 h 20.52 a 7.695,7.695 0 0 0 7.695,-7.695 c 0,-3.65 -2.543,-6.7 -5.953,-7.49 z"
       id="path393"
       inkscape:connector-curvature="0"
       style="stroke:#00b299;stroke-width:2.56500006"
       class="superset_colormap_primary_stroke" />
    <g
       id="g397"
       style="stroke:#5c646e">
      <path
         data-cap="butt"
         data-color="color-2"
         d="m 80.872,96.548 v 25.65 m -7.695,-10e-4 h 15.39 m -7.695,-10.901 6.412,-6.412 m -12.824,-3.848 6.412,6.413"
         id="path395"
         inkscape:connector-curvature="0"
         style="stroke-width:2.56500006" />
    </g>
    <g
       id="g405">
      <path
         d="m 136.84,99.318 c 0.517,-0.8 0.824,-1.748 0.824,-2.77 a 5.13,5.13 0 0 0 -5.13,-5.13 h -1.412 a 6.412,6.412 0 1 0 -12.566,0 h -1.412 a 5.13,5.13 0 0 0 -5.13,5.13 c 0,1.022 0.307,1.97 0.823,2.77 -3.41,0.79 -5.953,3.84 -5.953,7.49 a 7.695,7.695 0 0 0 7.695,7.695 h 20.52 a 7.695,7.695 0 0 0 7.695,-7.695 c 0,-3.65 -2.544,-6.7 -5.953,-7.49 z"
         id="path399"
         inkscape:connector-curvature="0"
         style="stroke:#00b299;stroke-width:2.56500006"
         class="superset_colormap_primary_stroke" />
      <g
         id="g403"
         style="stroke:#5c646e">
        <path
           data-cap="butt"
           data-color="color-2"
           d="m 124.839,96.548 v 25.65 m -7.695,-10e-4 h 15.39 m -7.695,-10.901 6.412,-6.412 m -12.825,-3.848 6.413,6.413"
           id="path401"
           inkscape:connector-curvature="0"
           style="stroke-width:2.56500006" />
      </g>
    </g>
  </g>
  <g
     id="g413"
     style="stroke-width:4"
     transform="translate(-17.6675,-2.852)">
    <path
       d="M 32,60 54,32 H 40 V 12 C 40,7.6 36.4,4 32,4 v 0 c -4.4,0 -8,3.6 -8,8 V 32 H 10 Z"
       stroke-miterlimit="10"
       transform="matrix(0.4776,0,0,0.51268,42.463,56.334)"
       id="path409"
       inkscape:connector-curvature="0"
       style="fill:none;stroke:#5c646e;stroke-linecap:round;stroke-linejoin:round;stroke-miterlimit:10" />
    <path
       d="M 32,60 54,32 H 40 V 12 C 40,7.6 36.4,4 32,4 v 0 c -4.4,0 -8,3.6 -8,8 V 32 H 10 Z"
       stroke-miterlimit="10"
       transform="matrix(0.4776,0,0,0.51268,88.714,56.334)"
       id="path411"
       inkscape:connector-curvature="0"
       style="fill:none;stroke:#5c646e;stroke-linecap:round;stroke-linejoin:round;stroke-miterlimit:10" />
  </g>
  <path
     d="m 88.2513,48.6276 c 7.01344,-0.5789 12.524,-6.13634 12.524,-12.7358 0,-6.71524 -5.51056,-12.1569 -12.64924,-12.7358 C 86.87366,11.46222 76.22826,2.3156 63.2033,2.3156 51.9317,2.3156 42.41346,9.2624 39.28246,18.75636 31.51758,19.91416 25.6313,26.0505 25.6313,33.5762 c 0,7.87304 6.63772,14.4725 15.0288,15.0514 z"
     stroke-miterlimit="10"
     id="path415"
     inkscape:connector-curvature="0"
     style="fill:none;stroke:#00b299;stroke-width:4.81668568;stroke-linecap:round;stroke-linejoin:round;stroke-miterlimit:10"
     class="superset_colormap_primary_stroke" />
  <text
     x="41.394505"
     y="32.074997"
     font-size="25.65"
     letter-spacing="0"
     word-spacing="0"
     style="font-size:25.64999962px;line-height:1.25;font-family:'-apple-system', BlinkMacSystemFont, 'Segoe UI', Roboto, Oxygen, Ubuntu, Cantarell, 'Open Sans', 'Helvetica Neue', sans-serif;letter-spacing:0;word-spacing:0;fill-opacity:0.622;stroke-width:0.64099997"
     id="text421">
    <tspan
       x="41.394505"
       y="32.074997"
       id="tspan419">CO<tspan
   baseline-shift="sub"
   font-size="16.672"
   id="tspan417"
   style="font-size:16.67200089px;baseline-shift:sub">2</tspan>
</tspan>
  </text>
</svg>
