<svg width="325.44mm" height="482.041" preserveAspectRatio="xMaxYMid meet" viewBox="0 0 325.44 127.54" xmlns="http://www.w3.org/2000/svg"><path fill="none" d="M0 0h325.44v127.54H0z"/><g fill="none" stroke-linecap="square" stroke-miterlimit="10" stroke-width="2"><path stroke="#5c646e" d="M134.216 111.976H57.063V18.75l12.859 8.037 12.859-8.037 12.859 8.037 12.859-8.037 12.859 8.037 12.858-8.037z" stroke-width="3.21472"/><g stroke="#00b299"><path data-color="color-2" d="M73.137 50.897h25.717M73.137 70.185h25.717M73.137 89.473h25.717M111.713 89.473h6.43M111.713 70.185h6.43M111.713 50.897h6.43" stroke-width="3.21472"/></g></g><path d="M130.678 21.577h-6.325l1.503-7.137a.4.4 0 0 0-.392-.484h-7.621a.401.401 0 0 0-.388.298l-3.209 12.033a.402.402 0 0 0 .388.505h5.126l-2.31 11.554a.4.4 0 0 0 .71.325l12.835-16.446a.402.402 0 0 0-.317-.648z" fill="#ff9b00"/><g><g fill="none" stroke="#5c646e" stroke-linecap="round" stroke-miterlimit="10" stroke-width="3"><path d="M16.673 80.019c0 4.5 3.537 8.036 8.037 8.036h3.215c4.5 0 8.036-3.536 8.036-8.036 0-11.252-19.288-4.822-19.288-16.073 0-4.501 3.537-8.037 8.037-8.037h3.215c4.5 0 8.036 3.536 8.036 8.037M26.317 88.055v6.43M26.317 49.48v6.429" data-color="color-2" stroke-width="4.821960000000001"/></g></g></svg>