<?xml version="1.0" encoding="UTF-8" standalone="no"?>
<!-- Svg Vector Icons : http://www.onlinewebfonts.com/icon -->

<svg
   xmlns:dc="http://purl.org/dc/elements/1.1/"
   xmlns:cc="http://creativecommons.org/ns#"
   xmlns:rdf="http://www.w3.org/1999/02/22-rdf-syntax-ns#"
   xmlns:svg="http://www.w3.org/2000/svg"
   xmlns="http://www.w3.org/2000/svg"
   xmlns:sodipodi="http://sodipodi.sourceforge.net/DTD/sodipodi-0.dtd"
   xmlns:inkscape="http://www.inkscape.org/namespaces/inkscape"
   version="1.1"
   x="0px"
   y="0px"
   viewBox="0 0 980.01874 930.23743"
   enable-background="new 0 0 1000 1000"
   xml:space="preserve"
   id="svg12"
   sodipodi:docname="piggy-bank.svg"
   inkscape:version="0.92.4 5da689c313, 2019-01-14"
   width="980.01874"
   height="930.23743"><defs
   id="defs16"><clipPath
     id="clipPath196"
     clipPathUnits="userSpaceOnUse"><path
       inkscape:connector-curvature="0"
       id="path194"
       d="m 343.647,352.601 c -0.222,0 -0.443,-0.22 -0.443,-0.479 v 0 -0.995 c 0,-0.259 0.185,-0.48 0.443,-0.48 v 0 h 8.335 c 5.422,0 9.109,-3.725 9.109,-9.294 v 0 c 0,-5.31 -3.761,-8.888 -9.367,-8.888 v 0 h -4.61 c -0.223,0 -0.443,-0.221 -0.443,-0.48 v 0 -0.995 c 0,-0.259 0.184,-0.479 0.443,-0.479 v 0 h 4.794 c 6.638,0 11.101,4.388 11.101,10.953 v 0 c 0.038,6.381 -4.536,11.137 -10.585,11.137 v 0 z m -15.048,0 c -0.258,0 -0.48,-0.184 -0.48,-0.442 v 0 -21.207 c 0,-0.221 0.222,-0.441 0.48,-0.441 v 0 h 0.996 c 0.258,0 0.479,0.183 0.479,0.441 v 0 7.451 c 0,3.282 2.398,5.863 5.423,5.863 v 0 c 4.646,0 5.015,-2.323 5.015,-5.827 v 0 -7.487 c 0,-0.221 0.221,-0.441 0.479,-0.441 v 0 h 0.995 c 0.26,0 0.48,0.183 0.48,0.441 v 0 8.189 c -0.036,4.868 -2.176,7.228 -6.564,7.228 v 0 c -0.849,0 -3.393,0 -5.828,-2.545 v 0 8.335 c 0,0.222 -0.221,0.442 -0.479,0.442 v 0 z m -26.259,0 c -0.295,0 -0.517,-0.22 -0.517,-0.516 v 0 -5.716 h -3.281 c -0.296,0 -0.517,-0.222 -0.517,-0.517 v 0 -1.032 c 0,-0.295 0.221,-0.517 0.517,-0.517 v 0 h 3.281 v -7.598 c 0,-4.388 1.513,-6.342 4.869,-6.342 v 0 c 0.626,0 0.995,0 1.438,0.036 v 0 c 0.148,0 0.406,0.221 0.406,0.444 v 0 c 0,0.109 0,0.22 -0.258,1.216 v 0 c -0.074,0.185 -0.295,0.295 -0.48,0.295 v 0 c -0.073,0 -0.111,0 -0.183,-0.037 v 0 c -0.075,0 -0.112,-0.037 -0.185,-0.037 v 0 c -3.099,0 -3.651,0.922 -3.651,5.791 v 0 6.232 h 4.277 c 0.296,0 0.516,0.222 0.516,0.517 v 0 1.032 c 0,0.295 -0.22,0.517 -0.516,0.517 v 0 h -4.277 v 5.716 c 0,0.296 -0.223,0.516 -0.517,0.516 v 0 z m 64.615,-3.392 c 0,-0.738 0.591,-1.328 1.329,-1.328 v 0 c 0.737,0 1.326,0.59 1.326,1.328 v 0 c -0.036,0.737 -0.626,1.327 -1.326,1.327 v 0 c -0.738,0 -1.329,-0.59 -1.329,-1.327 m -75.236,0 c 0,-0.738 0.589,-1.328 1.327,-1.328 v 0 c 0.737,0 1.328,0.59 1.328,1.328 v 0 c -0.037,0.737 -0.628,1.327 -1.328,1.327 v 0 c -0.738,0 -1.327,-0.59 -1.327,-1.327 m -40.533,-6.787 c 0,-2.876 2.987,-3.983 5.606,-4.942 v 0 c 2.176,-0.811 4.241,-1.549 4.241,-3.171 v 0 c 0,-1.808 -2.581,-2.029 -4.499,-2.029 v 0 c -1.623,0 -3.208,0.517 -4.574,0.996 v 0 h -0.037 c -0.221,0 -0.368,-0.11 -0.441,-0.332 v 0 l -0.185,-0.885 v -0.037 c 0,-0.258 0.073,-0.442 0.295,-0.553 v 0 c 1.511,-0.664 3.503,-1.07 5.348,-1.07 v 0 c 3.946,0 6.048,1.513 6.048,4.316 v 0 c 0,2.434 -3.061,3.651 -5.79,4.72 v 0 c -2.103,0.812 -4.057,1.624 -4.057,2.73 v 0 c 0,1.069 0.332,2.138 4.093,2.138 v 0 c 0.96,0 2.324,-0.037 3.431,-0.257 v 0 h 0.036 c 0.148,0 0.295,0.073 0.443,0.257 v 0 l 0.037,0.038 0.295,0.995 v 0.036 c 0,0.26 -0.074,0.37 -0.258,0.517 v 0 l -0.074,0.038 c -1.364,0.294 -3.319,0.478 -4.352,0.478 v 0 c -3.614,0 -5.606,-1.401 -5.606,-3.983 m 124.731,1.402 -0.11,1.88 v 0.038 c -0.11,0.294 -0.295,0.442 -0.627,0.442 v 0 h -0.701 c -0.258,0 -0.48,-0.184 -0.48,-0.442 v 0 -14.752 c 0,-0.222 0.222,-0.443 0.48,-0.443 v 0 h 0.996 c 0.258,0 0.479,0.184 0.479,0.443 v 0 7.449 c 0,3.283 2.398,5.864 5.422,5.864 v 0 c 4.647,0 5.016,-2.323 5.016,-5.826 v 0 -7.487 c 0,-0.222 0.221,-0.443 0.479,-0.443 v 0 h 0.996 c 0.258,0 0.479,0.184 0.479,0.443 v 0 8.188 c 0,4.831 -2.139,7.191 -6.527,7.191 v 0 c -0.886,0 -3.43,0 -5.902,-2.545 m -64.836,-5.458 c 0,-4.426 3.578,-8.003 8.003,-8.003 v 0 c 1.844,0 3.319,0.295 4.462,0.885 v 0 c 0.111,0.073 0.222,0.147 0.222,0.332 v 0 c 0,0.073 0,0.22 -0.073,0.332 v 0 l -0.332,0.774 -0.037,0.038 c -0.111,0.109 -0.222,0.146 -0.37,0.146 v 0 c -0.073,0 -0.185,0 -0.294,-0.037 v 0 c -0.96,-0.332 -2.25,-0.516 -3.541,-0.516 v 0 c -3.283,0 -5.938,2.693 -5.938,6.012 v 0 c 0,3.319 2.655,6.049 5.938,6.049 v 0 c 0.775,0 2.286,-0.075 3.503,-0.701 v 0 c 0.075,-0.038 0.222,-0.148 0.332,-0.148 v 0 c 0.185,0 0.295,0.11 0.407,0.221 v 0 l 0.479,0.775 c 0.073,0.11 0.073,0.221 0.073,0.295 v 0 c 0,0.147 -0.184,0.332 -0.22,0.369 v 0 c -1.292,0.811 -2.693,1.18 -4.611,1.18 v 0 c -4.352,0 -8.003,-3.652 -8.003,-8.003 m -34.632,7.781 -0.036,-0.036 -5.053,-11.101 -3.578,10.732 -0.037,0.037 c -0.184,0.257 -0.405,0.405 -0.663,0.405 v 0 h -0.922 c -0.295,0 -0.517,-0.22 -0.517,-0.517 v 0 l 5.053,-15.193 0.074,-0.038 c 0.073,-0.037 0.184,-0.11 0.296,-0.11 v 0 c 0.109,0 0.22,0.037 0.294,0.11 v 0 l 0.037,0.038 5.2,10.917 c 0.111,0.109 0.111,0.109 0.221,0.109 v 0 c 0.074,0 0.074,0 0.222,-0.109 v 0 l 5.2,-10.88 0.037,-0.037 0.037,-0.038 c 0.074,-0.037 0.184,-0.11 0.295,-0.11 v 0 c 0.111,0 0.22,0.037 0.294,0.11 v 0 l 0.075,0.038 5.016,15.121 v 0.037 c 0,0.332 -0.222,0.552 -0.517,0.552 v 0 h -0.922 c -0.259,0 -0.479,-0.148 -0.664,-0.405 v 0 l -3.614,-10.769 -5.053,11.101 -0.037,0.036 c -0.11,0.037 -0.295,0.112 -0.369,0.112 v 0 c -0.11,0 -0.295,-0.038 -0.369,-0.112 m 91.318,0.037 c -0.258,0 -0.48,-0.184 -0.48,-0.442 v 0 -14.752 c 0,-0.222 0.222,-0.443 0.48,-0.443 v 0 h 0.996 c 0.258,0 0.479,0.184 0.479,0.443 v 0 14.752 c 0,0.258 -0.221,0.442 -0.479,0.442 v 0 z m -75.237,0 c -0.259,0 -0.48,-0.184 -0.48,-0.442 v 0 -14.752 c 0,-0.222 0.221,-0.443 0.48,-0.443 v 0 h 0.996 c 0.257,0 0.479,0.184 0.479,0.443 v 0 14.752 c 0,0.258 -0.222,0.442 -0.479,0.442 v 0 z" /></clipPath><clipPath
     id="clipPath206"
     clipPathUnits="userSpaceOnUse"><path
       inkscape:connector-curvature="0"
       id="path204"
       d="m 209.154,359.277 c -1.224,0 -2.225,-1.001 -2.225,-2.225 v 0 -30.956 c 0,-1.222 1.001,-2.223 2.225,-2.223 v 0 h 30.956 c 1.223,0 2.224,1.001 2.224,2.223 v 0 30.956 c 0.037,1.224 -1.001,2.225 -2.224,2.225 v 0 z m 5.672,-14.421 c 0,4.411 3.188,7.711 7.378,7.711 v 0 h 9.268 c 0.296,0 0.518,-0.222 0.518,-0.519 v 0 -1.039 c 0,-0.295 -0.222,-0.518 -0.518,-0.518 v 0 H 222.5 c -3.337,0 -5.561,-2.299 -5.561,-5.709 v 0 c 0,-3.3 2.261,-5.451 5.746,-5.451 v 0 h 3.226 c 0.296,0 0.518,-0.222 0.518,-0.518 v 0 -1.038 c 0,-0.297 -0.222,-0.52 -0.518,-0.52 v 0 h -3.337 c -0.028,0 -0.055,0 -0.083,0 v 0 c -4.588,0 -7.665,3.068 -7.665,7.601 m 8.045,-0.445 v 1.075 c 0,0.297 0.222,0.518 0.519,0.518 v 0 h 3.336 c 4.597,0 7.711,-3.075 7.711,-7.6 v 0 c 0.037,-4.484 -3.151,-7.784 -7.34,-7.784 v 0 h -9.268 c -0.297,0 -0.52,0.223 -0.52,0.518 v 0 1.075 c 0,0.297 0.223,0.52 0.52,0.52 v 0 h 8.971 c 3.337,0 5.561,2.298 5.561,5.709 v 0 c 0,3.3 -2.261,5.45 -5.746,5.45 v 0 h -3.225 c -0.297,0 -0.519,0.222 -0.519,0.519" /></clipPath><clipPath
     id="clipPath226"
     clipPathUnits="userSpaceOnUse"><path
       inkscape:connector-curvature="0"
       id="path224"
       d="M 0,841.89 H 595.276 V 0 H 0 Z" /></clipPath><clipPath
     id="clipPath234"
     clipPathUnits="userSpaceOnUse"><path
       inkscape:connector-curvature="0"
       id="path232"
       d="M 152.946,385.512 H 442.33 V 297.638 H 152.946 Z" /></clipPath><clipPath
     id="clipPath238"
     clipPathUnits="userSpaceOnUse"><path
       inkscape:connector-curvature="0"
       id="path236"
       d="m 152.946,385.512 h 0.25 v -2.835 h -0.25 z" /></clipPath><clipPath
     id="clipPath242"
     clipPathUnits="userSpaceOnUse"><path
       inkscape:connector-curvature="0"
       id="path240"
       d="m 152.946,300.472 h 0.25 v -2.834 h -0.25 z" /></clipPath><clipPath
     id="clipPath246"
     clipPathUnits="userSpaceOnUse"><path
       inkscape:connector-curvature="0"
       id="path244"
       d="m 442.08,385.512 h 0.25 v -2.835 h -0.25 z" /></clipPath><clipPath
     id="clipPath250"
     clipPathUnits="userSpaceOnUse"><path
       inkscape:connector-curvature="0"
       id="path248"
       d="m 442.08,300.472 h 0.25 v -2.834 h -0.25 z" /></clipPath></defs><sodipodi:namedview
   pagecolor="#ffffff"
   bordercolor="#666666"
   borderopacity="1"
   objecttolerance="10"
   gridtolerance="10"
   guidetolerance="10"
   inkscape:pageopacity="0"
   inkscape:pageshadow="2"
   inkscape:window-width="1920"
   inkscape:window-height="1080"
   id="namedview14"
   showgrid="false"
   inkscape:zoom="0.472"
   inkscape:cx="677.66539"
   inkscape:cy="439.27856"
   inkscape:window-x="0"
   inkscape:window-y="-16"
   inkscape:window-maximized="0"
   inkscape:current-layer="svg12"
   fit-margin-top="0"
   fit-margin-left="0"
   fit-margin-right="0"
   fit-margin-bottom="0" />
<metadata
   id="metadata2"> Svg Vector Icons : http://www.onlinewebfonts.com/icon <rdf:RDF><cc:Work
     rdf:about=""><dc:format>image/svg+xml</dc:format><dc:type
       rdf:resource="http://purl.org/dc/dcmitype/StillImage" /><dc:title></dc:title></cc:Work></rdf:RDF></metadata>
<path
   d="m 206.17,250.83351 c -9.15,4.89 -17.66,14.47 -22.55,25.32 -5.32,11.91 -6.17,52.34 -1.7,74.68 1.91,10 4.04,20.43 4.68,23.4 0.85,4.68 -0.43,5.96 -8.3,10 -5.11,2.34 -14.89,9.36 -21.49,15.53 -12.77,11.7 -36.38,45.11 -44.04,62.13 l -4.26,9.79 -15.32,1.28 c -8.51,0.64 -30.64,1.91 -48.94,2.55 l -33.4,1.49 -2.13,6.6 c -4.47,13.4 -8.72,44.89 -8.72,62.77 0,24.89 4.68,44.68 15.11,65.96 10.64,21.7 30.43,42.55 50.21,52.98 l 13.19,6.81 16.17,-3.19 c 38.3,-8.08 88.3,-29.79 106.17,-46.59 11.28,-10.43 11.7,-9.57 6.6,14.47 -8.3,39.57 -35.32,74.26 -72.98,93.4 l -19.57,10.2 3.4,6.38 c 1.7,3.41 13.19,16.81 25.53,29.36 l 22.13,23.19 11.92,42.13 c 21.28,76.81 23.62,83.62 30,85.11 6.81,1.71 46.38,0 78.94,-3.62 28.09,-2.98 25.32,0 32.13,-34.89 2.55,-12.98 5.11,-24.47 5.53,-25.96 0.64,-1.7 3.83,-0.85 10.43,2.77 14.26,8.09 41.06,17.23 65.53,22.55 18.94,4.04 28.3,4.68 68.72,4.68 40.21,0 49.58,-0.64 67.02,-4.47 26.81,-5.96 53.4,-15.74 71.06,-26.17 8.09,-4.68 14.68,-8.51 15.11,-8.51 0.21,0 -4.47,11.7 -10.85,26.17 -6.17,14.47 -11.7,29.57 -12.55,33.83 -1.28,7.23 -1.06,7.66 5.75,10 13.62,4.26 37.02,7.02 63.4,7.23 39.79,0.21 38.09,1.49 66.6,-49.58 22.98,-41.28 47.24,-82.34 79.36,-135.11 18.3,-30 29.58,-56.17 38.51,-89.36 5.11,-19.57 5.75,-24.68 5.75,-63.19 0.21,-41.7 0.21,-42.13 4.89,-42.13 2.55,0 5.96,-0.43 7.66,-1.06 2.34,-1.06 2.98,1.28 2.77,11.28 -0.42,32.55 31.07,51.49 68.3,41.07 35.96,-10 49.57,-52.13 25.53,-78.3 l -8.72,-9.36 6.38,-5.11 c 3.41,-2.77 6.81,-5.1 7.45,-5.32 3.41,-0.21 8.51,-15.53 7.24,-21.28 -1.92,-9.15 -12.34,-17.02 -22.34,-17.02 -8.51,0 -20.21,7.66 -40.43,26.6 l -9.57,8.94 -24.47,2.55 c -13.4,1.49 -27.23,2.98 -30.85,3.62 -6.17,1.06 -6.59,0.64 -15.53,-18.73 -27.45,-59.57 -91.06,-119.15 -167.45,-156.38 -64.04,-31.06 -122.55,-44.04 -198.94,-44.04 -56.81,0 -96.81,5.32 -143.83,19.15 -10.43,2.98 -20.43,5.96 -22.13,6.59 -2.13,0.43 -5.75,-4.25 -11.49,-15.53 -10,-19.58 -28.09,-39.79 -41.92,-46.81 -13.21,-6.6 -33.21,-7.02 -44.7,-0.85 z m 316.82,87.44 c 40.43,4.25 84.04,15.74 116.81,30.85 13.19,5.96 16.17,8.3 18.93,14.89 4.26,10 2.34,18.51 -5.96,25.32 -8.3,7.02 -15.11,6.81 -36.17,-1.91 -48.08,-19.79 -80,-25.74 -137.87,-25.53 -36.17,0 -47.45,0.85 -65.96,4.68 -12.34,2.55 -24.04,4.68 -26.17,4.68 -2.34,0 -7.23,-3.19 -11.28,-7.23 -9.15,-9.15 -9.79,-19.15 -1.91,-28.51 7.02,-8.3 22.98,-12.34 72.34,-18.09 14.47,-1.91 57.87,-1.27 77.24,0.85 z m -264.05,116.81 c 8.72,5.32 13.4,12.55 14.89,22.98 2.13,16.38 -11.92,32.34 -28.3,32.34 -18.51,0 -30.64,-11.7 -30.64,-29.57 0.01,-23.19 24.69,-37.66 44.05,-25.75 z m 674.26,96.81 c 3.41,2.77 3.62,3.41 0.85,5.32 -4.04,2.77 -12.55,5.11 -14.04,3.62 -1.7,-1.7 3.83,-12.13 6.59,-12.13 1.28,0 4.26,1.49 6.6,3.19 z"
   id="path6"
   inkscape:connector-curvature="0"
   style="fill:#3cb895;fill-opacity:1;stroke-width:0.1" />
<path
   style="fill:#3cb895;fill-opacity:1;stroke-width:2.118644"
   d="m 457.65919,245.5586 c -42.5252,-11.16835 -77.89234,-45.11565 -90.32955,-86.70322 -5.87615,-19.64869 -5.02241,-54.81647 1.80538,-74.368736 22.33445,-63.957597 92.66945,-99.47703 155.26146,-78.4075914 52.80792,17.7759644 86.73619,63.9060214 86.65466,117.8186974 -0.088,58.16646 -38.52837,107.42396 -95.0447,121.79019 -15.67158,3.98364 -42.91636,3.92324 -58.34725,-0.12934 z m 34.93188,-64.34021 c 1.01655,-4.62834 3.16707,-6.8317 8.33136,-8.53607 11.54005,-3.80856 16.73016,-11.12408 17.72165,-24.97884 1.07077,-14.96264 -2.58764,-20.44671 -20.2582,-30.36769 -16.59251,-9.31572 -19.54025,-12.20455 -19.54025,-19.149766 0,-4.71297 1.19742,-6.28774 5.62625,-7.3993 6.15758,-1.54546 11.3229,3.11258 11.3229,10.210876 0,3.27712 1.86608,3.83235 12.8802,3.83235 h 12.88021 l -1.43759,-6.885586 c -2.29426,-10.98874 -8.01784,-19.27273 -16.46791,-23.83475 -5.83569,-3.15056 -8.18156,-6.00322 -9.14686,-11.12288 -1.1086,-5.87965 -2.19237,-6.88559 -7.41841,-6.88559 -4.92477,0 -6.12648,0.93107 -6.15259,4.76695 -0.0441,6.48144 -1.95058,8.7614 -10.07401,12.04763 -11.5572,4.6753 -17.43592,13.5456 -17.43592,26.30876 0,14.101196 3.0445,18.279466 21.16226,29.043026 17.0437,10.12548 19.66382,12.80255 18.72495,19.132 -1.57182,10.5966 -12.54031,10.56397 -17.92573,-0.0533 -4.18383,-8.24837 -6.3082,-9.22242 -16.71123,-7.66239 l -9.89883,1.48442 1.4217,7.78426 c 2.09083,11.44795 6.65695,17.19935 17.4426,21.97036 6.66002,2.94604 10.33424,6.14528 11.93834,10.39504 3.23821,8.57899 11.12223,8.51873 13.01511,-0.0995 z"
   id="path425"
   inkscape:connector-curvature="0" /></svg>