<?xml version="1.0" encoding="UTF-8" standalone="no"?>
<!-- Svg Vector Icons : http://www.onlinewebfonts.com/icon -->

<svg
   xmlns:dc="http://purl.org/dc/elements/1.1/"
   xmlns:cc="http://creativecommons.org/ns#"
   xmlns:rdf="http://www.w3.org/1999/02/22-rdf-syntax-ns#"
   xmlns:svg="http://www.w3.org/2000/svg"
   xmlns="http://www.w3.org/2000/svg"
   xmlns:sodipodi="http://sodipodi.sourceforge.net/DTD/sodipodi-0.dtd"
   xmlns:inkscape="http://www.inkscape.org/namespaces/inkscape"
   version="1.1"
   x="0px"
   y="0px"
   viewBox="0 0 980.01874 930.23743"
   enable-background="new 0 0 1000 1000"
   xml:space="preserve"
   id="svg12"
   sodipodi:docname="piggy-bank.svg"
   inkscape:version="0.92.4 5da689c313, 2019-01-14"
   width="980.01874"
   height="930.23743"><metadata
     id="metadata960"><rdf:RDF><cc:Work
         rdf:about=""><dc:format>image/svg+xml</dc:format><dc:type
           rdf:resource="http://purl.org/dc/dcmitype/StillImage" /></cc:Work></rdf:RDF></metadata><defs
     id="defs16" /><sodipodi:namedview
     pagecolor="#ffffff"
     bordercolor="#666666"
     borderopacity="1"
     objecttolerance="10"
     gridtolerance="10"
     guidetolerance="10"
     inkscape:pageopacity="0"
     inkscape:pageshadow="2"
     inkscape:window-width="1920"
     inkscape:window-height="1046"
     id="namedview14"
     showgrid="false"
     inkscape:zoom="0.6675088"
     inkscape:cx="410.69785"
     inkscape:cy="437.06016"
     inkscape:window-x="0"
     inkscape:window-y="18"
     inkscape:window-maximized="1"
     inkscape:current-layer="svg12"
     fit-margin-top="0"
     fit-margin-left="0"
     fit-margin-right="0"
     fit-margin-bottom="0" /><path
     d="m 206.17,250.83351 c -9.15,4.89 -17.66,14.47 -22.55,25.32 -5.32,11.91 -6.17,52.34 -1.7,74.68 1.91,10 4.04,20.43 4.68,23.4 0.85,4.68 -0.43,5.96 -8.3,10 -5.11,2.34 -14.89,9.36 -21.49,15.53 -12.77,11.7 -36.38,45.11 -44.04,62.13 l -4.26,9.79 -15.32,1.28 c -8.51,0.64 -30.64,1.91 -48.94,2.55 l -33.4,1.49 -2.13,6.6 c -4.47,13.4 -8.72,44.89 -8.72,62.77 0,24.89 4.68,44.68 15.11,65.96 10.64,21.7 30.43,42.55 50.21,52.98 l 13.19,6.81 16.17,-3.19 c 38.3,-8.08 88.3,-29.79 106.17,-46.59 11.28,-10.43 11.7,-9.57 6.6,14.47 -8.3,39.57 -35.32,74.26 -72.98,93.4 l -19.57,10.2 3.4,6.38 c 1.7,3.41 13.19,16.81 25.53,29.36 l 22.13,23.19 11.92,42.13 c 21.28,76.81 23.62,83.62 30,85.11 6.81,1.71 46.38,0 78.94,-3.62 28.09,-2.98 25.32,0 32.13,-34.89 2.55,-12.98 5.11,-24.47 5.53,-25.96 0.64,-1.7 3.83,-0.85 10.43,2.77 14.26,8.09 41.06,17.23 65.53,22.55 18.94,4.04 28.3,4.68 68.72,4.68 40.21,0 49.58,-0.64 67.02,-4.47 26.81,-5.96 53.4,-15.74 71.06,-26.17 8.09,-4.68 14.68,-8.51 15.11,-8.51 0.21,0 -4.47,11.7 -10.85,26.17 -6.17,14.47 -11.7,29.57 -12.55,33.83 -1.28,7.23 -1.06,7.66 5.75,10 13.62,4.26 37.02,7.02 63.4,7.23 39.79,0.21 38.09,1.49 66.6,-49.58 22.98,-41.28 47.24,-82.34 79.36,-135.11 18.3,-30 29.58,-56.17 38.51,-89.36 5.11,-19.57 5.75,-24.68 5.75,-63.19 0.21,-41.7 0.21,-42.13 4.89,-42.13 2.55,0 5.96,-0.43 7.66,-1.06 2.34,-1.06 2.98,1.28 2.77,11.28 -0.42,32.55 31.07,51.49 68.3,41.07 35.96,-10 49.57,-52.13 25.53,-78.3 l -8.72,-9.36 6.38,-5.11 c 3.41,-2.77 6.81,-5.1 7.45,-5.32 3.41,-0.21 8.51,-15.53 7.24,-21.28 -1.92,-9.15 -12.34,-17.02 -22.34,-17.02 -8.51,0 -20.21,7.66 -40.43,26.6 l -9.57,8.94 -24.47,2.55 c -13.4,1.49 -27.23,2.98 -30.85,3.62 -6.17,1.06 -6.59,0.64 -15.53,-18.73 -27.45,-59.57 -91.06,-119.15 -167.45,-156.38 -64.04,-31.06 -122.55,-44.04 -198.94,-44.04 -56.81,0 -96.81,5.32 -143.83,19.15 -10.43,2.98 -20.43,5.96 -22.13,6.59 -2.13,0.43 -5.75,-4.25 -11.49,-15.53 -10,-19.58 -28.09,-39.79 -41.92,-46.81 -13.21,-6.6 -33.21,-7.02 -44.7,-0.85 z m 316.82,87.44 c 40.43,4.25 84.04,15.74 116.81,30.85 13.19,5.96 16.17,8.3 18.93,14.89 4.26,10 2.34,18.51 -5.96,25.32 -8.3,7.02 -15.11,6.81 -36.17,-1.91 -48.08,-19.79 -80,-25.74 -137.87,-25.53 -36.17,0 -47.45,0.85 -65.96,4.68 -12.34,2.55 -24.04,4.68 -26.17,4.68 -2.34,0 -7.23,-3.19 -11.28,-7.23 -9.15,-9.15 -9.79,-19.15 -1.91,-28.51 7.02,-8.3 22.98,-12.34 72.34,-18.09 14.47,-1.91 57.87,-1.27 77.24,0.85 z m -264.05,116.81 c 8.72,5.32 13.4,12.55 14.89,22.98 2.13,16.38 -11.92,32.34 -28.3,32.34 -18.51,0 -30.64,-11.7 -30.64,-29.57 0.01,-23.19 24.69,-37.66 44.05,-25.75 z m 674.26,96.81 c 3.41,2.77 3.62,3.41 0.85,5.32 -4.04,2.77 -12.55,5.11 -14.04,3.62 -1.7,-1.7 3.83,-12.13 6.59,-12.13 1.28,0 4.26,1.49 6.6,3.19 z"
     id="path6"
     inkscape:connector-curvature="0"
     style="fill:#3cb895;fill-opacity:1;stroke-width:0.1"
     class="superset_colormap_primary_stroke_and_fill" /><path
     style="fill:#3cb895;fill-opacity:1;stroke-width:2.118644"
     d="m 457.65919,245.5586 c -42.5252,-11.16835 -77.89234,-45.11565 -90.32955,-86.70322 -5.87615,-19.64869 -5.02241,-54.81647 1.80538,-74.368736 22.33445,-63.957597 92.66945,-99.47703 155.26146,-78.4075914 52.80792,17.7759644 86.73619,63.9060214 86.65466,117.8186974 -0.088,58.16646 -38.52837,107.42396 -95.0447,121.79019 -15.67158,3.98364 -42.91636,3.92324 -58.34725,-0.12934 z m 34.93188,-64.34021 c 1.01655,-4.62834 3.16707,-6.8317 8.33136,-8.53607 11.54005,-3.80856 16.73016,-11.12408 17.72165,-24.97884 1.07077,-14.96264 -2.58764,-20.44671 -20.2582,-30.36769 -16.59251,-9.31572 -19.54025,-12.20455 -19.54025,-19.149766 0,-4.71297 1.19742,-6.28774 5.62625,-7.3993 6.15758,-1.54546 11.3229,3.11258 11.3229,10.210876 0,3.27712 1.86608,3.83235 12.8802,3.83235 h 12.88021 l -1.43759,-6.885586 c -2.29426,-10.98874 -8.01784,-19.27273 -16.46791,-23.83475 -5.83569,-3.15056 -8.18156,-6.00322 -9.14686,-11.12288 -1.1086,-5.87965 -2.19237,-6.88559 -7.41841,-6.88559 -4.92477,0 -6.12648,0.93107 -6.15259,4.76695 -0.0441,6.48144 -1.95058,8.7614 -10.07401,12.04763 -11.5572,4.6753 -17.43592,13.5456 -17.43592,26.30876 0,14.101196 3.0445,18.279466 21.16226,29.043026 17.0437,10.12548 19.66382,12.80255 18.72495,19.132 -1.57182,10.5966 -12.54031,10.56397 -17.92573,-0.0533 -4.18383,-8.24837 -6.3082,-9.22242 -16.71123,-7.66239 l -9.89883,1.48442 1.4217,7.78426 c 2.09083,11.44795 6.65695,17.19935 17.4426,21.97036 6.66002,2.94604 10.33424,6.14528 11.93834,10.39504 3.23821,8.57899 11.12223,8.51873 13.01511,-0.0995 z"
     id="path425"
     inkscape:connector-curvature="0"
     class="superset_colormap_secondary_stroke_and_fill" /></svg>