<svg width="325.44mm" height="482.041" preserveAspectRatio="xMaxYMid meet" viewBox="0 0 325.44 127.54" xmlns="http://www.w3.org/2000/svg"><path fill="none" d="M0 0h325.44v127.54H0z"/><g fill="none" stroke-linecap="square" stroke-miterlimit="10" stroke-width="2"><path stroke="#5c646e" d="M33.78 111.976V18.75l12.859 8.037 12.859-8.037 12.859 8.037 12.859-8.037 12.858 8.037 12.86-8.037v93.227z" stroke-width="3.21472"/><g stroke="#00b299"><path data-color="color-2" d="M49.854 50.897H75.57M49.854 70.185H75.57M49.854 89.473H75.57M88.43 89.473h6.43M88.43 70.185h6.43M88.43 50.897h6.43" stroke-width="3.21472"/></g></g><path d="M107.395 21.577h-6.325l1.503-7.137a.4.4 0 0 0-.392-.484H94.56a.401.401 0 0 0-.388.298l-3.209 12.033a.402.402 0 0 0 .388.505h5.126l-2.31 11.554a.4.4 0 0 0 .709.325l12.836-16.446a.402.402 0 0 0-.317-.648z" fill="#ff9b00"/></svg>