<?xml version="1.0" encoding="UTF-8" standalone="no"?>
<svg
   xmlns:dc="http://purl.org/dc/elements/1.1/"
   xmlns:cc="http://creativecommons.org/ns#"
   xmlns:rdf="http://www.w3.org/1999/02/22-rdf-syntax-ns#"
   xmlns:svg="http://www.w3.org/2000/svg"
   xmlns="http://www.w3.org/2000/svg"
   xmlns:sodipodi="http://sodipodi.sourceforge.net/DTD/sodipodi-0.dtd"
   xmlns:inkscape="http://www.inkscape.org/namespaces/inkscape"
   width="303.7558"
   height="376.54822"
   preserveAspectRatio="xMaxYMid meet"
   viewBox="0 0 80.368721 99.628374"
   version="1.1"
   id="svg560"
   sodipodi:docname="savings-left.svg"
   inkscape:version="0.92.4 5da689c313, 2019-01-14">
  <metadata
     id="metadata566">
    <rdf:RDF>
      <cc:Work
         rdf:about="">
        <dc:format>image/svg+xml</dc:format>
        <dc:type
           rdf:resource="http://purl.org/dc/dcmitype/StillImage" />
        <dc:title />
      </cc:Work>
    </rdf:RDF>
  </metadata>
  <defs
     id="defs564" />
  <sodipodi:namedview
     pagecolor="#ffffff"
     bordercolor="#666666"
     borderopacity="1"
     objecttolerance="10"
     gridtolerance="10"
     guidetolerance="10"
     inkscape:pageopacity="0"
     inkscape:pageshadow="2"
     inkscape:window-width="1920"
     inkscape:window-height="1046"
     id="namedview562"
     showgrid="false"
     fit-margin-top="0"
     fit-margin-left="0"
     fit-margin-right="0"
     fit-margin-bottom="0"
     inkscape:zoom="1.1707227"
     inkscape:cx="178.21743"
     inkscape:cy="95.169947"
     inkscape:window-x="0"
     inkscape:window-y="18"
     inkscape:window-maximized="1"
     inkscape:current-layer="svg560" />
  <g
     stroke-miterlimit="10"
     id="g556"
     style="fill:none;stroke-width:2;stroke-linecap:square;stroke-miterlimit:10"
     transform="translate(-32.17264,-13.955999)">
    <path
       d="M 33.78,111.976 V 18.75 l 12.859,8.037 12.859,-8.037 12.859,8.037 12.859,-8.037 12.858,8.037 12.86,-8.037 v 93.227 z"
       id="path550"
       inkscape:connector-curvature="0"
       style="stroke:#5c646e;stroke-width:3.21472001"
       class="superset_colormap_secondary" />
    <g
       id="g554"
       style="stroke:#00b299"
       class="superset_colormap_primary">
      <path
         data-color="color-2"
         d="M 49.854,50.897 H 75.57 M 49.854,70.185 H 75.57 M 49.854,89.473 H 75.57 m 12.86,0 h 6.43 M 88.43,70.185 h 6.43 M 88.43,50.897 h 6.43"
         id="path552"
         inkscape:connector-curvature="0"
         style="stroke-width:3.21472001" />
    </g>
  </g>
  <path
     d="m 75.22236,7.6210011 h -6.325 l 1.503,-7.13700004 A 0.4,0.4 0 0 0 70.00836,1.0572502e-6 h -7.621 A 0.401,0.401 0 0 0 61.99936,0.29800106 l -3.209,12.03299994 a 0.402,0.402 0 0 0 0.388,0.505 h 5.126 l -2.31,11.554 a 0.4,0.4 0 0 0 0.709,0.325 l 12.836,-16.4459999 a 0.402,0.402 0 0 0 -0.317,-0.648 z"
     id="path558"
     inkscape:connector-curvature="0"
     style="fill:#ff9b00" />
</svg>
