<?xml version="1.0" encoding="UTF-8" standalone="no"?>
<svg
   xmlns:dc="http://purl.org/dc/elements/1.1/"
   xmlns:cc="http://creativecommons.org/ns#"
   xmlns:rdf="http://www.w3.org/1999/02/22-rdf-syntax-ns#"
   xmlns:svg="http://www.w3.org/2000/svg"
   xmlns="http://www.w3.org/2000/svg"
   xmlns:sodipodi="http://sodipodi.sourceforge.net/DTD/sodipodi-0.dtd"
   xmlns:inkscape="http://www.inkscape.org/namespaces/inkscape"
   id="Layer_1"
   x="0px"
   y="0px"
   viewBox="-0.2 0 103 103"
   version="1.1"
   sodipodi:docname="switchdin-logo.svg"
   width="103"
   height="103"
   inkscape:version="0.92.4 5da689c313, 2019-01-14">
  <metadata
     id="metadata15">
    <rdf:RDF>
      <cc:Work
         rdf:about="">
        <dc:format>image/svg+xml</dc:format>
        <dc:type
           rdf:resource="http://purl.org/dc/dcmitype/StillImage" />
        <dc:title></dc:title>
      </cc:Work>
    </rdf:RDF>
  </metadata>
  <defs
     id="defs13" />
  <sodipodi:namedview
     pagecolor="#ffffff"
     bordercolor="#666666"
     borderopacity="1"
     objecttolerance="10"
     gridtolerance="10"
     guidetolerance="10"
     inkscape:pageopacity="0"
     inkscape:pageshadow="2"
     inkscape:window-width="1918"
     inkscape:window-height="1044"
     id="namedview11"
     showgrid="false"
     viewbox-x="-0.2"
     fit-margin-top="0"
     fit-margin-left="0"
     fit-margin-right="0"
     fit-margin-bottom="0"
     inkscape:zoom="6.1384961"
     inkscape:cx="50.139048"
     inkscape:cy="46.906307"
     inkscape:window-x="1920"
     inkscape:window-y="18"
     inkscape:window-maximized="0"
     inkscape:current-layer="Layer_1" />
  <style
     type="text/css"
     id="style2">
	.st0{fill:#00B299;}
	.st1{fill:#37424A;}
</style>
  <g
     transform="matrix(1,0,0,1.001047,-180.8003,-247.06187)"
     id="g8">
    <path
       class="st0"
       d="m 273.8,250.5 h -83.5 c -3.3,0 -6,2.7 -6,6 V 340 c 0,3.3 2.7,6 6,6 h 83.5 c 3.3,0 6,-2.7 6,-6 v -83.5 c 0.1,-3.3 -2.7,-6 -6,-6 z m -68.2,38.9 c 0,-11.9 8.6,-20.8 19.9,-20.8 h 25 c 0.8,0 1.4,0.6 1.4,1.4 v 2.8 c 0,0.8 -0.6,1.4 -1.4,1.4 h -24.2 c -9,0 -15,6.2 -15,15.4 0,8.9 6.1,14.7 15.5,14.7 h 8.7 c 0.8,0 1.4,0.6 1.4,1.4 v 2.8 c 0,0.8 -0.6,1.4 -1.4,1.4 h -9 C 214,310 205.6,301.7 205.6,289.4 Z m 33.1,38.4 h -25 c -0.8,0 -1.4,-0.6 -1.4,-1.4 v -2.9 c 0,-0.8 0.6,-1.4 1.4,-1.4 h 24.2 c 9,0 15,-6.2 15,-15.4 0,-8.9 -6.1,-14.7 -15.5,-14.7 h -8.7 c -0.8,0 -1.4,-0.6 -1.4,-1.4 v -2.9 c 0,-0.8 0.6,-1.4 1.4,-1.4 h 9 c 12.4,0 20.8,8.3 20.8,20.5 0.1,12.1 -8.5,21 -19.8,21 z"
       id="path6"
       inkscape:connector-curvature="0"
       style="fill:#00b299" />
  </g>
</svg>
