<svg xmlns="http://www.w3.org/2000/svg" xmlns:xlink="http://www.w3.org/1999/xlink" viewBox="0 0 136 51">
  <defs>
    <style>
      .a {
        fill: url(#a);
      }
    </style>
    <linearGradient id="a" data-name="New Gradient Swatch 1" y1="22.11" x2="136" y2="22.11" gradientUnits="userSpaceOnUse">
      <stop offset="0" stop-color="#5a287f"/>
      <stop offset="0.55" stop-color="#cc5154"/>
      <stop offset="1" stop-color="#d7801c"/>
    </linearGradient>
  </defs>
  <title>logo-yurika</title>
  <path class="a" d="M75.52,40.2a3.91,3.91,0,0,0,4,4,4,4,0,1,0,0-8,3.92,3.92,0,0,0-4,4M43.1,4.85v15.8a4.1,4.1,0,0,1-4.22,4.25c-2.4,0-4.09-1.47-4.09-4.25V4.85a3.39,3.39,0,0,0-3.52-3.31,3.34,3.34,0,0,0-3.51,3.31v16c0,6.1,4.1,10.59,9.08,10.59a8,8,0,0,0,4.33-1.54,5.39,5.39,0,0,1,2.11-.94c.7,0,1.46.89,1.93,1.3a3.37,3.37,0,0,0,2.23.83,2.68,2.68,0,0,0,2.69-2.78V4.85a3.52,3.52,0,0,0-7,0M17,4l-4.1,14.5-.82,3.31H12l-.82-3.31L7,4A3.14,3.14,0,0,0,3.87,1.48C1.52,1.48,0,2.9,0,4.79A5.68,5.68,0,0,0,.18,5.86L8.32,29.75,7.5,32c-.65,1.72-1.88,3.38-3.11,3.79a3.52,3.52,0,0,0-2.57,3.43c0,2,1.28,3.2,3.51,3.2,4.27,0,7.44-4.2,8.84-8.29L23.83,5.86A8.15,8.15,0,0,0,24,4.67a3.39,3.39,0,0,0-3.63-3.19A3.32,3.32,0,0,0,17,4M105.49,3l-6.74,9.35c-.41.53-.76.83-1.11.83a.68.68,0,0,1-.71-.65V4.64a3.38,3.38,0,0,0-3.51-3.31,3.34,3.34,0,0,0-3.51,3.31V40.38a3.34,3.34,0,0,0,3.51,3.31,3.38,3.38,0,0,0,3.51-3.31V20.91a.62.62,0,0,1,.65-.65c.41,0,.76.41,1,.77l6.86,8.34a3.41,3.41,0,0,0,2.81,1.54,3.31,3.31,0,0,0,3.33-3.37,3.41,3.41,0,0,0-.82-2.13l-7.38-8.64,7.79-10.12a3.56,3.56,0,0,0,.71-2.07,3.32,3.32,0,0,0-3.28-3.25A3.84,3.84,0,0,0,105.49,3m-42.18.69c-1.23,0-2.11-2.31-4-2.31a2.59,2.59,0,0,0-2.63,2.66V27.75a3.34,3.34,0,0,0,3.51,3.31,3.39,3.39,0,0,0,3.52-3.31V13c0-3.31,2-5,4.86-5a3.05,3.05,0,0,0,3.16-3.38,3.13,3.13,0,0,0-3.1-3.37c-3,0-3.81,2.55-5.33,2.55M121,21.53c0-2.07,1.58-3.37,3.75-3.37H129V21.3c.06,2.07-1.81,3.6-4.15,3.6A3.6,3.6,0,0,1,121,21.53M118.14,3a3.6,3.6,0,0,0-2.28,3.31,2.94,2.94,0,0,0,2.92,3,5.69,5.69,0,0,0,2.46-.65,9.55,9.55,0,0,1,3.63-.89,4.11,4.11,0,0,1,4.1,4.2v1.3h-4.1c-5.27,0-10.77,2.31-10.77,8.58,0,5.56,3.92,9.52,9.19,9.52a7.71,7.71,0,0,0,4.39-1.59,3.29,3.29,0,0,1,1.47-.59c1.29,0,2.17,2.07,4.1,2.07A2.62,2.62,0,0,0,136,28.57V11.89c0-6.33-5-10.71-11.13-10.71A16,16,0,0,0,118.14,3M76.53,5.1l.26,23.2c0,1.49,1.31,3.58,3.15,3.63s3.26-2,3.35-3.44L84.82,5.34C85,2.91,83.34.07,80.82,0h-.1c-2.46,0-4.21,2.62-4.19,5.1"/>
</svg>
