<svg width="212.86mm" height="145.77mm" version="1.1" viewBox="0 0 212.86 145.77" xmlns="http://www.w3.org/2000/svg">
 <defs>
  <clipPath id="clipPath212">
   <path d="m1436.5 398.1h244.33v-245.89h-244.33z"/>
  </clipPath>
  <clipPath id="clipPath216">
   <path d="m1436.5 398.1h244.33v-245.89h-244.33z"/>
  </clipPath>
  <clipPath id="clipPath240">
   <path d="m1415.8 419.45h285.7v-288.6h-285.7z"/>
  </clipPath>
 </defs>
 <g transform="matrix(.35278 0 0 -.35278 -443.66 170.82)">
  <g clip-path="url(#clipPath212)">
   <g clip-path="url(#clipPath216)" opacity=".49001">
    <g transform="translate(1679.7,275.15)">
     <path d="m0 0c0-67.251-54.169-121.77-120.99-121.77s-120.99 54.517-120.99 121.77 54.169 121.77 120.99 121.77c66.822 0 120.99-54.517 120.99-121.77" fill="#bdbcbc"/>
    </g>
   </g>
  </g>
 </g>
 <g transform="matrix(.35278 0 0 -.35278 -443.66 170.82)">
  <g clip-path="url(#clipPath240)">
   <g transform="translate(1698,275.15)">
    <path d="m0 0c0-77.746-62.375-140.77-139.32-140.77s-139.32 63.026-139.32 140.77 62.376 140.77 139.32 140.77 139.32-63.026 139.32-140.77z" fill="none" stroke="#fff" stroke-miterlimit="10" stroke-width="4.706"/>
   </g>
  </g>
 </g>
 <path d="m113.79 45.397-4.0615-3.4787c-0.91052-0.77964-2.0775-1.2111-3.2819-1.2111-0.0441 0-0.10019 2e-3 -0.15769 0.01l-0.29387-7e-3c-1.2231 0-2.4003 0.42898-3.3126 1.2086l-26.533 22.711c-2.1167 1.8143-2.3647 5.0094-0.55386 7.1282l2.086 2.431c0.79658 0.93239 1.9364 1.5261 3.2018 1.6782v21.107c0 2.6497 2.1541 4.8031 4.8006 4.8031h41.041c2.648 0 4.8002-2.1534 4.8002-4.8031v-21.055c1.2382-0.15628 2.3816-0.76764 3.2036-1.7276l2.0842-2.4349c1.8108-2.1191 1.561-5.315-0.55351-7.1268l-10.386-8.8872zm15.682 51.576c0 1.5152-1.2351 2.7499-2.7467 2.7499h-41.041c-1.5152 0-2.7467-1.2347-2.7467-2.7499v-21.654l23.266-21.008 23.268 21.041zm5.782-26.551-2.0877 2.4374c-0.5588 0.65405-1.3741 1.0312-2.237 1.0432l-24.038-21.734c-0.38911-0.35243-0.9853-0.35243-1.3741 0l-23.999 21.665c-0.89006-5e-3 -1.7494-0.35701-2.2793-0.98284l-2.0828-2.4289c-1.0735-1.2573-0.92745-3.1563 0.3295-4.2333l26.53-22.709c0.53516-0.45861 1.228-0.71085 2.1421-0.71085h0.0303c0.0868 2e-3 0.17181 0 0.25647-0.0162v0.0102c0.71367 0 1.4083 0.2547 1.9452 0.71825l5.461 4.6722 10.326 8.841 10.744 9.1962c1.2587 1.0753 1.4065 2.9725 0.33302 4.2316" fill="#fff"/>
 <path d="m10.654 45.607-1.0538-0.90241c-0.23601-0.20214-0.53869-0.31432-0.85125-0.31432-0.0113 0-0.0257 7.1e-4 -0.0409 3e-3l-0.0762-2e-3c-0.31715 0-0.62265 0.11147-0.85902 0.31361l-6.883 5.8914c-0.54893 0.47061-0.61313 1.2993-0.14358 1.8493l0.54116 0.63042c0.20673 0.242 0.50235 0.39581 0.83044 0.43533v5.4751c0 0.68756 0.5588 1.246 1.2453 1.246h10.646c0.68686 0 1.2453-0.55845 1.2453-1.246v-5.4617c0.32103-0.0406 0.61771-0.19932 0.83079-0.44803l0.54081-0.63182c0.46954-0.54963 0.40499-1.3787-0.14358-1.8486l-2.6942-2.3054zm4.0679 13.379c0 0.39299-0.32032 0.71331-0.71226 0.71331h-10.646c-0.39299 0-0.71261-0.32032-0.71261-0.71331v-5.6173l6.0357-5.4494 6.0357 5.4582zm1.5-6.8876-0.54151 0.63218c-0.14499 0.16969-0.35631 0.26776-0.58032 0.27058l-6.2354-5.6377c-0.10089-0.0914-0.25576-0.0914-0.35666 0l-6.2251 5.6201c-0.23107-1e-3 -0.45403-0.0924-0.59161-0.25506l-0.5401-0.63006c-0.2787-0.32596-0.2406-0.81879 0.0854-1.0982l6.882-5.8907c0.13899-0.11924 0.31855-0.1845 0.55562-0.1845h8e-3c0.0222 7.1e-4 0.0444 0 0.0663-4e-3v3e-3c0.18521 0 0.36548 0.066 0.50482 0.18627l1.4164 1.2118 2.6786 2.2934 2.7869 2.3858c0.32667 0.2787 0.36513 0.77117 0.0864 1.0975" fill="#fff"/>
 <path d="m10.654 45.607-1.0538-0.90241c-0.23601-0.20214-0.53869-0.31432-0.85125-0.31432-0.0113 0-0.0257 7.1e-4 -0.0409 3e-3l-0.0762-2e-3c-0.31715 0-0.62265 0.11147-0.85902 0.31361l-6.883 5.8914c-0.54893 0.47061-0.61313 1.2993-0.14358 1.8493l0.54116 0.63042c0.20673 0.242 0.50235 0.39581 0.83044 0.43533v5.4751c0 0.68756 0.5588 1.246 1.2453 1.246h10.646c0.68686 0 1.2453-0.55845 1.2453-1.246v-5.4617c0.32103-0.0406 0.61771-0.19932 0.83079-0.44803l0.54081-0.63182c0.46954-0.54963 0.40499-1.3787-0.14358-1.8486l-2.6942-2.3054zm4.0679 13.379c0 0.39299-0.32032 0.71331-0.71226 0.71331h-10.646c-0.39299 0-0.71261-0.32032-0.71261-0.71331v-5.6173l6.0357-5.4494 6.0357 5.4582zm1.5-6.8876-0.54151 0.63218c-0.14499 0.16969-0.35631 0.26776-0.58032 0.27058l-6.2354-5.6377c-0.10089-0.0914-0.25576-0.0914-0.35666 0l-6.2251 5.6201c-0.23107-1e-3 -0.45403-0.0924-0.59161-0.25506l-0.5401-0.63006c-0.2787-0.32596-0.2406-0.81879 0.0854-1.0982l6.882-5.8907c0.13899-0.11924 0.31855-0.1845 0.55562-0.1845h8e-3c0.0222 7.1e-4 0.0444 0 0.0663-4e-3v3e-3c0.18521 0 0.36548 0.066 0.50482 0.18627l1.4164 1.2118 2.6786 2.2934 2.7869 2.3858c0.32667 0.2787 0.36513 0.77117 0.0864 1.0975z" fill="none" stroke="#fff" stroke-miterlimit="10" stroke-width=".8696"/>
 <path d="m169.34 65.927-1.0538-0.90241c-0.23601-0.20214-0.53869-0.31432-0.85125-0.31432-0.0113 0-0.0258 7.1e-4 -0.0409 3e-3l-0.0762-2e-3c-0.31715 0-0.62265 0.11147-0.85902 0.31361l-6.883 5.8914c-0.54893 0.47061-0.61313 1.2993-0.14358 1.8493l0.54116 0.63042c0.20673 0.242 0.50235 0.39581 0.83044 0.43533v5.4751c0 0.68756 0.5588 1.246 1.2453 1.246h10.646c0.68686 0 1.2453-0.55845 1.2453-1.246v-5.4617c0.32103-0.0406 0.61771-0.19932 0.83079-0.44803l0.54081-0.63182c0.46954-0.54963 0.40499-1.3787-0.14358-1.8486l-2.6942-2.3054zm4.0679 13.379c0 0.39299-0.32032 0.71331-0.71226 0.71331h-10.646c-0.39299 0-0.71261-0.32032-0.71261-0.71331v-5.6173l6.0357-5.4494 6.0357 5.4582zm1.5-6.8876-0.54151 0.63218c-0.14499 0.16969-0.35631 0.26776-0.58032 0.27058l-6.2354-5.6377c-0.10089-0.0914-0.25576-0.0914-0.35666 0l-6.2251 5.6201c-0.23107-1e-3 -0.45403-0.0924-0.59161-0.25506l-0.5401-0.63006c-0.2787-0.32596-0.2406-0.81879 0.0854-1.0982l6.882-5.8907c0.13899-0.11924 0.31855-0.1845 0.55562-0.1845h8e-3c0.0222 7.1e-4 0.0444 0 0.0663-4e-3v3e-3c0.18521 0 0.36548 0.066 0.50482 0.18627l1.4164 1.2118 2.6786 2.2934 2.7869 2.3858c0.32667 0.2787 0.36513 0.77117 0.0864 1.0975" fill="#fff"/>
 <path d="m169.34 65.927-1.0538-0.90241c-0.23601-0.20214-0.53869-0.31432-0.85125-0.31432-0.0113 0-0.0258 7.1e-4 -0.0409 3e-3l-0.0762-2e-3c-0.31715 0-0.62265 0.11147-0.85902 0.31361l-6.883 5.8914c-0.54893 0.47061-0.61313 1.2993-0.14358 1.8493l0.54116 0.63042c0.20673 0.242 0.50235 0.39581 0.83044 0.43533v5.4751c0 0.68756 0.5588 1.246 1.2453 1.246h10.646c0.68686 0 1.2453-0.55845 1.2453-1.246v-5.4617c0.32103-0.0406 0.61771-0.19932 0.83079-0.44803l0.54081-0.63182c0.46954-0.54963 0.40499-1.3787-0.14358-1.8486l-2.6942-2.3054zm4.0679 13.379c0 0.39299-0.32032 0.71331-0.71226 0.71331h-10.646c-0.39299 0-0.71261-0.32032-0.71261-0.71331v-5.6173l6.0357-5.4494 6.0357 5.4582zm1.5-6.8876-0.54151 0.63218c-0.14499 0.16969-0.35631 0.26776-0.58032 0.27058l-6.2354-5.6377c-0.10089-0.0914-0.25576-0.0914-0.35666 0l-6.2251 5.6201c-0.23107-1e-3 -0.45403-0.0924-0.59161-0.25506l-0.5401-0.63006c-0.2787-0.32596-0.2406-0.81879 0.0854-1.0982l6.882-5.8907c0.13899-0.11924 0.31855-0.1845 0.55562-0.1845h8e-3c0.0222 7.1e-4 0.0444 0 0.0663-4e-3v3e-3c0.18521 0 0.36548 0.066 0.50482 0.18627l1.4164 1.2118 2.6786 2.2934 2.7869 2.3858c0.32667 0.2787 0.36513 0.77117 0.0864 1.0975z" fill="none" stroke="#fff" stroke-miterlimit="10" stroke-width=".8696"/>
 <path d="m170.05 87.857-1.0538-0.90241c-0.23601-0.20214-0.53869-0.31432-0.85125-0.31432-0.0113 0-0.0258 7.1e-4 -0.0409 3e-3l-0.0762-2e-3c-0.31715 0-0.62265 0.11147-0.85902 0.31361l-6.883 5.8914c-0.54893 0.47061-0.61313 1.2993-0.14358 1.8493l0.54116 0.63042c0.20673 0.242 0.50235 0.39581 0.83044 0.43533v5.4751c0 0.68756 0.5588 1.246 1.2453 1.246h10.646c0.68686 0 1.2453-0.55845 1.2453-1.246v-5.4617c0.32103-0.0406 0.61771-0.19932 0.83079-0.44803l0.54081-0.63182c0.46954-0.54963 0.40499-1.3787-0.14358-1.8486l-2.6942-2.3054zm4.0679 13.379c0 0.39299-0.32032 0.71331-0.71226 0.71331h-10.646c-0.39299 0-0.71261-0.32032-0.71261-0.71331v-5.6173l6.0357-5.4494 6.0357 5.4582zm1.5-6.8876-0.54151 0.63218c-0.14499 0.16969-0.35631 0.26776-0.58032 0.27058l-6.2354-5.6377c-0.10089-0.0914-0.25576-0.0914-0.35666 0l-6.2251 5.6201c-0.23107-1e-3 -0.45403-0.0924-0.59161-0.25506l-0.5401-0.63006c-0.2787-0.32596-0.2406-0.81879 0.0854-1.0982l6.882-5.8907c0.13899-0.11924 0.31855-0.1845 0.55562-0.1845h8e-3c0.0222 7.1e-4 0.0444 0 0.0663-4e-3v3e-3c0.18521 0 0.36548 0.066 0.50482 0.18627l1.4164 1.2118 2.6786 2.2934 2.7869 2.3858c0.32667 0.2787 0.36513 0.77117 0.0864 1.0975" fill="#fff"/>
 <path d="m170.05 87.857-1.0538-0.90241c-0.23601-0.20214-0.53869-0.31432-0.85125-0.31432-0.0113 0-0.0258 7.1e-4 -0.0409 3e-3l-0.0762-2e-3c-0.31715 0-0.62265 0.11147-0.85902 0.31361l-6.883 5.8914c-0.54893 0.47061-0.61313 1.2993-0.14358 1.8493l0.54116 0.63042c0.20673 0.242 0.50235 0.39581 0.83044 0.43533v5.4751c0 0.68756 0.5588 1.246 1.2453 1.246h10.646c0.68686 0 1.2453-0.55845 1.2453-1.246v-5.4617c0.32103-0.0406 0.61771-0.19932 0.83079-0.44803l0.54081-0.63182c0.46954-0.54963 0.40499-1.3787-0.14358-1.8486l-2.6942-2.3054zm4.0679 13.379c0 0.39299-0.32032 0.71331-0.71226 0.71331h-10.646c-0.39299 0-0.71261-0.32032-0.71261-0.71331v-5.6173l6.0357-5.4494 6.0357 5.4582zm1.5-6.8876-0.54151 0.63218c-0.14499 0.16969-0.35631 0.26776-0.58032 0.27058l-6.2354-5.6377c-0.10089-0.0914-0.25576-0.0914-0.35666 0l-6.2251 5.6201c-0.23107-1e-3 -0.45403-0.0924-0.59161-0.25506l-0.5401-0.63006c-0.2787-0.32596-0.2406-0.81879 0.0854-1.0982l6.882-5.8907c0.13899-0.11924 0.31855-0.1845 0.55562-0.1845h8e-3c0.0222 7.1e-4 0.0444 0 0.0663-4e-3v3e-3c0.18521 0 0.36548 0.066 0.50482 0.18627l1.4164 1.2118 2.6786 2.2934 2.7869 2.3858c0.32667 0.2787 0.36513 0.77117 0.0864 1.0975z" fill="none" stroke="#fff" stroke-miterlimit="10" stroke-width=".8696"/>
 <path d="m48.154 45.607-1.0538-0.90241c-0.23601-0.20214-0.53869-0.31432-0.85125-0.31432-0.0113 0-0.0258 7.1e-4 -0.0409 3e-3l-0.0762-2e-3c-0.31715 0-0.62265 0.11147-0.85902 0.31361l-6.883 5.8914c-0.54893 0.47061-0.61313 1.2993-0.14358 1.8493l0.54116 0.63042c0.20673 0.242 0.50235 0.39581 0.83044 0.43533v5.4751c0 0.68756 0.5588 1.246 1.2453 1.246h10.646c0.68686 0 1.2453-0.55845 1.2453-1.246v-5.4617c0.32103-0.0406 0.61771-0.19932 0.83079-0.44803l0.54081-0.63182c0.46954-0.54963 0.40499-1.3787-0.14358-1.8486l-2.6942-2.3054zm4.0679 13.379c0 0.39299-0.32032 0.71331-0.71226 0.71331h-10.646c-0.39299 0-0.71261-0.32032-0.71261-0.71331v-5.6173l6.0357-5.4494 6.0357 5.4582zm1.5-6.8876-0.54151 0.63218c-0.14499 0.16969-0.35631 0.26776-0.58032 0.27058l-6.2354-5.6377c-0.10089-0.0914-0.25576-0.0914-0.35666 0l-6.2251 5.6201c-0.23107-1e-3 -0.45403-0.0924-0.59161-0.25506l-0.5401-0.63006c-0.2787-0.32596-0.2406-0.81879 0.0854-1.0982l6.882-5.8907c0.13899-0.11924 0.31855-0.1845 0.55562-0.1845h8e-3c0.0222 7.1e-4 0.0445 0 0.0663-4e-3v3e-3c0.18521 0 0.36548 0.066 0.50482 0.18627l1.4164 1.2118 2.6786 2.2934 2.7869 2.3858c0.32667 0.2787 0.36513 0.77117 0.0864 1.0975" fill="#fff"/>
 <path d="m48.154 45.607-1.0538-0.90241c-0.23601-0.20214-0.53869-0.31432-0.85125-0.31432-0.0113 0-0.0258 7.1e-4 -0.0409 3e-3l-0.0762-2e-3c-0.31715 0-0.62265 0.11147-0.85902 0.31361l-6.883 5.8914c-0.54893 0.47061-0.61313 1.2993-0.14358 1.8493l0.54116 0.63042c0.20673 0.242 0.50235 0.39581 0.83044 0.43533v5.4751c0 0.68756 0.5588 1.246 1.2453 1.246h10.646c0.68686 0 1.2453-0.55845 1.2453-1.246v-5.4617c0.32103-0.0406 0.61771-0.19932 0.83079-0.44803l0.54081-0.63182c0.46954-0.54963 0.40499-1.3787-0.14358-1.8486l-2.6942-2.3054zm4.0679 13.379c0 0.39299-0.32032 0.71331-0.71226 0.71331h-10.646c-0.39299 0-0.71261-0.32032-0.71261-0.71331v-5.6173l6.0357-5.4494 6.0357 5.4582zm1.5-6.8876-0.54151 0.63218c-0.14499 0.16969-0.35631 0.26776-0.58032 0.27058l-6.2354-5.6377c-0.10089-0.0914-0.25576-0.0914-0.35666 0l-6.2251 5.6201c-0.23107-1e-3 -0.45403-0.0924-0.59161-0.25506l-0.5401-0.63006c-0.2787-0.32596-0.2406-0.81879 0.0854-1.0982l6.882-5.8907c0.13899-0.11924 0.31855-0.1845 0.55562-0.1845h8e-3c0.0222 7.1e-4 0.0445 0 0.0663-4e-3v3e-3c0.18521 0 0.36548 0.066 0.50482 0.18627l1.4164 1.2118 2.6786 2.2934 2.7869 2.3858c0.32667 0.2787 0.36513 0.77117 0.0864 1.0975z" fill="none" stroke="#fff" stroke-miterlimit="10" stroke-width=".8696"/>
 <path d="m48.714 65.927-1.0538-0.90241c-0.23601-0.20214-0.53869-0.31432-0.85125-0.31432-0.0113 0-0.0258 7.1e-4 -0.0409 3e-3l-0.0762-2e-3c-0.31715 0-0.62265 0.11147-0.85902 0.31361l-6.883 5.8914c-0.54893 0.47061-0.61313 1.2993-0.14358 1.8493l0.54116 0.63042c0.20673 0.242 0.50235 0.39581 0.83044 0.43533v5.4751c0 0.68756 0.5588 1.246 1.2453 1.246h10.646c0.68686 0 1.2453-0.55845 1.2453-1.246v-5.4617c0.32103-0.0406 0.61771-0.19932 0.83079-0.44803l0.54081-0.63182c0.46954-0.54963 0.40499-1.3787-0.14358-1.8486l-2.6942-2.3054zm4.0679 13.379c0 0.39299-0.32032 0.71331-0.71226 0.71331h-10.646c-0.39299 0-0.71261-0.32032-0.71261-0.71331v-5.6173l6.0357-5.4494 6.0357 5.4582zm1.5-6.8876-0.54151 0.63218c-0.14499 0.16969-0.35631 0.26776-0.58032 0.27058l-6.2354-5.6377c-0.10089-0.0914-0.25576-0.0914-0.35666 0l-6.2251 5.6201c-0.23107-1e-3 -0.45403-0.0924-0.59161-0.25506l-0.5401-0.63006c-0.2787-0.32596-0.2406-0.81879 0.0854-1.0982l6.882-5.8907c0.13899-0.11924 0.31855-0.1845 0.55562-0.1845h8e-3c0.0222 7.1e-4 0.0445 0 0.0663-4e-3v3e-3c0.18521 0 0.36548 0.066 0.50482 0.18627l1.4164 1.2118 2.6786 2.2934 2.7869 2.3858c0.32667 0.2787 0.36513 0.77117 0.0864 1.0975" fill="#fff"/>
 <path d="m48.714 65.927-1.0538-0.90241c-0.23601-0.20214-0.53869-0.31432-0.85125-0.31432-0.0113 0-0.0258 7.1e-4 -0.0409 3e-3l-0.0762-2e-3c-0.31715 0-0.62265 0.11147-0.85902 0.31361l-6.883 5.8914c-0.54893 0.47061-0.61313 1.2993-0.14358 1.8493l0.54116 0.63042c0.20673 0.242 0.50235 0.39581 0.83044 0.43533v5.4751c0 0.68756 0.5588 1.246 1.2453 1.246h10.646c0.68686 0 1.2453-0.55845 1.2453-1.246v-5.4617c0.32103-0.0406 0.61771-0.19932 0.83079-0.44803l0.54081-0.63182c0.46954-0.54963 0.40499-1.3787-0.14358-1.8486l-2.6942-2.3054zm4.0679 13.379c0 0.39299-0.32032 0.71331-0.71226 0.71331h-10.646c-0.39299 0-0.71261-0.32032-0.71261-0.71331v-5.6173l6.0357-5.4494 6.0357 5.4582zm1.5-6.8876-0.54151 0.63218c-0.14499 0.16969-0.35631 0.26776-0.58032 0.27058l-6.2354-5.6377c-0.10089-0.0914-0.25576-0.0914-0.35666 0l-6.2251 5.6201c-0.23107-1e-3 -0.45403-0.0924-0.59161-0.25506l-0.5401-0.63006c-0.2787-0.32596-0.2406-0.81879 0.0854-1.0982l6.882-5.8907c0.13899-0.11924 0.31855-0.1845 0.55562-0.1845h8e-3c0.0222 7.1e-4 0.0445 0 0.0663-4e-3v3e-3c0.18521 0 0.36548 0.066 0.50482 0.18627l1.4164 1.2118 2.6786 2.2934 2.7869 2.3858c0.32667 0.2787 0.36513 0.77117 0.0864 1.0975z" fill="none" stroke="#fff" stroke-miterlimit="10" stroke-width=".8696"/>
 <path d="m48.714 86.827-1.0538-0.90241c-0.23601-0.20214-0.53869-0.31432-0.85125-0.31432-0.0113 0-0.0258 7.1e-4 -0.0409 3e-3l-0.0762-2e-3c-0.31715 0-0.62265 0.11147-0.85902 0.31361l-6.883 5.8914c-0.54893 0.47061-0.61313 1.2993-0.14358 1.8493l0.54116 0.63042c0.20673 0.242 0.50235 0.39581 0.83044 0.43533v5.4751c0 0.68756 0.5588 1.246 1.2453 1.246h10.646c0.68686 0 1.2453-0.55845 1.2453-1.246v-5.4617c0.32103-0.0406 0.61771-0.19932 0.83079-0.44803l0.54081-0.63182c0.46954-0.54963 0.40499-1.3787-0.14358-1.8486l-2.6942-2.3054zm4.0679 13.379c0 0.39299-0.32032 0.71331-0.71226 0.71331h-10.646c-0.39299 0-0.71261-0.32032-0.71261-0.71331v-5.6173l6.0357-5.4494 6.0357 5.4582zm1.5-6.8876-0.54151 0.63218c-0.14499 0.16969-0.35631 0.26776-0.58032 0.27058l-6.2354-5.6377c-0.10089-0.0914-0.25576-0.0914-0.35666 0l-6.2251 5.6201c-0.23107-1e-3 -0.45403-0.0924-0.59161-0.25506l-0.5401-0.63006c-0.2787-0.32596-0.2406-0.81879 0.0854-1.0982l6.882-5.8907c0.13899-0.11924 0.31855-0.1845 0.55562-0.1845h8e-3c0.0222 7.1e-4 0.0445 0 0.0663-4e-3v3e-3c0.18521 0 0.36548 0.066 0.50482 0.18627l1.4164 1.2118 2.6786 2.2934 2.7869 2.3858c0.32667 0.2787 0.36513 0.77117 0.0864 1.0975" fill="#fff"/>
 <path d="m48.714 86.827-1.0538-0.90241c-0.23601-0.20214-0.53869-0.31432-0.85125-0.31432-0.0113 0-0.0258 7.1e-4 -0.0409 3e-3l-0.0762-2e-3c-0.31715 0-0.62265 0.11147-0.85902 0.31361l-6.883 5.8914c-0.54893 0.47061-0.61313 1.2993-0.14358 1.8493l0.54116 0.63042c0.20673 0.242 0.50235 0.39581 0.83044 0.43533v5.4751c0 0.68756 0.5588 1.246 1.2453 1.246h10.646c0.68686 0 1.2453-0.55845 1.2453-1.246v-5.4617c0.32103-0.0406 0.61771-0.19932 0.83079-0.44803l0.54081-0.63182c0.46954-0.54963 0.40499-1.3787-0.14358-1.8486l-2.6942-2.3054zm4.0679 13.379c0 0.39299-0.32032 0.71331-0.71226 0.71331h-10.646c-0.39299 0-0.71261-0.32032-0.71261-0.71331v-5.6173l6.0357-5.4494 6.0357 5.4582zm1.5-6.8876-0.54151 0.63218c-0.14499 0.16969-0.35631 0.26776-0.58032 0.27058l-6.2354-5.6377c-0.10089-0.0914-0.25576-0.0914-0.35666 0l-6.2251 5.6201c-0.23107-1e-3 -0.45403-0.0924-0.59161-0.25506l-0.5401-0.63006c-0.2787-0.32596-0.2406-0.81879 0.0854-1.0982l6.882-5.8907c0.13899-0.11924 0.31855-0.1845 0.55562-0.1845h8e-3c0.0222 7.1e-4 0.0445 0 0.0663-4e-3v3e-3c0.18521 0 0.36548 0.066 0.50482 0.18627l1.4164 1.2118 2.6786 2.2934 2.7869 2.3858c0.32667 0.2787 0.36513 0.77117 0.0864 1.0975z" fill="none" stroke="#fff" stroke-miterlimit="10" stroke-width=".8696"/>
 <path d="m187.39 45.607-1.0538-0.90241c-0.23601-0.20214-0.53869-0.31432-0.85125-0.31432-0.0113 0-0.0258 7.1e-4 -0.0409 3e-3l-0.0762-2e-3c-0.31715 0-0.62265 0.11147-0.85902 0.31361l-6.883 5.8914c-0.54893 0.47061-0.61313 1.2993-0.14358 1.8493l0.54116 0.63042c0.20673 0.242 0.50235 0.39581 0.83044 0.43533v5.4751c0 0.68756 0.5588 1.246 1.2453 1.246h10.646c0.68686 0 1.2453-0.55845 1.2453-1.246v-5.4617c0.32103-0.0406 0.61771-0.19932 0.83079-0.44803l0.54081-0.63182c0.46954-0.54963 0.40499-1.3787-0.14358-1.8486l-2.6942-2.3054zm4.0679 13.379c0 0.39299-0.32032 0.71331-0.71226 0.71331h-10.646c-0.39299 0-0.71261-0.32032-0.71261-0.71331v-5.6173l6.0357-5.4494 6.0357 5.4582zm1.5-6.8876-0.54151 0.63218c-0.14499 0.16969-0.35631 0.26776-0.58032 0.27058l-6.2354-5.6377c-0.10089-0.0914-0.25576-0.0914-0.35666 0l-6.2251 5.6201c-0.23107-1e-3 -0.45403-0.0924-0.59161-0.25506l-0.5401-0.63006c-0.2787-0.32596-0.2406-0.81879 0.0854-1.0982l6.882-5.8907c0.13899-0.11924 0.31855-0.1845 0.55562-0.1845h8e-3c0.0222 7.1e-4 0.0444 0 0.0663-4e-3v3e-3c0.18521 0 0.36548 0.066 0.50482 0.18627l1.4164 1.2118 2.6786 2.2934 2.7869 2.3858c0.32667 0.2787 0.36513 0.77117 0.0864 1.0975" fill="#fff"/>
 <path d="m187.39 45.607-1.0538-0.90241c-0.23601-0.20214-0.53869-0.31432-0.85125-0.31432-0.0113 0-0.0258 7.1e-4 -0.0409 3e-3l-0.0762-2e-3c-0.31715 0-0.62265 0.11147-0.85902 0.31361l-6.883 5.8914c-0.54893 0.47061-0.61313 1.2993-0.14358 1.8493l0.54116 0.63042c0.20673 0.242 0.50235 0.39581 0.83044 0.43533v5.4751c0 0.68756 0.5588 1.246 1.2453 1.246h10.646c0.68686 0 1.2453-0.55845 1.2453-1.246v-5.4617c0.32103-0.0406 0.61771-0.19932 0.83079-0.44803l0.54081-0.63182c0.46954-0.54963 0.40499-1.3787-0.14358-1.8486l-2.6942-2.3054zm4.0679 13.379c0 0.39299-0.32032 0.71331-0.71226 0.71331h-10.646c-0.39299 0-0.71261-0.32032-0.71261-0.71331v-5.6173l6.0357-5.4494 6.0357 5.4582zm1.5-6.8876-0.54151 0.63218c-0.14499 0.16969-0.35631 0.26776-0.58032 0.27058l-6.2354-5.6377c-0.10089-0.0914-0.25576-0.0914-0.35666 0l-6.2251 5.6201c-0.23107-1e-3 -0.45403-0.0924-0.59161-0.25506l-0.5401-0.63006c-0.2787-0.32596-0.2406-0.81879 0.0854-1.0982l6.882-5.8907c0.13899-0.11924 0.31855-0.1845 0.55562-0.1845h8e-3c0.0222 7.1e-4 0.0444 0 0.0663-4e-3v3e-3c0.18521 0 0.36548 0.066 0.50482 0.18627l1.4164 1.2118 2.6786 2.2934 2.7869 2.3858c0.32667 0.2787 0.36513 0.77117 0.0864 1.0975z" fill="none" stroke="#fff" stroke-miterlimit="10" stroke-width=".8696"/>
 <path d="m29.404 45.607-1.0538-0.90241c-0.23601-0.20214-0.53869-0.31432-0.85125-0.31432-0.0113 0-0.0258 7.1e-4 -0.0409 3e-3l-0.0762-2e-3c-0.31715 0-0.62265 0.11147-0.85902 0.31361l-6.883 5.8914c-0.54893 0.47061-0.61313 1.2993-0.14358 1.8493l0.54116 0.63042c0.20673 0.242 0.50235 0.39581 0.83044 0.43533v5.4751c0 0.68756 0.5588 1.246 1.2453 1.246h10.646c0.68686 0 1.2453-0.55845 1.2453-1.246v-5.4617c0.32103-0.0406 0.61771-0.19932 0.83079-0.44803l0.54081-0.63182c0.46954-0.54963 0.40499-1.3787-0.14358-1.8486l-2.6942-2.3054zm4.0679 13.379c0 0.39299-0.32032 0.71331-0.71226 0.71331h-10.646c-0.39299 0-0.71261-0.32032-0.71261-0.71331v-5.6173l6.0357-5.4494 6.0357 5.4582zm1.5-6.8876-0.54151 0.63218c-0.14499 0.16969-0.35631 0.26776-0.58032 0.27058l-6.2354-5.6377c-0.10089-0.0914-0.25576-0.0914-0.35666 0l-6.2251 5.6201c-0.23107-1e-3 -0.45403-0.0924-0.59161-0.25506l-0.5401-0.63006c-0.2787-0.32596-0.2406-0.81879 0.0854-1.0982l6.882-5.8907c0.13899-0.11924 0.31855-0.1845 0.55562-0.1845h8e-3c0.0222 7.1e-4 0.0445 0 0.0663-4e-3v3e-3c0.18521 0 0.36548 0.066 0.50482 0.18627l1.4164 1.2118 2.6786 2.2934 2.7869 2.3858c0.32667 0.2787 0.36513 0.77117 0.0864 1.0975" fill="#fff"/>
 <path d="m29.404 45.607-1.0538-0.90241c-0.23601-0.20214-0.53869-0.31432-0.85125-0.31432-0.0113 0-0.0258 7.1e-4 -0.0409 3e-3l-0.0762-2e-3c-0.31715 0-0.62265 0.11147-0.85902 0.31361l-6.883 5.8914c-0.54893 0.47061-0.61313 1.2993-0.14358 1.8493l0.54116 0.63042c0.20673 0.242 0.50235 0.39581 0.83044 0.43533v5.4751c0 0.68756 0.5588 1.246 1.2453 1.246h10.646c0.68686 0 1.2453-0.55845 1.2453-1.246v-5.4617c0.32103-0.0406 0.61771-0.19932 0.83079-0.44803l0.54081-0.63182c0.46954-0.54963 0.40499-1.3787-0.14358-1.8486l-2.6942-2.3054zm4.0679 13.379c0 0.39299-0.32032 0.71331-0.71226 0.71331h-10.646c-0.39299 0-0.71261-0.32032-0.71261-0.71331v-5.6173l6.0357-5.4494 6.0357 5.4582zm1.5-6.8876-0.54151 0.63218c-0.14499 0.16969-0.35631 0.26776-0.58032 0.27058l-6.2354-5.6377c-0.10089-0.0914-0.25576-0.0914-0.35666 0l-6.2251 5.6201c-0.23107-1e-3 -0.45403-0.0924-0.59161-0.25506l-0.5401-0.63006c-0.2787-0.32596-0.2406-0.81879 0.0854-1.0982l6.882-5.8907c0.13899-0.11924 0.31855-0.1845 0.55562-0.1845h8e-3c0.0222 7.1e-4 0.0445 0 0.0663-4e-3v3e-3c0.18521 0 0.36548 0.066 0.50482 0.18627l1.4164 1.2118 2.6786 2.2934 2.7869 2.3858c0.32667 0.2787 0.36513 0.77117 0.0864 1.0975z" fill="none" stroke="#fff" stroke-miterlimit="10" stroke-width=".8696"/>
 <path d="m29.964 65.927-1.0538-0.90241c-0.23601-0.20214-0.53869-0.31432-0.85125-0.31432-0.0113 0-0.0258 7.1e-4 -0.0409 3e-3l-0.0762-2e-3c-0.31715 0-0.62265 0.11147-0.85902 0.31361l-6.883 5.8914c-0.54893 0.47061-0.61313 1.2993-0.14358 1.8493l0.54116 0.63042c0.20673 0.242 0.50235 0.39581 0.83044 0.43533v5.4751c0 0.68756 0.5588 1.246 1.2453 1.246h10.646c0.68686 0 1.2453-0.55845 1.2453-1.246v-5.4617c0.32103-0.0406 0.61771-0.19932 0.83079-0.44803l0.54081-0.63182c0.46954-0.54963 0.40499-1.3787-0.14358-1.8486l-2.6942-2.3054zm4.0679 13.379c0 0.39299-0.32032 0.71331-0.71226 0.71331h-10.646c-0.39299 0-0.71261-0.32032-0.71261-0.71331v-5.6173l6.0357-5.4494 6.0357 5.4582zm1.5-6.8876-0.54151 0.63218c-0.14499 0.16969-0.35631 0.26776-0.58032 0.27058l-6.2354-5.6377c-0.10089-0.0914-0.25576-0.0914-0.35666 0l-6.2251 5.6201c-0.23107-1e-3 -0.45403-0.0924-0.59161-0.25506l-0.5401-0.63006c-0.2787-0.32596-0.2406-0.81879 0.0854-1.0982l6.882-5.8907c0.13899-0.11924 0.31855-0.1845 0.55562-0.1845h8e-3c0.0222 7.1e-4 0.0445 0 0.0663-4e-3v3e-3c0.18521 0 0.36548 0.066 0.50482 0.18627l1.4164 1.2118 2.6786 2.2934 2.7869 2.3858c0.32667 0.2787 0.36513 0.77117 0.0864 1.0975" fill="#fff"/>
 <path d="m29.964 65.927-1.0538-0.90241c-0.23601-0.20214-0.53869-0.31432-0.85125-0.31432-0.0113 0-0.0258 7.1e-4 -0.0409 3e-3l-0.0762-2e-3c-0.31715 0-0.62265 0.11147-0.85902 0.31361l-6.883 5.8914c-0.54893 0.47061-0.61313 1.2993-0.14358 1.8493l0.54116 0.63042c0.20673 0.242 0.50235 0.39581 0.83044 0.43533v5.4751c0 0.68756 0.5588 1.246 1.2453 1.246h10.646c0.68686 0 1.2453-0.55845 1.2453-1.246v-5.4617c0.32103-0.0406 0.61771-0.19932 0.83079-0.44803l0.54081-0.63182c0.46954-0.54963 0.40499-1.3787-0.14358-1.8486l-2.6942-2.3054zm4.0679 13.379c0 0.39299-0.32032 0.71331-0.71226 0.71331h-10.646c-0.39299 0-0.71261-0.32032-0.71261-0.71331v-5.6173l6.0357-5.4494 6.0357 5.4582zm1.5-6.8876-0.54151 0.63218c-0.14499 0.16969-0.35631 0.26776-0.58032 0.27058l-6.2354-5.6377c-0.10089-0.0914-0.25576-0.0914-0.35666 0l-6.2251 5.6201c-0.23107-1e-3 -0.45403-0.0924-0.59161-0.25506l-0.5401-0.63006c-0.2787-0.32596-0.2406-0.81879 0.0854-1.0982l6.882-5.8907c0.13899-0.11924 0.31855-0.1845 0.55562-0.1845h8e-3c0.0222 7.1e-4 0.0445 0 0.0663-4e-3v3e-3c0.18521 0 0.36548 0.066 0.50482 0.18627l1.4164 1.2118 2.6786 2.2934 2.7869 2.3858c0.32667 0.2787 0.36513 0.77117 0.0864 1.0975z" fill="none" stroke="#fff" stroke-miterlimit="10" stroke-width=".8696"/>
 <path d="m188.09 65.927-1.0538-0.90241c-0.23601-0.20214-0.53869-0.31432-0.85125-0.31432-0.0113 0-0.0257 7.1e-4 -0.0409 3e-3l-0.0762-2e-3c-0.31715 0-0.62265 0.11147-0.85902 0.31361l-6.883 5.8914c-0.54893 0.47061-0.61313 1.2993-0.14358 1.8493l0.54116 0.63042c0.20673 0.242 0.50235 0.39581 0.83044 0.43533v5.4751c0 0.68756 0.5588 1.246 1.2453 1.246h10.646c0.68686 0 1.2453-0.55845 1.2453-1.246v-5.4617c0.32103-0.0406 0.61771-0.19932 0.83079-0.44803l0.54081-0.63182c0.46954-0.54963 0.40499-1.3787-0.14358-1.8486l-2.6942-2.3054zm4.0679 13.379c0 0.39299-0.32032 0.71331-0.71226 0.71331h-10.646c-0.39299 0-0.71261-0.32032-0.71261-0.71331v-5.6173l6.0357-5.4494 6.0357 5.4582zm1.5-6.8876-0.54151 0.63218c-0.14499 0.16969-0.35631 0.26776-0.58032 0.27058l-6.2354-5.6377c-0.10089-0.0914-0.25576-0.0914-0.35666 0l-6.2251 5.6201c-0.23107-1e-3 -0.45403-0.0924-0.59161-0.25506l-0.5401-0.63006c-0.2787-0.32596-0.2406-0.81879 0.0854-1.0982l6.882-5.8907c0.13899-0.11924 0.31855-0.1845 0.55562-0.1845h8e-3c0.0222 7.1e-4 0.0444 0 0.0663-4e-3v3e-3c0.18521 0 0.36548 0.066 0.50482 0.18627l1.4164 1.2118 2.6786 2.2934 2.7869 2.3858c0.32667 0.2787 0.36513 0.77117 0.0864 1.0975" fill="#fff"/>
 <path d="m188.09 65.927-1.0538-0.90241c-0.23601-0.20214-0.53869-0.31432-0.85125-0.31432-0.0113 0-0.0257 7.1e-4 -0.0409 3e-3l-0.0762-2e-3c-0.31715 0-0.62265 0.11147-0.85902 0.31361l-6.883 5.8914c-0.54893 0.47061-0.61313 1.2993-0.14358 1.8493l0.54116 0.63042c0.20673 0.242 0.50235 0.39581 0.83044 0.43533v5.4751c0 0.68756 0.5588 1.246 1.2453 1.246h10.646c0.68686 0 1.2453-0.55845 1.2453-1.246v-5.4617c0.32103-0.0406 0.61771-0.19932 0.83079-0.44803l0.54081-0.63182c0.46954-0.54963 0.40499-1.3787-0.14358-1.8486l-2.6942-2.3054zm4.0679 13.379c0 0.39299-0.32032 0.71331-0.71226 0.71331h-10.646c-0.39299 0-0.71261-0.32032-0.71261-0.71331v-5.6173l6.0357-5.4494 6.0357 5.4582zm1.5-6.8876-0.54151 0.63218c-0.14499 0.16969-0.35631 0.26776-0.58032 0.27058l-6.2354-5.6377c-0.10089-0.0914-0.25576-0.0914-0.35666 0l-6.2251 5.6201c-0.23107-1e-3 -0.45403-0.0924-0.59161-0.25506l-0.5401-0.63006c-0.2787-0.32596-0.2406-0.81879 0.0854-1.0982l6.882-5.8907c0.13899-0.11924 0.31855-0.1845 0.55562-0.1845h8e-3c0.0222 7.1e-4 0.0444 0 0.0663-4e-3v3e-3c0.18521 0 0.36548 0.066 0.50482 0.18627l1.4164 1.2118 2.6786 2.2934 2.7869 2.3858c0.32667 0.2787 0.36513 0.77117 0.0864 1.0975z" fill="none" stroke="#fff" stroke-miterlimit="10" stroke-width=".8696"/>
 <path d="m168.64 45.607-1.0538-0.90241c-0.23601-0.20214-0.53869-0.31432-0.85125-0.31432-0.0113 0-0.0258 7.1e-4 -0.0409 3e-3l-0.0762-2e-3c-0.31715 0-0.62265 0.11147-0.85902 0.31361l-6.883 5.8914c-0.54893 0.47061-0.61313 1.2993-0.14358 1.8493l0.54116 0.63042c0.20673 0.242 0.50235 0.39581 0.83044 0.43533v5.4751c0 0.68756 0.5588 1.246 1.2453 1.246h10.646c0.68686 0 1.2453-0.55845 1.2453-1.246v-5.4617c0.32103-0.0406 0.61771-0.19932 0.83079-0.44803l0.54081-0.63182c0.46954-0.54963 0.40499-1.3787-0.14358-1.8486l-2.6942-2.3054zm4.0679 13.379c0 0.39299-0.32032 0.71331-0.71226 0.71331h-10.646c-0.39299 0-0.71261-0.32032-0.71261-0.71331v-5.6173l6.0357-5.4494 6.0357 5.4582zm1.5-6.8876-0.54151 0.63218c-0.14499 0.16969-0.35631 0.26776-0.58032 0.27058l-6.2354-5.6377c-0.10089-0.0914-0.25576-0.0914-0.35666 0l-6.2251 5.6201c-0.23107-1e-3 -0.45403-0.0924-0.59161-0.25506l-0.5401-0.63006c-0.2787-0.32596-0.2406-0.81879 0.0854-1.0982l6.882-5.8907c0.13899-0.11924 0.31855-0.1845 0.55562-0.1845h8e-3c0.0222 7.1e-4 0.0444 0 0.0663-4e-3v3e-3c0.18521 0 0.36548 0.066 0.50482 0.18627l1.4164 1.2118 2.6786 2.2934 2.7869 2.3858c0.32667 0.2787 0.36513 0.77117 0.0864 1.0975" fill="#fff"/>
 <path d="m168.64 45.607-1.0538-0.90241c-0.23601-0.20214-0.53869-0.31432-0.85125-0.31432-0.0113 0-0.0258 7.1e-4 -0.0409 3e-3l-0.0762-2e-3c-0.31715 0-0.62265 0.11147-0.85902 0.31361l-6.883 5.8914c-0.54893 0.47061-0.61313 1.2993-0.14358 1.8493l0.54116 0.63042c0.20673 0.242 0.50235 0.39581 0.83044 0.43533v5.4751c0 0.68756 0.5588 1.246 1.2453 1.246h10.646c0.68686 0 1.2453-0.55845 1.2453-1.246v-5.4617c0.32103-0.0406 0.61771-0.19932 0.83079-0.44803l0.54081-0.63182c0.46954-0.54963 0.40499-1.3787-0.14358-1.8486l-2.6942-2.3054zm4.0679 13.379c0 0.39299-0.32032 0.71331-0.71226 0.71331h-10.646c-0.39299 0-0.71261-0.32032-0.71261-0.71331v-5.6173l6.0357-5.4494 6.0357 5.4582zm1.5-6.8876-0.54151 0.63218c-0.14499 0.16969-0.35631 0.26776-0.58032 0.27058l-6.2354-5.6377c-0.10089-0.0914-0.25576-0.0914-0.35666 0l-6.2251 5.6201c-0.23107-1e-3 -0.45403-0.0924-0.59161-0.25506l-0.5401-0.63006c-0.2787-0.32596-0.2406-0.81879 0.0854-1.0982l6.882-5.8907c0.13899-0.11924 0.31855-0.1845 0.55562-0.1845h8e-3c0.0222 7.1e-4 0.0444 0 0.0663-4e-3v3e-3c0.18521 0 0.36548 0.066 0.50482 0.18627l1.4164 1.2118 2.6786 2.2934 2.7869 2.3858c0.32667 0.2787 0.36513 0.77117 0.0864 1.0975z" fill="none" stroke="#fff" stroke-miterlimit="10" stroke-width=".8696"/>
 <path d="m206.14 45.607-1.0538-0.90241c-0.23601-0.20214-0.53869-0.31432-0.85125-0.31432-0.0113 0-0.0258 7.1e-4 -0.0409 3e-3l-0.0762-2e-3c-0.31715 0-0.62265 0.11147-0.85902 0.31361l-6.883 5.8914c-0.54893 0.47061-0.61313 1.2993-0.14358 1.8493l0.54116 0.63042c0.20673 0.242 0.50235 0.39581 0.83044 0.43533v5.4751c0 0.68756 0.5588 1.246 1.2453 1.246h10.646c0.68686 0 1.2453-0.55845 1.2453-1.246v-5.4617c0.32103-0.0406 0.61771-0.19932 0.83079-0.44803l0.54081-0.63182c0.46954-0.54963 0.40499-1.3787-0.14358-1.8486l-2.6942-2.3054zm4.0679 13.379c0 0.39299-0.32032 0.71331-0.71226 0.71331h-10.646c-0.39299 0-0.71261-0.32032-0.71261-0.71331v-5.6173l6.0357-5.4494 6.0357 5.4582zm1.5-6.8876-0.54151 0.63218c-0.14499 0.16969-0.35631 0.26776-0.58032 0.27058l-6.2354-5.6377c-0.10089-0.0914-0.25576-0.0914-0.35666 0l-6.2251 5.6201c-0.23107-1e-3 -0.45403-0.0924-0.59161-0.25506l-0.5401-0.63006c-0.2787-0.32596-0.2406-0.81879 0.0854-1.0982l6.882-5.8907c0.13899-0.11924 0.31855-0.1845 0.55562-0.1845h8e-3c0.0222 7.1e-4 0.0444 0 0.0663-4e-3v3e-3c0.18521 0 0.36548 0.066 0.50482 0.18627l1.4164 1.2118 2.6786 2.2934 2.7869 2.3858c0.32667 0.2787 0.36513 0.77117 0.0864 1.0975" fill="#fff"/>
 <path d="m206.14 45.607-1.0538-0.90241c-0.23601-0.20214-0.53869-0.31432-0.85125-0.31432-0.0113 0-0.0258 7.1e-4 -0.0409 3e-3l-0.0762-2e-3c-0.31715 0-0.62265 0.11147-0.85902 0.31361l-6.883 5.8914c-0.54893 0.47061-0.61313 1.2993-0.14358 1.8493l0.54116 0.63042c0.20673 0.242 0.50235 0.39581 0.83044 0.43533v5.4751c0 0.68756 0.5588 1.246 1.2453 1.246h10.646c0.68686 0 1.2453-0.55845 1.2453-1.246v-5.4617c0.32103-0.0406 0.61771-0.19932 0.83079-0.44803l0.54081-0.63182c0.46954-0.54963 0.40499-1.3787-0.14358-1.8486l-2.6942-2.3054zm4.0679 13.379c0 0.39299-0.32032 0.71331-0.71226 0.71331h-10.646c-0.39299 0-0.71261-0.32032-0.71261-0.71331v-5.6173l6.0357-5.4494 6.0357 5.4582zm1.5-6.8876-0.54151 0.63218c-0.14499 0.16969-0.35631 0.26776-0.58032 0.27058l-6.2354-5.6377c-0.10089-0.0914-0.25576-0.0914-0.35666 0l-6.2251 5.6201c-0.23107-1e-3 -0.45403-0.0924-0.59161-0.25506l-0.5401-0.63006c-0.2787-0.32596-0.2406-0.81879 0.0854-1.0982l6.882-5.8907c0.13899-0.11924 0.31855-0.1845 0.55562-0.1845h8e-3c0.0222 7.1e-4 0.0444 0 0.0663-4e-3v3e-3c0.18521 0 0.36548 0.066 0.50482 0.18627l1.4164 1.2118 2.6786 2.2934 2.7869 2.3858c0.32667 0.2787 0.36513 0.77117 0.0864 1.0975z" fill="none" stroke="#fff" stroke-miterlimit="10" stroke-width=".8696"/>
 <g transform="translate(-385.75 -112.86)" stroke-width=".35278">
  <text x="385.12445" y="122.98088" fill="#ffffff" font-family="'-apple-system', BlinkMacSystemFont, 'Segoe UI', Roboto, Oxygen, Ubuntu, Cantarell, 'Open Sans', 'Helvetica Neue', sans-serif" font-size="13.491px"><tspan x="385.12445 392.80072 400.23416 407.95093 415.38437 423.12808 430.57501 434.05566 441.79941 449.51614 459.41843 467.01373 471.46573 474.94635 478.91266 486.62939 490.11005 496.38327 503.81671 511.56042 519.30414 522.3396 528.17841 531.28131 534.38422" y="122.98088" stroke-width=".35278">Enough power to supply...</tspan></text>
  <text x="408.76611" y="255.82785" fill="#ffffff" font-family="'-apple-system', BlinkMacSystemFont, 'Segoe UI', Roboto, Oxygen, Ubuntu, Cantarell, 'Open Sans', 'Helvetica Neue', sans-serif" font-size="13.491px"><tspan x="408.76611 415.87579 422.4863 430.08163 434.5336 441.64328 449.38699 456.98233 460.46295 469.1767 476.61014 482.88336 486.84967 491.30164 498.41129 501.44672 504.48218 511.5918 519.02527 522.50592 529.95282 537.66956 545.10303 551.37622 558.97156 566.41852 574.13525 577.17072 584.92792" y="255.82785" stroke-width=".35278">average Australian households</tspan></text>
  <text id="superset_metric" x="472.84335" y="203.15086" fill="#5e2590" font-family="'Proxima Soft Extrabold'" font-size="21.519px" font-weight="800"><tspan x="472.84335 482.5271 495.2666" y="203.15086" stroke-width=".35278">136</tspan></text>
 </g>
</svg>
