<?xml version="1.0" encoding="UTF-8" standalone="no"?>
<svg
   xmlns:dc="http://purl.org/dc/elements/1.1/"
   xmlns:cc="http://creativecommons.org/ns#"
   xmlns:rdf="http://www.w3.org/1999/02/22-rdf-syntax-ns#"
   xmlns:svg="http://www.w3.org/2000/svg"
   xmlns="http://www.w3.org/2000/svg"
   xmlns:sodipodi="http://sodipodi.sourceforge.net/DTD/sodipodi-0.dtd"
   xmlns:inkscape="http://www.inkscape.org/namespaces/inkscape"
   viewBox="-0.1 0 136.00102 44.201061"
   version="1.1"
   id="svg17"
   sodipodi:docname="yurika-logo.svg"
   width="136.00102"
   height="44.201061"
   preserveAspectRatio="xMidYMid meet"
   inkscape:version="0.92.4 5da689c313, 2019-01-14">
  <metadata
     id="metadata21">
    <rdf:RDF>
      <cc:Work
         rdf:about="">
        <dc:format>image/svg+xml</dc:format>
        <dc:type
           rdf:resource="http://purl.org/dc/dcmitype/StillImage" />
        <dc:title>logo-yurika</dc:title>
      </cc:Work>
    </rdf:RDF>
  </metadata>
  <sodipodi:namedview
     pagecolor="#ffffff"
     bordercolor="#666666"
     borderopacity="1"
     objecttolerance="10"
     gridtolerance="10"
     guidetolerance="10"
     inkscape:pageopacity="0"
     inkscape:pageshadow="2"
     inkscape:window-width="1216"
     inkscape:window-height="1022"
     id="namedview19"
     showgrid="false"
     fit-margin-top="0"
     fit-margin-left="0"
     fit-margin-right="0"
     fit-margin-bottom="0"
     inkscape:zoom="2.1029412"
     inkscape:cx="-32.911189"
     inkscape:cy="-6.5017367"
     inkscape:window-x="702"
     inkscape:window-y="20"
     inkscape:window-maximized="0"
     inkscape:current-layer="svg17" />
  <defs
     id="defs11">
    <style
       id="style2">
      .a {
        fill: url(#a);
      }
    </style>
    <linearGradient
       id="a"
       data-name="New Gradient Swatch 1"
       y1="22.110001"
       x2="136"
       y2="22.110001"
       gradientUnits="userSpaceOnUse"
       gradientTransform="translate(-0.1)">
      <stop
         offset="0"
         stop-color="#5a287f"
         id="stop4" />
      <stop
         offset="0.55"
         stop-color="#cc5154"
         id="stop6" />
      <stop
         offset="1"
         stop-color="#d7801c"
         id="stop8" />
    </linearGradient>
  </defs>
  <title
     id="title13">logo-yurika</title>
  <path
     class="a"
     d="m 75.42,40.2 a 3.91,3.91 0 0 0 4,4 4,4 0 1 0 0,-8 3.92,3.92 0 0 0 -4,4 M 43,4.85 v 15.8 a 4.1,4.1 0 0 1 -4.22,4.25 c -2.4,0 -4.09,-1.47 -4.09,-4.25 V 4.85 A 3.39,3.39 0 0 0 31.17,1.54 3.34,3.34 0 0 0 27.66,4.85 v 16 c 0,6.1 4.1,10.59 9.08,10.59 a 8,8 0 0 0 4.33,-1.54 5.39,5.39 0 0 1 2.11,-0.94 c 0.7,0 1.46,0.89 1.93,1.3 a 3.37,3.37 0 0 0 2.23,0.83 2.68,2.68 0 0 0 2.69,-2.78 V 4.85 a 3.52,3.52 0 0 0 -7,0 M 16.9,4 12.8,18.5 11.98,21.81 H 11.9 L 11.08,18.5 6.9,4 A 3.14,3.14 0 0 0 3.77,1.48 C 1.42,1.48 -0.1,2.9 -0.1,4.79 A 5.68,5.68 0 0 0 0.08,5.86 L 8.22,29.75 7.4,32 c -0.65,1.72 -1.88,3.38 -3.11,3.79 a 3.52,3.52 0 0 0 -2.57,3.43 c 0,2 1.28,3.2 3.51,3.2 4.27,0 7.44,-4.2 8.84,-8.29 L 23.73,5.86 A 8.15,8.15 0 0 0 23.9,4.67 3.39,3.39 0 0 0 20.27,1.48 3.32,3.32 0 0 0 16.9,4 m 88.49,-1 -6.74,9.35 c -0.41,0.53 -0.76,0.83 -1.11,0.83 A 0.68,0.68 0 0 1 96.83,12.53 V 4.64 A 3.38,3.38 0 0 0 93.32,1.33 3.34,3.34 0 0 0 89.81,4.64 v 35.74 a 3.34,3.34 0 0 0 3.51,3.31 3.38,3.38 0 0 0 3.51,-3.31 V 20.91 a 0.62,0.62 0 0 1 0.65,-0.65 c 0.41,0 0.76,0.41 1,0.77 l 6.86,8.34 a 3.41,3.41 0 0 0 2.81,1.54 3.31,3.31 0 0 0 3.33,-3.37 3.41,3.41 0 0 0 -0.82,-2.13 l -7.38,-8.64 7.79,-10.12 A 3.56,3.56 0 0 0 111.78,4.58 3.32,3.32 0 0 0 108.5,1.33 3.84,3.84 0 0 0 105.39,3 M 63.21,3.69 c -1.23,0 -2.11,-2.31 -4,-2.31 a 2.59,2.59 0 0 0 -2.63,2.66 v 23.71 a 3.34,3.34 0 0 0 3.51,3.31 3.39,3.39 0 0 0 3.52,-3.31 V 13 c 0,-3.31 2,-5 4.86,-5 a 3.05,3.05 0 0 0 3.16,-3.38 3.13,3.13 0 0 0 -3.1,-3.37 c -3,0 -3.81,2.55 -5.33,2.55 m 57.7,17.73 c 0,-2.07 1.58,-3.37 3.75,-3.37 h 4.25 v 3.14 c 0.06,2.07 -1.81,3.6 -4.15,3.6 A 3.6,3.6 0 0 1 120.9,21.53 M 118.04,3 a 3.6,3.6 0 0 0 -2.28,3.31 2.94,2.94 0 0 0 2.92,3 5.69,5.69 0 0 0 2.46,-0.65 9.55,9.55 0 0 1 3.63,-0.89 4.11,4.11 0 0 1 4.1,4.2 v 1.3 h -4.1 c -5.27,0 -10.77,2.31 -10.77,8.58 0,5.56 3.92,9.52 9.19,9.52 a 7.71,7.71 0 0 0 4.39,-1.59 3.29,3.29 0 0 1 1.47,-0.59 c 1.29,0 2.17,2.07 4.1,2.07 a 2.62,2.62 0 0 0 2.75,-2.69 V 11.89 c 0,-6.33 -5,-10.71 -11.13,-10.71 A 16,16 0 0 0 118.04,3 m -41.61,2.1 0.26,23.2 c 0,1.49 1.31,3.58 3.15,3.63 1.84,0.05 3.26,-2 3.35,-3.44 L 84.72,5.34 C 84.9,2.91 83.24,0.07 80.72,0 h -0.1 c -2.46,0 -4.21,2.62 -4.19,5.1"
     id="path15"
     inkscape:connector-curvature="0"
     style="fill:url(#a)" />
</svg>
