<svg width="92.667mm" height="150.01mm" version="1.1" viewBox="0 0 92.667 150.01" xmlns="http://www.w3.org/2000/svg">
 <defs>
  <clipPath id="clipPath3410">
   <path d="m0 0h1920v1080h-1920z"/>
  </clipPath>
  <clipPath id="clipPath3698">
   <path d="m617.53 984.9h209.56v-210.89h-209.56z"/>
  </clipPath>
 </defs>
 <g transform="translate(-47.918 -20.67)">
  <g transform="matrix(.048264 0 0 -.13677 47.918 170.68)">
   <g clip-path="url(#clipPath3410)">
    <path d="m0 0h1920v1080h-1920z" fill="url(#linearGradient3422)"/>
   </g>
  </g>
  <g transform="matrix(.35278 0 0 -.35278 -159.91 374.16)">
   <g clip-path="url(#clipPath3698)" opacity=".49001">
    <g transform="translate(825.92,879.45)">
     <path d="m0 0c0-57.587-46.385-104.27-103.6-104.27-57.219 0-103.6 46.684-103.6 104.27s46.385 104.27 103.6 104.27c57.22 0 103.6-46.683 103.6-104.27" fill="#bdbcbc"/>
    </g>
   </g>
  </g>
  <path d="m136.87 63.906c0 23.42-18.789 42.406-41.967 42.406s-41.967-18.986-41.967-42.406 18.789-42.406 41.967-42.406 41.967 18.986 41.967 42.406z" fill="none" stroke="#fff" stroke-miterlimit="10" stroke-width="1.6602"/>
  <path d="m101.4 39.635-3.478-2.9789c-0.77964-0.66781-1.7787-1.0372-2.8099-1.0372-0.0381 0-0.08608 0.0021-0.13547 0.0088l-0.25153-0.0067c-1.0474 0-2.0553 0.36724-2.8363 1.035l-22.72 19.447c-1.8126 1.5536-2.0246 4.2898-0.47413 6.1041l1.7861 2.0817c0.68227 0.79834 1.6581 1.3067 2.7418 1.4369v18.074c0 2.2694 1.8443 4.113 4.1106 4.113h35.144c2.2677 0 4.1106-1.8436 4.1106-4.113v-18.029c1.0601-0.13406 2.0391-0.65758 2.7432-1.4792l1.7847-2.0853c1.5505-1.8143 1.3367-4.5512-0.47413-6.1027l-8.8932-7.6101zm13.428 44.165c0 1.2975-1.0576 2.3551-2.352 2.3551h-35.144c-1.2975 0-2.352-1.0576-2.352-2.3551v-18.542l19.923-17.989 19.925 18.018zm4.9512-22.736-1.7875 2.0874c-0.47872 0.55986-1.1769 0.883-1.9156 0.89323l-20.584-18.61c-0.33302-0.30198-0.84384-0.30198-1.1769 0l-20.55 18.552c-0.762-0.0039-1.4982-0.30551-1.9519-0.84173l-1.7833-2.08c-0.91934-1.0763-0.7941-2.7026 0.28222-3.6248l22.717-19.446c0.45826-0.39264 1.0516-0.60854 1.8344-0.60854h0.02611c0.07408 0.0018 0.14676 0 0.21943-0.01411v0.0088c0.61101 0 1.2058 0.21802 1.6658 0.61524l4.6761 4.0009 8.8424 7.5703 9.2001 7.8751c1.0777 0.9204 1.2044 2.5453 0.28504 3.623" fill="#fff"/>
  <g transform="matrix(.35278 0 0 -.35278 87.495 130.21)">
   <path d="m0 0 41.996 41.996" fill="none" stroke="#fff" stroke-linecap="round" stroke-width="17"/>
  </g>
  <g transform="matrix(.35278 0 0 -.35278 87.495 115.39)">
   <path d="m0 0 41.996-41.996" fill="none" stroke="#fff" stroke-linecap="round" stroke-width="17"/>
  </g>
  <text x="73.195122" y="146.62038" fill="#ffffff" font-family="'-apple-system', BlinkMacSystemFont, 'Segoe UI', Roboto, Oxygen, Ubuntu, Cantarell, 'Open Sans', 'Helvetica Neue', sans-serif" font-size="7.8697px" stroke-width=".35278"><tspan x="73.195122 77.680824 82.024879 86.455498 88.48587 92.633179 96.489311 100.91994 103.51692 107.66423 112.18141 116.61204" y="146.62038">The average</tspan> <tspan x="58.604767 63.688564 68.02475 71.684143 73.997826 76.59481 80.742126 82.512794 84.28347 88.430779 92.766968 94.79734 99.141388 103.64284 107.97902 111.63841 116.06903 120.41309 124.91453 126.6852 131.21025" y="155.6154">Australian household</tspan> <tspan x="51.506332 55.936951 57.707626 62.138245 66.03373 68.347404 70.944397 72.715073 76.61055 78.381226 80.694908 84.551041 86.581413 90.917595 94.576988 98.724297 103.24149 107.6721 109.70248 114.21966 118.65028 121.24727 123.27764 127.13377 131.56439 135.7117" y="164.61041">electricity usage per year</tspan></text>
  <text id="superset_metric" x="76.904327" y="79.220238" fill="#5e2590" font-family="'-apple-system', BlinkMacSystemFont, 'Segoe UI', Roboto, Oxygen, Ubuntu, Cantarell, 'Open Sans', 'Helvetica Neue', sans-serif" font-size="17px" font-weight="bold" stroke-width=".35278"><tspan x="76.904327 84.888649 93.905769 98.990311" y="79.220238" stroke-width=".35278">17.6</tspan></text>
 </g>
</svg>
