<svg width="560.44" height="695.12" version="1.1" viewBox="0 0 560.44 695.12" xmlns="http://www.w3.org/2000/svg">
 <defs>
  <clipPath id="clipPath1183">
   <path d="m281 1044.2h655v-487.43h-655z"/>
  </clipPath>
  <clipPath id="clipPath1437">
   <path d="m617.53 984.9h209.56v-210.89h-209.56z"/>
  </clipPath>
  <clipPath id="clipPath1441">
   <path d="m617.53 984.9h209.56v-210.89h-209.56z"/>
  </clipPath>
  <clipPath id="clipPath1465">
   <path d="m599.82 1003.2h244.98v-247.47h-244.98z"/>
  </clipPath>
 </defs>
 <g transform="translate(.018862 -.068063)">
  <g transform="matrix(.85826 0 0 -1.432 -242.05 1493.8)">
   <g clip-path="url(#clipPath1183)" opacity=".34">
    <path d="m282 557.72h653v485.43h-653z" fill="#f03f52"/>
   </g>
  </g>
  <g transform="matrix(1.3333,0,0,-1.3333,-686.21,1390.9)" clip-path="url(#clipPath1437)">
   <g clip-path="url(#clipPath1441)" opacity=".49001">
    <g transform="translate(825.92,879.45)">
     <path d="m0 0c0-57.587-46.385-104.27-103.6-104.27-57.219 0-103.6 46.684-103.6 104.27s46.385 104.27 103.6 104.27c57.22 0 103.6-46.683 103.6-104.27" fill="#bdbcbc"/>
    </g>
   </g>
  </g>
  <g transform="matrix(1.3333,0,0,-1.3333,-686.21,1390.9)" clip-path="url(#clipPath1465)">
   <g transform="translate(841.28,879.45)">
    <path d="m0 0c0-66.388-53.261-120.21-118.96-120.21-65.7 0-118.96 53.818-118.96 120.21s53.261 120.21 118.96 120.21c65.701 0 118.96-53.818 118.96-120.21z" fill="none" stroke="#fff" stroke-miterlimit="10" stroke-width="4.706"/>
   </g>
  </g>
  <g transform="matrix(1.3333,0,0,-1.3333,301.41,126.6)">
   <path d="m0 0-9.859 8.444c-2.21 1.893-5.042 2.94-7.965 2.94-0.108 0-0.244-6e-3 -0.384-0.025l-0.713 0.019c-2.969 0-5.826-1.041-8.04-2.934l-64.404-55.126c-5.138-4.404-5.739-12.16-1.344-17.303l5.063-5.901c1.934-2.263 4.7-3.704 7.772-4.073v-51.232c0-6.433 5.228-11.659 11.652-11.659h99.62c6.428 0 11.652 5.226 11.652 11.659v51.106c3.005 0.38 5.78 1.864 7.776 4.193l5.059 5.911c4.395 5.143 3.789 12.901-1.344 17.299l-25.209 21.572zm38.065-125.19c0-3.678-2.998-6.676-6.667-6.676h-99.62c-3.678 0-6.667 2.998-6.667 6.676v52.561l56.475 50.992 56.479-51.074zm14.035 64.449-5.067-5.917c-1.357-1.587-3.336-2.503-5.43-2.532l-58.347 52.754c-0.944 0.856-2.392 0.856-3.336 0l-58.252-52.587c-2.16 0.011-4.247 0.866-5.533 2.386l-5.055 5.896c-2.606 3.051-2.251 7.661 0.8 10.275l64.395 55.122c1.299 1.113 2.981 1.725 5.2 1.725h0.074c0.21-5e-3 0.416 0 0.622 0.04v-0.025c1.732 0 3.418-0.618 4.722-1.744l13.255-11.341 25.065-21.459 26.079-22.323c3.055-2.609 3.414-7.215 0.808-10.27" fill="#fff"/>
  </g>
  <path d="m248.86 468.92 55.993-55.993" fill="none" stroke="#fff" stroke-linecap="round" stroke-width="22.666"/>
  <path d="m248.86 412.92 55.993 55.993" fill="none" stroke="#fff" stroke-linecap="round" stroke-width="22.666"/>
  <text id="superset_metric" x="235" y="276.20786" fill="#5e2590" font-family="proxima_softregular" font-size="80px" font-weight="bold" stroke-width="1.3333" text-anchor="initial"><tspan x="208.26958 238.44577 272.52536 291.74207" y="276.20786" stroke-width="1.3333">17.6</tspan></text>
  <g fill="#ffffff" font-family="proxima_softregular" font-size="50px" letter-spacing="0px" word-spacing="0px">
   <text x="281.00323" y="540.75415" style="line-height:1.25" xml:space="preserve"><tspan x="281.00323" y="540.75415"><tspan x="281.00323" y="540.75415" fill="#ffffff" font-family="proxima_softregular" text-align="center" text-anchor="middle">The average</tspan></tspan></text>
   <text x="281.69595" y="586.92578" style="line-height:1.25" xml:space="preserve"><tspan x="281.69595" y="586.92578"><tspan x="281.69595" y="586.92578" fill="#ffffff" font-family="proxima_softregular" text-align="center" text-anchor="middle">Australian household</tspan></tspan></text>
   <text x="279.47198" y="633.34344" style="line-height:1.25" xml:space="preserve"><tspan x="279.47198" y="633.34344"><tspan x="279.47198" y="633.34344" fill="#ffffff" font-family="proxima_softregular" text-align="center" text-anchor="middle">electricity usage per year</tspan></tspan></text>
  </g>
 </g>
</svg>
