<?xml version="1.0" standalone="no"?>
<!DOCTYPE svg PUBLIC "-//W3C//DTD SVG 1.1//EN" "http://www.w3.org/Graphics/SVG/1.1/DTD/svg11.dtd" >
<svg xmlns="http://www.w3.org/2000/svg" xmlns:xlink="http://www.w3.org/1999/xlink" version="1.1">
<metadata></metadata>
<defs>
<font id="proxima_softregular" horiz-adv-x="794" >
<font-face units-per-em="2048" ascent="1618" descent="-430" />
<missing-glyph horiz-adv-x="528" />
<glyph unicode="ffj" horiz-adv-x="1622" d="M23 922q0 28 20.5 47.5t48.5 19.5h105v76q0 152 77.5 236.5t208.5 84.5q51 0 97 -12q47 -14 47 -61q0 -27 -16 -44.5t-46 -17.5q-6 0 -25.5 4.5t-33.5 4.5q-75 0 -115.5 -50.5t-40.5 -144.5v-76h142q28 0 47.5 -19.5t19.5 -47.5t-19.5 -48t-47.5 -20h-142v-786 q0 -31 -22.5 -53.5t-53.5 -22.5q-32 0 -54.5 22.5t-22.5 53.5v786h-105q-28 0 -48.5 20t-20.5 48zM602 922q0 27 21 47t49 20h104v76q0 151 78 236t209 85q49 0 96 -12q47 -14 47 -61q0 -28 -15.5 -45t-45.5 -17q-6 0 -26 4.5t-34 4.5q-75 0 -115 -50.5t-40 -144.5v-76h141 q28 0 48 -19.5t20 -47.5t-20 -48t-48 -20h-141v-786q0 -31 -22.5 -53.5t-53.5 -22.5q-32 0 -55 22.5t-23 53.5v786h-104q-28 0 -49 20t-21 48zM1065 -332q0 27 17.5 47.5t41.5 20.5q2 0 13 -2t22 -2q154 0 154 172v1018q0 31 23 53t55 22q31 0 53 -22t22 -53v-1018 q0 -146 -75.5 -225.5t-214.5 -79.5q-18 0 -50 4q-25 2 -43 20.5t-18 44.5zM1286 1292q0 43 31 74t72 31q43 0 73.5 -31t30.5 -74t-30.5 -72.5t-73.5 -29.5q-42 0 -72.5 30t-30.5 72z" />
<glyph unicode="fj" horiz-adv-x="1040" d="M23 922q0 28 20.5 47.5t48.5 19.5h105v76q0 152 77.5 236.5t208.5 84.5q51 0 97 -12q47 -14 47 -61q0 -27 -16 -44.5t-46 -17.5q-6 0 -25.5 4.5t-33.5 4.5q-75 0 -115.5 -50.5t-40.5 -144.5v-76h142q28 0 47.5 -19.5t19.5 -47.5t-19.5 -48t-47.5 -20h-142v-786 q0 -31 -22.5 -53.5t-53.5 -22.5q-32 0 -54.5 22.5t-22.5 53.5v786h-105q-28 0 -48.5 20t-20.5 48zM485 -332q0 27 18 47.5t42 20.5q3 0 13 -2t22 -2q153 0 153 172v1018q0 31 23 53t55 22q31 0 53.5 -22t22.5 -53v-1018q0 -146 -75.5 -225.5t-215.5 -79.5q-17 0 -49 4 q-25 2 -43.5 20.5t-18.5 44.5zM707 1292q0 43 30.5 74t71.5 31q43 0 73.5 -31t30.5 -74t-30.5 -72.5t-73.5 -29.5q-42 0 -72 30t-30 72z" />
<glyph unicode="&#xfb00;" horiz-adv-x="1159" d="M23 922q0 28 20.5 47.5t48.5 19.5h105v76q0 152 77.5 236.5t208.5 84.5q51 0 97 -12q47 -14 47 -61q0 -27 -16 -44.5t-46 -17.5q-6 0 -25.5 4.5t-33.5 4.5q-75 0 -115.5 -50.5t-40.5 -144.5v-76h142q28 0 47.5 -19.5t19.5 -47.5t-19.5 -48t-47.5 -20h-142v-786 q0 -31 -22.5 -53.5t-53.5 -22.5q-32 0 -54.5 22.5t-22.5 53.5v786h-105q-28 0 -48.5 20t-20.5 48zM602 922q0 27 21 47t49 20h104v76q0 151 78 236t209 85q49 0 96 -12q47 -14 47 -61q0 -28 -15.5 -45t-45.5 -17q-6 0 -26 4.5t-34 4.5q-75 0 -115 -50.5t-40 -144.5v-76h141 q28 0 48 -19.5t20 -47.5t-20 -48t-48 -20h-141v-786q0 -31 -22.5 -53.5t-53.5 -22.5q-32 0 -55 22.5t-23 53.5v786h-104q-28 0 -49 20t-21 48z" />
<glyph unicode="&#xfb01;" horiz-adv-x="1040" d="M23 922q0 28 20.5 47.5t48.5 19.5h105v76q0 152 77.5 236.5t208.5 84.5q51 0 97 -12q47 -14 47 -61q0 -27 -16 -44.5t-46 -17.5q-6 0 -25.5 4.5t-33.5 4.5q-75 0 -115.5 -50.5t-40.5 -144.5v-76h142q28 0 47.5 -19.5t19.5 -47.5t-19.5 -48t-47.5 -20h-142v-786 q0 -31 -22.5 -53.5t-53.5 -22.5q-32 0 -54.5 22.5t-22.5 53.5v786h-105q-28 0 -48.5 20t-20.5 48zM707 1292q0 43 30.5 74t71.5 31q43 0 73.5 -31t30.5 -74t-30.5 -72.5t-73.5 -29.5q-42 0 -72 30t-30 72zM733 68v854q0 31 23 53t55 22q31 0 53.5 -22t22.5 -53v-854 q0 -31 -23 -53.5t-55 -22.5q-31 0 -53.5 22.5t-22.5 53.5z" />
<glyph unicode="&#xfb02;" horiz-adv-x="1040" d="M23 922q0 28 20.5 47.5t48.5 19.5h105v76q0 152 77.5 236.5t208.5 84.5q51 0 97 -12q47 -14 47 -61q0 -27 -16 -44.5t-46 -17.5q-6 0 -25.5 4.5t-33.5 4.5q-75 0 -115.5 -50.5t-40.5 -144.5v-76h142q28 0 47.5 -19.5t19.5 -47.5t-19.5 -48t-47.5 -20h-142v-786 q0 -31 -22.5 -53.5t-53.5 -22.5q-32 0 -54.5 22.5t-22.5 53.5v786h-105q-28 0 -48.5 20t-20.5 48zM733 68v1230q0 31 23 53.5t55 22.5q31 0 53.5 -22.5t22.5 -53.5v-1230q0 -31 -22.5 -53.5t-53.5 -22.5q-32 0 -55 22.5t-23 53.5z" />
<glyph unicode="&#xfb03;" horiz-adv-x="1622" d="M23 922q0 28 20.5 47.5t48.5 19.5h105v76q0 152 77.5 236.5t208.5 84.5q51 0 97 -12q47 -14 47 -61q0 -27 -16 -44.5t-46 -17.5q-6 0 -25.5 4.5t-33.5 4.5q-75 0 -115.5 -50.5t-40.5 -144.5v-76h142q28 0 47.5 -19.5t19.5 -47.5t-19.5 -48t-47.5 -20h-142v-786 q0 -31 -22.5 -53.5t-53.5 -22.5q-32 0 -54.5 22.5t-22.5 53.5v786h-105q-28 0 -48.5 20t-20.5 48zM602 922q0 27 21 47t49 20h104v76q0 151 78 236t209 85q49 0 96 -12q47 -14 47 -61q0 -28 -15.5 -45t-45.5 -17q-6 0 -26 4.5t-34 4.5q-75 0 -115 -50.5t-40 -144.5v-76h141 q28 0 48 -19.5t20 -47.5t-20 -48t-48 -20h-141v-786q0 -31 -22.5 -53.5t-53.5 -22.5q-32 0 -55 22.5t-23 53.5v786h-104q-28 0 -49 20t-21 48zM1286 1292q0 43 31 74t72 31q43 0 73.5 -31t30.5 -74t-30.5 -72.5t-73.5 -29.5q-42 0 -72.5 30t-30.5 72zM1313 68v854 q0 31 23 53t55 22q31 0 53 -22t22 -53v-854q0 -31 -22.5 -53.5t-54.5 -22.5q-31 0 -53.5 22.5t-22.5 53.5z" />
<glyph unicode="&#xfb04;" horiz-adv-x="1622" d="M23 922q0 28 20.5 47.5t48.5 19.5h105v76q0 152 77.5 236.5t208.5 84.5q51 0 97 -12q47 -14 47 -61q0 -27 -16 -44.5t-46 -17.5q-6 0 -25.5 4.5t-33.5 4.5q-75 0 -115.5 -50.5t-40.5 -144.5v-76h142q28 0 47.5 -19.5t19.5 -47.5t-19.5 -48t-47.5 -20h-142v-786 q0 -31 -22.5 -53.5t-53.5 -22.5q-32 0 -54.5 22.5t-22.5 53.5v786h-105q-28 0 -48.5 20t-20.5 48zM602 922q0 27 21 47t49 20h104v76q0 151 78 236t209 85q49 0 96 -12q47 -14 47 -61q0 -28 -15.5 -45t-45.5 -17q-6 0 -26 4.5t-34 4.5q-75 0 -115 -50.5t-40 -144.5v-76h141 q28 0 48 -19.5t20 -47.5t-20 -48t-48 -20h-141v-786q0 -31 -22.5 -53.5t-53.5 -22.5q-32 0 -55 22.5t-23 53.5v786h-104q-28 0 -49 20t-21 48zM1313 68v1230q0 31 23 53.5t55 22.5q31 0 53 -22.5t22 -53.5v-1230q0 -31 -22 -53.5t-53 -22.5q-32 0 -55 22.5t-23 53.5z" />
<glyph unicode="fb" horiz-adv-x="1757" d="M23 922q0 28 20.5 47.5t48.5 19.5h105v76q0 152 77.5 236.5t208.5 84.5q51 0 97 -12q47 -14 47 -61q0 -27 -16 -44.5t-46 -17.5q-6 0 -25.5 4.5t-33.5 4.5q-75 0 -115.5 -50.5t-40.5 -144.5v-76h142q28 0 47.5 -19.5t19.5 -47.5t-19.5 -48t-47.5 -20h-142v-786 q0 -31 -22.5 -53.5t-53.5 -22.5q-32 0 -54.5 22.5t-22.5 53.5v786h-105q-28 0 -48.5 20t-20.5 48zM733 68v1230q0 31 23 53.5t55 22.5q31 0 53.5 -22.5t22.5 -53.5v-460q59 83 146.5 129.5t187.5 46.5q195 0 317.5 -143t122.5 -377q0 -238 -122 -378.5t-318 -140.5 q-101 0 -187.5 47t-146.5 125v-79q0 -31 -22.5 -53.5t-53.5 -22.5q-32 0 -55 22.5t-23 53.5zM887 268q41 -66 123.5 -110.5t171.5 -44.5q148 0 233.5 106.5t85.5 274.5t-86 275.5t-233 107.5q-88 0 -171 -46.5t-124 -113.5v-449z" />
<glyph unicode="fh" horiz-adv-x="1710" d="M23 922q0 28 20.5 47.5t48.5 19.5h105v76q0 152 77.5 236.5t208.5 84.5q51 0 97 -12q47 -14 47 -61q0 -27 -16 -44.5t-46 -17.5q-6 0 -25.5 4.5t-33.5 4.5q-75 0 -115.5 -50.5t-40.5 -144.5v-76h142q28 0 47.5 -19.5t19.5 -47.5t-19.5 -48t-47.5 -20h-142v-786 q0 -31 -22.5 -53.5t-53.5 -22.5q-32 0 -54.5 22.5t-22.5 53.5v786h-105q-28 0 -48.5 20t-20.5 48zM733 68v1230q0 31 23 53.5t55 22.5q31 0 53.5 -22.5t22.5 -53.5v-452q59 69 154 118.5t200 49.5q315 0 315 -316v-630q0 -31 -22.5 -53.5t-54.5 -22.5q-31 0 -53.5 22.5 t-22.5 53.5v583q0 124 -57.5 175t-165.5 51q-85 0 -165.5 -45t-127.5 -109v-655q0 -31 -22.5 -53.5t-53.5 -22.5q-32 0 -55 22.5t-23 53.5z" />
<glyph unicode="fk" horiz-adv-x="1632" d="M23 922q0 28 20.5 47.5t48.5 19.5h105v76q0 152 77.5 236.5t208.5 84.5q51 0 97 -12q47 -14 47 -61q0 -27 -16 -44.5t-46 -17.5q-6 0 -25.5 4.5t-33.5 4.5q-75 0 -115.5 -50.5t-40.5 -144.5v-76h142q28 0 47.5 -19.5t19.5 -47.5t-19.5 -48t-47.5 -20h-142v-786 q0 -31 -22.5 -53.5t-53.5 -22.5q-32 0 -54.5 22.5t-22.5 53.5v786h-105q-28 0 -48.5 20t-20.5 48zM733 68v1230q0 31 23 53.5t55 22.5q31 0 53.5 -22.5t22.5 -53.5v-837l534 518q18 18 49 18q29 0 49.5 -21t20.5 -50t-20 -49l-355 -340l369 -416q18 -21 18 -51 q0 -33 -21.5 -55.5t-53.5 -22.5q-39 0 -60 24l-362 426l-168 -155v-219q0 -31 -23 -53.5t-55 -22.5q-31 0 -53.5 22.5t-22.5 53.5z" />
<glyph horiz-adv-x="0" />
<glyph horiz-adv-x="682" />
<glyph unicode="&#xd;" horiz-adv-x="0" />
<glyph unicode=" "  horiz-adv-x="528" />
<glyph unicode="&#x09;" horiz-adv-x="528" />
<glyph unicode="&#xa0;" horiz-adv-x="528" />
<glyph unicode="!" horiz-adv-x="471" d="M123 92q0 46 33.5 79.5t79.5 33.5t79 -33.5t33 -79.5q0 -45 -33.5 -78.5t-78.5 -33.5q-46 0 -79.5 34t-33.5 78zM141 1280q0 37 28 65.5t67 28.5t66 -27.5t26 -66.5l-25 -844q-2 -27 -21 -45t-46 -18q-28 0 -47 18.5t-19 44.5z" />
<glyph unicode="&#x22;" horiz-adv-x="702" d="M111 1292q0 38 27 66t65 28q39 0 66.5 -27.5t27.5 -66.5q0 -41 -51 -420q-1 -17 -13.5 -27.5t-29.5 -10.5q-15 0 -27.5 10.5t-15.5 27.5q-4 34 -17.5 142.5t-22.5 187.5t-9 90zM408 1292q0 39 27.5 66.5t66.5 27.5q38 0 65 -28t27 -66q0 -19 -17 -166t-34 -254 q-2 -17 -13 -27.5t-28 -10.5q-19 0 -30 10.5t-13 27.5q-17 107 -34 254t-17 166z" />
<glyph unicode="#" horiz-adv-x="1208" d="M55 424q0 23 16.5 39t39.5 16h188l135 408h-158q-22 0 -37.5 15t-15.5 38t15.5 38t37.5 15h195l113 340q12 41 57 41q25 0 42 -17t17 -40q0 -11 -4 -23l-100 -301h227l111 340q6 18 22 29.5t35 11.5q25 0 42.5 -17t17.5 -40q0 -11 -4 -23l-101 -301h156q22 0 38.5 -15 t16.5 -38t-16.5 -38t-38.5 -15h-191l-137 -408h164q22 0 37.5 -16t15.5 -39t-15.5 -38t-37.5 -15h-199l-114 -338q-4 -18 -20.5 -29.5t-35.5 -11.5q-25 0 -42 17t-17 40q0 9 4 25l100 297h-227l-113 -338q-13 -41 -57 -41q-25 0 -42 17t-17 40q0 11 4 23l100 299h-151 q-24 0 -40 15t-16 38zM424 479h223l139 408h-227z" />
<glyph unicode="$" horiz-adv-x="1214" d="M109 207q0 34 23.5 58t57.5 24q33 0 52 -19q134 -120 313 -139v498q-53 14 -90 25t-85 30t-81 38t-67.5 48t-55 62.5t-34 78t-13.5 97.5q0 158 119.5 262t306.5 116v134q0 25 17.5 43t43.5 18t45 -18t19 -43v-138q202 -14 346 -137q33 -26 33 -65q0 -32 -24 -57t-56 -25 q-27 0 -49 18q-109 93 -250 111v-445q53 -15 91 -27t86.5 -32t82.5 -41t69 -52t56.5 -66t35 -83t13.5 -104q0 -72 -24 -137t-73.5 -121.5t-136 -93.5t-200.5 -45v-132q0 -25 -19 -43t-45 -18t-43.5 18t-17.5 43v129q-243 11 -416 164q-30 27 -30 66zM305 1018 q0 -42 18.5 -75t56 -56.5t77.5 -39t98 -32.5v418q-111 -6 -180.5 -65.5t-69.5 -149.5zM680 133q70 6 123 29t81.5 56.5t42 69.5t13.5 74q0 50 -19.5 88.5t-59 65.5t-80 44t-101.5 36v-463z" />
<glyph unicode="%" horiz-adv-x="1497" d="M63 1047q0 146 91.5 242.5t236.5 96.5q146 0 239 -96.5t93 -242.5q0 -144 -93 -239t-239 -95q-145 0 -236.5 95t-91.5 239zM186 1047q0 -101 57.5 -169.5t147.5 -68.5q91 0 150 68.5t59 169.5q0 105 -58.5 173t-150.5 68q-90 0 -147.5 -68t-57.5 -173zM295 37q0 10 8 26 l823 1291q13 20 41 20q19 0 32 -13.5t13 -33.5q0 -15 -6 -27l-825 -1288q-13 -20 -39 -20q-19 0 -33 13t-14 32zM776 309q0 146 91.5 243t236.5 97t237.5 -97t92.5 -243q0 -144 -92.5 -239t-237.5 -95t-236.5 95t-91.5 239zM897 309q0 -102 58 -169.5t149 -67.5 q92 0 150.5 67.5t58.5 169.5q0 105 -58.5 173.5t-150.5 68.5t-149.5 -68.5t-57.5 -173.5z" />
<glyph unicode="&#x26;" horiz-adv-x="1312" d="M74 356q0 77 23.5 140.5t69 112.5t94 84t116.5 71q-107 177 -107 305q0 136 99 226.5t245 90.5q137 0 223.5 -71t86.5 -197q0 -50 -12.5 -93t-40.5 -79t-54.5 -62.5t-75 -56.5t-79 -46.5t-87.5 -45.5q68 -94 158 -196q83 -95 164 -179q72 105 125 248q8 19 25 31t38 12 q29 0 50.5 -19.5t21.5 -47.5q0 -17 -8 -33q-82 -180 -154 -285q84 -77 162 -139q29 -20 29 -59q0 -32 -22 -54t-52 -22q-27 0 -47 14q-47 37 -164 146q-177 -177 -401 -177q-186 0 -306 99t-120 282zM240 367q0 -122 80.5 -193.5t193.5 -71.5q156 0 291 142 q-130 127 -193 200q-118 142 -170 218q-97 -59 -149.5 -128t-52.5 -167zM430 1067q0 -93 82 -236q43 22 71 37.5t62.5 37.5t56.5 43t41.5 46.5t29 54.5t9.5 62q0 73 -45 113.5t-116 40.5q-79 0 -135 -56.5t-56 -142.5z" />
<glyph unicode="'" horiz-adv-x="407" d="M111 1292q0 38 27 66t65 28q39 0 66.5 -27.5t27.5 -66.5q0 -41 -51 -420q-1 -17 -13.5 -27.5t-29.5 -10.5q-15 0 -27.5 10.5t-15.5 27.5q-4 34 -17.5 142.5t-22.5 187.5t-9 90z" />
<glyph unicode="(" horiz-adv-x="507" d="M90 498q0 468 256 860q16 26 51 26q26 0 44 -18t18 -43q0 -21 -6 -31q-99 -200 -147 -383t-48 -411t48 -411t145 -382q8 -13 8 -31q0 -26 -18 -44.5t-44 -18.5q-35 0 -51 29q-125 189 -190.5 408.5t-65.5 449.5z" />
<glyph unicode=")" horiz-adv-x="507" d="M47 -326q0 18 8 31q99 200 147 382.5t48 410.5t-48 411t-147 383q-8 13 -8 31q0 25 19 43t45 18q31 0 51 -26q256 -392 256 -860q0 -230 -65.5 -449.5t-190.5 -408.5q-19 -29 -51 -29q-26 0 -45 18.5t-19 44.5z" />
<glyph unicode="*" horiz-adv-x="696" d="M78 961q0 26 24 40l177 91l-177 90q-24 14 -24 39q0 19 13 31t32 12q10 0 24 -7l164 -106l-8 199q-1 17 12.5 31t32.5 14t32 -13t13 -32l-10 -199l164 106q14 7 24 7q19 0 32 -12t13 -31q0 -25 -24 -39l-174 -90l174 -91q24 -14 24 -40q0 -17 -13 -30t-32 -13 q-12 0 -24 6l-164 108l10 -196q0 -20 -13 -34t-32 -14t-32.5 14t-12.5 34l8 196l-164 -108q-12 -6 -24 -6q-19 0 -32 13t-13 30z" />
<glyph unicode="+" horiz-adv-x="1021" d="M51 690q0 23 15.5 38t37.5 15h349v375q0 23 17 40.5t40 17.5q24 0 41.5 -17t17.5 -41v-375h349q22 0 37.5 -15t15.5 -38t-15.5 -38t-37.5 -15h-349v-387q0 -24 -17.5 -42t-41.5 -18q-23 0 -40 18t-17 42v387h-349q-22 0 -37.5 15t-15.5 38z" />
<glyph unicode="," horiz-adv-x="471" d="M123 94q0 45 31.5 78t76.5 33q53 0 91 -42.5t38 -113.5q0 -82 -38 -157.5t-103 -131.5q-12 -12 -31 -12q-20 0 -33.5 13.5t-13.5 33.5q0 23 15 35q85 85 94 164q-12 -4 -29 -4q-43 0 -70.5 29t-27.5 75z" />
<glyph unicode="-" horiz-adv-x="614" d="M53 496q0 28 20 47.5t48 19.5h373q28 0 47.5 -19.5t19.5 -47.5t-19.5 -48t-47.5 -20h-373q-28 0 -48 20t-20 48z" />
<glyph unicode="." horiz-adv-x="471" d="M123 92q0 46 33.5 79.5t79.5 33.5t79 -33.5t33 -79.5t-33 -79t-79 -33t-79.5 33t-33.5 79z" />
<glyph unicode="/" horiz-adv-x="606" d="M18 8q0 6 5 21l452 1347q14 39 55 39q23 0 40.5 -17t17.5 -40q0 -9 -4 -21l-453 -1347q-14 -39 -55 -39q-23 0 -40.5 17t-17.5 40z" />
<glyph unicode="0" horiz-adv-x="1253" d="M104 682q0 104 18 202t58.5 190t100 160.5t148.5 110t198 41.5q108 0 197 -41.5t148.5 -110t100 -160.5t58.5 -190.5t18 -201.5t-18 -201.5t-58.5 -191t-100 -161.5t-148.5 -111t-197 -42q-109 0 -198 42t-148.5 111t-100 162t-58.5 191t-18 201zM279 682 q0 -108 18.5 -202.5t57.5 -176t109 -129t163 -47.5t163 47.5t109 129t57.5 176t18.5 202.5q0 85 -11 162t-37 149.5t-65 125.5t-99.5 84.5t-135.5 31.5t-135.5 -31.5t-99.5 -84.5t-65 -125.5t-37 -149.5t-11 -162z" />
<glyph unicode="1" horiz-adv-x="694" d="M66 1008q0 31 20 51l279 287q28 28 69 28t71 -29t30 -69v-1200q0 -34 -24.5 -59t-59.5 -25q-36 0 -61 25t-25 59v1065l-175 -185q-22 -22 -51 -22q-31 0 -52 21.5t-21 52.5z" />
<glyph unicode="2" horiz-adv-x="1191" d="M88 90q0 45 37 74q132 102 220.5 174t179 151t145.5 139t100.5 123t65.5 120t20 114q0 83 -43 141.5t-105.5 83.5t-136.5 25q-195 0 -325 -127q-25 -18 -51 -18q-32 0 -54 22.5t-22 54.5q0 35 26 58q169 161 426 161q87 0 167.5 -25t146.5 -73t105.5 -126.5t39.5 -176.5 q0 -82 -34 -166.5t-88 -159.5t-145 -165.5t-179 -165t-217 -176.5h602q31 0 53 -22.5t22 -53.5t-22 -53.5t-53 -22.5h-791q-36 0 -63 27t-27 63z" />
<glyph unicode="3" horiz-adv-x="1140" d="M78 205q0 32 23 54t55 22q27 0 49 -19q138 -135 336 -135q149 0 234 68.5t85 187.5q0 123 -91 182.5t-249 59.5h-74q-31 0 -53 21.5t-22 53.5q0 31 22 53.5t53 22.5h74q139 0 228.5 56.5t89.5 168.5q0 110 -87.5 172t-218.5 62q-178 0 -315 -125q-19 -16 -47 -16 q-31 0 -52.5 21t-21.5 52q0 29 27 56q173 163 422 163q202 0 332.5 -97.5t130.5 -266.5q0 -70 -27.5 -128.5t-72.5 -96t-94 -60.5t-101 -32q39 -3 81 -17.5t84 -42.5t75 -65.5t54 -92.5t21 -118q0 -174 -130.5 -284t-352.5 -110q-140 0 -253 47t-190 125q-24 24 -24 58z" />
<glyph unicode="4" horiz-adv-x="1142" d="M57 444q0 32 17 56l540 807q44 67 123 67q60 0 104 -43t44 -104v-731h125q31 0 53 -21.5t22 -52.5q0 -32 -22 -54t-53 -22h-125v-270q0 -34 -25 -59t-59 -25q-36 0 -61 25t-25 59v270h-557q-42 0 -71.5 28.5t-29.5 69.5zM236 496h479v712z" />
<glyph unicode="5" horiz-adv-x="1208" d="M156 201q0 32 24 55t56 23q29 0 51 -19q127 -133 329 -133q138 0 227 83.5t89 209.5q0 134 -87.5 214.5t-226.5 80.5q-156 0 -280 -101q-25 -22 -62 -22q-41 0 -69.5 29t-28.5 69v586q0 43 23.5 66.5t66.5 23.5h678q31 0 53.5 -22.5t22.5 -53.5t-22.5 -53.5t-53.5 -22.5 h-598v-475q53 53 138 88t182 35q86 0 163.5 -29t138.5 -83t96.5 -138t35.5 -186q0 -205 -138 -328t-348 -123q-271 0 -434 166q-26 26 -26 60z" />
<glyph unicode="6" horiz-adv-x="1210" d="M104 680q0 113 20.5 216t65 193t108.5 155.5t156.5 103.5t204.5 38q196 0 332 -120q31 -21 31 -62q0 -31 -22.5 -53.5t-53.5 -22.5q-27 0 -45 15q-102 92 -242 92q-95 0 -170.5 -46t-121.5 -122.5t-69.5 -171t-23.5 -197.5q0 -35 2 -53q51 81 158.5 147t229.5 66 q93 0 173.5 -27.5t141.5 -80.5t96 -137.5t35 -190.5q0 -89 -33.5 -170t-93.5 -142.5t-151.5 -98t-200.5 -36.5q-111 0 -200.5 38t-149.5 103t-100.5 155.5t-58.5 192.5t-18 216zM281 506q6 -69 27.5 -132t60.5 -120.5t105 -92t151 -34.5q76 0 137.5 26.5t98.5 69t57 92.5 t20 101q0 144 -88 219.5t-227 75.5q-100 0 -192 -56.5t-150 -148.5z" />
<glyph unicode="7" horiz-adv-x="1054" d="M53 1290q0 31 22.5 53.5t53.5 22.5h795q32 0 56 -24t24 -58q0 -15 -9 -33l-540 -1208q-9 -23 -31 -37t-47 -14q-37 0 -61.5 24.5t-24.5 59.5q0 13 8 37l500 1101h-670q-31 0 -53.5 22.5t-22.5 53.5z" />
<glyph unicode="8" horiz-adv-x="1189" d="M106 346q0 129 94 223t232 136q-132 38 -217.5 119.5t-85.5 207.5q0 89 40.5 158.5t108.5 111t149 63t169 21.5q87 0 168.5 -21.5t150 -63t109.5 -111t41 -158.5q0 -65 -25 -120t-69 -94.5t-96.5 -67t-114.5 -45.5q138 -41 231.5 -135.5t93.5 -223.5 q0 -168 -140.5 -269.5t-348.5 -101.5q-136 0 -246.5 43.5t-177 129t-66.5 198.5zM276 365q0 -107 94 -172.5t226 -65.5q131 0 224 65.5t93 172.5q0 51 -25 95t-62 72.5t-82.5 50.5t-82 32.5t-65.5 13.5q-29 -3 -66 -13.5t-82.5 -32.5t-83 -50.5t-63 -72.5t-25.5 -95z M299 1010q0 -47 23.5 -86.5t56.5 -64t77.5 -44t76.5 -28t63 -13.5q31 5 63.5 13.5t76.5 28t77 44t56.5 64t23.5 86.5q0 103 -85 164t-212 61q-128 0 -212.5 -61t-84.5 -164z" />
<glyph unicode="9" horiz-adv-x="1210" d="M100 942q0 89 33.5 169.5t93.5 142.5t151.5 98.5t199.5 36.5q112 0 202 -38t150 -103t100 -156t58 -193t18 -217q0 -113 -20.5 -215.5t-65 -192t-108.5 -155.5t-156.5 -104t-204.5 -38q-195 0 -332 121q-31 21 -31 62q0 31 22.5 53.5t53.5 22.5q22 0 45 -15 q99 -92 242 -92q80 0 145.5 31t109.5 83t74 121.5t43 144.5t13 155q0 37 -2 55q-51 -81 -158 -147t-227 -66q-126 0 -225.5 47t-161.5 147.5t-62 241.5zM272 948q0 -144 88.5 -219.5t227.5 -75.5q100 0 193 56t147 147q-4 54 -17.5 105t-40.5 102t-64.5 89t-94 61.5 t-125.5 23.5q-75 0 -136.5 -27t-99.5 -69.5t-58 -92.5t-20 -100z" />
<glyph unicode=":" horiz-adv-x="471" d="M123 92q0 46 33.5 79.5t79.5 33.5t79 -33.5t33 -79.5t-33 -79t-79 -33t-79.5 33t-33.5 79zM123 891q0 46 33.5 79.5t79.5 33.5t79 -33.5t33 -79.5t-33 -79.5t-79 -33.5t-79.5 33.5t-33.5 79.5z" />
<glyph unicode=";" horiz-adv-x="471" d="M123 94q0 45 31.5 78t76.5 33q53 0 91 -42.5t38 -113.5q0 -82 -38 -157.5t-103 -131.5q-12 -12 -31 -12q-20 0 -33.5 13.5t-13.5 33.5q0 23 15 35q85 85 94 164q-12 -4 -29 -4q-43 0 -70.5 29t-27.5 75zM123 891q0 46 33.5 79.5t79.5 33.5t79 -33.5t33 -79.5 q0 -45 -33.5 -79t-78.5 -34t-79 34t-34 79z" />
<glyph unicode="&#x3c;" horiz-adv-x="1021" d="M51 686q0 47 45 72l791 393q12 6 26 6q25 0 41.5 -16.5t16.5 -40.5q0 -36 -35 -53l-746 -363l748 -360q33 -15 33 -52q0 -25 -16.5 -41t-41.5 -16q-10 0 -26 4l-791 393q-45 25 -45 74z" />
<glyph unicode="=" horiz-adv-x="1021" d="M51 485q0 22 15.5 38t37.5 16h814q22 0 37.5 -16t15.5 -38t-15.5 -37.5t-37.5 -15.5h-814q-22 0 -37.5 15.5t-15.5 37.5zM51 883q0 22 15.5 37.5t37.5 15.5h814q22 0 37.5 -15.5t15.5 -37.5q0 -23 -15.5 -39.5t-37.5 -16.5h-814q-22 0 -37.5 16.5t-15.5 39.5z" />
<glyph unicode="&#x3e;" horiz-adv-x="1021" d="M51 272q0 37 33 52l745 360l-745 363q-33 18 -33 53q0 24 16.5 40.5t41.5 16.5q15 0 24 -6l791 -393q47 -24 47 -72q0 -50 -47 -74l-791 -393q-12 -4 -24 -4q-25 0 -41.5 16t-16.5 41z" />
<glyph unicode="?" horiz-adv-x="946" d="M57 1171q0 31 25 56q159 159 399 159q183 0 292.5 -90.5t109.5 -226.5q0 -50 -15 -94.5t-33.5 -74t-55 -64t-59.5 -51.5t-67 -48q-45 -31 -65.5 -46.5t-49.5 -43.5t-41 -55.5t-12 -59.5q0 -23 23 -53q4 -6 4 -20q0 -30 -21 -52t-51 -22q-38 0 -59 35q-45 60 -45 125 q0 33 7 62.5t24 56t30.5 44.5t43 42.5t43.5 35t48 35.5q44 30 67 47.5t52.5 46.5t42.5 60.5t13 68.5q0 81 -63 136t-179 55q-91 0 -158.5 -30.5t-124.5 -90.5q-22 -18 -49 -18q-31 0 -53.5 21.5t-22.5 53.5zM346 92q0 46 33.5 79.5t79.5 33.5t79 -33.5t33 -79.5t-33 -79 t-79 -33t-79.5 33t-33.5 79z" />
<glyph unicode="@" horiz-adv-x="1603" d="M72 500q0 162 67.5 312t179 258t260.5 172.5t306 64.5q189 0 337.5 -88t228 -235.5t79.5 -326.5q0 -116 -31 -210.5t-82 -152.5t-113 -89t-128 -31q-82 0 -132 48.5t-55 117.5l-2 12q-57 -79 -142.5 -128.5t-180.5 -49.5q-142 0 -228 92t-86 242q0 104 41.5 200 t108.5 164.5t154 109t177 40.5q95 0 163.5 -45t99.5 -115l16 82q5 23 23 38t43 15q32 0 53 -26t14 -58l-100 -479q-4 -24 -4 -43q0 -51 27 -78.5t69 -27.5q26 0 54 11t58.5 39t54 68.5t39 106.5t15.5 147q0 254 -160 417t-419 163q-145 0 -281 -61t-235.5 -161.5 t-159.5 -235t-60 -275.5q0 -163 75.5 -295.5t210.5 -208.5t302 -76q184 0 356 101q9 6 19 6q14 0 23.5 -9.5t9.5 -23.5q0 -18 -15 -29q-187 -112 -401 -112q-183 0 -332 85t-233 232t-84 326zM496 516q0 -100 56.5 -163.5t152.5 -63.5t174 53.5t131 130.5l59 283 q-21 58 -75 104.5t-136 46.5q-99 0 -183.5 -56.5t-131.5 -146.5t-47 -188z" />
<glyph unicode="A" horiz-adv-x="1347" d="M55 78q0 11 8 35l472 1167q18 42 55.5 68t83.5 26q47 0 84.5 -26t52.5 -68l473 -1167q6 -30 6 -33q0 -37 -25.5 -62.5t-60.5 -25.5q-28 0 -50.5 15t-31.5 40l-98 256h-702l-99 -256q-7 -25 -29.5 -40t-50.5 -15q-37 0 -62.5 25.5t-25.5 60.5zM381 455h586l-293 759z" />
<glyph unicode="B" horiz-adv-x="1288" d="M160 90v1186q0 43 23.5 66.5t66.5 23.5h518q176 0 279.5 -96t103.5 -252q0 -123 -70 -207t-170 -106q109 -17 188 -115.5t79 -220.5q0 -167 -105.5 -268t-290.5 -101h-532q-43 0 -66.5 23.5t-23.5 66.5zM330 152h418q119 0 186 63t67 172q0 100 -66.5 168t-186.5 68h-418 v-471zM330 774h409q112 0 174 61t62 158q0 96 -62 158.5t-174 62.5h-409v-440z" />
<glyph unicode="C" horiz-adv-x="1372" d="M104 682q0 154 54.5 287t148.5 224.5t222 143.5t272 52q283 0 469 -199q20 -20 20 -55q0 -32 -24 -56t-56 -24q-38 0 -61 26q-67 73 -156.5 114.5t-191.5 41.5q-222 0 -371 -156.5t-149 -398.5q0 -159 68.5 -286.5t187.5 -198t264 -70.5q103 0 193.5 41.5t154.5 114.5 q23 26 61 26q33 0 56.5 -23.5t23.5 -56.5q0 -35 -20 -55q-189 -199 -469 -199q-144 0 -272 52t-222 143.5t-148.5 224.5t-54.5 287z" />
<glyph unicode="D" horiz-adv-x="1433" d="M160 90v1186q0 43 23.5 66.5t66.5 23.5h377q208 0 368.5 -90.5t246 -245.5t85.5 -348q0 -145 -50 -270.5t-140.5 -216.5t-222 -143t-287.5 -52h-377q-43 0 -66.5 23.5t-23.5 66.5zM330 152h297q161 0 282 72t181.5 191t60.5 267q0 150 -59.5 269t-180 191t-284.5 72h-297 v-1062z" />
<glyph unicode="E" horiz-adv-x="1165" d="M160 90v1186q0 43 23.5 66.5t66.5 23.5h737q31 0 54.5 -22.5t23.5 -53.5t-23.5 -53.5t-54.5 -22.5h-657v-440h643q31 0 54.5 -22.5t23.5 -53.5q0 -30 -23.5 -52.5t-54.5 -22.5h-643v-471h657q31 0 54.5 -22.5t23.5 -53.5t-23.5 -53.5t-54.5 -22.5h-737q-43 0 -66.5 23.5 t-23.5 66.5z" />
<glyph unicode="F" horiz-adv-x="1126" d="M160 76v1200q0 43 23.5 66.5t66.5 23.5h737q31 0 54.5 -22.5t23.5 -53.5t-23.5 -53.5t-54.5 -22.5h-657v-440h643q31 0 54.5 -22.5t23.5 -53.5q0 -30 -23.5 -52.5t-54.5 -22.5h-643v-547q0 -34 -25 -59t-59 -25q-36 0 -61 25t-25 59z" />
<glyph unicode="G" horiz-adv-x="1460" d="M104 682q0 156 55.5 289t150 224t223.5 142.5t274 51.5q282 0 471 -189q22 -19 22 -55q0 -33 -22 -55.5t-55 -22.5q-35 0 -58 23q-69 69 -161.5 108t-196.5 39q-148 0 -268 -70t-189 -197.5t-69 -287.5q0 -242 150.5 -399.5t375.5 -157.5q113 0 210.5 44t156.5 103v279 h-402q-31 0 -53.5 22.5t-22.5 53.5t22.5 53t53.5 22h481q43 0 66.5 -24t23.5 -68v-334q0 -72 -45 -112q-208 -191 -491 -191q-145 0 -274 51.5t-223.5 143t-150 225t-55.5 289.5z" />
<glyph unicode="H" horiz-adv-x="1458" d="M160 76v1214q0 34 24.5 59t59.5 25t60.5 -25t25.5 -59v-512h798v512q0 34 25 59t61 25q35 0 59.5 -25t24.5 -59v-1214q0 -34 -25 -59t-61 -25q-35 0 -59.5 25t-24.5 59v551h-798v-551q0 -34 -25 -59t-59 -25q-36 0 -61 25t-25 59z" />
<glyph unicode="I" horiz-adv-x="489" d="M160 76v1214q0 34 25 59t61 25q34 0 59 -25t25 -59v-1214q0 -34 -25 -59t-59 -25q-36 0 -61 25t-25 59z" />
<glyph unicode="J" horiz-adv-x="972" d="M39 150q0 32 23 54.5t57 22.5q24 0 45 -14q89 -86 205 -86q125 0 199.5 79t74.5 208v876q0 34 24.5 59t59.5 25t60.5 -25t25.5 -59v-878q0 -109 -33.5 -193.5t-92.5 -137t-137 -79.5t-171 -27q-186 0 -307 113q-33 23 -33 62z" />
<glyph unicode="K" horiz-adv-x="1230" d="M160 76v1214q0 34 24.5 59t59.5 25t60.5 -25t25.5 -59v-633l626 691q21 26 60 26q33 0 57.5 -23t24.5 -55q0 -29 -23 -55l-495 -528l544 -586q23 -23 23 -53q0 -34 -23 -58t-55 -24q-37 0 -61 24l-541 592l-137 -145v-387q0 -34 -25.5 -59t-60.5 -25t-59.5 25t-24.5 59z " />
<glyph unicode="L" horiz-adv-x="1044" d="M160 90v1200q0 34 25 59t61 25q34 0 59 -25t25 -59v-1138h567q31 0 54.5 -22.5t23.5 -53.5t-23.5 -53.5t-54.5 -22.5h-647q-43 0 -66.5 23.5t-23.5 66.5z" />
<glyph unicode="M" horiz-adv-x="1656" d="M160 76v1155q0 59 41.5 101t101.5 42q45 0 81.5 -25t51.5 -65l391 -965l394 965q15 40 51.5 65t81.5 25q60 0 101.5 -42t41.5 -101v-1155q0 -34 -25 -59t-61 -25q-34 0 -59 25t-25 59v1061l-453 -1110q-12 -35 -47 -35t-47 35l-450 1110v-1061q0 -34 -25 -59t-59 -25 q-36 0 -61 25t-25 59z" />
<glyph unicode="N" horiz-adv-x="1449" d="M160 76v1188q0 45 32.5 77.5t77.5 32.5q59 0 90 -45l760 -1042v1003q0 34 25 59t59 25q36 0 61 -25t25 -59v-1194q0 -43 -30.5 -73.5t-73.5 -30.5q-57 0 -86 43l-770 1067v-1026q0 -34 -25 -59t-59 -25q-36 0 -61 25t-25 59z" />
<glyph unicode="O" horiz-adv-x="1566" d="M104 682q0 200 84 361t239.5 253.5t354.5 92.5q198 0 353.5 -92.5t240 -253.5t84.5 -361t-84.5 -361t-240 -253.5t-353.5 -92.5q-199 0 -354.5 92.5t-239.5 253.5t-84 361zM281 682q0 -158 60.5 -284t175.5 -198.5t265 -72.5q149 0 264.5 72.5t176.5 198.5t61 284 q0 159 -61 285t-176 198t-265 72q-227 0 -364 -156t-137 -399z" />
<glyph unicode="P" horiz-adv-x="1202" d="M160 76v1200q0 43 23.5 66.5t66.5 23.5h459q198 0 313 -118.5t115 -293.5q0 -174 -116 -292.5t-312 -118.5h-379v-467q0 -34 -25 -59t-59 -25q-36 0 -61 25t-25 59zM330 694h358q121 0 197 72t76 188t-76 188t-197 72h-358v-520z" />
<glyph unicode="Q" horiz-adv-x="1566" d="M104 682q0 200 84 361t239.5 253.5t354.5 92.5q198 0 353.5 -92.5t240 -253.5t84.5 -361q0 -150 -48.5 -280t-139.5 -224l82 -88q20 -20 20 -51q0 -33 -22.5 -55.5t-55.5 -22.5q-35 0 -57 25l-86 92q-162 -103 -371 -103q-199 0 -354.5 92.5t-239.5 253.5t-84 361z M281 682q0 -158 60.5 -284t175.5 -198.5t265 -72.5q145 0 260 70l-145 157q-20 23 -20 52q0 33 22 55t55 22q40 0 58 -24l147 -160q125 153 125 383q0 159 -61 285t-176 198t-265 72q-227 0 -364 -156t-137 -399z" />
<glyph unicode="R" horiz-adv-x="1245" d="M160 76v1200q0 43 23.5 66.5t66.5 23.5h459q190 0 309 -112.5t119 -299.5q0 -166 -93 -268.5t-233 -124.5l313 -438q17 -25 17 -53t-23.5 -53t-58.5 -25q-48 0 -72 35l-356 516h-301v-467q0 -34 -25 -59t-59 -25q-36 0 -61 25t-25 59zM330 692h358q121 0 197 73t76 189 t-76 188t-197 72h-358v-522z" />
<glyph unicode="S" horiz-adv-x="1200" d="M100 205q0 35 24 59.5t58 24.5q32 0 51 -19q164 -143 375 -143q87 0 152.5 21.5t101 57.5t52 75t16.5 81q0 30 -7 56t-22.5 47t-31.5 37.5t-45 32t-50.5 26t-60 23t-62 19t-67.5 18.5q-185 48 -264 87q-174 85 -196 248q-3 25 -3 52q0 168 134.5 273t346.5 105 q240 0 422 -141q35 -21 35 -65q0 -32 -24 -57t-56 -25q-27 0 -49 18q-142 119 -340 119q-132 0 -212.5 -60t-80.5 -157q0 -99 119 -156q59 -27 213 -69q48 -13 75.5 -20.5t73.5 -22.5t74 -27.5t67 -32.5t62.5 -41t50 -50t41 -61t24 -73t9.5 -88q0 -62 -16.5 -118.5t-55 -109 t-95.5 -90.5t-143.5 -61t-193.5 -23q-283 0 -471 166q-31 28 -31 64z" />
<glyph unicode="T" horiz-adv-x="1167" d="M57 1290q0 31 22.5 53.5t53.5 22.5h901q31 0 53.5 -22.5t22.5 -53.5t-22.5 -53.5t-53.5 -22.5h-366v-1138q0 -34 -24.5 -59t-59.5 -25t-60.5 25t-25.5 59v1138h-365q-31 0 -53.5 22.5t-22.5 53.5z" />
<glyph unicode="U" horiz-adv-x="1433" d="M160 530v760q0 34 25 59t61 25q35 0 59.5 -25t24.5 -59v-755q0 -190 100.5 -299t286.5 -109t286.5 109t100.5 299v755q0 34 25 59t61 25q35 0 59.5 -25t24.5 -59v-758q0 -261 -142 -409t-415 -148q-272 0 -414.5 148.5t-142.5 406.5z" />
<glyph unicode="V" horiz-adv-x="1347" d="M57 1284q0 37 26 63.5t64 26.5q28 0 51.5 -15.5t32.5 -41.5l443 -1131l442 1131q9 26 32 41.5t52 15.5q37 0 63.5 -26.5t26.5 -63.5q0 -13 -8 -33l-469 -1165q-18 -42 -55.5 -68t-83.5 -26q-47 0 -85.5 26t-53.5 68l-469 1165q-9 15 -9 33z" />
<glyph unicode="W" horiz-adv-x="1808" d="M55 1284q0 37 26.5 63.5t63.5 26.5q31 0 54.5 -19t31.5 -48l289 -1080l297 1082q8 29 32 47t56 18q31 0 55 -18t31 -47l297 -1082l287 1080q8 29 31.5 48t54.5 19q38 0 64 -26.5t26 -63.5q0 -11 -4 -27l-336 -1179q-9 -38 -41 -62t-72 -24q-42 0 -73.5 24.5t-40.5 63.5 l-281 1022l-278 -1022q-10 -40 -42 -64t-73 -24t-72.5 24t-42.5 62l-336 1179q-4 16 -4 27z" />
<glyph unicode="X" horiz-adv-x="1335" d="M61 76q0 22 21 51l483 575l-452 535q-19 27 -19 53q0 33 23 58.5t57 25.5q44 0 66 -28l428 -521l428 521q22 28 63 28q36 0 59 -25t23 -59q0 -29 -18 -51l-453 -537l483 -575q21 -29 21 -51q0 -34 -24 -59t-60 -25q-43 0 -64 26l-458 557l-459 -557q-21 -26 -64 -26 q-36 0 -60 25t-24 59z" />
<glyph unicode="Y" horiz-adv-x="1282" d="M84 1292q0 34 24 58t58 24q49 0 70 -37l405 -608l403 608q26 37 70 37q34 0 59 -24t25 -58q0 -24 -14 -45l-457 -669v-502q0 -34 -25.5 -59t-60.5 -25t-59.5 25t-24.5 59v502l-459 667q-14 17 -14 47z" />
<glyph unicode="Z" horiz-adv-x="1198" d="M88 98q0 30 21 58l757 1058h-702q-31 0 -53.5 22.5t-22.5 53.5t22.5 53.5t53.5 22.5h831q40 0 69.5 -28.5t29.5 -69.5q0 -30 -21 -58l-758 -1058h717q31 0 53.5 -22.5t22.5 -53.5t-22.5 -53.5t-53.5 -22.5h-846q-40 0 -69 28.5t-29 69.5z" />
<glyph unicode="[" horiz-adv-x="497" d="M82 -322v1641q0 30 20 50t50 20h266q24 0 40.5 -16.5t16.5 -41.5q0 -23 -17 -39t-40 -16h-217v-1552h217q23 0 40 -16.5t17 -39.5q0 -24 -16.5 -40.5t-38.5 -16.5h-268q-30 0 -50 19t-20 48z" />
<glyph unicode="\" horiz-adv-x="606" d="M18 1358q0 23 17.5 40t40.5 17q41 0 55 -39l453 -1347q4 -12 4 -21q0 -23 -17.5 -40t-40.5 -17q-41 0 -55 39l-452 1347q-5 15 -5 21z" />
<glyph unicode="]" horiz-adv-x="497" d="M23 -332q0 23 17 39.5t40 16.5h217v1552h-217q-23 0 -40 16t-17 39q0 25 16.5 41.5t40.5 16.5h268q28 0 48 -20t20 -50v-1641q0 -29 -20 -48t-48 -19h-270q-22 0 -38.5 16.5t-16.5 40.5z" />
<glyph unicode="^" horiz-adv-x="884" d="M68 729q0 11 8 27l289 569q19 49 77 49t80 -49l287 -569q6 -12 6 -27q0 -23 -16 -39t-39 -16q-37 0 -51 31l-267 548l-266 -548q-14 -31 -51 -31q-23 0 -40 16t-17 39z" />
<glyph unicode="_" horiz-adv-x="1155" d="M-14 -139q0 24 16.5 40.5t38.5 16.5h1073q22 0 38.5 -16.5t16.5 -40.5q0 -23 -16.5 -39.5t-38.5 -16.5h-1073q-22 0 -38.5 16.5t-16.5 39.5z" />
<glyph unicode="`" horiz-adv-x="462" d="M78 1391q0 22 14.5 36.5t36.5 14.5t37 -15l233 -227q15 -11 15 -29q0 -17 -12 -29t-29 -12q-18 0 -29 11l-248 211q-18 14 -18 39z" />
<glyph unicode="a" horiz-adv-x="1079" d="M98 303q0 80 30 144t80 102.5t110.5 59t125.5 20.5q211 0 328 -135v178q0 97 -70 153t-180 56q-148 0 -258 -99q-20 -12 -41 -12q-26 0 -44.5 19t-18.5 45q0 32 26 51q147 129 357 129q81 0 148.5 -19t121 -57.5t83.5 -104.5t30 -153v-612q0 -31 -23 -53.5t-55 -22.5 q-31 0 -53.5 22.5t-22.5 53.5v45q-120 -138 -328 -138q-87 0 -164 36t-129.5 112.5t-52.5 179.5zM256 301q0 -94 68.5 -154.5t175.5 -60.5q84 0 156.5 31.5t115.5 91.5v186q-43 60 -115.5 91.5t-156.5 31.5q-107 0 -175.5 -61t-68.5 -156z" />
<glyph unicode="b" horiz-adv-x="1177" d="M154 68v1230q0 31 22.5 53.5t54.5 22.5q31 0 53.5 -22.5t22.5 -53.5v-460q59 83 146.5 129.5t187.5 46.5q195 0 317.5 -143t122.5 -377q0 -238 -122 -378.5t-318 -140.5q-101 0 -187.5 47t-146.5 125v-79q0 -31 -22.5 -53.5t-53.5 -22.5q-32 0 -54.5 22.5t-22.5 53.5z M307 268q41 -66 123.5 -110.5t171.5 -44.5q148 0 234 106.5t86 274.5t-86 275.5t-234 107.5q-88 0 -171 -46.5t-124 -113.5v-449z" />
<glyph unicode="c" horiz-adv-x="1013" d="M96 496q0 146 61.5 263.5t174.5 186t258 68.5q191 0 317 -123q23 -23 23 -51q0 -29 -20.5 -49.5t-49.5 -20.5q-27 0 -45 18q-89 89 -217 89q-156 0 -249 -107t-93 -274t93 -275t249 -108q130 0 215 88q18 18 47 18t49.5 -20t20.5 -49q0 -33 -23 -52q-126 -123 -317 -123 q-145 0 -258 68.5t-174.5 187t-61.5 265.5z" />
<glyph unicode="d" horiz-adv-x="1177" d="M96 494q0 235 122.5 377.5t318.5 142.5q99 0 185 -46t148 -130v460q0 31 22.5 53.5t53.5 22.5q32 0 55 -22.5t23 -53.5v-1230q0 -31 -23 -53.5t-55 -22.5q-31 0 -53.5 22.5t-22.5 53.5v79q-58 -78 -145 -125t-188 -47q-196 0 -318.5 140.5t-122.5 378.5zM256 494 q0 -168 85.5 -274.5t231.5 -106.5q90 0 172.5 44.5t124.5 110.5v449q-43 67 -125.5 113.5t-171.5 46.5q-146 0 -231.5 -107.5t-85.5 -275.5z" />
<glyph unicode="e" horiz-adv-x="1153" d="M96 496q0 142 62.5 260.5t174.5 188t251 69.5q109 0 200 -40.5t150.5 -109t92 -157t32.5 -185.5q0 -37 -23.5 -57.5t-66.5 -20.5h-711q9 -145 105.5 -243.5t250.5 -98.5q146 0 267 95q13 8 34 8q26 0 45 -18t19 -44q0 -31 -27 -51q-151 -117 -352 -117q-221 0 -362.5 145 t-141.5 376zM258 557h649q-1 58 -20.5 114t-57.5 105.5t-102 80t-145 30.5q-76 0 -138 -30t-100.5 -78.5t-60.5 -105.5t-25 -116z" />
<glyph unicode="f" horiz-adv-x="579" d="M23 922q0 28 20.5 47.5t48.5 19.5h105v76q0 152 77.5 236.5t208.5 84.5q51 0 97 -12q47 -14 47 -61q0 -27 -16 -44.5t-46 -17.5q-6 0 -25.5 4.5t-33.5 4.5q-75 0 -115.5 -50.5t-40.5 -144.5v-76h142q28 0 47.5 -19.5t19.5 -47.5t-19.5 -48t-47.5 -20h-142v-786 q0 -31 -22.5 -53.5t-53.5 -22.5q-32 0 -54.5 22.5t-22.5 53.5v786h-105q-28 0 -48.5 20t-20.5 48z" />
<glyph unicode="g" horiz-adv-x="1175" d="M96 500q0 235 122 374.5t319 139.5q99 0 185 -46t146 -130v84q0 31 23 53t55 22q31 0 53.5 -22t22.5 -53v-893q0 -95 -26 -170t-69.5 -123t-105 -79.5t-128 -44.5t-142.5 -13q-114 0 -196.5 24.5t-161.5 87.5q-27 23 -27 53q0 28 19.5 48t47.5 20q22 0 39 -14 q58 -49 124 -70.5t155 -21.5q64 0 119 16.5t100.5 50.5t71.5 93t26 137v139q-58 -78 -145 -126t-186 -48q-197 0 -319 138t-122 374zM256 500q0 -166 85.5 -271.5t231.5 -105.5q89 0 171 47.5t124 114.5v432q-41 67 -123.5 113.5t-171.5 46.5q-147 0 -232 -105t-85 -272z " />
<glyph unicode="h" horiz-adv-x="1130" d="M154 68v1230q0 31 22.5 53.5t54.5 22.5q31 0 53.5 -22.5t22.5 -53.5v-452q59 69 154.5 118.5t200.5 49.5q315 0 315 -316v-630q0 -31 -23 -53.5t-55 -22.5q-31 0 -53.5 22.5t-22.5 53.5v583q0 124 -57.5 175t-165.5 51q-85 0 -165.5 -45t-127.5 -109v-655 q0 -31 -22.5 -53.5t-53.5 -22.5q-32 0 -54.5 22.5t-22.5 53.5z" />
<glyph unicode="i" horiz-adv-x="460" d="M127 1292q0 43 30.5 74t71.5 31q43 0 74 -31t31 -74q0 -42 -31 -72t-74 -30q-42 0 -72 30t-30 72zM154 68v854q0 31 22.5 53t54.5 22q31 0 53.5 -22t22.5 -53v-854q0 -31 -23 -53.5t-55 -22.5q-31 0 -53 22.5t-22 53.5z" />
<glyph unicode="j" horiz-adv-x="460" d="M-94 -332q0 27 17.5 47.5t41.5 20.5q3 0 13.5 -2t21.5 -2q154 0 154 172v1018q0 31 22.5 53t54.5 22q31 0 53.5 -22t22.5 -53v-1018q0 -146 -75.5 -225.5t-215.5 -79.5q-17 0 -49 4q-25 2 -43 20.5t-18 44.5zM127 1292q0 43 30.5 74t71.5 31q43 0 74 -31t31 -74 q0 -42 -31 -72t-74 -30q-42 0 -72 30t-30 72z" />
<glyph unicode="k" horiz-adv-x="1052" d="M154 68v1230q0 31 22.5 53.5t54.5 22.5q31 0 53.5 -22.5t22.5 -53.5v-837l535 518q18 18 49 18q29 0 49.5 -21t20.5 -50q0 -28 -21 -49l-354 -340l368 -416q19 -22 19 -51q0 -32 -22 -55t-54 -23q-38 0 -59 24l-363 426l-168 -155v-219q0 -31 -23 -53.5t-55 -22.5 q-31 0 -53 22.5t-22 53.5z" />
<glyph unicode="l" horiz-adv-x="460" d="M154 68v1230q0 31 22.5 53.5t54.5 22.5q31 0 53.5 -22.5t22.5 -53.5v-1230q0 -31 -22.5 -53.5t-53.5 -22.5q-32 0 -54.5 22.5t-22.5 53.5z" />
<glyph unicode="m" horiz-adv-x="1654" d="M154 68v854q0 31 22 53t53 22q32 0 55 -22t23 -53v-76q36 56 128 112t192 56q108 0 175.5 -51.5t90.5 -133.5q45 73 138 129t194 56q136 0 206 -75t70 -224v-647q0 -31 -23.5 -53.5t-54.5 -22.5t-53 22.5t-22 53.5v604q0 97 -45.5 151t-137.5 54q-73 0 -147.5 -45 t-114.5 -107v-657q0 -31 -22.5 -53.5t-53.5 -22.5t-54 22.5t-23 53.5v604q0 205 -183 205q-72 0 -145 -45.5t-115 -108.5v-655q0 -31 -22.5 -53.5t-53.5 -22.5q-32 0 -54.5 22.5t-22.5 53.5z" />
<glyph unicode="n" horiz-adv-x="1128" d="M154 68v854q0 31 22 53t53 22q32 0 55 -22t23 -53v-78q58 69 152 119.5t200 50.5q316 0 316 -320v-626q0 -31 -23 -53.5t-55 -22.5q-31 0 -53.5 22.5t-22.5 53.5v579q0 124 -57 177t-164 53q-86 0 -166.5 -45t-126.5 -109v-655q0 -31 -22.5 -53.5t-53.5 -22.5 q-32 0 -54.5 22.5t-22.5 53.5z" />
<glyph unicode="o" horiz-adv-x="1171" d="M96 496q0 144 59 261t171.5 187t259.5 70t259.5 -70t171 -187t58.5 -261t-58.5 -262t-171 -188.5t-259.5 -70.5t-259.5 70.5t-171.5 188.5t-59 262zM256 496q0 -160 89 -271.5t241 -111.5q102 0 177.5 54t112.5 139.5t37 189.5q0 103 -37 188t-112.5 139t-177.5 54 t-178.5 -54t-114 -139.5t-37.5 -187.5z" />
<glyph unicode="p" horiz-adv-x="1175" d="M154 -309v1231q0 31 22.5 53t54.5 22q31 0 53.5 -22t22.5 -53v-80q56 78 144.5 125t189.5 47q197 0 318.5 -139.5t121.5 -378.5q0 -237 -121.5 -379t-318.5 -142q-99 0 -185.5 46t-148.5 131v-461q0 -31 -22.5 -53.5t-53.5 -22.5q-32 0 -54.5 22.5t-22.5 53.5zM307 272 q41 -67 124 -113t171 -46q146 0 232 107.5t86 275.5t-86 274.5t-232 106.5q-88 0 -171 -46t-124 -112v-447z" />
<glyph unicode="q" horiz-adv-x="1175" d="M96 496q0 239 121.5 378.5t319.5 139.5q100 0 187 -46t144 -124v78q0 31 22.5 53t53.5 22q32 0 55 -22t23 -53v-1231q0 -31 -23 -53.5t-55 -22.5q-31 0 -53.5 22.5t-22.5 53.5v461q-60 -85 -146 -131t-185 -46q-197 0 -319 142t-122 379zM256 496q0 -168 85.5 -275.5 t231.5 -107.5q89 0 171.5 46t123.5 113v447q-41 67 -123 112.5t-172 45.5q-146 0 -231.5 -106.5t-85.5 -274.5z" />
<glyph unicode="r" horiz-adv-x="675" d="M154 68v854q0 31 22 53t53 22q32 0 55 -22t23 -53v-93q46 62 104.5 106.5t116.5 59.5q37 11 50 11q32 0 50.5 -21.5t18.5 -52.5q0 -29 -22.5 -50.5t-61.5 -25.5q-69 -5 -146 -51t-110 -105v-632q0 -31 -22.5 -53.5t-53.5 -22.5q-32 0 -54.5 22.5t-22.5 53.5z" />
<glyph unicode="s" horiz-adv-x="952" d="M84 147q0 28 20 48t48 20q23 0 41 -12q126 -103 280 -103q111 0 172.5 45t61.5 119q0 32 -15 57.5t-35 42t-58 32t-67.5 24t-78.5 20.5q-48 11 -74 17.5t-70 20.5t-69 27.5t-56.5 36t-48.5 47.5t-29 61t-12 79q0 121 99 203t270 82q190 0 328 -109q26 -22 26 -51 q0 -26 -19.5 -46t-45.5 -20q-18 0 -37 15q-99 86 -252 86q-100 0 -159.5 -41.5t-59.5 -108.5q0 -28 14 -50.5t33 -37t54.5 -28.5t63.5 -21.5t76 -19.5q47 -11 75.5 -18t72.5 -21.5t71 -29t59 -38.5t50 -51t30.5 -65.5t12.5 -84.5q0 -130 -102 -214.5t-287 -84.5 q-211 0 -354 117q-29 19 -29 55z" />
<glyph unicode="t" horiz-adv-x="602" d="M12 922q0 28 20 47.5t48 19.5h104v203q0 31 23 53.5t55 22.5q31 0 53.5 -22.5t22.5 -53.5v-203h141q28 0 49 -20t21 -47q0 -28 -21 -48t-49 -20h-141v-614q0 -58 25.5 -92.5t74.5 -34.5q24 0 47.5 9t30.5 9q29 0 47.5 -18t18.5 -47q0 -42 -39 -58q-58 -33 -140 -33 q-108 0 -163.5 60.5t-55.5 171.5v647h-104q-28 0 -48 20t-20 48z" />
<glyph unicode="u" horiz-adv-x="1128" d="M154 291v631q0 31 22.5 53t54.5 22q31 0 53.5 -22t22.5 -53v-584q0 -124 57 -174.5t164 -50.5q87 0 167.5 43t125.5 106v660q0 31 22.5 53t53.5 22q32 0 55 -22t23 -53v-854q0 -31 -22.5 -53.5t-53.5 -22.5q-32 0 -55 22.5t-23 53.5v69q-63 -70 -155 -116t-197 -46 q-315 0 -315 316z" />
<glyph unicode="v" horiz-adv-x="1003" d="M41 920q0 32 22 54.5t54 22.5q24 0 43.5 -13t27.5 -34l314 -774l311 774q7 20 28 33.5t44 13.5q33 0 55.5 -22.5t22.5 -54.5q0 -3 -7 -31l-344 -823q-13 -34 -43 -54t-65 -20q-38 0 -68.5 20t-44.5 54l-344 823q-6 30 -6 31z" />
<glyph unicode="w" horiz-adv-x="1503" d="M49 922q0 32 22.5 53.5t53.5 21.5q26 0 47 -15t27 -38l227 -743l242 737q9 27 31.5 43t52.5 16t52.5 -16t31.5 -43l241 -737l228 743q6 23 26.5 38t46.5 15q31 0 53.5 -22t22.5 -53q0 -15 -4 -27l-266 -832q-9 -32 -37 -51.5t-62 -19.5t-60.5 19.5t-35.5 51.5l-237 732 l-238 -732q-9 -32 -35.5 -51.5t-60.5 -19.5t-62 19.5t-37 51.5l-266 834q-4 16 -4 25z" />
<glyph unicode="x" horiz-adv-x="995" d="M61 63q0 26 17 43l332 406l-310 367q-18 22 -18 45q0 30 22 51.5t52 21.5q32 0 51 -24l291 -357l290 357q19 24 54 24q30 0 50.5 -21.5t20.5 -51.5q0 -26 -16 -45l-309 -367l330 -406q16 -16 16 -43t-19.5 -49t-52.5 -22q-34 0 -55 24l-309 392l-308 -388 q-22 -28 -57 -28q-33 0 -52.5 22t-19.5 49z" />
<glyph unicode="y" horiz-adv-x="1003" d="M41 920q0 32 22 54.5t54 22.5q24 0 43.5 -13t27.5 -34l314 -772l311 772q7 20 28 33.5t44 13.5q33 0 55.5 -22.5t22.5 -54.5q0 -14 -7 -31l-454 -1090q-81 -197 -291 -200q-29 0 -45 4q-29 3 -47.5 22t-18.5 45q0 29 22 48.5t52 19.5q2 0 13 -1t20 -1q54 0 88 22.5 t59 81.5l66 150l-373 901q-6 15 -6 29z" />
<glyph unicode="z" horiz-adv-x="966" d="M96 80q0 29 17 49l538 725h-487q-27 0 -47.5 20.5t-20.5 47.5t20.5 47t47.5 20h616q33 0 56.5 -23.5t23.5 -56.5q0 -23 -16 -47l-541 -729h498q28 0 47.5 -18.5t19.5 -46.5q0 -29 -19.5 -48.5t-47.5 -19.5h-623q-34 0 -58 24t-24 56z" />
<glyph unicode="{" horiz-adv-x="532" d="M0 500q0 39 41 57q37 13 56.5 50t19.5 85v420q0 121 77.5 199t178.5 78h84q22 0 38.5 -17t16.5 -41q0 -23 -16.5 -39t-38.5 -16h-84q-56 0 -95.5 -46.5t-39.5 -117.5v-432q0 -139 -95 -180q95 -41 95 -181v-432q0 -70 39.5 -116.5t95.5 -46.5h84q22 0 38.5 -16.5 t16.5 -39.5q0 -24 -16.5 -40.5t-38.5 -16.5h-84q-102 0 -179 76.5t-77 197.5v422q0 48 -19.5 85t-56.5 50q-41 18 -41 58z" />
<glyph unicode="|" horiz-adv-x="432" d="M160 6v1354q0 22 16 38.5t39 16.5q24 0 40.5 -16.5t16.5 -38.5v-1354q0 -22 -16.5 -38.5t-40.5 -16.5q-23 0 -39 16.5t-16 38.5z" />
<glyph unicode="}" horiz-adv-x="532" d="M23 -332q0 23 16 39.5t39 16.5h82q56 0 95.5 46.5t39.5 116.5v432q0 141 94 181q-94 40 -94 180v432q0 71 -39.5 117.5t-95.5 46.5h-82q-23 0 -39 16t-16 39q0 25 16 41.5t39 16.5h82q103 0 179.5 -77.5t76.5 -199.5v-420q0 -48 20 -85t58 -50q38 -17 38 -57 q0 -41 -38 -58q-38 -13 -58 -50t-20 -85v-422q0 -121 -76.5 -197.5t-179.5 -76.5h-82q-23 0 -39 16t-16 41z" />
<glyph unicode="~" horiz-adv-x="1030" d="M59 928q9 75 22 135.5t35.5 118t52 96.5t72.5 62.5t97 23.5q42 0 76 -15t55 -33.5t41.5 -55.5t29.5 -59.5t25 -67.5q14 -41 22.5 -62.5t24 -48t34.5 -38t44 -11.5q127 0 164 344q3 22 19 36.5t38 14.5q26 0 43.5 -19.5t14.5 -43.5q-11 -95 -29 -168t-49.5 -137.5t-82 -99 t-118.5 -34.5q-30 0 -56 8t-44 18.5t-36.5 32.5t-28.5 36t-24 45.5t-18.5 44.5t-17.5 47t-19 49.5t-18.5 41t-23.5 36.5t-28.5 20.5t-37.5 9.5q-66 0 -104 -87t-60 -255q-2 -22 -18 -36.5t-39 -14.5q-25 0 -43 20t-15 46z" />
<glyph unicode="&#xa1;" horiz-adv-x="471" d="M123 897q0 45 34 79t79 34t78.5 -34t33.5 -79q0 -46 -33 -79.5t-79 -33.5t-79.5 33.5t-33.5 79.5zM143 -291l27 842q0 27 19 45t47 18t47 -17.5t20 -45.5l27 -842q2 -37 -26.5 -65.5t-67.5 -28.5t-66.5 27.5t-26.5 66.5z" />
<glyph unicode="&#xa2;" horiz-adv-x="1013" d="M96 496q0 202 115.5 345t304.5 169v96q0 25 18 42t44 17q25 0 42 -17t17 -42v-94q156 -11 270 -121q23 -23 23 -51q0 -29 -20.5 -49.5t-49.5 -20.5q-27 0 -45 18q-77 77 -178 86v-759q102 9 176 86q18 18 47 18t49.5 -20t20.5 -49q0 -33 -23 -52q-114 -110 -270 -121 v-131q0 -25 -17 -42t-42 -17q-26 0 -44 17t-18 42v134q-189 26 -304.5 169t-115.5 347zM256 496q0 -143 70 -245.5t190 -129.5v747q-120 -28 -190 -129t-70 -243z" />
<glyph unicode="&#xa3;" horiz-adv-x="1060" d="M31 604q0 22 16 38.5t39 16.5h170q-2 3 -7 8.5t-7 8.5q-36 42 -54 65.5t-43 64.5t-36 84t-11 93q0 110 62.5 203t168 146.5t228.5 53.5q114 0 209 -41.5t158 -119.5q18 -21 18 -51q0 -32 -22.5 -55t-53.5 -23q-40 0 -61 28q-39 54 -99.5 86.5t-132.5 32.5 q-122 0 -207 -71.5t-85 -190.5q0 -42 9 -79t30 -72.5t36 -55.5t45 -57q44 -57 45 -58h261q23 0 39 -16.5t16 -38.5q0 -23 -16 -39t-39 -16h-201q12 -41 12 -88q0 -161 -156 -271q55 19 107 19q70 0 162 -45q84 -39 141 -39q77 0 143 41q11 8 35 8q31 0 53.5 -23t22.5 -55 q0 -44 -41 -65q-86 -58 -221 -58q-45 0 -84.5 8t-61.5 17t-55 25q-31 15 -49 22.5t-50 15t-67 7.5q-80 0 -200 -72q-12 -8 -29 -8q-29 0 -50.5 21t-21.5 50q0 41 37 64q234 139 234 303q0 59 -31 123h-250q-23 0 -39 16t-16 39z" />
<glyph unicode="&#xa4;" horiz-adv-x="1224" d="M76 213q0 26 18 47l123 121q-94 129 -94 301q0 174 94 303l-123 123q-18 18 -18 45q0 28 19 48t48 20q27 0 45 -21l123 -123q127 94 301 94q172 0 301 -92l121 121q23 19 47 19q28 0 48 -20t20 -46t-21 -47l-120 -121q94 -129 94 -303t-94 -303l120 -119q21 -24 21 -47 q0 -28 -20 -47t-48 -19t-47 19l-119 119q-129 -95 -303 -95t-303 95l-119 -119q-19 -19 -47 -19t-47.5 19t-19.5 47zM281 682q0 -146 89 -249t242 -103q154 0 243 103t89 249q0 145 -89 246.5t-243 101.5q-153 0 -242 -102t-89 -246z" />
<glyph unicode="&#xa5;" horiz-adv-x="1282" d="M37 305q0 22 15.5 37.5t37.5 15.5h467v220h-467q-22 0 -37.5 15.5t-15.5 37.5t15.5 37.5t37.5 15.5h395l-385 561q-16 19 -16 47q0 34 24 58t58 24q49 0 70 -37l405 -606l403 606q24 37 70 37q34 0 59 -24t25 -58q0 -24 -14 -45l-387 -563h397q22 0 37.5 -15.5 t15.5 -37.5t-15.5 -37.5t-37.5 -15.5h-467v-220h467q22 0 37.5 -16t15.5 -39q0 -22 -15.5 -37.5t-37.5 -15.5h-467v-174q0 -34 -25.5 -59t-60.5 -25t-59.5 25t-24.5 59v174h-467q-22 0 -37.5 16t-15.5 39z" />
<glyph unicode="&#xa6;" horiz-adv-x="432" d="M160 6v553q0 22 16 38.5t39 16.5q24 0 40.5 -16.5t16.5 -38.5v-553q0 -22 -16.5 -38.5t-40.5 -16.5q-23 0 -39 16.5t-16 38.5zM160 807v553q0 22 16 38.5t39 16.5q24 0 40.5 -16.5t16.5 -38.5v-553q0 -22 -16.5 -38.5t-40.5 -16.5q-23 0 -39 16.5t-16 38.5z" />
<glyph unicode="&#xa7;" horiz-adv-x="958" d="M86 6q0 26 18 45t43 19q24 0 39 -15q124 -108 281 -108q108 0 174 47.5t66 130.5q0 24 -8 44.5t-19 35.5t-34 29t-40 22.5t-50.5 19.5t-53 16l-58.5 15q-40 10 -56.5 14.5t-54 16t-55 19t-48 22t-46 28t-36 34t-30 42t-17 50.5t-7.5 61q0 102 67 168.5t169 93.5 q-115 36 -175.5 96t-60.5 156q0 118 100 198t269 80q197 0 330 -110q22 -18 22 -47q0 -23 -17.5 -40.5t-41.5 -17.5q-17 0 -35 11q-103 90 -254 90q-99 0 -161 -45t-62 -119q0 -19 4.5 -35t16.5 -29t22.5 -23t32 -19.5t36 -16t43.5 -14t44.5 -11.5t48.5 -12q47 -11 74.5 -18 t71 -21t70 -28t58 -37.5t49 -50.5t29.5 -65t12 -83q0 -179 -188 -262q91 -34 139.5 -93.5t48.5 -154.5q0 -140 -107 -220.5t-282 -80.5q-119 0 -203.5 32.5t-154.5 92.5q-23 23 -23 47zM244 610q0 -53 43.5 -90.5t86 -51.5t134.5 -37q18 -5 27 -7q86 37 128 84.5t42 116.5 q0 34 -14 62.5t-34.5 47t-54 34.5t-61.5 25t-68 19q-126 -32 -177.5 -82t-51.5 -121z" />
<glyph unicode="&#xa8;" horiz-adv-x="845" d="M117 1255q0 38 28 66.5t66 28.5q39 0 66.5 -28t27.5 -67q0 -40 -27 -68t-67 -28q-38 0 -66 28t-28 68zM539 1255q0 39 28.5 67t67.5 28q38 0 66 -28.5t28 -66.5q0 -40 -28 -68t-66 -28q-40 0 -68 28t-28 68z" />
<glyph unicode="&#xa9;" horiz-adv-x="1593" d="M90 684q0 192 95 355t258 257.5t354 94.5q144 0 275 -56t225 -150.5t150 -225.5t56 -275q0 -143 -56 -274t-150 -226t-225 -151t-275 -56q-191 0 -354 95t-258 258t-95 354zM154 684q0 -130 51 -249.5t137.5 -206t205.5 -138t249 -51.5t249 51.5t205.5 138t137.5 206 t51 249.5q0 174 -86.5 322t-234.5 234.5t-322 86.5t-322 -86.5t-234.5 -234.5t-86.5 -322zM375 686q0 186 123.5 310t302.5 124q174 0 284 -116q9 -9 9 -23q0 -17 -10.5 -28t-24.5 -11q-17 0 -27 14q-43 45 -105 71t-126 26q-143 0 -246.5 -103t-103.5 -264 q0 -159 104.5 -266t245.5 -107q64 0 126 26.5t105 72.5q10 14 27 14q15 0 25 -12t10 -27q0 -13 -9 -22q-113 -119 -284 -119q-178 0 -302 127t-124 313z" />
<glyph unicode="&#xaa;" horiz-adv-x="774" d="M84 864q0 100 68.5 155.5t160.5 55.5q136 0 219 -86v113q0 61 -46.5 97t-114.5 36q-93 0 -174 -66q-8 -10 -27 -10q-20 0 -33.5 13t-13.5 32q0 23 18 37q109 86 244 86q116 0 190 -55t74 -172v-381q0 -25 -16.5 -42.5t-40.5 -17.5q-26 0 -43 18.5t-17 43.5v20 q-80 -90 -219 -90q-91 0 -160 58t-69 155zM203 864q0 -61 43.5 -98t111.5 -37q53 0 99.5 21t74.5 57v115q-27 36 -74 56.5t-100 20.5q-68 0 -111.5 -37.5t-43.5 -97.5z" />
<glyph unicode="&#xab;" horiz-adv-x="899" d="M90 498q0 33 29 65l260 287q15 18 43 18q24 0 40.5 -16.5t16.5 -40.5q0 -19 -14 -37l-250 -276l252 -281q14 -17 14 -39q0 -23 -17 -40t-42 -17t-43 18l-260 293q-29 37 -29 66zM385 498q0 33 29 65l260 287q15 18 43 18q24 0 40.5 -16.5t16.5 -40.5q0 -19 -14 -37 l-250 -276l252 -281q14 -17 14 -39q0 -23 -17 -40t-42 -17t-43 18l-260 293q-29 37 -29 66z" />
<glyph unicode="&#xac;" horiz-adv-x="1032" d="M51 883q0 22 15.5 37.5t37.5 15.5h766q44 0 68.5 -23.5t24.5 -66.5v-367q0 -23 -17 -39t-41 -16q-23 0 -39 16t-16 39v348h-746q-22 0 -37.5 16.5t-15.5 39.5z" />
<glyph unicode="&#xad;" horiz-adv-x="614" d="M53 496q0 28 20 47.5t48 19.5h373q28 0 47.5 -19.5t19.5 -47.5t-19.5 -48t-47.5 -20h-373q-28 0 -48 20t-20 48z" />
<glyph unicode="&#xae;" horiz-adv-x="1011" d="M72 952q0 181 127 307.5t307 126.5q119 0 219 -57.5t157.5 -157.5t57.5 -219q0 -180 -126.5 -307t-307.5 -127q-180 0 -307 127t-127 307zM129 952q0 -156 110.5 -266.5t266.5 -110.5q155 0 265 111t110 266q0 156 -109.5 265.5t-265.5 109.5q-157 0 -267 -109t-110 -266 zM340 725v434q0 17 12 29t29 12h162q65 0 111 -42t46 -109q0 -35 -13 -63.5t-32 -45t-36.5 -25.5t-32.5 -12l106 -158q4 -6 4 -16q0 -15 -10 -26t-24 -11q-17 0 -27 17l-125 190h-104v-174q0 -12 -9.5 -21.5t-21.5 -9.5q-15 0 -25 9.5t-10 21.5zM406 958h137q34 0 62 27 t28 64q0 40 -28 67t-62 27h-137v-185z" />
<glyph unicode="&#xaf;" horiz-adv-x="743" d="M49 1221q0 20 14.5 34.5t34.5 14.5h547q20 0 34.5 -14.5t14.5 -34.5t-14.5 -35t-34.5 -15h-547q-20 0 -34.5 15t-14.5 35z" />
<glyph unicode="&#xb0;" horiz-adv-x="593" d="M47 1137q0 103 72.5 176t175.5 73q104 0 178 -73t74 -176q0 -104 -74 -177t-178 -73q-103 0 -175.5 73t-72.5 177zM147 1137q0 -63 43.5 -107.5t104.5 -44.5q63 0 108.5 44.5t45.5 107.5q0 62 -45.5 106.5t-108.5 44.5q-61 0 -104.5 -44.5t-43.5 -106.5z" />
<glyph unicode="&#xb1;" horiz-adv-x="1021" d="M51 53q0 22 15.5 37.5t37.5 15.5h814q22 0 37.5 -15.5t15.5 -37.5t-15.5 -37.5t-37.5 -15.5h-814q-22 0 -37.5 15.5t-15.5 37.5zM51 717q0 22 15.5 37.5t37.5 15.5h349v375q0 23 17 40t40 17q25 0 42 -17t17 -40v-375h349q22 0 37.5 -15.5t15.5 -37.5t-15.5 -37.5 t-37.5 -15.5h-349v-390q0 -23 -17 -40t-42 -17q-23 0 -40 17t-17 40v390h-349q-22 0 -37.5 15.5t-15.5 37.5z" />
<glyph unicode="&#xb2;" horiz-adv-x="704" d="M33 924q0 30 26 49q242 168 346.5 273.5t104.5 197.5q0 73 -51 111t-123 38q-116 0 -201 -75q-15 -15 -33 -15q-22 0 -36.5 15.5t-14.5 37.5t17 39q108 99 272 99q122 0 207.5 -62.5t85.5 -179.5q0 -60 -29 -120.5t-88 -122.5t-127 -118t-168 -128h375q20 0 35.5 -15 t15.5 -35q0 -21 -15 -36t-36 -15h-502q-25 0 -43 18t-18 44z" />
<glyph unicode="&#xb3;" horiz-adv-x="753" d="M55 989q0 21 15.5 36t38.5 15q20 0 32 -12q90 -80 207 -80q89 0 140 39t51 105q0 74 -58 107.5t-155 33.5h-41q-21 0 -36.5 14t-15.5 35q0 20 15.5 34.5t36.5 14.5h39q200 0 200 131q0 61 -52 96t-130 35q-113 0 -195 -73q-15 -11 -32 -11q-20 0 -34.5 15t-14.5 35t18 38 q116 97 268 97q132 0 213.5 -59.5t81.5 -159.5q0 -81 -55.5 -130t-126.5 -61q43 -3 86 -24t77 -67.5t34 -107.5q0 -105 -84.5 -171t-225.5 -66q-173 0 -280 100q-17 17 -17 41z" />
<glyph unicode="&#xb4;" horiz-adv-x="462" d="M49 1171q0 19 14 29l234 227q15 15 37 15t36.5 -14.5t14.5 -36.5q0 -25 -18 -39l-248 -211q-11 -11 -29 -11q-17 0 -29 12t-12 29z" />
<glyph unicode="&#xb5;" horiz-adv-x="1157" d="M154 -309v1231q0 31 22.5 53t54.5 22q31 0 53.5 -22t22.5 -53v-584q0 -229 225 -229q84 0 164 44.5t125 108.5v660q0 31 22.5 53t53.5 22q32 0 55 -22t23 -53v-691q0 -53 21 -85t59 -33l14 -2q27 -3 41 -23t14 -45q0 -28 -18.5 -47t-44.5 -21h-21q-183 0 -215 179 q-56 -78 -139 -128.5t-172 -50.5q-153 0 -207 99v-383q0 -31 -23 -53.5t-55 -22.5q-31 0 -53 22.5t-22 53.5z" />
<glyph unicode="&#xb6;" horiz-adv-x="919" d="M55 1014q0 146 103.5 249t249.5 103h276q43 0 66.5 -23.5t23.5 -66.5v-1444q0 -19 -13 -32t-32 -13q-20 0 -33.5 13t-13.5 32v1442h-182v-1442q0 -19 -13.5 -32t-33.5 -13q-19 0 -32 13t-13 32v830q-146 0 -249.5 103t-103.5 249z" />
<glyph unicode="&#xb7;" horiz-adv-x="471" d="M123 500q0 46 33.5 79t79.5 33t79 -33t33 -79q0 -44 -33 -77.5t-79 -33.5t-79.5 33.5t-33.5 77.5z" />
<glyph unicode="&#xb8;" horiz-adv-x="419" d="M0 -307q0 18 12.5 30.5t30.5 12.5q12 0 23 -8q62 -39 137 -39q52 0 88.5 23t36.5 63q0 33 -19.5 52t-56.5 19q-38 0 -66 -22q-10 -10 -26 -10q-21 0 -34 13t-13 34q0 6 4 18l53 144h92l-53 -136q33 23 76 23q59 0 97 -37.5t38 -99.5q0 -73 -61.5 -118.5t-151.5 -45.5 q-107 0 -184 45q-23 14 -23 39z" />
<glyph unicode="&#xb9;" horiz-adv-x="468" d="M31 1450q0 21 16 37l180 182q21 21 49 21q29 0 49.5 -20.5t20.5 -49.5v-705q0 -25 -17.5 -43t-43.5 -18t-44 18t-18 43v607l-102 -109q-16 -16 -39 -16q-22 0 -36.5 15.5t-14.5 37.5z" />
<glyph unicode="&#xba;" horiz-adv-x="829" d="M82 989q0 143 91.5 240.5t240.5 97.5q151 0 242.5 -97t91.5 -241t-91.5 -241t-242.5 -97q-149 0 -240.5 97.5t-91.5 240.5zM205 989q0 -104 56 -171.5t153 -67.5q99 0 156 67.5t57 171.5q0 103 -57 169.5t-156 66.5q-97 0 -153 -66.5t-56 -169.5z" />
<glyph unicode="&#xbb;" horiz-adv-x="899" d="M123 178q0 22 14 39l252 281l-250 276q-14 18 -14 37q0 24 16.5 40.5t40.5 16.5q28 0 43 -18l260 -287q29 -32 29 -65q0 -29 -29 -66l-260 -293q-18 -18 -43 -18t-42 17t-17 40zM418 178q0 22 14 39l252 281l-250 276q-14 18 -14 37q0 24 16.5 40.5t40.5 16.5 q28 0 43 -18l260 -287q29 -32 29 -65q0 -29 -29 -66l-260 -293q-18 -18 -43 -18t-42 17t-17 40z" />
<glyph unicode="&#xbc;" horiz-adv-x="1445" d="M31 1135q0 20 16 36l180 183q20 20 49 20t49.5 -20t20.5 -49v-705q0 -25 -17.5 -43t-43.5 -18t-44 18t-18 43v606l-102 -108q-17 -17 -39 -17q-21 0 -36 16t-15 38zM223 37q0 17 6 29l824 1288q11 20 41 20q20 0 33.5 -13.5t13.5 -33.5q0 -15 -6 -27l-826 -1288 q-13 -20 -39 -20q-20 0 -33.5 13t-13.5 32zM762 264q0 13 10 33l328 483q29 47 88 47q44 0 75 -31.5t31 -74.5v-416h78q20 0 34.5 -14.5t14.5 -34.5q0 -22 -14.5 -36.5t-34.5 -14.5h-78v-152q0 -26 -17 -43.5t-42 -17.5q-26 0 -43.5 17.5t-17.5 43.5v152h-353q-25 0 -42 17 t-17 42zM895 305h279v406z" />
<glyph unicode="&#xbd;" horiz-adv-x="1527" d="M31 1135q0 20 16 36l180 183q20 20 49 20t49.5 -20t20.5 -49v-705q0 -25 -17.5 -43t-43.5 -18t-44 18t-18 43v606l-102 -108q-17 -17 -39 -17q-21 0 -36 16t-15 38zM223 37q0 17 6 29l824 1288q11 20 41 20q20 0 33.5 -13.5t13.5 -33.5q0 -15 -6 -27l-826 -1288 q-13 -20 -39 -20q-20 0 -33.5 13t-13.5 32zM856 61q0 30 27 50q241 168 345.5 273.5t104.5 197.5q0 73 -51 111t-123 38q-115 0 -201 -76q-14 -14 -32 -14q-22 0 -37 15.5t-15 37.5t17 39q107 98 272 98q122 0 207.5 -62t85.5 -179q0 -115 -103 -228.5t-309 -261.5h375 q20 0 35.5 -14.5t15.5 -34.5q0 -21 -15 -36t-36 -15h-501q-25 0 -43.5 17.5t-18.5 43.5z" />
<glyph unicode="&#xbe;" horiz-adv-x="1658" d="M55 674q0 21 15.5 36t38.5 15q20 0 32 -12q90 -80 207 -80q89 0 140 38.5t51 104.5q0 74 -58 108t-155 34h-41q-21 0 -36.5 14t-15.5 35q0 20 15.5 34.5t36.5 14.5h39q200 0 200 131q0 61 -52 96t-130 35q-112 0 -195 -74q-13 -10 -32 -10q-20 0 -34.5 14.5t-14.5 34.5 q0 21 18 39q115 96 268 96q132 0 213.5 -59.5t81.5 -159.5q0 -81 -55.5 -129.5t-126.5 -60.5q43 -3 86 -24t77 -67.5t34 -107.5q0 -105 -84.5 -171.5t-225.5 -66.5q-172 0 -280 101q-17 17 -17 41zM436 37q0 17 6 29l824 1288q11 20 41 20q20 0 33.5 -13.5t13.5 -33.5 q0 -15 -6 -27l-826 -1288q-13 -20 -39 -20q-20 0 -33.5 13t-13.5 32zM975 264q0 13 10 33l328 483q29 47 88 47q44 0 75 -31.5t31 -74.5v-416h78q20 0 34.5 -14.5t14.5 -34.5q0 -22 -14.5 -36.5t-34.5 -14.5h-78v-152q0 -26 -17 -43.5t-42 -17.5q-26 0 -44 17.5t-18 43.5 v152h-352q-25 0 -42 17t-17 42zM1108 305h278v406z" />
<glyph unicode="&#xbf;" horiz-adv-x="806" d="M63 -80q0 35 7.5 68t18 58t31 51.5t36.5 43.5t44.5 40.5t44.5 35t48 33.5q37 27 51.5 37.5t42.5 34.5t39.5 40.5t22 41.5t10.5 51q0 21 -21 53q-6 12 -6 20q0 30 21 52t53 22q38 0 59 -35q43 -54 43 -125q0 -49 -15 -89t-49.5 -76t-58 -55t-73.5 -54q-35 -24 -52.5 -37 t-45 -37.5t-40.5 -44t-23.5 -47.5t-10.5 -59q0 -81 62 -135t177 -54q93 0 160.5 30t122.5 89q18 18 49 18q32 0 54 -21t22 -52q0 -37 -25 -56q-158 -161 -397 -161q-183 0 -292.5 91t-109.5 228zM375 895q0 46 33.5 80.5t78.5 34.5q46 0 79.5 -34.5t33.5 -80.5 q0 -44 -33.5 -77.5t-79.5 -33.5q-45 0 -78.5 33t-33.5 78z" />
<glyph unicode="&#xc0;" horiz-adv-x="1347" d="M55 78q0 11 8 35l472 1167q18 42 55.5 68t83.5 26q47 0 84.5 -26t52.5 -68l473 -1167q6 -30 6 -33q0 -37 -25.5 -62.5t-60.5 -25.5q-28 0 -50.5 15t-31.5 40l-98 256h-702l-99 -256q-7 -25 -29.5 -40t-50.5 -15q-37 0 -62.5 25.5t-25.5 60.5zM371 1733q0 22 14.5 36.5 t36.5 14.5t37 -15l233 -227q15 -11 15 -29q0 -17 -12 -28.5t-29 -11.5q-19 0 -29 10l-248 211q-18 14 -18 39zM381 455h586l-293 759z" />
<glyph unicode="&#xc1;" horiz-adv-x="1347" d="M55 78q0 11 8 35l472 1167q18 42 55.5 68t83.5 26q47 0 84.5 -26t52.5 -68l473 -1167q6 -30 6 -33q0 -37 -25.5 -62.5t-60.5 -25.5q-28 0 -50.5 15t-31.5 40l-98 256h-702l-99 -256q-7 -25 -29.5 -40t-50.5 -15q-37 0 -62.5 25.5t-25.5 60.5zM381 455h586l-293 759z M647 1513q0 18 15 29l233 227q15 15 37 15t36.5 -14.5t14.5 -36.5q0 -25 -18 -39l-248 -211q-10 -10 -29 -10q-17 0 -29 11.5t-12 28.5z" />
<glyph unicode="&#xc2;" horiz-adv-x="1347" d="M55 78q0 11 8 35l472 1167q18 42 55.5 68t83.5 26q47 0 84.5 -26t52.5 -68l473 -1167q6 -30 6 -33q0 -37 -25.5 -62.5t-60.5 -25.5q-28 0 -50.5 15t-31.5 40l-98 256h-702l-99 -256q-7 -25 -29.5 -40t-50.5 -15q-37 0 -62.5 25.5t-25.5 60.5zM381 455h586l-293 759z M434 1513q0 11 6 23l144 213q27 39 73 39h37q47 0 74 -39l143 -213q7 -14 7 -23q0 -20 -13.5 -32.5t-32.5 -12.5q-23 0 -32 15l-164 215l-164 -215q-9 -15 -33 -15q-19 0 -32 12.5t-13 32.5z" />
<glyph unicode="&#xc3;" horiz-adv-x="1347" d="M55 78q0 11 8 35l472 1167q18 42 55.5 68t83.5 26q47 0 84.5 -26t52.5 -68l473 -1167q6 -30 6 -33q0 -37 -25.5 -62.5t-60.5 -25.5q-28 0 -50.5 15t-31.5 40l-98 256h-702l-99 -256q-7 -25 -29.5 -40t-50.5 -15q-37 0 -62.5 25.5t-25.5 60.5zM356 1530q11 107 62 170 t135 63q29 0 52.5 -8.5t43.5 -28t29.5 -32t28.5 -39.5q37 -52 55 -65q20 -15 43 -15q38 0 64 36t32 107q1 18 14 29.5t31 11.5q20 0 34 -14.5t13 -34.5q-11 -108 -61.5 -170.5t-134.5 -62.5q-38 0 -70 18.5t-47 36.5t-39 53q-19 29 -28 41t-28 25.5t-40 13.5 q-38 0 -65.5 -36t-33.5 -107q-2 -18 -14.5 -29.5t-30.5 -11.5q-20 0 -33.5 15t-11.5 34zM381 455h586l-293 759z" />
<glyph unicode="&#xc4;" horiz-adv-x="1347" d="M55 78q0 11 8 35l472 1167q18 42 55.5 68t83.5 26q47 0 84.5 -26t52.5 -68l473 -1167q6 -30 6 -33q0 -37 -25.5 -62.5t-60.5 -25.5q-28 0 -50.5 15t-31.5 40l-98 256h-702l-99 -256q-7 -25 -29.5 -40t-50.5 -15q-37 0 -62.5 25.5t-25.5 60.5zM369 1597q0 38 28 66.5 t66 28.5q39 0 66.5 -28t27.5 -67q0 -40 -27 -68t-67 -28q-38 0 -66 28t-28 68zM381 455h586l-293 759zM791 1597q0 39 28.5 67t67.5 28q38 0 66 -28.5t28 -66.5q0 -40 -28 -68t-66 -28q-40 0 -68 28t-28 68z" />
<glyph unicode="&#xc5;" horiz-adv-x="1347" d="M55 78q0 11 8 35l472 1167q18 42 55.5 68t83.5 26q47 0 84.5 -26t52.5 -68l473 -1167q6 -30 6 -33q0 -37 -25.5 -62.5t-60.5 -25.5q-28 0 -50.5 15t-31.5 40l-98 256h-702l-99 -256q-7 -25 -29.5 -40t-50.5 -15q-37 0 -62.5 25.5t-25.5 60.5zM381 455h586l-293 759z M473 1655q0 83 59 143t142 60t141.5 -59.5t58.5 -143.5q0 -83 -58.5 -142t-141.5 -59t-142 59t-59 142zM555 1655q0 -50 35 -85.5t84 -35.5q50 0 84.5 35.5t34.5 85.5q0 51 -34 86t-85 35q-50 0 -84.5 -35t-34.5 -86z" />
<glyph unicode="&#xc6;" horiz-adv-x="1939" d="M72 72q0 17 12 41l743 1192q38 61 111 61h823q31 0 54.5 -22.5t23.5 -53.5t-23.5 -53.5t-54.5 -22.5h-657v-440h643q31 0 54.5 -22.5t23.5 -53.5q0 -30 -23.5 -52.5t-54.5 -22.5h-643v-471h657q31 0 54.5 -22.5t23.5 -53.5t-23.5 -53.5t-54.5 -22.5h-737 q-43 0 -66.5 23.5t-23.5 66.5v213h-547l-166 -274q-23 -37 -69 -37q-33 0 -56.5 23.5t-23.5 56.5zM477 455h457v759z" />
<glyph unicode="&#xc7;" horiz-adv-x="1372" d="M104 682q0 154 54.5 287t148.5 224.5t222 143.5t272 52q283 0 469 -199q20 -20 20 -55q0 -32 -24 -56t-56 -24q-38 0 -61 26q-67 73 -156.5 114.5t-191.5 41.5q-222 0 -371 -156.5t-149 -398.5q0 -159 68.5 -286.5t187.5 -198t264 -70.5q103 0 193.5 41.5t154.5 114.5 q23 26 61 26q33 0 56.5 -23.5t23.5 -56.5q0 -35 -20 -55q-178 -188 -439 -199l-34 -88q33 23 75 23q59 0 97.5 -37.5t38.5 -99.5q0 -73 -61.5 -118.5t-151.5 -45.5q-108 0 -185 45q-22 13 -22 39q0 18 12.5 30.5t30.5 12.5q11 0 22 -8q62 -39 138 -39q52 0 88 23t36 63 q0 33 -19 52t-56 19q-38 0 -66 -22q-10 -10 -26 -10q-22 0 -35 13t-13 34q0 3 5 18l36 98q-134 11 -250.5 67t-202 147t-135 218t-49.5 273z" />
<glyph unicode="&#xc8;" horiz-adv-x="1165" d="M160 90v1186q0 43 23.5 66.5t66.5 23.5h737q31 0 54.5 -22.5t23.5 -53.5t-23.5 -53.5t-54.5 -22.5h-657v-440h643q31 0 54.5 -22.5t23.5 -53.5q0 -30 -23.5 -52.5t-54.5 -22.5h-643v-471h657q31 0 54.5 -22.5t23.5 -53.5t-23.5 -53.5t-54.5 -22.5h-737q-43 0 -66.5 23.5 t-23.5 66.5zM315 1733q0 22 15 36.5t37 14.5q21 0 36 -15l234 -227q14 -10 14 -29q0 -17 -12 -28.5t-29 -11.5q-18 0 -28 10l-248 211q-19 15 -19 39z" />
<glyph unicode="&#xc9;" horiz-adv-x="1165" d="M160 90v1186q0 43 23.5 66.5t66.5 23.5h737q31 0 54.5 -22.5t23.5 -53.5t-23.5 -53.5t-54.5 -22.5h-657v-440h643q31 0 54.5 -22.5t23.5 -53.5q0 -30 -23.5 -52.5t-54.5 -22.5h-643v-471h657q31 0 54.5 -22.5t23.5 -53.5t-23.5 -53.5t-54.5 -22.5h-737q-43 0 -66.5 23.5 t-23.5 66.5zM592 1513q0 19 14 29l234 227q15 15 37 15t36.5 -14.5t14.5 -36.5q0 -24 -19 -39l-247 -211q-10 -10 -29 -10q-17 0 -29 11.5t-12 28.5z" />
<glyph unicode="&#xca;" horiz-adv-x="1165" d="M160 90v1186q0 43 23.5 66.5t66.5 23.5h737q31 0 54.5 -22.5t23.5 -53.5t-23.5 -53.5t-54.5 -22.5h-657v-440h643q31 0 54.5 -22.5t23.5 -53.5q0 -30 -23.5 -52.5t-54.5 -22.5h-643v-471h657q31 0 54.5 -22.5t23.5 -53.5t-23.5 -53.5t-54.5 -22.5h-737q-43 0 -66.5 23.5 t-23.5 66.5zM379 1513q0 11 6 23l143 213q27 39 74 39h37q47 0 74 -39l143 -213q6 -12 6 -23q0 -20 -13 -32.5t-32 -12.5q-24 0 -33 15l-163 215l-164 -215q-9 -15 -33 -15q-19 0 -32 12.5t-13 32.5z" />
<glyph unicode="&#xcb;" horiz-adv-x="1165" d="M160 90v1186q0 43 23.5 66.5t66.5 23.5h737q31 0 54.5 -22.5t23.5 -53.5t-23.5 -53.5t-54.5 -22.5h-657v-440h643q31 0 54.5 -22.5t23.5 -53.5q0 -30 -23.5 -52.5t-54.5 -22.5h-643v-471h657q31 0 54.5 -22.5t23.5 -53.5t-23.5 -53.5t-54.5 -22.5h-737q-43 0 -66.5 23.5 t-23.5 66.5zM313 1597q0 38 28.5 66.5t66.5 28.5q39 0 66.5 -28t27.5 -67q0 -40 -27 -68t-67 -28q-38 0 -66.5 28.5t-28.5 67.5zM735 1597q0 39 28.5 67t67.5 28q38 0 66.5 -28.5t28.5 -66.5q0 -39 -28 -67.5t-67 -28.5q-40 0 -68 28t-28 68z" />
<glyph unicode="&#xcc;" horiz-adv-x="489" d="M-57 1733q0 22 14.5 36.5t36.5 14.5t37 -15l233 -227q15 -11 15 -29q0 -17 -12 -28.5t-29 -11.5q-19 0 -29 10l-248 211q-18 14 -18 39zM160 76v1214q0 34 25 59t61 25q34 0 59 -25t25 -59v-1214q0 -34 -25 -59t-59 -25q-36 0 -61 25t-25 59z" />
<glyph unicode="&#xcd;" horiz-adv-x="489" d="M160 76v1214q0 34 25 59t61 25q34 0 59 -25t25 -59v-1214q0 -34 -25 -59t-59 -25q-36 0 -61 25t-25 59zM219 1513q0 19 14 29l234 227q15 15 37 15t36.5 -14.5t14.5 -36.5q0 -25 -18 -39l-248 -211q-10 -10 -29 -10q-17 0 -29 11.5t-12 28.5z" />
<glyph unicode="&#xce;" horiz-adv-x="489" d="M6 1513q0 11 6 23l144 213q27 39 73 39h37q47 0 74 -39l143 -213q6 -12 6 -23q0 -20 -13 -32.5t-32 -12.5q-23 0 -32 15l-164 215l-164 -215q-9 -15 -33 -15q-19 0 -32 12.5t-13 32.5zM160 76v1214q0 34 25 59t61 25q34 0 59 -25t25 -59v-1214q0 -34 -25 -59t-59 -25 q-36 0 -61 25t-25 59z" />
<glyph unicode="&#xcf;" horiz-adv-x="489" d="M-61 1597q0 38 28 66.5t66 28.5q39 0 66.5 -28t27.5 -67q0 -40 -27 -68t-67 -28q-38 0 -66 28t-28 68zM160 76v1214q0 34 25 59t61 25q34 0 59 -25t25 -59v-1214q0 -34 -25 -59t-59 -25q-36 0 -61 25t-25 59zM360 1597q0 38 28.5 66.5t68.5 28.5q38 0 66 -28.5t28 -66.5 q0 -40 -28 -68t-66 -28q-40 0 -68.5 28t-28.5 68z" />
<glyph unicode="&#xd0;" horiz-adv-x="1490" d="M12 676q0 26 19.5 44.5t46.5 18.5h139v537q0 43 23.5 66.5t66.5 23.5h377q208 0 368.5 -90.5t246 -245.5t85.5 -348q0 -145 -50 -270.5t-140.5 -216.5t-222 -143t-287.5 -52h-377q-43 0 -66.5 23.5t-23.5 66.5v520h-139q-27 0 -46.5 19.5t-19.5 46.5zM387 152h297 q161 0 282 72t181.5 191t60.5 267q0 150 -59.5 269t-180 191t-284.5 72h-297v-475h291q26 0 45.5 -18.5t19.5 -44.5q0 -28 -19.5 -47t-45.5 -19h-291v-458z" />
<glyph unicode="&#xd1;" horiz-adv-x="1449" d="M160 76v1188q0 45 32.5 77.5t77.5 32.5q59 0 90 -45l760 -1042v1003q0 34 25 59t59 25q36 0 61 -25t25 -59v-1194q0 -43 -30.5 -73.5t-73.5 -30.5q-57 0 -86 43l-770 1067v-1026q0 -34 -25 -59t-59 -25q-36 0 -61 25t-25 59zM408 1530q11 107 61.5 170t134.5 63 q29 0 52.5 -8.5t43.5 -28t29.5 -32t28.5 -39.5q37 -52 55 -65q20 -15 43 -15q38 0 64 36t32 107q1 18 14 29.5t31 11.5q20 0 34 -14.5t13 -34.5q-11 -108 -61.5 -170.5t-134.5 -62.5q-38 0 -70 18.5t-47 36.5t-39 53q-19 29 -28 41t-28 25.5t-40 13.5q-38 0 -65 -36 t-33 -107q-2 -18 -14.5 -29.5t-30.5 -11.5q-20 0 -33.5 15t-11.5 34z" />
<glyph unicode="&#xd2;" horiz-adv-x="1566" d="M104 682q0 200 84 361t239.5 253.5t354.5 92.5q198 0 353.5 -92.5t240 -253.5t84.5 -361t-84.5 -361t-240 -253.5t-353.5 -92.5q-199 0 -354.5 92.5t-239.5 253.5t-84 361zM281 682q0 -158 60.5 -284t175.5 -198.5t265 -72.5q149 0 264.5 72.5t176.5 198.5t61 284 q0 159 -61 285t-176 198t-265 72q-227 0 -364 -156t-137 -399zM479 1733q0 22 14.5 36.5t36.5 14.5t37 -15l234 -227q14 -10 14 -29q0 -17 -12 -28.5t-29 -11.5q-19 0 -29 10l-247 211q-19 15 -19 39z" />
<glyph unicode="&#xd3;" horiz-adv-x="1566" d="M104 682q0 200 84 361t239.5 253.5t354.5 92.5q198 0 353.5 -92.5t240 -253.5t84.5 -361t-84.5 -361t-240 -253.5t-353.5 -92.5q-199 0 -354.5 92.5t-239.5 253.5t-84 361zM281 682q0 -158 60.5 -284t175.5 -198.5t265 -72.5q149 0 264.5 72.5t176.5 198.5t61 284 q0 159 -61 285t-176 198t-265 72q-227 0 -364 -156t-137 -399zM754 1513q0 19 14 29l233 227q15 15 37 15t37 -14.5t15 -36.5q0 -24 -19 -39l-248 -211q-10 -10 -28 -10q-17 0 -29 11.5t-12 28.5z" />
<glyph unicode="&#xd4;" horiz-adv-x="1566" d="M104 682q0 200 84 361t239.5 253.5t354.5 92.5q198 0 353.5 -92.5t240 -253.5t84.5 -361t-84.5 -361t-240 -253.5t-353.5 -92.5q-199 0 -354.5 92.5t-239.5 253.5t-84 361zM281 682q0 -158 60.5 -284t175.5 -198.5t265 -72.5q149 0 264.5 72.5t176.5 198.5t61 284 q0 159 -61 285t-176 198t-265 72q-227 0 -364 -156t-137 -399zM541 1513q0 11 6 23l143 213q27 39 74 39h37q46 0 73 -39l144 -213q6 -12 6 -23q0 -20 -13 -32.5t-32 -12.5q-24 0 -33 15l-164 215l-164 -215q-9 -15 -32 -15q-19 0 -32 12.5t-13 32.5z" />
<glyph unicode="&#xd5;" horiz-adv-x="1566" d="M104 682q0 200 84 361t239.5 253.5t354.5 92.5q198 0 353.5 -92.5t240 -253.5t84.5 -361t-84.5 -361t-240 -253.5t-353.5 -92.5q-199 0 -354.5 92.5t-239.5 253.5t-84 361zM281 682q0 -158 60.5 -284t175.5 -198.5t265 -72.5q149 0 264.5 72.5t176.5 198.5t61 284 q0 159 -61 285t-176 198t-265 72q-227 0 -364 -156t-137 -399zM463 1530q11 107 61.5 170t134.5 63q29 0 52.5 -8.5t43.5 -28t29.5 -32t28.5 -39.5q37 -52 55 -65q20 -15 43 -15q38 0 64.5 36t32.5 107q1 18 14 29.5t31 11.5q20 0 34 -14.5t13 -34.5q-11 -108 -62 -170.5 t-135 -62.5q-29 0 -52.5 8.5t-43.5 27.5t-30.5 32t-28.5 40q-18 28 -28 40.5t-29 26t-40 13.5q-38 0 -65 -36t-33 -107q-2 -18 -14.5 -29.5t-30.5 -11.5q-20 0 -33.5 15t-11.5 34z" />
<glyph unicode="&#xd6;" horiz-adv-x="1566" d="M104 682q0 200 84 361t239.5 253.5t354.5 92.5q198 0 353.5 -92.5t240 -253.5t84.5 -361t-84.5 -361t-240 -253.5t-353.5 -92.5q-199 0 -354.5 92.5t-239.5 253.5t-84 361zM281 682q0 -158 60.5 -284t175.5 -198.5t265 -72.5q149 0 264.5 72.5t176.5 198.5t61 284 q0 159 -61 285t-176 198t-265 72q-227 0 -364 -156t-137 -399zM475 1597q0 38 28 66.5t66 28.5q39 0 67 -28t28 -67q0 -40 -27.5 -68t-67.5 -28q-38 0 -66 28t-28 68zM897 1597q0 39 28.5 67t67.5 28q38 0 66 -28.5t28 -66.5q0 -40 -28 -68t-66 -28q-40 0 -68 28t-28 68z " />
<glyph unicode="&#xd7;" horiz-adv-x="1021" d="M147 373q0 20 15 39l272 272l-272 272q-15 15 -15 37q0 23 16 39.5t38 16.5q18 0 39 -17l270 -272l272 272q21 17 39 17q22 0 37.5 -16.5t15.5 -39.5q0 -24 -16 -37l-270 -272l270 -272q16 -16 16 -39q0 -22 -15.5 -38t-37.5 -16t-37 15l-274 274l-272 -274 q-15 -15 -37 -15t-38 16t-16 38z" />
<glyph unicode="&#xd8;" horiz-adv-x="1566" d="M104 682q0 200 84 361t239.5 253.5t354.5 92.5q214 0 371 -105l115 158q14 22 39 22q28 0 41 -24.5t-7 -53.5l-112 -157q110 -96 170.5 -238t60.5 -309q0 -200 -84.5 -361t-240 -253.5t-353.5 -92.5q-215 0 -383 111l-116 -162q-14 -22 -39 -22q-28 0 -41.5 24.5 t6.5 53.5l119 163q-107 96 -165.5 235.5t-58.5 303.5zM281 682q0 -251 143 -406l637 879q-121 82 -279 82q-227 0 -364 -156t-137 -399zM494 215q125 -88 288 -88q149 0 264.5 72.5t176.5 198.5t61 284q0 127 -39 233.5t-112 180.5z" />
<glyph unicode="&#xd9;" horiz-adv-x="1433" d="M160 530v760q0 34 25 59t61 25q35 0 59.5 -25t24.5 -59v-755q0 -190 100.5 -299t286.5 -109t286.5 109t100.5 299v755q0 34 25 59t61 25q35 0 59.5 -25t24.5 -59v-758q0 -261 -142 -409t-415 -148q-272 0 -414.5 148.5t-142.5 406.5zM416 1733q0 22 14.5 36.5t36.5 14.5 t37 -15l233 -227q15 -11 15 -29q0 -17 -12 -28.5t-29 -11.5q-19 0 -29 10l-248 211q-18 14 -18 39z" />
<glyph unicode="&#xda;" horiz-adv-x="1433" d="M160 530v760q0 34 25 59t61 25q35 0 59.5 -25t24.5 -59v-755q0 -190 100.5 -299t286.5 -109t286.5 109t100.5 299v755q0 34 25 59t61 25q35 0 59.5 -25t24.5 -59v-758q0 -261 -142 -409t-415 -148q-272 0 -414.5 148.5t-142.5 406.5zM690 1513q0 18 15 29l233 227 q15 15 37 15t36.5 -14.5t14.5 -36.5q0 -25 -18 -39l-248 -211q-10 -10 -29 -10q-17 0 -29 11.5t-12 28.5z" />
<glyph unicode="&#xdb;" horiz-adv-x="1433" d="M160 530v760q0 34 25 59t61 25q35 0 59.5 -25t24.5 -59v-755q0 -190 100.5 -299t286.5 -109t286.5 109t100.5 299v755q0 34 25 59t61 25q35 0 59.5 -25t24.5 -59v-758q0 -261 -142 -409t-415 -148q-272 0 -414.5 148.5t-142.5 406.5zM477 1513q0 11 6 23l144 213 q27 39 73 39h37q47 0 74 -39l143 -213q7 -14 7 -23q0 -20 -13.5 -32.5t-32.5 -12.5q-23 0 -32 15l-164 215l-164 -215q-9 -15 -33 -15q-19 0 -32 12.5t-13 32.5z" />
<glyph unicode="&#xdc;" horiz-adv-x="1433" d="M160 530v760q0 34 25 59t61 25q35 0 59.5 -25t24.5 -59v-755q0 -190 100.5 -299t286.5 -109t286.5 109t100.5 299v755q0 34 25 59t61 25q35 0 59.5 -25t24.5 -59v-758q0 -261 -142 -409t-415 -148q-272 0 -414.5 148.5t-142.5 406.5zM412 1597q0 38 28 66.5t66 28.5 q39 0 66.5 -28t27.5 -67q0 -40 -27 -68t-67 -28q-38 0 -66 28t-28 68zM834 1597q0 39 28 67t68 28q38 0 66 -28.5t28 -66.5q0 -40 -28 -68t-66 -28q-40 0 -68 28t-28 68z" />
<glyph unicode="&#xdd;" horiz-adv-x="1282" d="M84 1292q0 34 24 58t58 24q49 0 70 -37l405 -608l403 608q26 37 70 37q34 0 59 -24t25 -58q0 -24 -14 -45l-457 -669v-502q0 -34 -25.5 -59t-60.5 -25t-59.5 25t-24.5 59v502l-459 667q-14 17 -14 47zM614 1513q0 18 15 29l233 227q15 15 37 15t36.5 -14.5t14.5 -36.5 q0 -25 -18 -39l-248 -211q-10 -10 -29 -10q-17 0 -29 11.5t-12 28.5z" />
<glyph unicode="&#xde;" horiz-adv-x="1202" d="M160 76v1214q0 34 24.5 59t59.5 25t60.5 -25t25.5 -59v-168h379q198 0 313 -119t115 -294q0 -174 -116 -292t-312 -118h-379v-223q0 -34 -25 -59t-59 -25q-36 0 -61 25t-25 59zM330 451h358q122 0 197.5 71.5t75.5 186.5q0 116 -76 189t-197 73h-358v-520z" />
<glyph unicode="&#xdf;" horiz-adv-x="1140" d="M135 68v878q0 203 117 321.5t295 118.5q162 0 274.5 -92.5t112.5 -240.5q0 -108 -66 -189.5t-176 -115.5q153 -25 254 -130.5t101 -248.5q0 -183 -114 -288.5t-290 -105.5q-118 0 -209 50q-39 17 -39 59q0 28 19 47t47 19q10 0 64 -20.5t116 -20.5q106 0 176 70.5 t70 193.5q0 129 -97 212t-286 87q-25 2 -43.5 20t-18.5 43t16.5 43t41.5 21q135 11 203.5 78t68.5 161q0 101 -68.5 156t-154.5 55q-121 0 -190.5 -75t-69.5 -228v-878q0 -31 -23.5 -53.5t-54.5 -22.5t-53.5 22.5t-22.5 53.5z" />
<glyph unicode="&#xe0;" horiz-adv-x="1079" d="M98 303q0 80 30 144t80 102.5t110.5 59t125.5 20.5q211 0 328 -135v178q0 97 -70 153t-180 56q-148 0 -258 -99q-20 -12 -41 -12q-26 0 -44.5 19t-18.5 45q0 32 26 51q147 129 357 129q81 0 148.5 -19t121 -57.5t83.5 -104.5t30 -153v-612q0 -31 -23 -53.5t-55 -22.5 q-31 0 -53.5 22.5t-22.5 53.5v45q-120 -138 -328 -138q-87 0 -164 36t-129.5 112.5t-52.5 179.5zM242 1432q0 22 14.5 36.5t36.5 14.5t37 -15l233 -227q15 -11 15 -29q0 -17 -12 -29t-29 -12q-18 0 -29 11l-248 211q-18 14 -18 39zM256 301q0 -94 68.5 -154.5t175.5 -60.5 q84 0 156.5 31.5t115.5 91.5v186q-43 60 -115.5 91.5t-156.5 31.5q-107 0 -175.5 -61t-68.5 -156z" />
<glyph unicode="&#xe1;" horiz-adv-x="1079" d="M98 303q0 80 30 144t80 102.5t110.5 59t125.5 20.5q211 0 328 -135v178q0 97 -70 153t-180 56q-148 0 -258 -99q-20 -12 -41 -12q-26 0 -44.5 19t-18.5 45q0 32 26 51q147 129 357 129q81 0 148.5 -19t121 -57.5t83.5 -104.5t30 -153v-612q0 -31 -23 -53.5t-55 -22.5 q-31 0 -53.5 22.5t-22.5 53.5v45q-120 -138 -328 -138q-87 0 -164 36t-129.5 112.5t-52.5 179.5zM256 301q0 -94 68.5 -154.5t175.5 -60.5q84 0 156.5 31.5t115.5 91.5v186q-43 60 -115.5 91.5t-156.5 31.5q-107 0 -175.5 -61t-68.5 -156zM518 1212q0 18 14 29l234 227 q15 15 37 15t36.5 -14.5t14.5 -36.5q0 -25 -18 -39l-248 -211q-11 -11 -29 -11q-17 0 -29 12t-12 29z" />
<glyph unicode="&#xe2;" horiz-adv-x="1079" d="M98 303q0 80 30 144t80 102.5t110.5 59t125.5 20.5q211 0 328 -135v178q0 97 -70 153t-180 56q-148 0 -258 -99q-20 -12 -41 -12q-26 0 -44.5 19t-18.5 45q0 32 26 51q147 129 357 129q81 0 148.5 -19t121 -57.5t83.5 -104.5t30 -153v-612q0 -31 -23 -53.5t-55 -22.5 q-31 0 -53.5 22.5t-22.5 53.5v45q-120 -138 -328 -138q-87 0 -164 36t-129.5 112.5t-52.5 179.5zM256 301q0 -94 68.5 -154.5t175.5 -60.5q84 0 156.5 31.5t115.5 91.5v186q-43 60 -115.5 91.5t-156.5 31.5q-107 0 -175.5 -61t-68.5 -156zM305 1212q0 11 6 23l144 213 q27 39 73 39h37q47 0 74 -39l143 -213q6 -12 6 -23q0 -20 -13 -32.5t-32 -12.5q-23 0 -32 15l-164 215l-164 -215q-9 -15 -33 -15q-19 0 -32 12.5t-13 32.5z" />
<glyph unicode="&#xe3;" horiz-adv-x="1079" d="M98 303q0 80 30 144t80 102.5t110.5 59t125.5 20.5q211 0 328 -135v178q0 97 -70 153t-180 56q-148 0 -258 -99q-20 -12 -41 -12q-26 0 -44.5 19t-18.5 45q0 32 26 51q147 129 357 129q81 0 148.5 -19t121 -57.5t83.5 -104.5t30 -153v-612q0 -31 -23 -53.5t-55 -22.5 q-31 0 -53.5 22.5t-22.5 53.5v45q-120 -138 -328 -138q-87 0 -164 36t-129.5 112.5t-52.5 179.5zM227 1229q11 107 62 170t135 63q29 0 52.5 -8.5t43.5 -28t29.5 -32t28.5 -39.5q37 -52 55 -65q20 -15 43 -15q38 0 64 36t32 107q1 18 14 29.5t31 11.5q20 0 34 -14.5 t13 -34.5q-11 -108 -61.5 -170.5t-134.5 -62.5q-38 0 -70 18.5t-47 36.5t-39 53q-19 29 -28 41t-28 25.5t-40 13.5q-38 0 -65.5 -36t-33.5 -107q-2 -18 -14.5 -29.5t-30.5 -11.5q-20 0 -33.5 15t-11.5 34zM256 301q0 -94 68.5 -154.5t175.5 -60.5q84 0 156.5 31.5 t115.5 91.5v186q-43 60 -115.5 91.5t-156.5 31.5q-107 0 -175.5 -61t-68.5 -156z" />
<glyph unicode="&#xe4;" horiz-adv-x="1079" d="M98 303q0 80 30 144t80 102.5t110.5 59t125.5 20.5q211 0 328 -135v178q0 97 -70 153t-180 56q-148 0 -258 -99q-20 -12 -41 -12q-26 0 -44.5 19t-18.5 45q0 32 26 51q147 129 357 129q81 0 148.5 -19t121 -57.5t83.5 -104.5t30 -153v-612q0 -31 -23 -53.5t-55 -22.5 q-31 0 -53.5 22.5t-22.5 53.5v45q-120 -138 -328 -138q-87 0 -164 36t-129.5 112.5t-52.5 179.5zM240 1296q0 38 28 66.5t66 28.5q39 0 66.5 -28t27.5 -67q0 -40 -27 -68t-67 -28q-38 0 -66 28t-28 68zM256 301q0 -94 68.5 -154.5t175.5 -60.5q84 0 156.5 31.5t115.5 91.5 v186q-43 60 -115.5 91.5t-156.5 31.5q-107 0 -175.5 -61t-68.5 -156zM662 1296q0 38 28 66.5t68 28.5q38 0 66 -28.5t28 -66.5q0 -40 -28 -68t-66 -28q-40 0 -68 28t-28 68z" />
<glyph unicode="&#xe5;" horiz-adv-x="1079" d="M98 303q0 80 30 144t80 102.5t110.5 59t125.5 20.5q211 0 328 -135v178q0 97 -70 153t-180 56q-148 0 -258 -99q-20 -12 -41 -12q-26 0 -44.5 19t-18.5 45q0 32 26 51q147 129 357 129q81 0 148.5 -19t121 -57.5t83.5 -104.5t30 -153v-612q0 -31 -23 -53.5t-55 -22.5 q-31 0 -53.5 22.5t-22.5 53.5v45q-120 -138 -328 -138q-87 0 -164 36t-129.5 112.5t-52.5 179.5zM256 301q0 -94 68.5 -154.5t175.5 -60.5q84 0 156.5 31.5t115.5 91.5v186q-43 60 -115.5 91.5t-156.5 31.5q-107 0 -175.5 -61t-68.5 -156zM344 1354q0 83 59 142.5t142 59.5 t141.5 -59.5t58.5 -142.5t-58.5 -142t-141.5 -59t-142 59t-59 142zM426 1354q0 -50 35 -85.5t84 -35.5q50 0 84.5 35.5t34.5 85.5q0 51 -34 86t-85 35q-50 0 -84.5 -35t-34.5 -86z" />
<glyph unicode="&#xe6;" horiz-adv-x="1820" d="M98 303q0 103 51.5 178.5t133 111.5t180.5 36q230 0 358 -131v176q0 97 -74.5 152t-197.5 55q-164 0 -285 -101q-18 -12 -39 -12q-26 0 -44.5 19.5t-18.5 46.5q0 37 26 53q154 127 379 127q84 0 154.5 -21.5t124.5 -71t72 -122.5q56 97 147.5 156t218.5 59 q103 0 188 -40.5t139.5 -109t84.5 -156.5t30 -186q0 -37 -23.5 -57.5t-66.5 -20.5h-661q11 -146 99 -242t231 -96q134 0 243 89q20 12 37 12q26 0 44 -19t18 -45q0 -31 -27 -51q-142 -117 -322 -117q-279 0 -395 238q-53 -107 -162.5 -172.5t-244.5 -65.5q-109 0 -198 36.5 t-144.5 112t-55.5 179.5zM256 311q0 -93 73.5 -149t194.5 -56q126 0 211.5 80.5t85.5 182.5v24q-50 59 -129 92t-168 33q-120 0 -194 -57t-74 -150zM975 557h600q-1 58 -18.5 114t-52 105.5t-94.5 80t-136 30.5q-70 0 -127.5 -30t-93.5 -78.5t-56 -105.5t-22 -116z" />
<glyph unicode="&#xe7;" horiz-adv-x="1013" d="M96 496q0 146 61.5 263.5t174.5 186t258 68.5q191 0 317 -123q23 -23 23 -51q0 -29 -20.5 -49.5t-49.5 -20.5q-27 0 -45 18q-89 89 -217 89q-156 0 -249 -107t-93 -274t93 -275t249 -108q130 0 215 88q18 18 47 18t49.5 -20t20.5 -49q0 -33 -23 -52q-113 -113 -278 -121 l-35 -90q33 23 76 23q59 0 97 -37.5t38 -99.5q0 -73 -61.5 -118.5t-151.5 -45.5q-107 0 -184 45q-23 14 -23 39q0 18 12.5 30.5t30.5 12.5q12 0 23 -8q62 -39 137 -39q52 0 88.5 23t36.5 63q0 33 -19.5 52t-56.5 19q-38 0 -66 -22q-10 -10 -26 -10q-21 0 -34 13t-13 34 q0 6 4 18l37 98q-198 19 -320.5 164.5t-122.5 354.5z" />
<glyph unicode="&#xe8;" horiz-adv-x="1153" d="M96 496q0 142 62.5 260.5t174.5 188t251 69.5q109 0 200 -40.5t150.5 -109t92 -157t32.5 -185.5q0 -37 -23.5 -57.5t-66.5 -20.5h-711q9 -145 105.5 -243.5t250.5 -98.5q146 0 267 95q13 8 34 8q26 0 45 -18t19 -44q0 -31 -27 -51q-151 -117 -352 -117q-221 0 -362.5 145 t-141.5 376zM258 557h649q-1 58 -20.5 114t-57.5 105.5t-102 80t-145 30.5q-76 0 -138 -30t-100.5 -78.5t-60.5 -105.5t-25 -116zM279 1432q0 22 14.5 36.5t36.5 14.5t37 -15l233 -227q14 -11 14 -29q0 -17 -12 -29t-29 -12t-28 11l-248 211q-18 14 -18 39z" />
<glyph unicode="&#xe9;" horiz-adv-x="1153" d="M96 496q0 142 62.5 260.5t174.5 188t251 69.5q109 0 200 -40.5t150.5 -109t92 -157t32.5 -185.5q0 -37 -23.5 -57.5t-66.5 -20.5h-711q9 -145 105.5 -243.5t250.5 -98.5q146 0 267 95q13 8 34 8q26 0 45 -18t19 -44q0 -31 -27 -51q-151 -117 -352 -117q-221 0 -362.5 145 t-141.5 376zM258 557h649q-1 58 -20.5 114t-57.5 105.5t-102 80t-145 30.5q-76 0 -138 -30t-100.5 -78.5t-60.5 -105.5t-25 -116zM555 1212q0 18 14 29l234 227q15 15 37 15t36.5 -14.5t14.5 -36.5q0 -24 -19 -39l-247 -211q-11 -11 -29 -11q-17 0 -29 12t-12 29z" />
<glyph unicode="&#xea;" horiz-adv-x="1153" d="M96 496q0 142 62.5 260.5t174.5 188t251 69.5q109 0 200 -40.5t150.5 -109t92 -157t32.5 -185.5q0 -37 -23.5 -57.5t-66.5 -20.5h-711q9 -145 105.5 -243.5t250.5 -98.5q146 0 267 95q13 8 34 8q26 0 45 -18t19 -44q0 -31 -27 -51q-151 -117 -352 -117q-221 0 -362.5 145 t-141.5 376zM258 557h649q-1 58 -20.5 114t-57.5 105.5t-102 80t-145 30.5q-76 0 -138 -30t-100.5 -78.5t-60.5 -105.5t-25 -116zM342 1212q0 11 6 23l144 213q27 39 73 39h37q47 0 74 -39l143 -213q6 -12 6 -23q0 -20 -13 -32.5t-32 -12.5q-23 0 -32 15l-164 215l-164 -215 q-9 -15 -33 -15q-19 0 -32 12.5t-13 32.5z" />
<glyph unicode="&#xeb;" horiz-adv-x="1153" d="M96 496q0 142 62.5 260.5t174.5 188t251 69.5q109 0 200 -40.5t150.5 -109t92 -157t32.5 -185.5q0 -37 -23.5 -57.5t-66.5 -20.5h-711q9 -145 105.5 -243.5t250.5 -98.5q146 0 267 95q13 8 34 8q26 0 45 -18t19 -44q0 -31 -27 -51q-151 -117 -352 -117q-221 0 -362.5 145 t-141.5 376zM258 557h649q-1 58 -20.5 114t-57.5 105.5t-102 80t-145 30.5q-76 0 -138 -30t-100.5 -78.5t-60.5 -105.5t-25 -116zM276 1296q0 38 28.5 66.5t66.5 28.5q39 0 66.5 -28t27.5 -67q0 -40 -27 -68t-67 -28q-39 0 -67 28t-28 68zM698 1296q0 38 28.5 66.5 t68.5 28.5q38 0 66 -28.5t28 -66.5q0 -40 -28 -68t-66 -28q-40 0 -68.5 28t-28.5 68z" />
<glyph unicode="&#xec;" horiz-adv-x="460" d="M-72 1432q0 22 15 36.5t37 14.5q21 0 36 -15l234 -227q14 -11 14 -29q0 -17 -12 -29t-29 -12t-28 11l-248 211q-19 15 -19 39zM154 68v854q0 31 22.5 53t54.5 22q31 0 53.5 -22t22.5 -53v-854q0 -31 -23 -53.5t-55 -22.5q-31 0 -53 22.5t-22 53.5z" />
<glyph unicode="&#xed;" horiz-adv-x="460" d="M154 68v854q0 31 22.5 53t54.5 22q31 0 53.5 -22t22.5 -53v-854q0 -31 -23 -53.5t-55 -22.5q-31 0 -53 22.5t-22 53.5zM203 1212q0 18 14 29l234 227q15 15 36 15q22 0 37 -14.5t15 -36.5q0 -24 -19 -39l-248 -211q-11 -11 -28 -11t-29 12t-12 29z" />
<glyph unicode="&#xee;" horiz-adv-x="460" d="M-10 1212q0 11 6 23l143 213q27 39 74 39h37q47 0 74 -39l143 -213q6 -12 6 -23q0 -20 -13 -32.5t-32 -12.5q-24 0 -33 15l-164 215l-163 -215q-9 -15 -33 -15q-19 0 -32 12.5t-13 32.5zM154 68v854q0 31 22.5 53t54.5 22q31 0 53.5 -22t22.5 -53v-854q0 -31 -23 -53.5 t-55 -22.5q-31 0 -53 22.5t-22 53.5z" />
<glyph unicode="&#xef;" horiz-adv-x="460" d="M-76 1296q0 38 28 66.5t66 28.5q39 0 67 -28t28 -67q0 -40 -27.5 -68t-67.5 -28q-38 0 -66 28t-28 68zM154 68v854q0 31 22.5 53t54.5 22q31 0 53.5 -22t22.5 -53v-854q0 -31 -23 -53.5t-55 -22.5q-31 0 -53 22.5t-22 53.5zM346 1296q0 38 28 66.5t68 28.5 q38 0 66.5 -28.5t28.5 -66.5q0 -40 -28.5 -68t-66.5 -28q-40 0 -68 28t-28 68z" />
<glyph unicode="&#xf0;" horiz-adv-x="1171" d="M96 479q0 216 127 359t324 143q196 0 323 -182q-103 183 -327 350l-258 -115q-4 -4 -19 -4q-19 0 -33 13t-14 34q0 30 29 41l207 92q-8 5 -42 27.5t-53 34.5q-36 25 -36 65q0 31 22.5 53.5t54.5 22.5q23 0 41 -12q124 -82 174 -121l185 82q4 4 18 4q19 0 32 -12.5 t13 -32.5q0 -28 -26 -43l-142 -61q379 -326 379 -711q0 -233 -133.5 -382t-355.5 -149q-218 0 -354 143t-136 361zM256 479q0 -153 89 -259.5t241 -106.5t239.5 106t87.5 260q0 98 -37 180t-112.5 133.5t-177.5 51.5q-152 0 -241 -106.5t-89 -258.5z" />
<glyph unicode="&#xf1;" horiz-adv-x="1128" d="M154 68v854q0 31 22 53t53 22q32 0 55 -22t23 -53v-78q58 69 152 119.5t200 50.5q316 0 316 -320v-626q0 -31 -23 -53.5t-55 -22.5q-31 0 -53.5 22.5t-22.5 53.5v579q0 124 -57 177t-164 53q-86 0 -166.5 -45t-126.5 -109v-655q0 -31 -22.5 -53.5t-53.5 -22.5 q-32 0 -54.5 22.5t-22.5 53.5zM248 1229q11 107 61.5 170t134.5 63q29 0 52.5 -8.5t43.5 -28t29.5 -32t28.5 -39.5q37 -52 55 -65q20 -15 43 -15q38 0 64.5 36t32.5 107q1 18 14 29.5t31 11.5q20 0 34 -14.5t13 -34.5q-11 -108 -62 -170.5t-135 -62.5q-38 0 -70 18.5 t-47 36.5t-39 53q-19 29 -28 41t-28 25.5t-40 13.5q-38 0 -65 -36t-33 -107q-2 -18 -14.5 -29.5t-30.5 -11.5q-20 0 -33.5 15t-11.5 34z" />
<glyph unicode="&#xf2;" horiz-adv-x="1171" d="M96 496q0 144 59 261t171.5 187t259.5 70t259.5 -70t171 -187t58.5 -261t-58.5 -262t-171 -188.5t-259.5 -70.5t-259.5 70.5t-171.5 188.5t-59 262zM256 496q0 -160 89 -271.5t241 -111.5q102 0 177.5 54t112.5 139.5t37 189.5q0 103 -37 188t-112.5 139t-177.5 54 t-178.5 -54t-114 -139.5t-37.5 -187.5zM283 1432q0 22 14.5 36.5t36.5 14.5t37 -15l233 -227q14 -11 14 -29q0 -17 -11.5 -29t-28.5 -12q-18 0 -29 11l-248 211q-18 14 -18 39z" />
<glyph unicode="&#xf3;" horiz-adv-x="1171" d="M96 496q0 144 59 261t171.5 187t259.5 70t259.5 -70t171 -187t58.5 -261t-58.5 -262t-171 -188.5t-259.5 -70.5t-259.5 70.5t-171.5 188.5t-59 262zM256 496q0 -160 89 -271.5t241 -111.5q102 0 177.5 54t112.5 139.5t37 189.5q0 103 -37 188t-112.5 139t-177.5 54 t-178.5 -54t-114 -139.5t-37.5 -187.5zM559 1212q0 18 14 29l234 227q15 15 37 15t36.5 -14.5t14.5 -36.5q0 -25 -18 -39l-248 -211q-11 -11 -29 -11q-17 0 -29 12t-12 29z" />
<glyph unicode="&#xf4;" horiz-adv-x="1171" d="M96 496q0 144 59 261t171.5 187t259.5 70t259.5 -70t171 -187t58.5 -261t-58.5 -262t-171 -188.5t-259.5 -70.5t-259.5 70.5t-171.5 188.5t-59 262zM256 496q0 -160 89 -271.5t241 -111.5q102 0 177.5 54t112.5 139.5t37 189.5q0 103 -37 188t-112.5 139t-177.5 54 t-178.5 -54t-114 -139.5t-37.5 -187.5zM346 1212q0 11 6 23l144 213q27 39 73 39h37q47 0 74 -39l143 -213q6 -12 6 -23q0 -20 -13 -32.5t-32 -12.5q-23 0 -32 15l-164 215l-164 -215q-9 -15 -33 -15q-19 0 -32 12.5t-13 32.5z" />
<glyph unicode="&#xf5;" horiz-adv-x="1171" d="M96 496q0 144 59 261t171.5 187t259.5 70t259.5 -70t171 -187t58.5 -261t-58.5 -262t-171 -188.5t-259.5 -70.5t-259.5 70.5t-171.5 188.5t-59 262zM256 496q0 -160 89 -271.5t241 -111.5q102 0 177.5 54t112.5 139.5t37 189.5q0 103 -37 188t-112.5 139t-177.5 54 t-178.5 -54t-114 -139.5t-37.5 -187.5zM268 1229q11 107 62 170t135 63q29 0 52 -8t43.5 -28t29.5 -32t28 -40q38 -54 58 -67q19 -13 41 -13q38 0 64 36t32 107q1 18 14 29.5t31 11.5q20 0 34 -14.5t13 -34.5q-11 -108 -61.5 -170.5t-134.5 -62.5q-38 0 -70 18.5t-47 36.5 t-39 53q-19 29 -28 41t-28 25.5t-40 13.5q-38 0 -65.5 -36t-33.5 -107q-2 -18 -14.5 -29.5t-30.5 -11.5q-20 0 -33.5 15t-11.5 34z" />
<glyph unicode="&#xf6;" horiz-adv-x="1171" d="M96 496q0 144 59 261t171.5 187t259.5 70t259.5 -70t171 -187t58.5 -261t-58.5 -262t-171 -188.5t-259.5 -70.5t-259.5 70.5t-171.5 188.5t-59 262zM256 496q0 -160 89 -271.5t241 -111.5q102 0 177.5 54t112.5 139.5t37 189.5q0 103 -37 188t-112.5 139t-177.5 54 t-178.5 -54t-114 -139.5t-37.5 -187.5zM279 1296q0 38 28 66.5t66 28.5q39 0 66.5 -28t27.5 -67q0 -40 -27 -68t-67 -28q-38 0 -66 28t-28 68zM700 1296q0 38 28.5 66.5t68.5 28.5q38 0 66 -28.5t28 -66.5q0 -40 -28 -68t-66 -28q-40 0 -68.5 28t-28.5 68z" />
<glyph unicode="&#xf7;" horiz-adv-x="1046" d="M51 690q0 23 15.5 38t37.5 15h838q22 0 37.5 -15t15.5 -38t-15.5 -38t-37.5 -15h-838q-22 0 -37.5 15t-15.5 38zM430 295q0 38 27 66t65 28q40 0 68 -28t28 -66t-28 -66t-68 -28q-38 0 -65 28t-27 66zM430 1077q0 40 27 67t65 27q40 0 68 -27t28 -67q0 -38 -28 -66 t-68 -28q-38 0 -65 28t-27 66z" />
<glyph unicode="&#xf8;" horiz-adv-x="1171" d="M96 496q0 144 59 261t171.5 187t259.5 70q154 0 272 -78l94 129q14 22 39 22q24 0 34.5 -20t-7.5 -45l-98 -135q75 -72 115 -173t40 -218q0 -144 -58.5 -262t-171 -188.5t-259.5 -70.5q-152 0 -267 76l-92 -129q-14 -20 -37 -20q-24 0 -35.5 20.5t5.5 46.5l94 131 q-75 72 -116.5 175t-41.5 221zM256 496q0 -163 88 -271l428 592q-79 60 -186 60q-102 0 -178.5 -54t-114 -139.5t-37.5 -187.5zM403 168q77 -55 183 -55q102 0 177.5 54t112.5 139.5t37 189.5q0 157 -84 264z" />
<glyph unicode="&#xf9;" horiz-adv-x="1128" d="M154 291v631q0 31 22.5 53t54.5 22q31 0 53.5 -22t22.5 -53v-584q0 -124 57 -174.5t164 -50.5q87 0 167.5 43t125.5 106v660q0 31 22.5 53t53.5 22q32 0 55 -22t23 -53v-854q0 -31 -22.5 -53.5t-53.5 -22.5q-32 0 -55 22.5t-23 53.5v69q-63 -70 -155 -116t-197 -46 q-315 0 -315 316zM262 1432q0 22 14.5 36.5t36.5 14.5t37 -15l234 -227q14 -11 14 -29q0 -17 -12 -29t-29 -12q-18 0 -29 11l-247 211q-19 15 -19 39z" />
<glyph unicode="&#xfa;" horiz-adv-x="1128" d="M154 291v631q0 31 22.5 53t54.5 22q31 0 53.5 -22t22.5 -53v-584q0 -124 57 -174.5t164 -50.5q87 0 167.5 43t125.5 106v660q0 31 22.5 53t53.5 22q32 0 55 -22t23 -53v-854q0 -31 -22.5 -53.5t-53.5 -22.5q-32 0 -55 22.5t-23 53.5v69q-63 -70 -155 -116t-197 -46 q-315 0 -315 316zM537 1212q0 18 14 29l233 227q15 15 37 15t36.5 -14.5t14.5 -36.5q0 -25 -18 -39l-248 -211q-11 -11 -28 -11t-29 12t-12 29z" />
<glyph unicode="&#xfb;" horiz-adv-x="1128" d="M154 291v631q0 31 22.5 53t54.5 22q31 0 53.5 -22t22.5 -53v-584q0 -124 57 -174.5t164 -50.5q87 0 167.5 43t125.5 106v660q0 31 22.5 53t53.5 22q32 0 55 -22t23 -53v-854q0 -31 -22.5 -53.5t-53.5 -22.5q-32 0 -55 22.5t-23 53.5v69q-63 -70 -155 -116t-197 -46 q-315 0 -315 316zM324 1212q0 11 6 23l143 213q27 39 74 39h37q46 0 73 -39l144 -213q6 -12 6 -23q0 -20 -13 -32.5t-32 -12.5q-24 0 -33 15l-164 215l-164 -215q-9 -15 -32 -15q-19 0 -32 12.5t-13 32.5z" />
<glyph unicode="&#xfc;" horiz-adv-x="1128" d="M154 291v631q0 31 22.5 53t54.5 22q31 0 53.5 -22t22.5 -53v-584q0 -124 57 -174.5t164 -50.5q87 0 167.5 43t125.5 106v660q0 31 22.5 53t53.5 22q32 0 55 -22t23 -53v-854q0 -31 -22.5 -53.5t-53.5 -22.5q-32 0 -55 22.5t-23 53.5v69q-63 -70 -155 -116t-197 -46 q-315 0 -315 316zM258 1296q0 38 28 66.5t66 28.5q39 0 66.5 -28t27.5 -67q0 -40 -27 -68t-67 -28q-38 0 -66 28t-28 68zM680 1296q0 38 28 66.5t68 28.5q38 0 66 -28.5t28 -66.5q0 -40 -28 -68t-66 -28q-40 0 -68 28t-28 68z" />
<glyph unicode="&#xfd;" horiz-adv-x="1003" d="M41 920q0 32 22 54.5t54 22.5q24 0 43.5 -13t27.5 -34l314 -772l311 772q7 20 28 33.5t44 13.5q33 0 55.5 -22.5t22.5 -54.5q0 -14 -7 -31l-454 -1090q-81 -197 -291 -200q-29 0 -45 4q-29 3 -47.5 22t-18.5 45q0 29 22 48.5t52 19.5q2 0 13 -1t20 -1q54 0 88 22.5 t59 81.5l66 150l-373 901q-6 15 -6 29zM475 1212q0 18 14 29l234 227q15 15 37 15t36.5 -14.5t14.5 -36.5q0 -25 -18 -39l-248 -211q-11 -11 -29 -11q-17 0 -29 12t-12 29z" />
<glyph unicode="&#xfe;" horiz-adv-x="1175" d="M154 -309v1607q0 31 22 53.5t53 22.5q32 0 55 -22.5t23 -53.5v-456q56 78 144.5 125t189.5 47q197 0 318.5 -139.5t121.5 -378.5q0 -237 -121.5 -379t-318.5 -142q-101 0 -187.5 45.5t-146.5 129.5v-459q0 -31 -22.5 -53.5t-53.5 -22.5q-32 0 -54.5 22.5t-22.5 53.5z M307 272q41 -67 124 -113t171 -46q146 0 232 107.5t86 275.5t-86 274.5t-232 106.5q-88 0 -171 -46t-124 -112v-447z" />
<glyph unicode="&#xff;" horiz-adv-x="1003" d="M41 920q0 32 22 54.5t54 22.5q24 0 43.5 -13t27.5 -34l314 -772l311 772q7 20 28 33.5t44 13.5q33 0 55.5 -22.5t22.5 -54.5q0 -14 -7 -31l-454 -1090q-81 -197 -291 -200q-29 0 -45 4q-29 3 -47.5 22t-18.5 45q0 29 22 48.5t52 19.5q2 0 13 -1t20 -1q54 0 88 22.5 t59 81.5l66 150l-373 901q-6 15 -6 29zM197 1296q0 38 28 66.5t66 28.5q39 0 66.5 -28t27.5 -67q0 -40 -27 -68t-67 -28q-38 0 -66 28t-28 68zM618 1296q0 38 28.5 66.5t68.5 28.5q38 0 66 -28.5t28 -66.5q0 -40 -28 -68t-66 -28q-40 0 -68.5 28t-28.5 68z" />
<glyph unicode="&#x152;" horiz-adv-x="2263" d="M104 682q0 200 82.5 360.5t234.5 252t347 91.5q149 0 281.5 -69.5t205.5 -196.5v156q0 43 24.5 66.5t68.5 23.5h737q31 0 53.5 -22.5t22.5 -53.5t-22.5 -53.5t-53.5 -22.5h-660v-440h646q31 0 53 -22.5t22 -53.5t-22 -53t-53 -22h-646v-471h660q31 0 53.5 -22.5 t22.5 -53.5t-22.5 -53.5t-53.5 -22.5h-737q-44 0 -68.5 23.5t-24.5 66.5v156q-73 -130 -205 -200.5t-282 -70.5q-195 0 -347 92.5t-234.5 253.5t-82.5 361zM281 682q0 -159 60.5 -284.5t176.5 -198t268 -72.5q161 0 285.5 85t183.5 245v450q-59 161 -183 244.5t-286 83.5 q-230 0 -367.5 -155t-137.5 -398z" />
<glyph unicode="&#x153;" horiz-adv-x="1970" d="M96 496q0 144 59 261t171.5 187t259.5 70q87 0 160 -28.5t121.5 -75.5t78 -90t49.5 -89q15 35 36.5 70t58 75t79.5 69.5t103.5 49t128.5 19.5q146 0 255 -71t164.5 -190.5t55.5 -269.5q0 -39 -90 -39h-709q9 -146 105 -244t250 -98q143 0 268 95q11 8 33 8q28 0 45.5 -17 t17.5 -45q0 -31 -27 -51q-151 -117 -350 -117q-90 0 -165 27t-125.5 72.5t-82 89.5t-53.5 94q-17 -38 -37.5 -72t-56.5 -74.5t-77.5 -69t-103.5 -48t-132 -19.5q-147 0 -259.5 70.5t-171.5 188.5t-59 262zM256 496q0 -163 90 -274t240 -111t238.5 111t88.5 274 q0 162 -88.5 271.5t-238.5 109.5t-240 -110t-90 -271zM1075 557h651q-2 58 -22 114t-58 105.5t-102 80t-145 30.5q-76 0 -138 -30t-100.5 -78.5t-60.5 -105.5t-25 -116z" />
<glyph unicode="&#x178;" horiz-adv-x="1282" d="M84 1292q0 34 24 58t58 24q49 0 70 -37l405 -608l403 608q26 37 70 37q34 0 59 -24t25 -58q0 -24 -14 -45l-457 -669v-502q0 -34 -25.5 -59t-60.5 -25t-59.5 25t-24.5 59v502l-459 667q-14 17 -14 47zM336 1597q0 38 28 66.5t66 28.5q39 0 66.5 -28t27.5 -67 q0 -40 -27 -68t-67 -28q-38 0 -66 28t-28 68zM758 1597q0 39 28 67t68 28q38 0 66 -28.5t28 -66.5q0 -40 -28 -68t-66 -28q-40 0 -68 28t-28 68z" />
<glyph unicode="&#x2b0;" horiz-adv-x="815" d="M123 719v786q0 25 17 42.5t42 17.5t41.5 -17.5t16.5 -42.5v-286q40 45 103 76.5t134 31.5q215 0 215 -219v-389q0 -25 -17 -42.5t-42 -17.5q-26 0 -43 17.5t-17 42.5v362q0 81 -37 114.5t-108 33.5q-55 0 -105.5 -27.5t-82.5 -66.5v-416q0 -25 -17 -42.5t-43 -17.5 q-23 0 -40 17.5t-17 42.5z" />
<glyph unicode="&#x2c6;" horiz-adv-x="542" d="M29 1171q0 11 6 23l143 213q27 39 74 39h37q46 0 73 -39l144 -213q6 -12 6 -23q0 -20 -13 -32.5t-32 -12.5q-24 0 -33 15l-164 215l-164 -215q-9 -15 -32 -15q-19 0 -32 12.5t-13 32.5z" />
<glyph unicode="&#x2dc;" horiz-adv-x="641" d="M2 1188q11 107 62 170t135 63q29 0 52 -8t43.5 -28t29.5 -32t28 -40q38 -54 58 -67q19 -13 41 -13q38 0 64 36t32 107q1 18 14 29.5t31 11.5q20 0 34 -14.5t13 -34.5q-11 -108 -62 -170.5t-135 -62.5q-29 0 -52.5 8.5t-43.5 27.5t-30.5 32t-28.5 40q-18 28 -28 40.5 t-29 26t-40 13.5q-38 0 -65 -36t-33 -107q-2 -18 -14.5 -29.5t-30.5 -11.5q-20 0 -33.5 15t-11.5 34z" />
<glyph unicode="&#x2000;" horiz-adv-x="929" />
<glyph unicode="&#x2001;" horiz-adv-x="1858" />
<glyph unicode="&#x2002;" horiz-adv-x="929" />
<glyph unicode="&#x2003;" horiz-adv-x="1858" />
<glyph unicode="&#x2004;" horiz-adv-x="619" />
<glyph unicode="&#x2005;" horiz-adv-x="464" />
<glyph unicode="&#x2006;" horiz-adv-x="309" />
<glyph unicode="&#x2007;" horiz-adv-x="309" />
<glyph unicode="&#x2008;" horiz-adv-x="232" />
<glyph unicode="&#x2009;" horiz-adv-x="371" />
<glyph unicode="&#x200a;" horiz-adv-x="103" />
<glyph unicode="&#x2010;" horiz-adv-x="614" d="M53 496q0 28 20 47.5t48 19.5h373q28 0 47.5 -19.5t19.5 -47.5t-19.5 -48t-47.5 -20h-373q-28 0 -48 20t-20 48z" />
<glyph unicode="&#x2011;" horiz-adv-x="614" d="M53 496q0 28 20 47.5t48 19.5h373q28 0 47.5 -19.5t19.5 -47.5t-19.5 -48t-47.5 -20h-373q-28 0 -48 20t-20 48z" />
<glyph unicode="&#x2012;" horiz-adv-x="614" d="M53 496q0 28 20 47.5t48 19.5h373q28 0 47.5 -19.5t19.5 -47.5t-19.5 -48t-47.5 -20h-373q-28 0 -48 20t-20 48z" />
<glyph unicode="&#x2013;" horiz-adv-x="1214" d="M53 496q0 28 20 47.5t48 19.5h973q28 0 47.5 -19.5t19.5 -47.5t-19.5 -48t-47.5 -20h-973q-28 0 -48 20t-20 48z" />
<glyph unicode="&#x2014;" horiz-adv-x="1705" d="M53 496q0 28 20 47.5t48 19.5h1464q28 0 48 -19.5t20 -47.5t-20 -48t-48 -20h-1464q-28 0 -48 20t-20 48z" />
<glyph unicode="&#x2018;" horiz-adv-x="471" d="M96 1079q0 80 38.5 155.5t103.5 133.5q7 10 30 10q20 0 33.5 -13.5t13.5 -33.5q0 -21 -14 -35q-39 -37 -64.5 -80t-29.5 -81q6 2 26 2q43 0 72 -30t29 -75q0 -44 -32.5 -76t-76.5 -32q-54 0 -91.5 41.5t-37.5 113.5z" />
<glyph unicode="&#x2019;" horiz-adv-x="471" d="M123 1276q0 45 31.5 77.5t76.5 32.5q54 0 91.5 -41.5t37.5 -113.5q0 -81 -38 -157.5t-103 -131.5q-12 -12 -31 -12q-20 0 -33.5 13.5t-13.5 33.5q0 22 15 37q84 81 94 162q-15 -5 -29 -5q-43 0 -70.5 29.5t-27.5 75.5z" />
<glyph unicode="&#x201a;" horiz-adv-x="471" d="M123 94q0 45 31.5 78t76.5 33q53 0 91 -42.5t38 -113.5q0 -82 -38 -157.5t-103 -131.5q-12 -12 -31 -12q-20 0 -33.5 13.5t-13.5 33.5q0 23 15 35q85 85 94 164q-12 -4 -29 -4q-43 0 -70.5 29t-27.5 75z" />
<glyph unicode="&#x201c;" horiz-adv-x="798" d="M111 1079q0 81 37.5 156t101.5 133q10 10 31 10q20 0 34.5 -13.5t14.5 -33.5q0 -18 -17 -35q-86 -86 -92 -161q4 2 27 2q43 0 70.5 -29.5t27.5 -75.5q0 -45 -31.5 -76.5t-76.5 -31.5q-54 0 -90.5 41.5t-36.5 113.5zM438 1079q0 80 38 155.5t102 133.5q10 10 32 10 q19 0 33 -13.5t14 -33.5q0 -18 -14 -35q-88 -85 -94 -161q4 2 26 2q43 0 72 -30t29 -75q0 -44 -32.5 -76t-78.5 -32q-54 0 -90.5 41.5t-36.5 113.5z" />
<glyph unicode="&#x201d;" horiz-adv-x="798" d="M123 1276q0 45 31.5 77.5t76.5 32.5q54 0 91.5 -41.5t37.5 -113.5q0 -81 -38 -157.5t-103 -131.5q-12 -12 -31 -12q-20 0 -33.5 13.5t-13.5 33.5q0 22 15 37q84 81 94 162q-15 -5 -29 -5q-43 0 -70.5 29.5t-27.5 75.5zM451 1276q0 44 32 77t76 33q54 0 91.5 -41.5 t37.5 -113.5q0 -81 -38 -157.5t-103 -131.5q-9 -12 -31 -12q-20 0 -33.5 13.5t-13.5 33.5q0 23 14 37q38 35 64.5 79.5t30.5 82.5q-15 -5 -27 -5q-43 0 -71.5 29.5t-28.5 75.5z" />
<glyph unicode="&#x201e;" horiz-adv-x="798" d="M123 94q0 45 31.5 78t76.5 33q53 0 91 -42.5t38 -113.5q0 -82 -38 -157.5t-103 -131.5q-12 -12 -31 -12q-20 0 -33.5 13.5t-13.5 33.5q0 23 15 35q85 85 94 164q-12 -4 -29 -4q-43 0 -70.5 29t-27.5 75zM451 94q0 45 32 78t76 33q53 0 91 -42.5t38 -113.5 q0 -82 -38 -157.5t-103 -131.5q-9 -12 -31 -12q-20 0 -33.5 13.5t-13.5 33.5q0 24 14 35q86 82 95 164q-12 -4 -27 -4q-43 0 -71.5 29.5t-28.5 74.5z" />
<glyph unicode="&#x2022;" horiz-adv-x="733" d="M147 496q0 91 65.5 156t156.5 65t156 -65t65 -156q0 -90 -65 -155t-156 -65t-156.5 65.5t-65.5 154.5z" />
<glyph unicode="&#x2026;" horiz-adv-x="1413" d="M123 92q0 46 32.5 79.5t77.5 33.5q46 0 79.5 -33.5t33.5 -79.5q0 -44 -34 -78t-79 -34t-77.5 33.5t-32.5 78.5zM594 92q0 46 32.5 79.5t78.5 33.5t80 -33.5t34 -79.5q0 -44 -34 -78t-80 -34q-45 0 -78 33.5t-33 78.5zM1065 92q0 46 33.5 79.5t79.5 33.5t79 -33.5 t33 -79.5q0 -45 -33.5 -78.5t-78.5 -33.5q-46 0 -79.5 34t-33.5 78z" />
<glyph unicode="&#x202f;" horiz-adv-x="371" />
<glyph unicode="&#x2032;" horiz-adv-x="415" d="M76 887q119 428 125 442q10 26 34 41.5t52 15.5q41 0 67.5 -27.5t26.5 -66.5q0 -20 -6 -35q-13 -30 -219 -403q-13 -20 -37 -20q-22 0 -34.5 15.5t-8.5 37.5z" />
<glyph unicode="&#x2033;" horiz-adv-x="733" d="M76 887q119 428 125 442q10 26 34 41.5t52 15.5q41 0 67.5 -27.5t26.5 -66.5q0 -20 -6 -35q-13 -30 -219 -403q-13 -20 -37 -20q-22 0 -34.5 15.5t-8.5 37.5zM395 887q9 31 40.5 147.5t55 200t27.5 94.5q10 26 35 41.5t53 15.5q39 0 66.5 -27.5t27.5 -66.5q0 -22 -8 -35 q-6 -17 -219 -403q-13 -20 -37 -20q-20 0 -32.5 15.5t-8.5 37.5z" />
<glyph unicode="&#x2039;" horiz-adv-x="604" d="M90 498q0 33 29 65l260 287q15 18 43 18q24 0 40.5 -16.5t16.5 -40.5q0 -19 -14 -37l-250 -276l252 -281q14 -17 14 -39q0 -23 -17 -40t-42 -17t-43 18l-260 293q-29 37 -29 66z" />
<glyph unicode="&#x203a;" horiz-adv-x="604" d="M123 178q0 22 14 39l252 281l-250 276q-14 18 -14 37q0 24 16.5 40.5t40.5 16.5q28 0 43 -18l260 -287q29 -32 29 -65q0 -29 -29 -66l-260 -293q-18 -18 -43 -18t-42 17t-17 40z" />
<glyph unicode="&#x2044;" horiz-adv-x="282" d="M-317 37q0 17 6 29l823 1288q11 20 41 20q20 0 33.5 -13.5t13.5 -33.5q0 -15 -6 -27l-825 -1288q-13 -20 -39 -20q-20 0 -33.5 13t-13.5 32z" />
<glyph unicode="&#x205f;" horiz-adv-x="464" />
<glyph unicode="&#x2070;" d="M68 1272q0 80 19 152.5t56.5 134t103 98.5t150.5 37q84 0 149.5 -37t103.5 -98.5t57.5 -134.5t19.5 -152q0 -63 -11.5 -122.5t-37.5 -114.5t-64 -96.5t-93.5 -66t-123.5 -24.5t-124.5 24.5t-93.5 66t-62.5 97t-37 114.5t-11.5 122zM193 1272q0 -66 11 -122t34 -102.5 t63.5 -73t95.5 -26.5q54 0 94.5 26.5t63.5 73t34 102.5t11 122q0 89 -18.5 158t-66 116t-118.5 47q-55 0 -95.5 -26.5t-63.5 -72.5t-34 -101.5t-11 -120.5z" />
<glyph unicode="&#x2074;" horiz-adv-x="724" d="M41 1126q0 13 10 33l328 483q30 48 88 48q44 0 75 -32t31 -75v-416h78q20 0 34.5 -14.5t14.5 -34.5q0 -22 -14.5 -36.5t-34.5 -14.5h-78v-152q0 -26 -17 -43.5t-42 -17.5q-26 0 -43.5 17.5t-17.5 43.5v152h-353q-25 0 -42 17t-17 42zM174 1167h279v406z" />
<glyph unicode="&#x2075;" horiz-adv-x="745" d="M82 987q0 23 15 39t38 16q19 0 37 -14q80 -80 201 -80q83 0 135.5 48t52.5 120q0 77 -50.5 123.5t-133.5 46.5q-98 0 -170 -61q-20 -17 -45 -17q-27 0 -47.5 20.5t-20.5 47.5v315q0 43 23.5 66.5t66.5 23.5h402q22 0 36.5 -14.5t14.5 -36.5q0 -20 -14.5 -34.5 t-36.5 -14.5h-369v-274q77 73 197 73q113 0 191.5 -68.5t78.5 -191.5t-87.5 -197.5t-223.5 -74.5q-173 0 -273 100q-18 15 -18 39z" />
<glyph unicode="&#x2076;" d="M78 1270q0 119 38 213t120 152.5t198 58.5q118 0 205 -68q23 -15 23 -41q0 -22 -14.5 -37.5t-35.5 -15.5q-17 0 -30 10q-64 51 -148 51q-77 0 -131.5 -44.5t-78 -110t-23.5 -144.5v-34q36 48 100 86t135 38q121 0 201 -70t80 -196q0 -113 -83 -191.5t-218 -78.5 q-89 0 -155.5 33.5t-105.5 93t-58 133.5t-19 162zM205 1171q3 -41 16 -79t36.5 -71t62.5 -53t90 -20q85 0 134.5 51.5t49.5 114.5q0 84 -53.5 128t-134.5 44q-58 0 -112.5 -31t-88.5 -84z" />
<glyph unicode="&#x2077;" horiz-adv-x="643" d="M8 1630q0 21 15 36t36 15h506q23 0 39.5 -16t16.5 -39q0 -12 -7 -22l-329 -713q-16 -37 -58 -37q-25 0 -43 17.5t-18 43.5q0 15 6 27l303 639h-416q-20 0 -35.5 14.5t-15.5 34.5z" />
<glyph unicode="&#x2078;" d="M84 1071q0 78 59.5 134.5t147.5 78.5q-84 20 -138.5 70t-54.5 125q0 72 46 122.5t111.5 71.5t141.5 21t141.5 -21t111.5 -71.5t46 -122.5q0 -75 -54.5 -125t-137.5 -70q88 -22 147.5 -78.5t59.5 -134.5q0 -105 -91 -164t-223 -59q-134 0 -223.5 58t-89.5 165zM205 1081 q0 -62 55.5 -99.5t136.5 -37.5q80 0 135.5 37.5t55.5 99.5q0 39 -22.5 70t-56.5 48.5t-62 27t-50 12.5q-22 -3 -50 -12.5t-62 -27t-57 -48.5t-23 -70zM219 1464q0 -35 20.5 -62t53.5 -42.5t56.5 -23t47.5 -11.5q24 4 47 11.5t56 23t53 42.5t20 62q0 61 -50 96t-126 35 q-78 0 -128 -35t-50 -96z" />
<glyph unicode="&#x2079;" d="M78 1423q0 113 84 192t219 79q88 0 154 -34t105 -93.5t58 -134t19 -162.5q0 -87 -22.5 -162.5t-65.5 -134t-112.5 -92t-156.5 -33.5q-120 0 -204 65q-25 18 -25 43q0 22 15.5 38t37.5 16q14 0 29 -11q60 -51 147 -51q112 0 172 87t62 214v33q-35 -49 -99 -87t-135 -38 q-122 0 -202 69.5t-80 196.5zM201 1427q0 -84 53.5 -128t134.5 -44q59 0 113.5 30.5t87.5 84.5q-3 41 -16 78.5t-36 71t-62 53.5t-89 20q-86 0 -136 -51.5t-50 -114.5z" />
<glyph unicode="&#x207d;" horiz-adv-x="329" d="M53 1272q0 139 43 274t123 248q12 18 35 18q19 0 32 -13t13 -30q0 -11 -6 -20q-58 -120 -85.5 -230t-27.5 -247t27.5 -248.5t85.5 -226.5q4 -8 4 -23q0 -18 -12.5 -30.5t-30.5 -12.5q-21 0 -35 17q-80 113 -123 249t-43 275z" />
<glyph unicode="&#x207e;" horiz-adv-x="329" d="M57 774q0 15 4 23q58 116 86.5 227.5t28.5 247.5t-28 246t-87 231q-4 6 -4 20q0 18 12.5 30.5t30.5 12.5q23 0 35 -18q81 -112 124.5 -247t43.5 -275t-43.5 -276t-124.5 -248q-14 -17 -35 -17q-18 0 -30.5 12.5t-12.5 30.5z" />
<glyph unicode="&#x207f;" horiz-adv-x="815" d="M123 719v541q0 25 17 42t42 17t42.5 -17t17.5 -42v-43q38 45 101 77.5t134 32.5q117 0 166 -56.5t49 -162.5v-389q0 -25 -17 -42.5t-42 -17.5t-42.5 17.5t-17.5 42.5v358q0 152 -143 152q-56 0 -106.5 -27.5t-81.5 -66.5v-416q0 -25 -17.5 -42.5t-42.5 -17.5t-42 17.5 t-17 42.5z" />
<glyph unicode="&#x2080;" d="M68 111q0 63 11.5 122t37 114t62.5 95.5t93.5 65t124.5 24.5t123.5 -24.5t93.5 -65t64 -95.5t37.5 -114t11.5 -122t-11.5 -122.5t-37.5 -114.5t-64 -96.5t-93.5 -66t-123.5 -24.5t-124.5 24.5t-93.5 66t-62.5 97t-37 114.5t-11.5 122zM193 111q0 -66 11 -122t34 -102.5 t63.5 -73t95.5 -26.5q54 0 94.5 26.5t63.5 73t34 102.5t11 122q0 89 -18.5 158t-66 116t-118.5 47q-55 0 -95.5 -26.5t-63.5 -72.5t-34 -101.5t-11 -120.5z" />
<glyph unicode="&#x2081;" horiz-adv-x="468" d="M31 289q0 21 16 37l180 182q20 20 49 20t49.5 -20t20.5 -49v-705q0 -25 -17.5 -43t-43.5 -18t-44 18t-18 43v606l-102 -108q-16 -16 -39 -16q-22 0 -36.5 15.5t-14.5 37.5z" />
<glyph unicode="&#x2082;" horiz-adv-x="704" d="M33 -238q0 31 26 50q242 168 346.5 273.5t104.5 197.5q0 73 -51 111t-123 38q-115 0 -201 -76q-14 -14 -33 -14q-22 0 -36.5 15.5t-14.5 37.5t17 39q107 98 272 98q122 0 207.5 -62t85.5 -179q0 -115 -103 -228.5t-309 -261.5h375q20 0 35.5 -14.5t15.5 -34.5 q0 -21 -15 -36t-36 -15h-502q-25 0 -43 17.5t-18 43.5z" />
<glyph unicode="&#x2083;" horiz-adv-x="753" d="M55 -172q0 21 15.5 36t38.5 15q20 0 32 -12q90 -80 207 -80q89 0 140 38.5t51 104.5q0 74 -58 108t-155 34h-41q-21 0 -36.5 14t-15.5 35q0 20 15.5 34.5t36.5 14.5h39q200 0 200 131q0 61 -52 96t-130 35q-112 0 -195 -74q-13 -10 -32 -10q-20 0 -34.5 14.5t-14.5 34.5 q0 21 18 39q115 96 268 96q132 0 213.5 -59.5t81.5 -159.5q0 -81 -55.5 -129.5t-126.5 -60.5q43 -3 86 -24t77 -67.5t34 -107.5q0 -105 -84.5 -171t-225.5 -66q-173 0 -280 100q-17 17 -17 41z" />
<glyph unicode="&#x2084;" horiz-adv-x="724" d="M41 -35q0 13 10 33l328 483q29 47 88 47q44 0 75 -31.5t31 -74.5v-416h78q20 0 34.5 -14.5t14.5 -34.5q0 -22 -14.5 -36.5t-34.5 -14.5h-78v-152q0 -26 -17 -43.5t-42 -17.5q-26 0 -43.5 17.5t-17.5 43.5v152h-353q-25 0 -42 17t-17 42zM174 6h279v406z" />
<glyph unicode="&#x2085;" horiz-adv-x="745" d="M82 -174q0 23 15 39t38 16q19 0 37 -14q80 -80 201 -80q83 0 135.5 48t52.5 120q0 77 -50.5 123.5t-133.5 46.5q-96 0 -170 -62q-19 -16 -45 -16q-27 0 -47.5 20.5t-20.5 47.5v315q0 43 23.5 66.5t66.5 23.5h402q22 0 36.5 -14.5t14.5 -36.5q0 -20 -14.5 -34.5 t-36.5 -14.5h-369v-275q78 74 197 74q113 0 191.5 -68.5t78.5 -191.5t-87.5 -197.5t-223.5 -74.5q-173 0 -273 100q-18 15 -18 39z" />
<glyph unicode="&#x2086;" d="M78 109q0 183 92 303t264 120q119 0 205 -67q23 -15 23 -41q0 -22 -14.5 -37.5t-35.5 -15.5q-17 0 -30 10q-64 51 -148 51q-77 0 -131.5 -44.5t-78 -110t-23.5 -144.5v-35q36 48 100 86.5t135 38.5q121 0 201 -70t80 -196q0 -113 -83 -191.5t-218 -78.5 q-89 0 -155.5 33.5t-105.5 93t-58 133.5t-19 162zM205 10q3 -41 16 -79t36.5 -71t62.5 -53t90 -20q85 0 134.5 51.5t49.5 114.5q0 84 -53.5 128t-134.5 44q-58 0 -112.5 -31t-88.5 -84z" />
<glyph unicode="&#x2087;" horiz-adv-x="643" d="M8 469q0 21 15 36t36 15h506q23 0 39.5 -16t16.5 -39q0 -13 -7 -23l-329 -712q-16 -37 -58 -37q-25 0 -43 17.5t-18 43.5q0 15 6 27l303 639h-416q-20 0 -35.5 14.5t-15.5 34.5z" />
<glyph unicode="&#x2088;" d="M84 -90q0 78 59.5 134.5t147.5 78.5q-84 21 -138.5 70t-54.5 124q0 72 46 122.5t111.5 71.5t141.5 21t141.5 -21t111.5 -71.5t46 -122.5q0 -75 -54 -124.5t-138 -69.5q88 -22 147.5 -78.5t59.5 -134.5q0 -105 -91 -164t-223 -59q-134 0 -223.5 58t-89.5 165zM205 -80 q0 -62 55.5 -99.5t136.5 -37.5q80 0 135.5 37.5t55.5 99.5q0 39 -22.5 70t-56.5 48.5t-62 27t-50 12.5q-22 -3 -50 -12.5t-62 -27t-57 -48.5t-23 -70zM219 303q0 -35 20.5 -62t53.5 -42.5t56.5 -23t47.5 -11.5q24 4 47 11.5t56 23t53 42.5t20 62q0 61 -50 96t-126 35 q-78 0 -128 -35t-50 -96z" />
<glyph unicode="&#x2089;" d="M78 262q0 112 83.5 191t219.5 79q88 0 154 -33.5t105 -93t58 -134t19 -162.5q0 -87 -22.5 -162.5t-65.5 -134t-112.5 -92t-156.5 -33.5q-120 0 -204 65q-25 18 -25 43q0 22 15.5 37.5t37.5 15.5q16 0 29 -10q60 -51 147 -51q112 0 172 87t62 214v33q-35 -49 -99 -87 t-135 -38q-122 0 -202 69.5t-80 196.5zM201 266q0 -84 53.5 -128t134.5 -44q59 0 113.5 30.5t87.5 84.5q-3 41 -16 78.5t-36 71t-62 53.5t-89 20q-86 0 -136 -51.5t-50 -114.5z" />
<glyph unicode="&#x208d;" horiz-adv-x="329" d="M53 111q0 139 43 274t123 248q12 18 35 18q19 0 32 -13t13 -30q0 -11 -6 -20q-58 -120 -85.5 -230t-27.5 -247t27.5 -249.5t85.5 -226.5q4 -8 4 -22q0 -18 -12.5 -30.5t-30.5 -12.5q-22 0 -35 16q-80 113 -123 249.5t-43 275.5z" />
<glyph unicode="&#x208e;" horiz-adv-x="329" d="M57 -387q0 14 4 22q58 116 86.5 228t28.5 248t-28 246t-87 231q-4 6 -4 20q0 18 12.5 30.5t30.5 12.5q23 0 35 -18q81 -112 124.5 -247t43.5 -275t-43.5 -276.5t-124.5 -248.5q-13 -16 -35 -16q-18 0 -30.5 12.5t-12.5 30.5z" />
<glyph unicode="&#x20ac;" horiz-adv-x="1423" d="M53 539q0 21 17 37t39 16h43q-5 72 -5 90q0 40 7 94h-45q-22 0 -39 16t-17 37q0 22 17 38t39 16h63q61 230 245.5 368t426.5 138q283 0 469 -199q20 -20 20 -55q0 -32 -24 -56t-56 -24q-38 0 -61 26q-65 72 -155.5 114t-192.5 42q-170 0 -302 -96t-188 -258h576 q22 0 37.5 -16t15.5 -38t-15.5 -37.5t-37.5 -15.5h-600q-6 -46 -6 -94q0 -46 6 -90h600q22 0 37.5 -15.5t15.5 -37.5t-15.5 -38t-37.5 -16h-576q54 -163 186.5 -260.5t303.5 -97.5q103 0 193.5 41.5t154.5 114.5q26 26 61 26q33 0 57.5 -23.5t24.5 -56.5t-22 -55 q-186 -199 -469 -199q-244 0 -428 139.5t-244 370.5h-63q-22 0 -39 16t-17 38z" />
<glyph unicode="&#x2122;" horiz-adv-x="929" d="M27 1339q0 10 7.5 18.5t16.5 8.5h279q9 0 16.5 -8.5t7.5 -18.5t-7.5 -18t-16.5 -8h-111v-379q0 -11 -8.5 -19t-20.5 -8t-20 8t-8 19v379h-111q-9 0 -16.5 8t-7.5 18zM420 934v391q0 17 12 29t29 12h6q41 0 55 -39l117 -289l117 289q14 39 55 39h6q17 0 29 -12t12 -29 v-391q0 -11 -8.5 -19t-20.5 -8t-20 8t-8 19v354l-146 -336q-5 -10 -16 -10t-16 10l-146 336v-354q0 -11 -8 -19t-20 -8t-20.5 8t-8.5 19z" />
<glyph unicode="&#x25fc;" horiz-adv-x="993" d="M0 0v993h993v-993h-993z" />
<glyph unicode="&#xf6df;" horiz-adv-x="628" d="M57 111q0 121 73.5 206.5t191.5 100.5v55q0 18 12.5 30.5t30.5 12.5q17 0 30 -13t13 -30v-53q93 -8 159 -74q17 -14 17 -35t-14 -35t-35 -14q-19 0 -33 14q-43 43 -94 52v-437q51 9 94 52q11 14 33 14q21 0 35 -14t14 -35q0 -20 -17 -37q-69 -62 -159 -70v-75 q0 -17 -13 -30t-30 -13q-18 0 -30.5 12.5t-12.5 30.5v75q-119 17 -192 103t-73 207zM172 111q0 -81 41 -140.5t109 -76.5v430q-68 -17 -109 -74.5t-41 -138.5z" />
<glyph unicode="&#xf6e0;" horiz-adv-x="628" d="M57 1272q0 121 73.5 206.5t191.5 100.5v55q0 18 12.5 30.5t30.5 12.5q17 0 30 -13t13 -30v-53q93 -8 159 -74q17 -14 17 -34q0 -21 -14 -35.5t-35 -14.5q-18 0 -33 15q-42 42 -94 51v-436q52 9 94 51q11 14 33 14q21 0 35 -14t14 -35q0 -20 -17 -37q-68 -61 -159 -69v-76 q0 -17 -13 -30t-30 -13q-18 0 -30.5 12.5t-12.5 30.5v76q-119 17 -192 102.5t-73 206.5zM172 1272q0 -81 41 -140.5t109 -76.5v430q-68 -17 -109 -74.5t-41 -138.5z" />
<glyph unicode="&#xf6e1;" horiz-adv-x="284" d="M59 -231q0 31 22 53t54 22q35 0 57.5 -26.5t22.5 -67.5q0 -57 -24.5 -108.5t-63.5 -85.5q-12 -9 -23 -9q-13 0 -22.5 9.5t-9.5 23.5q0 15 10 25q25 19 41 45.5t16 44.5h-6q-28 0 -51 22t-23 52z" />
<glyph unicode="&#xf6e2;" horiz-adv-x="284" d="M59 930q0 31 22 53.5t54 22.5q35 0 57.5 -27t22.5 -68q0 -57 -24.5 -108.5t-63.5 -85.5q-11 -8 -23 -8q-14 0 -23 9.5t-9 22.5q0 15 10 25q25 19 41 45.5t16 44.5h-6q-28 0 -51 22t-23 52z" />
<glyph unicode="&#xf6e3;" horiz-adv-x="757" d="M66 -170q0 23 16 39t39 16q19 0 35 -12q88 -77 190 -88v287q-49 11 -81.5 20t-73.5 27t-65 41t-41 59.5t-17 83.5q0 94 77.5 158.5t200.5 70.5v78q0 18 12.5 30.5t30.5 12.5q19 0 31 -12t12 -31v-82q129 -17 219 -90q21 -18 21 -43q0 -21 -15 -36t-36 -15q-15 0 -31 12 q-72 63 -158 78v-260q49 -12 81.5 -22t72.5 -30t64 -43.5t40.5 -61.5t16.5 -85q0 -105 -70.5 -169t-204.5 -74v-76q0 -19 -12 -31t-31 -12q-18 0 -30.5 12.5t-12.5 30.5v76q-151 8 -260 96q-20 17 -20 45zM195 311q0 -47 37.5 -71.5t113.5 -44.5v241q-67 -6 -109 -40.5 t-42 -84.5zM432 49v-264q72 10 110 46.5t38 88.5t-38 80.5t-110 48.5z" />
<glyph unicode="&#xf6e4;" horiz-adv-x="757" d="M66 991q0 23 16 39.5t39 16.5q18 0 35 -13q88 -77 190 -88v287q-49 11 -81.5 20t-73.5 27t-65 41t-41 59.5t-17 83.5q0 94 78 159t200 71v78q0 18 12.5 30.5t30.5 12.5q19 0 31 -12t12 -31v-82q128 -17 219 -91q21 -17 21 -43q0 -21 -15 -36t-36 -15q-14 0 -31 13 q-70 62 -158 77v-260q49 -12 81.5 -22t72.5 -29.5t64 -43t40.5 -61.5t16.5 -85q0 -105 -70.5 -169.5t-204.5 -74.5v-76q0 -19 -12 -31t-31 -12q-18 0 -30.5 12.5t-12.5 30.5v76q-151 8 -260 96q-20 17 -20 45zM195 1473q0 -47 38 -72t113 -45v241q-67 -6 -109 -40t-42 -84z M432 946q72 10 110 46.5t38 88.5q0 53 -38 81t-110 48v-264z" />
<glyph unicode="&#xf6e5;" horiz-adv-x="374" d="M25 111q0 18 14.5 31.5t34.5 13.5h227q20 0 35.5 -14t15.5 -31q0 -20 -15.5 -35t-35.5 -15h-227q-20 0 -34.5 15t-14.5 35z" />
<glyph unicode="&#xf6e6;" horiz-adv-x="374" d="M25 1272q0 19 14.5 33t34.5 14h227q20 0 35.5 -14t15.5 -33q0 -20 -15.5 -34.5t-35.5 -14.5h-227q-20 0 -34.5 14.5t-14.5 34.5z" />
<glyph unicode="&#xf6e7;" horiz-adv-x="290" d="M68 -231q0 31 23.5 53t55.5 22q31 0 53.5 -22t22.5 -53t-22.5 -53.5t-53.5 -22.5q-32 0 -55.5 22.5t-23.5 53.5z" />
<glyph unicode="&#xf6e8;" horiz-adv-x="290" d="M68 930q0 31 23.5 53.5t55.5 22.5q31 0 53.5 -22.5t22.5 -53.5t-22.5 -53.5t-53.5 -22.5q-32 0 -55.5 22.5t-23.5 53.5z" />
<glyph unicode="&#xf6eb;" horiz-adv-x="839" d="M82 989q0 153 83 245.5t212 92.5q136 0 219 -110v288q0 25 17 42.5t42 17.5q26 0 43 -17.5t17 -42.5v-786q0 -25 -16.5 -42.5t-41.5 -17.5t-42 17.5t-17 42.5v41q-84 -109 -221 -109q-130 0 -212.5 91.5t-82.5 246.5zM205 989q0 -109 55 -176.5t148 -67.5 q58 0 110.5 26.5t79.5 66.5v301q-28 39 -80 65.5t-110 26.5q-93 0 -148 -67.5t-55 -174.5z" />
<glyph unicode="&#xf6f1;" horiz-adv-x="491" d="M123 719v541q0 25 17 42t42 17t42.5 -17t17.5 -42v-48q46 63 106 95q34 18 66 18q24 0 39.5 -15.5t15.5 -37.5t-13 -38t-34 -17q-28 0 -55 -9q-39 -12 -74 -34.5t-51 -51.5v-403q0 -25 -17.5 -42.5t-42.5 -17.5t-42 17.5t-17 42.5z" />
<glyph unicode="&#xf6f2;" horiz-adv-x="675" d="M66 770q0 20 13 33.5t32 13.5q13 0 26 -10q87 -70 193 -70q71 0 111 29.5t40 77.5q0 31 -25.5 53t-46.5 29t-79 22q-4 2 -7 2.5t-7 1.5t-7 2q-46 10 -69.5 16t-61.5 21.5t-57 33t-34 47.5t-15 69q0 77 67.5 131.5t184.5 54.5q132 0 225 -72q16 -13 16 -34q0 -19 -13 -32 t-30 -13q-13 0 -26 10q-68 55 -168 55q-65 0 -103.5 -28t-38.5 -72q0 -15 5 -26.5t18.5 -21t24 -15.5t34.5 -12.5t36 -9.5t42 -9q45 -9 71 -15.5t64.5 -22t59.5 -34t37 -50.5t16 -73q0 -87 -69.5 -144t-196.5 -57q-145 0 -246 84q-16 13 -16 35z" />
<glyph unicode="&#xf6f3;" horiz-adv-x="421" d="M8 1268q0 17 14 30t31 13h74v125q0 25 16.5 42t42.5 17q25 0 42.5 -17t17.5 -42v-125h98q17 0 30 -13t13 -32q0 -17 -13 -30t-30 -13h-98v-396q0 -36 16.5 -57.5t46.5 -21.5q20 0 29 6q2 1 7.5 2t8.5 2q21 3 37.5 -10.5t16.5 -34.5q0 -25 -25 -39q-48 -23 -98 -23 q-77 0 -117.5 41.5t-40.5 118.5v412h-74q-18 0 -31.5 13.5t-13.5 31.5z" />
<glyph horiz-adv-x="1253" d="M104 682q0 104 18 202t58.5 190t100 160.5t148.5 110t198 41.5q108 0 197 -41.5t148.5 -110t100 -160.5t58.5 -190.5t18 -201.5t-18 -201.5t-58.5 -191t-100 -161.5t-148.5 -111t-197 -42q-109 0 -198 42t-148.5 111t-100 162t-58.5 191t-18 201zM279 682q0 -208 61 -350 l504 809q-87 94 -217 94q-75 0 -135.5 -31.5t-99.5 -84.5t-65 -125.5t-37 -149.5t-11 -162zM408 225q85 -98 219 -98q93 0 163 47.5t109 129t57.5 176t18.5 202.5q0 210 -64 352z" />
<glyph horiz-adv-x="845" d="M66 1008q0 31 20 51l279 287q31 28 69 28q41 0 71 -29t30 -69v-1124h165q31 0 53.5 -22.5t22.5 -53.5t-22.5 -53.5t-53.5 -22.5h-493q-31 0 -54.5 22.5t-23.5 53.5t23.5 53.5t54.5 22.5h158v989l-175 -185q-19 -22 -51 -22q-31 0 -52 21.5t-21 52.5z" />
<glyph horiz-adv-x="1224" d="M90 682q0 103 18 201.5t58.5 190.5t100 160.5t148.5 110t197 41.5t197 -41.5t148.5 -110t100.5 -160.5t59 -190.5t18 -201.5t-18 -201.5t-59 -191t-100.5 -161.5t-148.5 -111t-197 -42t-197 42t-148.5 111t-100 161.5t-58.5 191t-18 201.5zM264 682q0 -108 18.5 -202.5 t57.5 -176t109 -129t163 -47.5q75 0 135.5 32t100 85t65.5 125.5t37 150t11 162.5t-11 162t-37 149.5t-65.5 125.5t-100 84.5t-135.5 31.5t-135.5 -31.5t-99.5 -84.5t-65 -125.5t-37 -149.5t-11 -162z" />
<glyph horiz-adv-x="1224" d="M256 942q0 30 20 53l338 351q28 28 70 28t71 -29t29 -69v-1200q0 -34 -24.5 -59t-59.5 -25t-60.5 25t-25.5 59v1065l-233 -248q-20 -23 -51 -23t-52.5 21.5t-21.5 50.5z" />
<glyph horiz-adv-x="1224" d="M119 90q0 45 37 74q132 102 221 174t179.5 151t146 139t101 123t65.5 120t20 114q0 63 -24.5 112t-66 78.5t-91 44.5t-103.5 15q-198 0 -328 -127q-25 -18 -51 -18q-32 0 -53.5 22.5t-21.5 54.5q0 35 26 58q169 161 426 161q87 0 167.5 -25t146.5 -73t105.5 -126.5 t39.5 -176.5q0 -68 -21.5 -136.5t-67 -137.5t-99.5 -133t-135.5 -139t-157.5 -139t-183 -148h602q31 0 53.5 -22.5t22.5 -53.5t-22.5 -53.5t-53.5 -22.5h-788q-37 0 -64.5 26.5t-27.5 63.5z" />
<glyph horiz-adv-x="1224" d="M143 205q0 32 23 54t55 22q27 0 49 -19q138 -135 336 -135q149 0 234.5 68.5t85.5 187.5q0 123 -91 182.5t-249 59.5h-74q-31 0 -53.5 21.5t-22.5 53.5q0 31 22.5 53.5t53.5 22.5h74q139 0 228 56.5t89 168.5q0 110 -87.5 172t-217.5 62q-178 0 -315 -125 q-19 -16 -47 -16q-31 0 -52.5 21t-21.5 52q0 30 26 56q173 163 422 163q202 0 332.5 -97.5t130.5 -266.5q0 -70 -27.5 -128.5t-72.5 -96t-94 -60.5t-101 -32q50 -4 102.5 -26.5t101.5 -62t80.5 -104.5t31.5 -143q0 -174 -131 -284t-353 -110q-139 0 -252 47t-190 125 q-25 25 -25 58z" />
<glyph horiz-adv-x="1224" d="M94 444q0 29 19 56l540 807q44 67 123 67q60 0 104 -43t44 -104v-731h125q31 0 53 -21.5t22 -52.5q0 -32 -22 -54t-53 -22h-125v-270q0 -34 -25.5 -59t-60.5 -25t-59.5 25t-24.5 59v270h-557q-42 0 -72.5 28.5t-30.5 69.5zM274 496h480v712z" />
<glyph horiz-adv-x="1224" d="M164 201q0 32 23 55t55 23q29 0 51 -19q130 -133 330 -133q138 0 226.5 83.5t88.5 209.5q0 134 -86 214.5t-225 80.5q-159 0 -283 -101q-25 -22 -61 -22q-40 0 -69.5 29t-29.5 69v586q0 43 24 66.5t68 23.5h676q31 0 53.5 -22.5t22.5 -53.5t-22.5 -53.5t-53.5 -22.5h-598 v-475q55 54 139 88.5t181 34.5q87 0 165 -29t138.5 -83t96.5 -138t36 -186q0 -205 -138.5 -328t-348.5 -123q-272 0 -435 166q-24 24 -24 60z" />
<glyph horiz-adv-x="1224" d="M119 680q0 113 20.5 216t65 193t109 155.5t157.5 103.5t205 38q197 0 330 -120q32 -21 32 -62q0 -31 -22 -53.5t-53 -22.5q-30 0 -48 15q-99 92 -239 92q-96 0 -171.5 -45.5t-121 -123t-69 -171t-23.5 -197.5q0 -35 2 -53q49 81 156 147t229 66q93 0 173.5 -27.5 t141.5 -80.5t96 -137.5t35 -190.5q0 -89 -33.5 -170t-93.5 -142.5t-151 -98t-199 -36.5q-112 0 -202 38t-150 103t-100 155.5t-58 192t-18 216.5zM297 506q5 -54 18.5 -105t40.5 -101.5t64 -88t93.5 -61t125.5 -23.5q76 0 138 26.5t99.5 69t57.5 92.5t20 101 q0 144 -88.5 219.5t-226.5 75.5q-101 0 -193.5 -56.5t-148.5 -148.5z" />
<glyph horiz-adv-x="1224" d="M137 1290q0 31 22.5 53.5t53.5 22.5h795q32 0 55.5 -24t23.5 -58q0 -17 -8 -33l-540 -1208q-9 -23 -31 -37t-47 -14q-37 0 -61.5 24.5t-24.5 59.5q0 13 8 37l500 1101h-670q-31 0 -53.5 22.5t-22.5 53.5z" />
<glyph horiz-adv-x="1224" d="M123 346q0 129 94 223t232 136q-132 38 -218 119.5t-86 207.5q0 89 40.5 158.5t108.5 111t149 63t169 21.5q87 0 168.5 -21.5t150 -63t109.5 -111t41 -158.5q0 -65 -25 -120t-69 -94.5t-96.5 -67t-114.5 -45.5q138 -42 232 -136t94 -223q0 -112 -67 -197.5t-177.5 -129.5 t-245.5 -44q-136 0 -246 43.5t-176.5 129t-66.5 198.5zM293 365q0 -107 93.5 -172.5t225.5 -65.5q131 0 224.5 65.5t93.5 172.5q0 51 -25 95t-62.5 72.5t-82.5 50.5t-82 32.5t-66 13.5q-29 -3 -66 -13.5t-82.5 -32.5t-82.5 -50.5t-62.5 -72.5t-25.5 -95zM315 1010 q0 -47 23.5 -86.5t56.5 -64t77.5 -44t76.5 -28t63 -13.5q31 5 63.5 13.5t76.5 28t77 44t56.5 64t23.5 86.5q0 103 -85 164t-212 61q-128 0 -212.5 -61t-84.5 -164z" />
<glyph horiz-adv-x="1224" d="M100 942q0 89 33.5 169.5t94 142.5t152 98.5t200.5 36.5q112 0 202 -38t150 -103t100 -156t58 -193t18 -217q0 -113 -21 -215.5t-65.5 -192t-109 -155.5t-157 -104t-204.5 -38q-191 0 -332 121q-29 22 -29 62q0 31 22.5 53.5t53.5 22.5q22 0 45 -15q99 -92 240 -92 q80 0 145.5 31t109.5 83t74 121.5t43 144.5t13 155v55q-53 -81 -160 -147t-227 -66q-126 0 -225.5 47t-161.5 147.5t-62 241.5zM272 948q0 -144 89 -219.5t227 -75.5q100 0 193 55.5t149 147.5q-4 54 -18 105t-41 102t-65 89t-94.5 61.5t-125.5 23.5q-75 0 -136.5 -27 t-99.5 -69.5t-58 -92.5t-20 -100z" />
<glyph horiz-adv-x="1529" d="M104 682q0 156 55.5 289t150 224t223.5 142.5t274 51.5q282 0 471 -189q22 -19 22 -55q0 -33 -22 -55.5t-55 -22.5q-35 0 -58 23q-69 69 -161.5 108t-196.5 39q-148 0 -268 -70t-189 -197.5t-69 -287.5q0 -242 150.5 -399.5t375.5 -157.5q102 0 185.5 34.5t139.5 94.5 t90 135t46 162h-496q-31 0 -53.5 22.5t-22.5 53.5t22.5 53t53.5 22h584q45 0 69.5 -24.5t20.5 -69.5q-17 -189 -96 -331t-222 -223t-333 -81q-141 0 -267 52t-220 143t-149 225t-55 289z" />
<glyph horiz-adv-x="1177" d="M96 494q0 235 122.5 377.5t318.5 142.5q100 0 187 -46.5t146 -129.5v84q0 31 23 53t55 22q31 0 53.5 -22t22.5 -53v-854q0 -31 -22.5 -53.5t-53.5 -22.5q-32 0 -55 22.5t-23 53.5v79q-58 -78 -145 -125t-188 -47q-196 0 -318.5 140.5t-122.5 378.5zM256 494 q0 -168 85.5 -274.5t231.5 -106.5q90 0 172.5 44.5t124.5 110.5v449q-43 67 -125.5 113.5t-171.5 46.5q-146 0 -231.5 -107.5t-85.5 -275.5z" />
<glyph horiz-adv-x="548" d="M154 207v1091q0 31 22.5 53.5t54.5 22.5q31 0 53.5 -22.5t22.5 -53.5v-1058q0 -58 26 -92.5t75 -34.5q24 0 47 9t30 9q29 0 47.5 -18t18.5 -47q0 -42 -39 -58q-58 -33 -139 -33q-108 0 -163.5 60.5t-55.5 171.5z" />
<glyph horiz-adv-x="1128" d="M154 311v611q0 31 22.5 53t54.5 22q31 0 53.5 -22t22.5 -53v-564q0 -125 56.5 -176t164.5 -51q87 0 167.5 43.5t125.5 106.5v641q0 31 22.5 53t53.5 22q32 0 55 -22t23 -53v-895q0 -107 -36 -190.5t-99 -134.5t-143.5 -77t-174.5 -26q-203 0 -338 112q-26 19 -26 53 q0 28 19.5 48t45.5 20q23 0 41 -14q108 -92 258 -92q141 0 220 78.5t79 222.5v133q-62 -70 -155 -117t-197 -47q-315 0 -315 315z" />
<glyph horiz-adv-x="1462" d="M160 76v1214q0 34 25 59t61 25q34 0 59 -25t25 -59v-1214q0 -34 -25 -59t-59 -25q-36 0 -61 25t-25 59zM219 1513q0 19 14 29l234 227q15 15 37 15t36.5 -14.5t14.5 -36.5q0 -25 -18 -39l-248 -211q-10 -10 -29 -10q-17 0 -29 11.5t-12 28.5zM528 150q0 32 23 54.5 t57 22.5q24 0 45 -14q89 -86 205 -86q125 0 200 79.5t75 207.5v876q0 34 24.5 59t59.5 25t60.5 -25t25.5 -59v-878q0 -109 -33.5 -193.5t-93 -137t-137.5 -79.5t-171 -27q-186 0 -307 113q-33 23 -33 62zM1194 1548q0 18 14 29l234 227q15 15 37 15t36.5 -15t14.5 -37 q0 -23 -19 -38l-247 -211q-11 -11 -29 -11q-17 0 -29 12t-12 29z" />
<glyph horiz-adv-x="1177" d="M96 494q0 235 122.5 377.5t318.5 142.5q100 0 187 -46.5t146 -129.5v84q0 31 23 53t55 22q31 0 53.5 -22t22.5 -53v-854q0 -31 -22.5 -53.5t-53.5 -22.5q-32 0 -55 22.5t-23 53.5v79q-58 -78 -145 -125t-188 -47q-196 0 -318.5 140.5t-122.5 378.5zM256 494 q0 -168 85.5 -274.5t231.5 -106.5q90 0 172.5 44.5t124.5 110.5v449q-43 67 -125.5 113.5t-171.5 46.5q-146 0 -231.5 -107.5t-85.5 -275.5zM567 1212q0 18 15 29l233 227q15 15 37 15t36.5 -14.5t14.5 -36.5q0 -25 -18 -39l-248 -211q-11 -11 -29 -11q-17 0 -29 12t-12 29z " />
<glyph horiz-adv-x="1177" d="M96 494q0 235 122.5 377.5t318.5 142.5q100 0 187 -46.5t146 -129.5v84q0 31 23 53t55 22q31 0 53.5 -22t22.5 -53v-854q0 -31 -22.5 -53.5t-53.5 -22.5q-32 0 -55 22.5t-23 53.5v79q-58 -78 -145 -125t-188 -47q-196 0 -318.5 140.5t-122.5 378.5zM256 494 q0 -168 85.5 -274.5t231.5 -106.5q90 0 172.5 44.5t124.5 110.5v449q-43 67 -125.5 113.5t-171.5 46.5q-146 0 -231.5 -107.5t-85.5 -275.5zM354 1212q0 11 6 23l144 213q27 39 74 39h36q47 0 74 -39l143 -213q7 -14 7 -23q0 -20 -13 -32.5t-32 -12.5q-24 0 -33 15l-164 215 l-164 -215q-9 -15 -33 -15q-19 0 -32 12.5t-13 32.5z" />
<glyph horiz-adv-x="1177" d="M96 494q0 235 122.5 377.5t318.5 142.5q100 0 187 -46.5t146 -129.5v84q0 31 23 53t55 22q31 0 53.5 -22t22.5 -53v-854q0 -31 -22.5 -53.5t-53.5 -22.5q-32 0 -55 22.5t-23 53.5v79q-58 -78 -145 -125t-188 -47q-196 0 -318.5 140.5t-122.5 378.5zM256 494 q0 -168 85.5 -274.5t231.5 -106.5q90 0 172.5 44.5t124.5 110.5v449q-43 67 -125.5 113.5t-171.5 46.5q-146 0 -231.5 -107.5t-85.5 -275.5zM289 1296q0 38 28 66.5t66 28.5q39 0 66.5 -28t27.5 -67q0 -40 -27 -68t-67 -28q-38 0 -66 28t-28 68zM711 1296q0 38 28.5 66.5 t67.5 28.5q38 0 66 -28.5t28 -66.5q0 -40 -28 -68t-66 -28q-40 0 -68 28t-28 68z" />
<glyph horiz-adv-x="1177" d="M96 494q0 235 122.5 377.5t318.5 142.5q100 0 187 -46.5t146 -129.5v84q0 31 23 53t55 22q31 0 53.5 -22t22.5 -53v-854q0 -31 -22.5 -53.5t-53.5 -22.5q-32 0 -55 22.5t-23 53.5v79q-58 -78 -145 -125t-188 -47q-196 0 -318.5 140.5t-122.5 378.5zM256 494 q0 -168 85.5 -274.5t231.5 -106.5q90 0 172.5 44.5t124.5 110.5v449q-43 67 -125.5 113.5t-171.5 46.5q-146 0 -231.5 -107.5t-85.5 -275.5zM291 1432q0 22 14.5 36.5t36.5 14.5t37 -15l233 -227q15 -11 15 -29q0 -17 -12 -29t-29 -12q-18 0 -29 11l-248 211q-18 14 -18 39z " />
<glyph horiz-adv-x="1177" d="M96 494q0 235 122.5 377.5t318.5 142.5q100 0 187 -46.5t146 -129.5v84q0 31 23 53t55 22q31 0 53.5 -22t22.5 -53v-854q0 -31 -22.5 -53.5t-53.5 -22.5q-32 0 -55 22.5t-23 53.5v79q-58 -78 -145 -125t-188 -47q-196 0 -318.5 140.5t-122.5 378.5zM256 494 q0 -168 85.5 -274.5t231.5 -106.5q90 0 172.5 44.5t124.5 110.5v449q-43 67 -125.5 113.5t-171.5 46.5q-146 0 -231.5 -107.5t-85.5 -275.5zM393 1354q0 83 59 142.5t142 59.5t142 -59.5t59 -142.5t-59 -142t-142 -59t-142 59t-59 142zM475 1354q0 -50 35 -85.5t84 -35.5 q50 0 84.5 35.5t34.5 85.5q0 51 -34 86t-85 35q-50 0 -84.5 -35t-34.5 -86z" />
<glyph horiz-adv-x="1177" d="M96 494q0 235 122.5 377.5t318.5 142.5q100 0 187 -46.5t146 -129.5v84q0 31 23 53t55 22q31 0 53.5 -22t22.5 -53v-854q0 -31 -22.5 -53.5t-53.5 -22.5q-32 0 -55 22.5t-23 53.5v79q-58 -78 -145 -125t-188 -47q-196 0 -318.5 140.5t-122.5 378.5zM256 494 q0 -168 85.5 -274.5t231.5 -106.5q90 0 172.5 44.5t124.5 110.5v449q-43 67 -125.5 113.5t-171.5 46.5q-146 0 -231.5 -107.5t-85.5 -275.5zM276 1229q11 107 62 170t135 63q29 0 52.5 -8.5t43.5 -28t29.5 -32t28.5 -39.5q37 -52 55 -65q20 -15 43 -15q38 0 64 36t32 107 q1 18 14 29.5t31 11.5q20 0 34 -14.5t13 -34.5q-11 -108 -61.5 -170.5t-134.5 -62.5q-38 0 -70 18.5t-47 36.5t-39 53q-19 29 -28 41t-28 25.5t-40 13.5q-38 0 -65 -36t-33 -107q-2 -18 -14.5 -29.5t-30.5 -11.5q-20 0 -34 15t-12 34z" />
<glyph horiz-adv-x="1916" d="M96 494q0 235 122.5 377.5t318.5 142.5q99 0 184.5 -45.5t146.5 -128.5v82q0 31 23 53t55 22t55 -22t23 -53v-131q55 104 145.5 163.5t212.5 59.5q102 0 186 -41t139.5 -113t85.5 -168.5t30 -208.5q0 -39 -90 -39h-709q9 -145 104 -241.5t250 -96.5q148 0 264 91 q12 10 37 10q27 0 45.5 -18.5t18.5 -47.5q0 -30 -25 -49q-143 -117 -317 -117q-258 0 -377 222v-129q0 -31 -22.5 -53.5t-53.5 -22.5q-32 0 -55 22.5t-23 53.5v79q-58 -78 -145 -125t-188 -47q-196 0 -318.5 140.5t-122.5 378.5zM256 494q0 -168 85.5 -274.5t231.5 -106.5 q90 0 172.5 44.5t124.5 110.5v449q-43 67 -125.5 113.5t-171.5 46.5q-146 0 -231.5 -107.5t-85.5 -275.5zM1024 557h649q-2 58 -22 114t-58 105.5t-101.5 80t-143.5 30.5q-76 0 -138.5 -30t-101 -78.5t-60.5 -105.5t-24 -116z" />
<glyph horiz-adv-x="1128" d="M23 922q0 28 20.5 47.5t48.5 19.5h105v76q0 152 77.5 236.5t208.5 84.5q51 0 97 -12q47 -14 47 -61q0 -27 -16 -44.5t-46 -17.5q-6 0 -25.5 4.5t-33.5 4.5q-75 0 -115.5 -50.5t-40.5 -144.5v-76h142q28 0 47.5 -19.5t19.5 -47.5t-19.5 -48t-47.5 -20h-142v-786 q0 -31 -22.5 -53.5t-53.5 -22.5q-32 0 -54.5 22.5t-22.5 53.5v786h-105q-28 0 -48.5 20t-20.5 48zM733 207v1091q0 31 23 53.5t55 22.5q31 0 53.5 -22.5t22.5 -53.5v-1058q0 -58 25.5 -92.5t74.5 -34.5q24 0 47.5 9t30.5 9q29 0 47 -18t18 -47q0 -43 -38 -58 q-58 -33 -140 -33q-108 0 -163.5 60.5t-55.5 171.5z" />
<glyph horiz-adv-x="1708" d="M23 922q0 28 20.5 47.5t48.5 19.5h105v76q0 152 77.5 236.5t208.5 84.5q51 0 97 -12q47 -14 47 -61q0 -27 -16 -44.5t-46 -17.5q-6 0 -25.5 4.5t-33.5 4.5q-75 0 -115.5 -50.5t-40.5 -144.5v-76h142q28 0 47.5 -19.5t19.5 -47.5t-19.5 -48t-47.5 -20h-142v-786 q0 -31 -22.5 -53.5t-53.5 -22.5q-32 0 -54.5 22.5t-22.5 53.5v786h-105q-28 0 -48.5 20t-20.5 48zM602 922q0 27 21 47t49 20h104v76q0 151 78 236t209 85q49 0 96 -12q47 -14 47 -61q0 -28 -15.5 -45t-45.5 -17q-6 0 -26 4.5t-34 4.5q-75 0 -115 -50.5t-40 -144.5v-76h141 q28 0 48 -19.5t20 -47.5t-20 -48t-48 -20h-141v-786q0 -31 -22.5 -53.5t-53.5 -22.5q-32 0 -55 22.5t-23 53.5v786h-104q-28 0 -49 20t-21 48zM1313 207v1091q0 31 23 53.5t55 22.5q31 0 53 -22.5t22 -53.5v-1058q0 -58 26 -92.5t75 -34.5q24 0 47.5 9t30.5 9q29 0 47 -18 t18 -47q0 -42 -39 -58q-58 -33 -139 -33q-108 0 -163.5 60.5t-55.5 171.5z" />
<glyph horiz-adv-x="460" d="M127 1292q0 43 30.5 74t71.5 31q43 0 74 -31t31 -74q0 -42 -31 -72t-74 -30q-42 0 -72 30t-30 72zM154 68v854q0 31 22.5 53t54.5 22q31 0 53.5 -22t22.5 -53v-854q0 -31 -23 -53.5t-55 -22.5q-31 0 -53 22.5t-22 53.5z" />
<glyph horiz-adv-x="921" d="M154 68v854q0 31 22.5 53t54.5 22q31 0 53.5 -22t22.5 -53v-854q0 -31 -23 -53.5t-55 -22.5q-31 0 -53 22.5t-22 53.5zM203 1212q0 18 14 29l234 227q15 15 36 15q22 0 37 -14.5t15 -36.5q0 -24 -19 -39l-248 -211q-11 -11 -28 -11t-29 12t-12 29zM367 -332 q0 27 17.5 47.5t41.5 20.5q3 0 13.5 -2t21.5 -2q153 0 153 172v1018q0 31 23 53t55 22q31 0 53.5 -22t22.5 -53v-1018q0 -146 -75.5 -225.5t-215.5 -79.5q-17 0 -49 4q-25 2 -43 20.5t-18 44.5zM664 1212q0 18 14 29l233 227q15 15 37 15t36.5 -14.5t14.5 -36.5 q0 -25 -18 -39l-248 -211q-11 -11 -28 -11t-29 12t-12 29z" />
<glyph horiz-adv-x="1222" d="M154 68v954q0 155 107.5 259.5t283.5 104.5q147 0 252.5 -71t105.5 -187q0 -35 -11 -66t-24.5 -51.5t-41.5 -44.5t-44.5 -35.5t-50.5 -33.5q-45 -29 -68.5 -47t-45 -50t-21.5 -69q0 -27 13.5 -48t31 -34.5t53.5 -27t60.5 -20t72.5 -17.5q46 -11 72.5 -18t69.5 -21.5 t68.5 -28.5t57 -38t48.5 -51.5t29 -66t12 -84.5q0 -128 -99.5 -214.5t-281.5 -86.5q-117 0 -196 31.5t-148 91.5q-23 23 -23 49q0 28 19 47t45 19q24 0 41 -14q119 -99 262 -99q111 0 171 50.5t60 121.5q0 19 -4.5 36t-16.5 31t-22.5 24.5t-32 21t-35.5 17.5t-43 15.5 t-44 13t-48 13.5q-34 8 -54.5 13.5t-53 15.5t-53 18.5t-47.5 22t-44.5 27.5t-36 34t-29 42.5t-17.5 51t-7 60.5q0 45 15 82.5t44.5 68t54.5 49.5t65 44q33 23 46.5 33t35.5 29t30 37t8 38q0 65 -61.5 102t-140.5 37q-100 0 -168 -62t-68 -165v-954q0 -31 -22.5 -53.5 t-53.5 -22.5q-32 0 -54.5 22.5t-22.5 53.5z" />
<glyph horiz-adv-x="1128" d="M154 311v611q0 31 22.5 53t54.5 22q31 0 53.5 -22t22.5 -53v-564q0 -125 56.5 -176t164.5 -51q87 0 167.5 43.5t125.5 106.5v641q0 31 22.5 53t53.5 22q32 0 55 -22t23 -53v-895q0 -107 -36 -190.5t-99 -134.5t-143.5 -77t-174.5 -26q-203 0 -338 112q-26 19 -26 53 q0 28 19.5 48t45.5 20q23 0 41 -14q108 -92 258 -92q141 0 220 78.5t79 222.5v133q-62 -70 -155 -117t-197 -47q-315 0 -315 315zM539 1212q0 18 14 29l233 227q15 15 37 15t36.5 -14.5t14.5 -36.5q0 -25 -18 -39l-248 -211q-11 -11 -28 -11t-29 12t-12 29z" />
<glyph horiz-adv-x="1128" d="M154 311v611q0 31 22.5 53t54.5 22q31 0 53.5 -22t22.5 -53v-564q0 -125 56.5 -176t164.5 -51q87 0 167.5 43.5t125.5 106.5v641q0 31 22.5 53t53.5 22q32 0 55 -22t23 -53v-895q0 -107 -36 -190.5t-99 -134.5t-143.5 -77t-174.5 -26q-203 0 -338 112q-26 19 -26 53 q0 28 19.5 48t45.5 20q23 0 41 -14q108 -92 258 -92q141 0 220 78.5t79 222.5v133q-62 -70 -155 -117t-197 -47q-315 0 -315 315zM260 1296q0 38 28 66.5t66 28.5q39 0 67 -28t28 -67q0 -40 -27.5 -68t-67.5 -28q-38 0 -66 28t-28 68zM682 1296q0 38 28 66.5t68 28.5 q38 0 66 -28.5t28 -66.5q0 -40 -28 -68t-66 -28q-40 0 -68 28t-28 68z" />
<glyph horiz-adv-x="507" d="M90 682q0 468 256 860q17 27 51 27q26 0 44 -18.5t18 -43.5q0 -20 -6 -30q-98 -200 -146.5 -383.5t-48.5 -411.5t48 -411t145 -382q8 -13 8 -30q0 -26 -18 -45t-44 -19q-35 0 -51 29q-125 189 -190.5 408.5t-65.5 449.5z" />
<glyph horiz-adv-x="507" d="M47 -141q0 17 8 30q99 200 147 382.5t48 410.5t-48.5 411.5t-146.5 383.5q-8 13 -8 30q0 25 19 43.5t45 18.5q31 0 51 -27q256 -392 256 -860q0 -230 -65.5 -449.5t-190.5 -408.5q-19 -29 -51 -29q-26 0 -45 19t-19 45z" />
<glyph horiz-adv-x="497" d="M82 -137v1640q0 30 20 50t50 20h266q24 0 40.5 -16.5t16.5 -40.5q0 -23 -17 -39.5t-40 -16.5h-217v-1552h217q23 0 40 -16t17 -39q0 -24 -16.5 -41t-38.5 -17h-268q-29 0 -49.5 19.5t-20.5 48.5z" />
<glyph horiz-adv-x="497" d="M23 -147q0 23 17 39t40 16h217v1552h-217q-23 0 -40 16.5t-17 39.5q0 24 16.5 40.5t40.5 16.5h268q28 0 48 -20t20 -50v-1640q0 -29 -20 -48.5t-48 -19.5h-270q-22 0 -38.5 17t-16.5 41z" />
<glyph horiz-adv-x="532" d="M0 684q0 39 41 57q37 13 56.5 50.5t19.5 85.5v419q0 121 77.5 199t178.5 78h84q22 0 38.5 -16.5t16.5 -40.5q0 -23 -16.5 -39.5t-38.5 -16.5h-84q-56 0 -95.5 -46.5t-39.5 -117.5v-432q0 -139 -95 -180q95 -41 95 -180v-432q0 -70 39.5 -117t95.5 -47h84q22 0 38.5 -16 t16.5 -39q0 -24 -16.5 -41t-38.5 -17h-84q-102 0 -179 77t-77 198v422q0 48 -19.5 85t-56.5 50q-41 18 -41 57z" />
<glyph horiz-adv-x="532" d="M23 -147q0 23 16 39t39 16h82q56 0 95.5 47t39.5 117v432q0 140 94 180q-94 40 -94 180v432q0 71 -39.5 117.5t-95.5 46.5h-82q-23 0 -39 16.5t-16 39.5q0 25 16 41t39 16h82q103 0 179.5 -77.5t76.5 -199.5v-419q0 -48 20 -85.5t58 -50.5q38 -17 38 -57t-38 -57 q-38 -13 -58 -50t-20 -85v-422q0 -121 -76.5 -198t-179.5 -77h-82q-23 0 -39 16.5t-16 41.5z" />
<glyph horiz-adv-x="471" d="M123 1274q0 44 33.5 78t79.5 34q45 0 78.5 -33.5t33.5 -78.5q0 -46 -33 -79.5t-79 -33.5t-79.5 33.5t-33.5 79.5zM143 86l27 842q0 27 19 45t47 18t47 -17.5t20 -45.5l27 -842q2 -37 -26.5 -65.5t-67.5 -28.5t-66.5 27.5t-26.5 66.5z" />
<glyph horiz-adv-x="946" d="M63 297q0 35 7.5 68t18 58t31 51.5t36.5 43.5t44.5 40.5t44.5 35t48 33.5q39 28 52 37t42 34t40 41t21.5 41t10.5 51q0 23 -21 54q-6 12 -6 20q0 30 21 52t53 22q38 0 59 -35q43 -54 43 -125q0 -49 -15 -89t-49.5 -76t-58 -55t-73.5 -54q-43 -30 -65.5 -47.5t-51.5 -47 t-42 -61.5t-13 -70q0 -81 62 -134.5t177 -53.5q93 0 160.5 30t122.5 89q18 18 49 18q32 0 54 -21t22 -52q0 -37 -25 -56q-159 -162 -397 -162q-183 0 -292.5 91.5t-109.5 228.5zM375 1272q0 46 33 80t79 34t79.5 -34t33.5 -80q0 -44 -33.5 -77.5t-79.5 -33.5 q-45 0 -78.5 33.5t-33.5 77.5z" />
<glyph horiz-adv-x="899" d="M90 700q0 34 29 66l260 287q15 18 43 18q24 0 40.5 -16.5t16.5 -40.5q0 -20 -14 -37l-250 -277l252 -280q14 -18 14 -39q0 -23 -17 -40t-42 -17t-43 18l-260 293q-29 37 -29 65zM385 700q0 34 29 66l260 287q15 18 43 18q24 0 40.5 -16.5t16.5 -40.5q0 -20 -14 -37 l-250 -277l252 -280q14 -18 14 -39q0 -23 -17 -40t-42 -17t-43 18l-260 293q-29 37 -29 65z" />
<glyph horiz-adv-x="899" d="M123 381q0 21 14 39l252 280l-250 277q-14 17 -14 37q0 24 16.5 40.5t40.5 16.5q28 0 43 -18l260 -287q29 -32 29 -66q0 -28 -29 -65l-260 -293q-18 -18 -43 -18t-42 17t-17 40zM418 381q0 21 14 39l252 280l-250 277q-14 17 -14 37q0 24 16.5 40.5t40.5 16.5 q28 0 43 -18l260 -287q29 -32 29 -66q0 -28 -29 -65l-260 -293q-18 -18 -43 -18t-42 17t-17 40z" />
<glyph horiz-adv-x="604" d="M90 700q0 34 29 66l260 287q15 18 43 18q24 0 40.5 -16.5t16.5 -40.5q0 -20 -14 -37l-250 -277l252 -280q14 -18 14 -39q0 -23 -17 -40t-42 -17t-43 18l-260 293q-29 37 -29 65z" />
<glyph horiz-adv-x="604" d="M123 381q0 21 14 39l252 280l-250 277q-14 17 -14 37q0 24 16.5 40.5t40.5 16.5q28 0 43 -18l260 -287q29 -32 29 -66q0 -28 -29 -65l-260 -293q-18 -18 -43 -18t-42 17t-17 40z" />
<glyph horiz-adv-x="614" d="M53 698q0 28 20 48t48 20h373q28 0 47.5 -20t19.5 -48t-19.5 -47.5t-47.5 -19.5h-373q-28 0 -48 19.5t-20 47.5z" />
<glyph horiz-adv-x="1214" d="M53 698q0 28 20 48t48 20h973q28 0 47.5 -20t19.5 -48t-19.5 -47.5t-47.5 -19.5h-973q-28 0 -48 19.5t-20 47.5z" />
<glyph horiz-adv-x="1705" d="M53 698q0 28 20 48t48 20h1464q28 0 48 -20t20 -48t-20 -47.5t-48 -19.5h-1464q-28 0 -48 19.5t-20 47.5z" />
<glyph horiz-adv-x="471" d="M123 700q0 46 33.5 79.5t79.5 33.5t79 -33.5t33 -79.5q0 -44 -33 -77t-79 -33t-79.5 33t-33.5 77z" />
<glyph horiz-adv-x="733" d="M147 698q0 91 65.5 156.5t156.5 65.5t156 -65.5t65 -156.5q0 -89 -65 -154t-156 -65t-156.5 65t-65.5 154z" />
<glyph horiz-adv-x="1013" d="M96 694q0 202 115.5 345t304.5 169v97q0 25 18 42t44 17q25 0 42 -17t17 -42v-95q157 -11 270 -120q23 -23 23 -52t-20.5 -49t-49.5 -20q-27 0 -45 18q-77 77 -178 86v-760q102 9 176 86q19 19 47 19q29 0 49.5 -20.5t20.5 -49.5q0 -32 -23 -51q-114 -110 -270 -121v-131 q0 -25 -17 -42t-42 -17q-26 0 -44 17t-18 42v133q-189 26 -304.5 169t-115.5 347zM256 694q0 -143 70 -245.5t190 -129.5v748q-120 -27 -190 -129t-70 -244z" />
<glyph d="M68 956q0 80 19 152.5t56.5 134t103 98.5t150.5 37q84 0 149.5 -37t103.5 -98.5t57.5 -134.5t19.5 -152q0 -63 -11.5 -122.5t-37.5 -114.5t-64 -96.5t-93.5 -66t-123.5 -24.5t-124.5 24.5t-93.5 66t-62.5 97t-37 114.5t-11.5 122zM193 956q0 -66 11 -122t34 -102 t63.5 -72.5t95.5 -26.5q71 0 118.5 47t66 116.5t18.5 159.5q0 65 -11 120.5t-34 102t-63.5 73t-94.5 26.5q-55 0 -95.5 -26.5t-63.5 -73t-34 -102t-11 -120.5z" />
<glyph horiz-adv-x="468" d="M31 1135q0 20 16 36l180 183q20 20 49 20t49.5 -20t20.5 -49v-705q0 -25 -17.5 -43t-43.5 -18t-44 18t-18 43v606l-102 -108q-17 -17 -39 -17q-21 0 -36 16t-15 38z" />
<glyph horiz-adv-x="704" d="M33 608q0 30 26 49q242 168 346.5 273.5t104.5 197.5q0 73 -51 111.5t-123 38.5q-115 0 -201 -76q-14 -14 -33 -14q-22 0 -36.5 15.5t-14.5 37.5t17 39q107 98 272 98q122 0 207.5 -62t85.5 -179q0 -115 -103 -228.5t-309 -261.5h375q20 0 35.5 -14.5t15.5 -34.5 q0 -21 -15 -36t-36 -15h-502q-25 0 -43 17.5t-18 43.5z" />
<glyph horiz-adv-x="753" d="M55 674q0 21 15.5 36t38.5 15q20 0 32 -12q90 -80 207 -80q89 0 140 38.5t51 104.5q0 74 -58 108t-155 34h-41q-21 0 -36.5 14t-15.5 35q0 20 15.5 34.5t36.5 14.5h39q200 0 200 131q0 61 -52 96t-130 35q-112 0 -195 -74q-13 -10 -32 -10q-20 0 -34.5 14.5t-14.5 34.5 q0 21 18 39q115 96 268 96q132 0 213.5 -59.5t81.5 -159.5q0 -81 -55.5 -129.5t-126.5 -60.5q43 -3 86 -24t77 -67.5t34 -107.5q0 -105 -84.5 -171.5t-225.5 -66.5q-172 0 -280 101q-17 17 -17 41z" />
<glyph horiz-adv-x="724" d="M41 811q0 13 10 33l328 483q29 47 88 47q44 0 75 -31.5t31 -74.5v-416h78q20 0 34.5 -14.5t14.5 -34.5q0 -22 -14.5 -36.5t-34.5 -14.5h-78v-152q0 -26 -17 -43.5t-42 -17.5q-26 0 -43.5 17.5t-17.5 43.5v152h-353q-25 0 -42 17t-17 42zM174 852h279v405z" />
<glyph horiz-adv-x="745" d="M82 672q0 23 15 39t38 16q19 0 37 -14q80 -80 201 -80q83 0 135.5 48t52.5 120q0 77 -50.5 123.5t-133.5 46.5q-96 0 -170 -62q-19 -16 -45 -16q-27 0 -47.5 20.5t-20.5 47.5v315q0 43 23.5 66.5t66.5 23.5h402q22 0 36.5 -14.5t14.5 -36.5q0 -20 -14.5 -34.5 t-36.5 -14.5h-369v-275q78 74 197 74q113 0 191.5 -68.5t78.5 -191.5t-88 -198t-223 -75q-172 0 -273 101q-18 15 -18 39z" />
<glyph d="M78 954q0 119 38 213t120 152.5t198 58.5q119 0 205 -67q23 -15 23 -41q0 -22 -14.5 -37.5t-35.5 -15.5q-17 0 -30 10q-64 51 -148 51q-77 0 -131.5 -44.5t-78 -110t-23.5 -144.5v-35q36 48 100 86.5t135 38.5q121 0 201 -70t80 -196q0 -114 -83.5 -192.5t-217.5 -78.5 q-89 0 -155.5 33.5t-105.5 93t-58 133.5t-19 162zM205 856q3 -41 16 -79t36.5 -71t62.5 -53t90 -20q85 0 134.5 51.5t49.5 114.5q0 84 -53.5 128t-134.5 44q-58 0 -112.5 -31t-88.5 -84z" />
<glyph horiz-adv-x="643" d="M8 1315q0 21 15 36t36 15h506q23 0 39.5 -16t16.5 -39q0 -13 -7 -23l-329 -713q-16 -36 -58 -36q-25 0 -43 17.5t-18 43.5q0 15 6 27l303 639h-416q-20 0 -35.5 14.5t-15.5 34.5z" />
<glyph d="M84 756q0 78 59.5 134.5t147.5 78.5q-84 21 -138.5 70t-54.5 124q0 72 46 122.5t111.5 71.5t141.5 21t141.5 -21t111.5 -71.5t46 -122.5q0 -75 -54 -124.5t-138 -69.5q88 -22 147.5 -78.5t59.5 -134.5q0 -105 -91 -164.5t-223 -59.5q-134 0 -223.5 58.5t-89.5 165.5z M205 766q0 -62 55.5 -99.5t136.5 -37.5q80 0 135.5 37.5t55.5 99.5q0 39 -22.5 70t-56.5 48.5t-62 27t-50 12.5q-22 -3 -50 -12.5t-62 -27t-57 -48.5t-23 -70zM219 1149q0 -35 20.5 -62t53.5 -42.5t56.5 -23t47.5 -11.5q24 4 47 11.5t56 23t53 42.5t20 62q0 61 -50 96 t-126 35q-78 0 -128 -35t-50 -96z" />
<glyph d="M78 1108q0 112 83.5 191t219.5 79q88 0 154 -34t105 -93.5t58 -134t19 -162.5q0 -87 -22.5 -162.5t-65.5 -134t-112.5 -92t-156.5 -33.5q-119 0 -204 66q-25 18 -25 43q0 22 15.5 37.5t37.5 15.5q16 0 29 -10q60 -51 147 -51q112 0 172 87t62 214v33q-35 -49 -99 -87 t-135 -38q-122 0 -202 69.5t-80 196.5zM201 1112q0 -84 53.5 -128t134.5 -44q59 0 113.5 30.5t87.5 84.5q-3 41 -16 78.5t-36 71t-62 53.5t-89 20q-86 0 -136 -51.5t-50 -114.5z" />
<glyph d="M68 410q0 63 11.5 122t37 114t62.5 95.5t93.5 65t124.5 24.5t123.5 -24.5t93.5 -65t64 -95.5t37.5 -114t11.5 -122t-11.5 -122.5t-37.5 -114.5t-64 -96.5t-93.5 -66t-123.5 -24.5t-124.5 24.5t-93.5 66t-62.5 97t-37 114.5t-11.5 122zM193 410q0 -66 11 -122t34 -102.5 t63.5 -73t95.5 -26.5q54 0 94.5 26.5t63.5 73t34 102.5t11 122q0 89 -18.5 158t-66 116t-118.5 47q-55 0 -95.5 -26.5t-63.5 -72.5t-34 -101.5t-11 -120.5z" />
<glyph horiz-adv-x="468" d="M31 588q0 21 16 37l180 182q20 20 49 20t49.5 -20t20.5 -49v-705q0 -25 -17.5 -43t-43.5 -18t-44 18t-18 43v606l-102 -108q-16 -16 -39 -16q-22 0 -36.5 15.5t-14.5 37.5z" />
<glyph horiz-adv-x="704" d="M33 61q0 31 26 50q242 168 346.5 273.5t104.5 197.5q0 73 -51 111t-123 38q-115 0 -201 -76q-14 -14 -33 -14q-22 0 -36.5 15.5t-14.5 37.5t17 39q107 98 272 98q122 0 207.5 -62t85.5 -179q0 -115 -103 -228.5t-309 -261.5h375q20 0 35.5 -14.5t15.5 -34.5 q0 -21 -15 -36t-36 -15h-502q-25 0 -43 17.5t-18 43.5z" />
<glyph horiz-adv-x="753" d="M55 127q0 21 15.5 36t38.5 15q20 0 32 -12q90 -80 207 -80q89 0 140 38.5t51 104.5q0 74 -58 108t-155 34h-41q-21 0 -36.5 14t-15.5 35q0 20 15.5 34.5t36.5 14.5h39q200 0 200 131q0 61 -52 96t-130 35q-112 0 -195 -74q-13 -10 -32 -10q-20 0 -34.5 14.5t-14.5 34.5 q0 21 18 39q115 96 268 96q132 0 213.5 -59.5t81.5 -159.5q0 -81 -55.5 -129.5t-126.5 -60.5q43 -3 86 -24t77 -67.5t34 -107.5q0 -105 -84.5 -171t-225.5 -66q-173 0 -280 100q-17 17 -17 41z" />
<glyph horiz-adv-x="724" d="M41 264q0 13 10 33l328 483q29 47 88 47q44 0 75 -31.5t31 -74.5v-416h78q20 0 34.5 -14.5t14.5 -34.5q0 -22 -14.5 -36.5t-34.5 -14.5h-78v-152q0 -26 -17 -43.5t-42 -17.5q-26 0 -43.5 17.5t-17.5 43.5v152h-353q-25 0 -42 17t-17 42zM174 305h279v406z" />
<glyph horiz-adv-x="745" d="M82 125q0 23 15 39t38 16q19 0 37 -14q80 -80 201 -80q83 0 135.5 48t52.5 120q0 77 -50.5 123.5t-133.5 46.5q-96 0 -170 -62q-19 -16 -45 -16q-27 0 -47.5 20.5t-20.5 47.5v315q0 43 23.5 66.5t66.5 23.5h402q22 0 36.5 -14.5t14.5 -36.5q0 -20 -14.5 -34.5 t-36.5 -14.5h-369v-275q78 74 197 74q113 0 191.5 -68.5t78.5 -191.5t-87.5 -197.5t-223.5 -74.5q-173 0 -273 100q-18 15 -18 39z" />
<glyph d="M78 408q0 183 92 303t264 120q119 0 205 -67q23 -15 23 -41q0 -22 -14.5 -37.5t-35.5 -15.5q-17 0 -30 10q-64 51 -148 51q-77 0 -131.5 -44.5t-78 -110t-23.5 -144.5v-35q36 48 100 86.5t135 38.5q121 0 201 -70t80 -196q0 -113 -83 -191.5t-218 -78.5 q-89 0 -155.5 33.5t-105.5 93t-58 133.5t-19 162zM205 309q3 -41 16 -79t36.5 -71t62.5 -53t90 -20q85 0 134.5 51.5t49.5 114.5q0 84 -53.5 128t-134.5 44q-58 0 -112.5 -31t-88.5 -84z" />
<glyph horiz-adv-x="643" d="M8 768q0 21 15 36t36 15h506q23 0 39.5 -16t16.5 -39q0 -12 -7 -23l-329 -712q-16 -37 -58 -37q-25 0 -43 17.5t-18 43.5q0 15 6 27l303 639h-416q-20 0 -35.5 14.5t-15.5 34.5z" />
<glyph d="M84 209q0 78 59.5 134.5t147.5 78.5q-84 21 -138.5 70t-54.5 124q0 72 46 122.5t111.5 71.5t141.5 21t141.5 -21t111.5 -71.5t46 -122.5q0 -75 -54 -124.5t-138 -69.5q88 -22 147.5 -78.5t59.5 -134.5q0 -105 -91 -164t-223 -59q-134 0 -223.5 58t-89.5 165zM205 219 q0 -62 55.5 -99.5t136.5 -37.5q80 0 135.5 37.5t55.5 99.5q0 39 -22.5 70t-56.5 48.5t-62 27t-50 12.5q-22 -3 -50 -12.5t-62 -27t-57 -48.5t-23 -70zM219 602q0 -35 20.5 -62t53.5 -42.5t56.5 -23t47.5 -11.5q24 4 47 11.5t56 23t53 42.5t20 62q0 61 -50 96t-126 35 q-78 0 -128 -35t-50 -96z" />
<glyph d="M78 561q0 112 83.5 191t219.5 79q88 0 154 -33.5t105 -93t58 -134t19 -162.5q0 -87 -22.5 -162.5t-65.5 -134t-112.5 -92t-156.5 -33.5q-120 0 -204 65q-25 18 -25 43q0 22 15.5 37.5t37.5 15.5q16 0 29 -10q60 -51 147 -51q112 0 172 87t62 214v33q-35 -49 -99 -87 t-135 -38q-122 0 -202 69.5t-80 196.5zM201 565q0 -84 53.5 -128t134.5 -44q59 0 113.5 30.5t87.5 84.5q-3 41 -16 78.5t-36 71t-62 53.5t-89 20q-86 0 -136 -51.5t-50 -114.5z" />
</font>
</defs>
</svg>
